M48
; DRILL file {KiCad (5.1.12)-1} date 12/10/21 02:29:58
; FORMAT={-:-/ absolute / inch / decimal}
; #@! TF.CreationDate,2021-12-10T02:29:58-05:00
; #@! TF.GenerationSoftware,Kicad,Pcbnew,(5.1.12)-1
; #@! TF.FileFunction,Plated,1,2,PTH
FMAT,2
INCH
T1C0.0157
T2C0.0276
T3C0.0315
T4C0.0394
T5C0.1200
%
G90
G05
T1
X3.975Y-4.95
X3.975Y-5.45
X4.0Y-4.8
X4.025Y-4.15
X4.05Y-4.175
X4.275Y-5.175
X4.3Y-5.475
X4.325Y-5.2
X4.325Y-5.625
X4.375Y-5.075
X4.4Y-5.425
X4.525Y-5.125
X4.525Y-5.525
X4.575Y-5.225
X4.6Y-5.5
X4.65Y-4.95
X4.65Y-5.575
X4.7Y-5.45
X4.775Y-4.9
X4.8Y-5.4
X4.85Y-4.75
X4.875Y-4.45
X4.975Y-2.925
X4.975Y-3.525
X4.975Y-5.55
X5.0Y-4.6
X5.0Y-5.6
X5.025Y-4.925
X5.025Y-5.425
X5.05Y-2.8
X5.05Y-5.475
X5.075Y-2.825
X5.075Y-5.175
X5.075Y-5.35
X5.1Y-4.8
X5.1Y-5.375
X5.125Y-5.425
X5.175Y-2.6
X5.175Y-5.025
X5.2Y-3.4
X5.2Y-5.475
X5.225Y-3.175
X5.225Y-4.9
X5.25Y-2.625
X5.25Y-5.65
X5.375Y-4.6
X5.375Y-5.2
X5.45Y-4.45
X5.475Y-3.4
X5.475Y-4.875
X5.5Y-5.05
X5.525Y-4.0
X5.525Y-4.25
X5.575Y-2.85
X5.575Y-3.675
X5.575Y-4.275
X5.6Y-5.6
X5.625Y-2.8
X5.625Y-4.3
X5.675Y-2.125
X5.675Y-2.6
X5.675Y-3.4
X5.675Y-4.575
X5.7Y-5.6
X5.725Y-2.825
X5.725Y-3.55
X5.725Y-4.75
X5.775Y-3.1
X5.875Y-4.175
X5.9Y-3.25
X5.9Y-5.625
X5.925Y-4.0
X5.925Y-4.575
X5.925Y-4.8
X6.0Y-4.7
X6.025Y-5.2
X6.05Y-2.5
X6.05Y-2.55
X6.05Y-3.25
X6.05Y-4.75
X6.075Y-4.25
X6.1Y-3.475
X6.1Y-3.675
X6.225Y-3.85
X6.225Y-3.9
X6.275Y-5.05
X6.275Y-5.2
X6.375Y-3.9
X6.375Y-4.775
X6.375Y-5.175
X6.475Y-4.3
X6.475Y-5.15
X6.5Y-3.925
X6.525Y-5.1
X6.575Y-3.975
X6.575Y-4.3
X6.575Y-4.875
X6.575Y-5.125
X6.625Y-5.05
X6.675Y-3.85
X6.675Y-4.3
X6.675Y-5.075
X6.775Y-3.85
X6.775Y-4.0
X6.775Y-4.3
X6.775Y-5.05
X6.825Y-5.075
X6.875Y-3.85
X6.875Y-4.05
X6.875Y-4.3
X6.875Y-5.1
X6.925Y-5.125
X6.975Y-3.85
X6.975Y-4.275
X6.975Y-4.825
X7.025Y-5.15
X7.05Y-4.875
X7.075Y-3.85
X7.075Y-4.025
X7.075Y-4.3
X7.075Y-4.9
X7.125Y-5.175
X7.175Y-3.85
X7.175Y-4.3
X7.175Y-5.525
X7.225Y-5.2
X7.275Y-5.5
X7.3Y-3.2375
X7.325Y-5.475
X7.35Y-3.2625
X7.375Y-3.4125
X7.375Y-5.45
X7.4Y-2.325
X7.4Y-3.2875
X7.4Y-5.625
X7.425Y-3.3875
X7.425Y-5.425
X7.45Y-3.3125
X7.475Y-3.3625
X7.475Y-5.4
X7.5Y-3.3375
X7.5Y-5.6
X7.525Y-2.15
X7.525Y-5.375
X7.55Y-2.125
X7.55Y-5.6
X7.575Y-5.35
X7.65Y-4.0
X7.65Y-4.05
X7.675Y-3.85
X7.675Y-3.975
X7.675Y-4.025
X7.8Y-5.475
T2
X4.1528Y-2.9065
X4.1528Y-2.9695
X4.2Y-2.875
X4.2Y-2.938
X4.2Y-3.001
T3
X4.225Y-4.375
X4.225Y-4.675
X4.225Y-4.875
X4.225Y-5.275
X4.325Y-4.375
X4.325Y-4.675
X4.325Y-4.875
X4.325Y-5.275
X4.425Y-4.375
X4.425Y-4.675
X4.425Y-4.875
X4.425Y-5.275
X4.45Y-2.5391
X4.45Y-2.6375
X4.525Y-4.375
X4.525Y-4.675
X4.625Y-4.375
X4.625Y-4.675
X4.725Y-4.375
X4.725Y-4.675
X4.825Y-4.375
X4.825Y-4.675
X4.925Y-3.3516
X4.925Y-3.45
X4.925Y-3.95
X4.925Y-4.0484
X4.925Y-4.375
X4.925Y-4.675
X5.125Y-3.175
X5.125Y-3.475
X5.125Y-3.775
X5.125Y-3.9719
X5.125Y-4.375
X5.125Y-4.675
X5.325Y-2.525
X5.325Y-2.925
X5.325Y-3.175
X5.325Y-3.475
X5.325Y-3.775
X5.325Y-4.075
X5.325Y-4.375
X5.325Y-4.675
X5.325Y-4.975
X5.325Y-5.275
X5.425Y-2.525
X5.425Y-2.925
X5.425Y-3.175
X5.425Y-3.475
X5.425Y-3.775
X5.425Y-4.075
X5.425Y-4.375
X5.425Y-4.675
X5.425Y-4.975
X5.425Y-5.275
X5.525Y-2.525
X5.525Y-2.925
X5.525Y-3.175
X5.525Y-3.475
X5.525Y-3.775
X5.525Y-4.075
X5.525Y-4.375
X5.525Y-4.675
X5.525Y-4.975
X5.525Y-5.275
X5.625Y-2.525
X5.625Y-2.925
X5.625Y-3.175
X5.625Y-3.475
X5.625Y-3.775
X5.625Y-4.075
X5.625Y-4.375
X5.625Y-4.675
X5.625Y-4.975
X5.625Y-5.275
X5.725Y-2.525
X5.725Y-2.925
X5.725Y-3.175
X5.725Y-3.475
X5.725Y-3.775
X5.725Y-4.075
X5.725Y-4.375
X5.725Y-4.675
X5.725Y-4.975
X5.725Y-5.275
X5.825Y-2.525
X5.825Y-2.925
X5.825Y-3.175
X5.825Y-3.475
X5.825Y-3.775
X5.825Y-4.075
X5.825Y-4.375
X5.825Y-4.675
X5.825Y-4.975
X5.825Y-5.275
X5.925Y-2.525
X5.925Y-2.925
X5.925Y-3.175
X5.925Y-3.475
X5.925Y-3.775
X5.925Y-4.075
X5.925Y-4.375
X5.925Y-4.675
X5.925Y-4.975
X5.925Y-5.275
X6.125Y-2.625
X6.125Y-2.925
X6.125Y-3.175
X6.125Y-3.3719
X6.125Y-3.775
X6.125Y-3.9719
X6.125Y-4.675
X6.125Y-4.8719
X6.325Y-3.175
X6.325Y-3.475
X6.325Y-3.775
X6.325Y-4.375
X6.325Y-4.675
X6.325Y-5.275
X6.425Y-3.175
X6.425Y-3.475
X6.425Y-3.775
X6.425Y-4.375
X6.425Y-4.675
X6.425Y-5.275
X6.525Y-2.525
X6.525Y-2.925
X6.525Y-3.175
X6.525Y-3.475
X6.525Y-3.775
X6.525Y-4.375
X6.525Y-4.675
X6.525Y-5.275
X6.625Y-2.525
X6.625Y-2.925
X6.625Y-3.175
X6.625Y-3.475
X6.625Y-3.775
X6.625Y-4.375
X6.625Y-4.675
X6.625Y-5.275
X6.725Y-2.525
X6.725Y-2.925
X6.725Y-3.175
X6.725Y-3.475
X6.725Y-3.775
X6.725Y-4.375
X6.725Y-4.675
X6.725Y-5.275
X6.825Y-2.525
X6.825Y-2.925
X6.825Y-3.175
X6.825Y-3.475
X6.825Y-3.775
X6.825Y-4.375
X6.825Y-4.675
X6.825Y-5.275
X6.925Y-2.525
X6.925Y-2.925
X6.925Y-3.175
X6.925Y-3.475
X6.925Y-3.775
X6.925Y-4.375
X6.925Y-4.675
X6.925Y-5.275
X7.025Y-2.525
X7.025Y-2.925
X7.025Y-3.175
X7.025Y-3.475
X7.025Y-3.775
X7.025Y-4.375
X7.025Y-4.675
X7.025Y-5.275
X7.125Y-2.525
X7.125Y-2.925
X7.125Y-3.175
X7.125Y-3.475
X7.125Y-3.775
X7.125Y-4.375
X7.125Y-4.675
X7.125Y-5.275
X7.225Y-2.525
X7.225Y-2.925
X7.225Y-3.175
X7.225Y-3.475
X7.225Y-3.775
X7.225Y-4.375
X7.225Y-4.675
X7.225Y-5.275
X7.325Y-3.775
X7.325Y-4.375
X7.325Y-4.675
X7.325Y-5.275
X7.425Y-3.775
X7.425Y-4.375
X7.425Y-4.675
X7.425Y-5.275
X7.525Y-3.775
X7.525Y-4.375
X7.525Y-4.675
X7.525Y-5.275
X7.625Y-3.775
X7.625Y-4.375
X7.625Y-4.675
X7.625Y-5.275
T4
X4.0Y-5.75
X4.05Y-2.275
X4.1Y-5.75
X4.15Y-2.275
X4.2Y-5.75
X4.25Y-2.275
X4.3Y-5.75
X4.35Y-2.275
X4.4Y-5.75
X4.45Y-2.275
X4.5Y-5.75
X4.55Y-2.275
X4.6Y-5.75
X4.7Y-5.75
X4.725Y-2.625
X4.725Y-2.825
X4.725Y-3.025
X4.725Y-4.975
X4.725Y-5.075
X4.725Y-5.175
X4.725Y-5.275
X4.8Y-5.75
X4.825Y-2.625
X4.825Y-2.825
X4.825Y-3.025
X4.825Y-4.975
X4.825Y-5.075
X4.825Y-5.175
X4.825Y-5.275
X4.9Y-5.75
X4.925Y-2.275
X4.925Y-2.375
X4.925Y-2.825
X4.925Y-3.025
X4.925Y-3.6
X4.925Y-3.7
X4.925Y-3.8
X4.925Y-4.975
X4.925Y-5.075
X4.925Y-5.175
X4.925Y-5.275
X5.0Y-5.75
X5.025Y-2.275
X5.025Y-2.375
X5.1Y-5.75
X5.125Y-2.275
X5.125Y-2.375
X5.2Y-5.75
X5.225Y-2.275
X5.225Y-2.375
X5.3Y-5.75
X5.325Y-2.275
X5.325Y-2.375
X5.4Y-5.75
X5.425Y-2.275
X5.425Y-2.375
X5.5Y-5.75
X5.525Y-2.275
X5.525Y-2.375
X5.6Y-5.75
X5.625Y-2.275
X5.625Y-2.375
X5.7Y-5.75
X5.725Y-2.275
X5.725Y-2.375
X5.8Y-5.75
X5.825Y-2.275
X5.825Y-2.375
X5.9Y-5.75
X5.925Y-2.275
X5.925Y-2.375
X6.0Y-5.75
X6.025Y-2.275
X6.025Y-2.375
X6.1Y-5.75
X6.125Y-2.275
X6.125Y-2.375
X6.2Y-5.75
X6.225Y-2.275
X6.225Y-2.375
X6.3Y-5.75
X6.325Y-2.275
X6.325Y-2.375
X6.325Y-3.625
X6.325Y-4.525
X6.4Y-5.75
X6.425Y-2.275
X6.425Y-2.375
X6.425Y-3.625
X6.425Y-4.525
X6.5Y-5.75
X6.525Y-2.275
X6.525Y-2.375
X6.525Y-3.625
X6.525Y-4.525
X6.6Y-5.75
X6.625Y-2.275
X6.625Y-2.375
X6.625Y-3.625
X6.625Y-4.525
X6.7Y-5.75
X6.725Y-2.275
X6.725Y-2.375
X6.725Y-3.625
X6.725Y-4.525
X6.8Y-5.75
X6.825Y-2.275
X6.825Y-2.375
X6.825Y-3.625
X6.825Y-4.525
X6.9Y-5.75
X6.925Y-2.275
X6.925Y-2.375
X6.925Y-3.625
X6.925Y-4.525
X7.0Y-5.75
X7.025Y-2.275
X7.025Y-2.375
X7.025Y-3.625
X7.025Y-4.525
X7.1Y-5.75
X7.125Y-2.275
X7.125Y-2.375
X7.125Y-3.625
X7.125Y-4.525
X7.2Y-5.75
X7.225Y-2.275
X7.225Y-2.375
X7.3Y-5.75
X7.325Y-2.275
X7.325Y-2.375
X7.4Y-5.75
X7.5Y-5.75
X7.6Y-5.75
X7.7Y-5.75
X7.8Y-5.75
T5
X4.125Y-2.575
X4.125Y-5.575
X4.269Y-3.7
X7.675Y-2.575
X7.675Y-5.575
T2
G00X3.9776Y-2.7943
M15
G01X4.0248Y-2.7943
M16
G05
G00X3.9776Y-3.0817
M15
G01X4.0248Y-3.0817
M16
G05
T0
M30
