G04 #@! TF.GenerationSoftware,KiCad,Pcbnew,(5.1.12)-1*
G04 #@! TF.CreationDate,2021-12-10T02:29:55-05:00*
G04 #@! TF.ProjectId,1802-Mini-Super-Elf-Bus,31383032-2d4d-4696-9e69-2d5375706572,rev?*
G04 #@! TF.SameCoordinates,Original*
G04 #@! TF.FileFunction,Copper,L1,Top*
G04 #@! TF.FilePolarity,Positive*
%FSLAX46Y46*%
G04 Gerber Fmt 4.6, Leading zero omitted, Abs format (unit mm)*
G04 Created by KiCad (PCBNEW (5.1.12)-1) date 2021-12-10 02:29:55*
%MOMM*%
%LPD*%
G01*
G04 APERTURE LIST*
G04 #@! TA.AperFunction,ComponentPad*
%ADD10O,2.700000X1.700000*%
G04 #@! TD*
G04 #@! TA.AperFunction,ComponentPad*
%ADD11C,0.949960*%
G04 #@! TD*
G04 #@! TA.AperFunction,ComponentPad*
%ADD12O,1.600000X1.600000*%
G04 #@! TD*
G04 #@! TA.AperFunction,ComponentPad*
%ADD13R,1.600000X1.600000*%
G04 #@! TD*
G04 #@! TA.AperFunction,ComponentPad*
%ADD14O,1.700000X1.700000*%
G04 #@! TD*
G04 #@! TA.AperFunction,ComponentPad*
%ADD15R,1.700000X1.700000*%
G04 #@! TD*
G04 #@! TA.AperFunction,ComponentPad*
%ADD16C,1.600000*%
G04 #@! TD*
G04 #@! TA.AperFunction,ComponentPad*
%ADD17C,5.000000*%
G04 #@! TD*
G04 #@! TA.AperFunction,ViaPad*
%ADD18C,3.810000*%
G04 #@! TD*
G04 #@! TA.AperFunction,ViaPad*
%ADD19C,0.600000*%
G04 #@! TD*
G04 #@! TA.AperFunction,Conductor*
%ADD20C,0.500009*%
G04 #@! TD*
G04 #@! TA.AperFunction,Conductor*
%ADD21C,0.250000*%
G04 #@! TD*
G04 #@! TA.AperFunction,Conductor*
%ADD22C,0.750013*%
G04 #@! TD*
G04 #@! TA.AperFunction,Conductor*
%ADD23C,0.381000*%
G04 #@! TD*
G04 #@! TA.AperFunction,Conductor*
%ADD24C,0.100000*%
G04 #@! TD*
G04 APERTURE END LIST*
D10*
X101630000Y-70975000D03*
X101630000Y-78275000D03*
D11*
X106680000Y-76225000D03*
X106680000Y-74625000D03*
X106680000Y-73025000D03*
X105480000Y-73825000D03*
X105480000Y-75425000D03*
D12*
X135255000Y-126365000D03*
X150495000Y-133985000D03*
X137795000Y-126365000D03*
X147955000Y-133985000D03*
X140335000Y-126365000D03*
X145415000Y-133985000D03*
X142875000Y-126365000D03*
X142875000Y-133985000D03*
X145415000Y-126365000D03*
X140335000Y-133985000D03*
X147955000Y-126365000D03*
X137795000Y-133985000D03*
X150495000Y-126365000D03*
D13*
X135255000Y-133985000D03*
D12*
X135255000Y-95885000D03*
X150495000Y-103505000D03*
X137795000Y-95885000D03*
X147955000Y-103505000D03*
X140335000Y-95885000D03*
X145415000Y-103505000D03*
X142875000Y-95885000D03*
X142875000Y-103505000D03*
X145415000Y-95885000D03*
X140335000Y-103505000D03*
X147955000Y-95885000D03*
X137795000Y-103505000D03*
X150495000Y-95885000D03*
D13*
X135255000Y-103505000D03*
D14*
X186055000Y-57785000D03*
X186055000Y-60325000D03*
X183515000Y-57785000D03*
X183515000Y-60325000D03*
X180975000Y-57785000D03*
X180975000Y-60325000D03*
X178435000Y-57785000D03*
X178435000Y-60325000D03*
X175895000Y-57785000D03*
X175895000Y-60325000D03*
X173355000Y-57785000D03*
X173355000Y-60325000D03*
X170815000Y-57785000D03*
X170815000Y-60325000D03*
X168275000Y-57785000D03*
X168275000Y-60325000D03*
X165735000Y-57785000D03*
X165735000Y-60325000D03*
X163195000Y-57785000D03*
X163195000Y-60325000D03*
X160655000Y-57785000D03*
X160655000Y-60325000D03*
X158115000Y-57785000D03*
X158115000Y-60325000D03*
X155575000Y-57785000D03*
X155575000Y-60325000D03*
X153035000Y-57785000D03*
X153035000Y-60325000D03*
X150495000Y-57785000D03*
X150495000Y-60325000D03*
X147955000Y-57785000D03*
X147955000Y-60325000D03*
X145415000Y-57785000D03*
X145415000Y-60325000D03*
X142875000Y-57785000D03*
X142875000Y-60325000D03*
X140335000Y-57785000D03*
X140335000Y-60325000D03*
X137795000Y-57785000D03*
X137795000Y-60325000D03*
X135255000Y-57785000D03*
X135255000Y-60325000D03*
X132715000Y-57785000D03*
X132715000Y-60325000D03*
X130175000Y-57785000D03*
X130175000Y-60325000D03*
X127635000Y-57785000D03*
X127635000Y-60325000D03*
X125095000Y-57785000D03*
D15*
X125095000Y-60325000D03*
D14*
X125095000Y-91440000D03*
X125095000Y-93980000D03*
D15*
X125095000Y-96520000D03*
D12*
X107315000Y-111125000D03*
X125095000Y-118745000D03*
X109855000Y-111125000D03*
X122555000Y-118745000D03*
X112395000Y-111125000D03*
X120015000Y-118745000D03*
X114935000Y-111125000D03*
X117475000Y-118745000D03*
X117475000Y-111125000D03*
X114935000Y-118745000D03*
X120015000Y-111125000D03*
X112395000Y-118745000D03*
X122555000Y-111125000D03*
X109855000Y-118745000D03*
X125095000Y-111125000D03*
D13*
X107315000Y-118745000D03*
X160655000Y-111125000D03*
D12*
X193675000Y-95885000D03*
X163195000Y-111125000D03*
X191135000Y-95885000D03*
X165735000Y-111125000D03*
X188595000Y-95885000D03*
X168275000Y-111125000D03*
X186055000Y-95885000D03*
X170815000Y-111125000D03*
X183515000Y-95885000D03*
X173355000Y-111125000D03*
X180975000Y-95885000D03*
X175895000Y-111125000D03*
X178435000Y-95885000D03*
X178435000Y-111125000D03*
X175895000Y-95885000D03*
X180975000Y-111125000D03*
X173355000Y-95885000D03*
X183515000Y-111125000D03*
X170815000Y-95885000D03*
X186055000Y-111125000D03*
X168275000Y-95885000D03*
X188595000Y-111125000D03*
X165735000Y-95885000D03*
X191135000Y-111125000D03*
X163195000Y-95885000D03*
X193675000Y-111125000D03*
X160655000Y-95885000D03*
X135255000Y-80645000D03*
X150495000Y-88265000D03*
X137795000Y-80645000D03*
X147955000Y-88265000D03*
X140335000Y-80645000D03*
X145415000Y-88265000D03*
X142875000Y-80645000D03*
X142875000Y-88265000D03*
X145415000Y-80645000D03*
X140335000Y-88265000D03*
X147955000Y-80645000D03*
X137795000Y-88265000D03*
X150495000Y-80645000D03*
D13*
X135255000Y-88265000D03*
D14*
X125095000Y-76835000D03*
X122555000Y-76835000D03*
D15*
X120015000Y-76835000D03*
X120015000Y-71755000D03*
D14*
X122555000Y-71755000D03*
X125095000Y-71755000D03*
D16*
X113030000Y-64492500D03*
D13*
X113030000Y-66992500D03*
D15*
X102870000Y-57785000D03*
D14*
X105410000Y-57785000D03*
X107950000Y-57785000D03*
X110490000Y-57785000D03*
X113030000Y-57785000D03*
X115570000Y-57785000D03*
X122555000Y-66675000D03*
D15*
X120015000Y-66675000D03*
D12*
X142875000Y-64135000D03*
D16*
X142875000Y-74295000D03*
D12*
X145415000Y-64135000D03*
D16*
X145415000Y-74295000D03*
D12*
X147955000Y-64135000D03*
D16*
X147955000Y-74295000D03*
D12*
X137795000Y-64135000D03*
D16*
X137795000Y-74295000D03*
D12*
X140335000Y-64135000D03*
D16*
X140335000Y-74295000D03*
D12*
X160655000Y-80645000D03*
X183515000Y-88265000D03*
X163195000Y-80645000D03*
X180975000Y-88265000D03*
X165735000Y-80645000D03*
X178435000Y-88265000D03*
X168275000Y-80645000D03*
X175895000Y-88265000D03*
X170815000Y-80645000D03*
X173355000Y-88265000D03*
X173355000Y-80645000D03*
X170815000Y-88265000D03*
X175895000Y-80645000D03*
X168275000Y-88265000D03*
X178435000Y-80645000D03*
X165735000Y-88265000D03*
X180975000Y-80645000D03*
X163195000Y-88265000D03*
X183515000Y-80645000D03*
D13*
X160655000Y-88265000D03*
X135255000Y-118745000D03*
D12*
X150495000Y-111125000D03*
X137795000Y-118745000D03*
X147955000Y-111125000D03*
X140335000Y-118745000D03*
X145415000Y-111125000D03*
X142875000Y-118745000D03*
X142875000Y-111125000D03*
X145415000Y-118745000D03*
X140335000Y-111125000D03*
X147955000Y-118745000D03*
X137795000Y-111125000D03*
X150495000Y-118745000D03*
X135255000Y-111125000D03*
X112395000Y-123825000D03*
D16*
X112395000Y-133985000D03*
D12*
X107315000Y-123825000D03*
D16*
X107315000Y-133985000D03*
D12*
X109855000Y-133985000D03*
D16*
X109855000Y-123825000D03*
D12*
X168275000Y-64135000D03*
D16*
X168275000Y-74295000D03*
D12*
X173355000Y-64135000D03*
D16*
X173355000Y-74295000D03*
D12*
X178435000Y-64135000D03*
D16*
X178435000Y-74295000D03*
D12*
X183515000Y-64135000D03*
D16*
X183515000Y-74295000D03*
D12*
X165735000Y-64135000D03*
D16*
X165735000Y-74295000D03*
D12*
X170815000Y-64135000D03*
D16*
X170815000Y-74295000D03*
D12*
X175895000Y-64135000D03*
D16*
X175895000Y-74295000D03*
D12*
X180975000Y-64135000D03*
D16*
X180975000Y-74295000D03*
D12*
X135255000Y-74295000D03*
D16*
X135255000Y-64135000D03*
D12*
X150495000Y-74295000D03*
D16*
X150495000Y-64135000D03*
D14*
X125095000Y-133985000D03*
X122555000Y-133985000D03*
D15*
X120015000Y-133985000D03*
D14*
X125095000Y-131445000D03*
X122555000Y-131445000D03*
D15*
X120015000Y-131445000D03*
X120015000Y-126365000D03*
D14*
X122555000Y-126365000D03*
X125095000Y-126365000D03*
X125095000Y-128905000D03*
X122555000Y-128905000D03*
D15*
X120015000Y-128905000D03*
D14*
X180975000Y-92075000D03*
X178435000Y-92075000D03*
X175895000Y-92075000D03*
X173355000Y-92075000D03*
X170815000Y-92075000D03*
X168275000Y-92075000D03*
X165735000Y-92075000D03*
X163195000Y-92075000D03*
D15*
X160655000Y-92075000D03*
D14*
X180975000Y-114935000D03*
X178435000Y-114935000D03*
X175895000Y-114935000D03*
X173355000Y-114935000D03*
X170815000Y-114935000D03*
X168275000Y-114935000D03*
X165735000Y-114935000D03*
X163195000Y-114935000D03*
D15*
X160655000Y-114935000D03*
D14*
X101600000Y-146050000D03*
X104140000Y-146050000D03*
X106680000Y-146050000D03*
X109220000Y-146050000D03*
X111760000Y-146050000D03*
X114300000Y-146050000D03*
X116840000Y-146050000D03*
X119380000Y-146050000D03*
X121920000Y-146050000D03*
X124460000Y-146050000D03*
X127000000Y-146050000D03*
X129540000Y-146050000D03*
X132080000Y-146050000D03*
X134620000Y-146050000D03*
X137160000Y-146050000D03*
X139700000Y-146050000D03*
X142240000Y-146050000D03*
X144780000Y-146050000D03*
X147320000Y-146050000D03*
X149860000Y-146050000D03*
X152400000Y-146050000D03*
X154940000Y-146050000D03*
X157480000Y-146050000D03*
X160020000Y-146050000D03*
X162560000Y-146050000D03*
X165100000Y-146050000D03*
X167640000Y-146050000D03*
X170180000Y-146050000D03*
X172720000Y-146050000D03*
X175260000Y-146050000D03*
X177800000Y-146050000D03*
X180340000Y-146050000D03*
X182880000Y-146050000D03*
X185420000Y-146050000D03*
X187960000Y-146050000D03*
X190500000Y-146050000D03*
X193040000Y-146050000D03*
X195580000Y-146050000D03*
D15*
X198120000Y-146050000D03*
D12*
X130175000Y-118745000D03*
D13*
X130175000Y-111125000D03*
D12*
X155575000Y-74295000D03*
D13*
X155575000Y-66675000D03*
D12*
X130175000Y-88265000D03*
D13*
X130175000Y-80645000D03*
D16*
X125095000Y-85130000D03*
D13*
X125095000Y-87630000D03*
D16*
X155575000Y-85645000D03*
X155575000Y-80645000D03*
X130175000Y-100885000D03*
X130175000Y-95885000D03*
X125095000Y-102830000D03*
D13*
X125095000Y-100330000D03*
D16*
X155575000Y-123745000D03*
X155575000Y-118745000D03*
X155575000Y-95885000D03*
X155575000Y-100885000D03*
D12*
X160655000Y-118745000D03*
X193675000Y-133985000D03*
X163195000Y-118745000D03*
X191135000Y-133985000D03*
X165735000Y-118745000D03*
X188595000Y-133985000D03*
X168275000Y-118745000D03*
X186055000Y-133985000D03*
X170815000Y-118745000D03*
X183515000Y-133985000D03*
X173355000Y-118745000D03*
X180975000Y-133985000D03*
X175895000Y-118745000D03*
X178435000Y-133985000D03*
X178435000Y-118745000D03*
X175895000Y-133985000D03*
X180975000Y-118745000D03*
X173355000Y-133985000D03*
X183515000Y-118745000D03*
X170815000Y-133985000D03*
X186055000Y-118745000D03*
X168275000Y-133985000D03*
X188595000Y-118745000D03*
X165735000Y-133985000D03*
X191135000Y-118745000D03*
X163195000Y-133985000D03*
X193675000Y-118745000D03*
D13*
X160655000Y-133985000D03*
D17*
X104775000Y-65405000D03*
X104775000Y-141605000D03*
X194945000Y-65405000D03*
X194945000Y-141605000D03*
D18*
X108432600Y-93980000D03*
D19*
X132080000Y-86360000D03*
X127000000Y-142240000D03*
X136525000Y-132080000D03*
X161925000Y-121285000D03*
X165100000Y-99695000D03*
X139700000Y-128270000D03*
X177165000Y-97790000D03*
X139065000Y-86360000D03*
X146685000Y-78740000D03*
X183515000Y-132080000D03*
X180975000Y-131445000D03*
X178435000Y-130810000D03*
X175895000Y-130175000D03*
X173355000Y-128905000D03*
X168275000Y-128270000D03*
X165735000Y-129540000D03*
X127635000Y-125095000D03*
X126365000Y-140970000D03*
X182245000Y-109220000D03*
X182245000Y-97790000D03*
X169545000Y-109220000D03*
X167005000Y-100965000D03*
X194945000Y-100965000D03*
X179705000Y-109220000D03*
X179705000Y-97790000D03*
X179705000Y-102235000D03*
X172085000Y-97790000D03*
X172085000Y-101600000D03*
X174625000Y-109220000D03*
X174625000Y-97790000D03*
X174625000Y-102870000D03*
X164465000Y-109220000D03*
X144145000Y-86360000D03*
X123190000Y-120650000D03*
X109855000Y-132080000D03*
X133350000Y-143510000D03*
X187960000Y-142875000D03*
X100965000Y-138430000D03*
X191135000Y-54610000D03*
X150495000Y-121920000D03*
X179705000Y-124460000D03*
X177165000Y-122555000D03*
X152400000Y-119380000D03*
X153670000Y-63500000D03*
X127000000Y-116840000D03*
X142240000Y-142240000D03*
X187325000Y-86677500D03*
X186055000Y-139065000D03*
X132080000Y-139065000D03*
X188595000Y-86042500D03*
X188595000Y-137795000D03*
X130175000Y-137795000D03*
X189865000Y-85407500D03*
X191135000Y-136525000D03*
X129540000Y-136525000D03*
X190500000Y-84772500D03*
X192405000Y-135890000D03*
X128905000Y-135890000D03*
X189230000Y-84137500D03*
X189865000Y-137160000D03*
X121920000Y-137160000D03*
X187960000Y-83502500D03*
X187325000Y-138430000D03*
X119380000Y-138430000D03*
X186690000Y-82867500D03*
X184785000Y-139700000D03*
X116840000Y-139700000D03*
X182245000Y-140335000D03*
X114935000Y-140335000D03*
X185420000Y-82232500D03*
X102235000Y-105410000D03*
X102870000Y-106045000D03*
X126365000Y-89535000D03*
X126365000Y-74295000D03*
X153670000Y-64770000D03*
X153670000Y-82550000D03*
X153670000Y-120650000D03*
X149860000Y-142875000D03*
X109855000Y-142875000D03*
X108585000Y-131445000D03*
X116205000Y-132715000D03*
X167005000Y-123825000D03*
X179070000Y-123825000D03*
X161925000Y-99060000D03*
X100965000Y-125730000D03*
X118110000Y-125730000D03*
X132715000Y-80645000D03*
X132715000Y-124460000D03*
X141605000Y-72390000D03*
X141605000Y-93345000D03*
X145415000Y-71755000D03*
X128905000Y-71755000D03*
X128270000Y-139065000D03*
X109220000Y-139065000D03*
X111760000Y-137795000D03*
X128270000Y-71120000D03*
X142875000Y-71120000D03*
X127635000Y-137795000D03*
X177165000Y-108585000D03*
X139065000Y-123825000D03*
X150495000Y-116205000D03*
X144145000Y-53975000D03*
X191770000Y-53975000D03*
X144780000Y-142240000D03*
X159385000Y-132080000D03*
X161925000Y-131445000D03*
X164465000Y-130810000D03*
X167005000Y-130175000D03*
X169545000Y-128905000D03*
X172085000Y-128270000D03*
X174625000Y-129540000D03*
X118110000Y-141605000D03*
X131445000Y-66040000D03*
X191770000Y-142240000D03*
X131445000Y-127635000D03*
X133350000Y-66675000D03*
X187960000Y-59055000D03*
X194945000Y-97790000D03*
X169545000Y-97790000D03*
X158115000Y-97790000D03*
X167005000Y-109220000D03*
X194945000Y-102235000D03*
X172085000Y-109220000D03*
X194310000Y-101600000D03*
X194310000Y-102870000D03*
X140335000Y-107950000D03*
X154305000Y-107950000D03*
X141605000Y-108585000D03*
X145415000Y-120650000D03*
X190500000Y-142240000D03*
X198120000Y-139065000D03*
X153035000Y-132080000D03*
X114935000Y-130175000D03*
X149860000Y-82550000D03*
X150495000Y-101600000D03*
X149225000Y-106045000D03*
X154940000Y-93345000D03*
X154940000Y-88265000D03*
X144145000Y-66040000D03*
X145415000Y-90170000D03*
X159385000Y-128270000D03*
X158115000Y-99060000D03*
X101600000Y-121920000D03*
X121285000Y-124460000D03*
X111125000Y-128905000D03*
X140335000Y-101600000D03*
X142875000Y-109220000D03*
X138430000Y-113030000D03*
X129540000Y-121920000D03*
X128905000Y-131445000D03*
X123825000Y-113030000D03*
X136525000Y-116840000D03*
X144145000Y-116205000D03*
D20*
X157480000Y-146050000D02*
X158432500Y-145097500D01*
X156527500Y-145097500D02*
X157480000Y-146050000D01*
D21*
X160655000Y-92075000D02*
X160655000Y-95885000D01*
D22*
X159702500Y-80645000D02*
X160655000Y-80645000D01*
X159067500Y-95885000D02*
X159067500Y-81280000D01*
X159067500Y-81280000D02*
X159702500Y-80645000D01*
X160655000Y-95885000D02*
X159067500Y-95885000D01*
X135255000Y-95885000D02*
X133667500Y-95885000D01*
X133667500Y-81280000D02*
X133667500Y-111125000D01*
X135255000Y-80645000D02*
X134302500Y-80645000D01*
X134302500Y-80645000D02*
X133667500Y-81280000D01*
X135255000Y-111125000D02*
X133667500Y-111125000D01*
D21*
X107315000Y-118745000D02*
X107315000Y-123825000D01*
D22*
X133667500Y-125412500D02*
X133667500Y-111125000D01*
X135255000Y-126365000D02*
X134620000Y-126365000D01*
X134620000Y-126365000D02*
X133667500Y-125412500D01*
D21*
X186055000Y-111660870D02*
X186055000Y-111125000D01*
X187325000Y-112930870D02*
X186055000Y-111660870D01*
X187325000Y-119380000D02*
X187325000Y-112930870D01*
X186055000Y-120650000D02*
X187325000Y-119380000D01*
X186055000Y-133985000D02*
X186055000Y-120650000D01*
X189865000Y-119380000D02*
X188595000Y-120650000D01*
X189865000Y-113030000D02*
X189865000Y-119380000D01*
X188595000Y-111760000D02*
X189865000Y-113030000D01*
X188595000Y-120650000D02*
X188595000Y-133985000D01*
X188595000Y-111125000D02*
X188595000Y-111760000D01*
X191135000Y-111760000D02*
X191135000Y-111125000D01*
X192405000Y-113030000D02*
X191135000Y-111760000D01*
X192405000Y-119380000D02*
X192405000Y-113030000D01*
X191135000Y-120650000D02*
X192405000Y-119380000D01*
X191135000Y-133985000D02*
X191135000Y-120650000D01*
X193675000Y-109220000D02*
X193675000Y-95885000D01*
X192405000Y-110490000D02*
X193675000Y-109220000D01*
X192405000Y-111760000D02*
X192405000Y-110490000D01*
X193675000Y-113030000D02*
X192405000Y-111760000D01*
X193675000Y-118745000D02*
X193675000Y-113030000D01*
X189865000Y-110490000D02*
X191135000Y-109220000D01*
X191135000Y-109220000D02*
X191135000Y-95885000D01*
X189865000Y-111760000D02*
X189865000Y-110490000D01*
X191135000Y-113030000D02*
X189865000Y-111760000D01*
X191135000Y-118745000D02*
X191135000Y-113030000D01*
X187325000Y-110490000D02*
X188595000Y-109220000D01*
X187325000Y-111760000D02*
X187325000Y-110490000D01*
X188595000Y-109220000D02*
X188595000Y-95885000D01*
X188595000Y-113030000D02*
X187325000Y-111760000D01*
X188595000Y-118745000D02*
X188595000Y-113030000D01*
X186055000Y-109220000D02*
X186055000Y-95885000D01*
X184785000Y-110490000D02*
X186055000Y-109220000D01*
X184785000Y-111760000D02*
X184785000Y-110490000D01*
X186055000Y-113030000D02*
X184785000Y-111760000D01*
X186055000Y-118745000D02*
X186055000Y-113030000D01*
X183515000Y-109220176D02*
X183515000Y-95885000D01*
X182245705Y-110489471D02*
X183515000Y-109220176D01*
X182245705Y-111760705D02*
X182245705Y-110489471D01*
X183515000Y-113030000D02*
X182245705Y-111760705D01*
X183515000Y-118745000D02*
X183515000Y-113030000D01*
X126365000Y-109855000D02*
X125095000Y-111125000D01*
X165735000Y-74295000D02*
X165735000Y-80645000D01*
X168275000Y-80645000D02*
X168275000Y-74295000D01*
X170815000Y-74295000D02*
X170815000Y-80645000D01*
X173355000Y-80645000D02*
X173355000Y-74295000D01*
X175895000Y-74295000D02*
X175895000Y-80645000D01*
X178435000Y-80645000D02*
X178435000Y-74295000D01*
X180975000Y-74295000D02*
X180975000Y-80645000D01*
X134620000Y-146050000D02*
X134620000Y-142875000D01*
X134620000Y-137795000D02*
X134620000Y-142875000D01*
X136525000Y-135890000D02*
X134620000Y-137795000D01*
X136525000Y-130810000D02*
X136525000Y-135890000D01*
X137795000Y-129540000D02*
X136525000Y-130810000D01*
X160655000Y-121920000D02*
X160655000Y-122555000D01*
X160655000Y-122555000D02*
X160655000Y-127000000D01*
X161925000Y-121285000D02*
X161290000Y-121285000D01*
X161290000Y-121285000D02*
X160655000Y-121920000D01*
X160655000Y-127000000D02*
X160655000Y-133985000D01*
X163195000Y-92075000D02*
X163195000Y-95885000D01*
X165100000Y-97155000D02*
X165735000Y-96520000D01*
X165100000Y-99695000D02*
X165100000Y-97155000D01*
X165735000Y-96520000D02*
X165735000Y-95885000D01*
X140335000Y-128905000D02*
X140335000Y-133985000D01*
X139700000Y-128270000D02*
X140335000Y-128905000D01*
X149225000Y-59055000D02*
X150495000Y-57785000D01*
X149225000Y-67945000D02*
X149225000Y-59055000D01*
X150495000Y-69215000D02*
X149225000Y-67945000D01*
X150495000Y-74295000D02*
X150495000Y-69215000D01*
X137795000Y-81915000D02*
X137795000Y-80645000D01*
X139065000Y-83185000D02*
X137795000Y-81915000D01*
X139065000Y-86360000D02*
X139065000Y-83185000D01*
X145415000Y-58420000D02*
X145415000Y-57785000D01*
X146685000Y-59690000D02*
X145415000Y-58420000D01*
X146685000Y-78740000D02*
X146685000Y-59690000D01*
X183515000Y-111760000D02*
X183515000Y-111125000D01*
X184785000Y-119380000D02*
X184785000Y-113030000D01*
X183515000Y-120650000D02*
X184785000Y-119380000D01*
X183515000Y-132080000D02*
X183515000Y-120650000D01*
X184785000Y-113030000D02*
X183515000Y-111760000D01*
X183515000Y-133985000D02*
X183515000Y-132080000D01*
X180975000Y-133985000D02*
X180975000Y-131445000D01*
X180975000Y-131445000D02*
X180975000Y-120650000D01*
X180975000Y-120650000D02*
X182245000Y-119380000D01*
X182245000Y-119380000D02*
X182245000Y-113030000D01*
X182245000Y-113030000D02*
X180975000Y-111760000D01*
X180975000Y-111760000D02*
X180975000Y-111125000D01*
X182245000Y-62230000D02*
X181610000Y-61595000D01*
X182245000Y-96520000D02*
X182245000Y-62230000D01*
X180975000Y-97790000D02*
X182245000Y-96520000D01*
X180975000Y-111125000D02*
X180975000Y-97790000D01*
X181610000Y-61595000D02*
X175260000Y-61595000D01*
X175260000Y-61595000D02*
X174625000Y-60960000D01*
X174625000Y-60960000D02*
X174625000Y-59055000D01*
X174625000Y-59055000D02*
X175895000Y-57785000D01*
X178435000Y-133985000D02*
X178435000Y-130810000D01*
X178435000Y-130810000D02*
X178435000Y-121285000D01*
X178435000Y-121285000D02*
X177165000Y-120015000D01*
X177165000Y-120015000D02*
X177165000Y-113665000D01*
X177165000Y-113665000D02*
X178435000Y-112395000D01*
X178435000Y-112395000D02*
X178435000Y-111125000D01*
X179070000Y-62230000D02*
X173990000Y-62230000D01*
X179705000Y-62865000D02*
X179070000Y-62230000D01*
X179705000Y-96520000D02*
X179705000Y-62865000D01*
X178435000Y-97790000D02*
X179705000Y-96520000D01*
X178435000Y-111125000D02*
X178435000Y-97790000D01*
X173990000Y-62230000D02*
X173355000Y-61595000D01*
X173355000Y-61595000D02*
X173355000Y-60325000D01*
X175895000Y-112395000D02*
X175895000Y-111125000D01*
X174625000Y-113665000D02*
X175895000Y-112395000D01*
X175895000Y-121285000D02*
X174625000Y-120015000D01*
X175895000Y-130175000D02*
X175895000Y-121285000D01*
X174625000Y-120015000D02*
X174625000Y-113665000D01*
X175895000Y-133985000D02*
X175895000Y-130175000D01*
X176530000Y-62865000D02*
X173355000Y-62865000D01*
X177165000Y-63500000D02*
X176530000Y-62865000D01*
X173355000Y-62865000D02*
X172085000Y-61595000D01*
X177165000Y-96520000D02*
X177165000Y-63500000D01*
X175895000Y-97790000D02*
X177165000Y-96520000D01*
X175895000Y-111125000D02*
X175895000Y-97790000D01*
X173355000Y-57785000D02*
X172085000Y-59055000D01*
X172085000Y-59055000D02*
X172085000Y-61595000D01*
X173355000Y-112395000D02*
X173355000Y-111125000D01*
X172085000Y-113665000D02*
X173355000Y-112395000D01*
X172085000Y-120015000D02*
X172085000Y-113665000D01*
X173355000Y-121285000D02*
X172085000Y-120015000D01*
X173355000Y-128905000D02*
X173355000Y-121285000D01*
X173355000Y-128905000D02*
X173355000Y-133985000D01*
X169545000Y-62865000D02*
X169545000Y-65405000D01*
X169545000Y-65405000D02*
X174625000Y-70485000D01*
X173355000Y-97790000D02*
X173355000Y-111125000D01*
X174625000Y-96520000D02*
X173355000Y-97790000D01*
X174625000Y-70485000D02*
X174625000Y-96520000D01*
X169545000Y-62865000D02*
X170815000Y-61595000D01*
X170815000Y-61595000D02*
X170815000Y-60325000D01*
X170815000Y-121285000D02*
X170815000Y-133985000D01*
X169545000Y-120015000D02*
X170815000Y-121285000D01*
X169545000Y-113665000D02*
X169545000Y-120015000D01*
X170815000Y-112395000D02*
X169545000Y-113665000D01*
X170815000Y-111125000D02*
X170815000Y-112395000D01*
X170815000Y-144145000D02*
X172720000Y-146050000D01*
X170815000Y-133985000D02*
X170815000Y-144145000D01*
X168275000Y-112395000D02*
X168275000Y-111125000D01*
X167005000Y-113665000D02*
X168275000Y-112395000D01*
X167005000Y-120015000D02*
X167005000Y-113665000D01*
X168275000Y-121285000D02*
X167005000Y-120015000D01*
X168275000Y-128270000D02*
X168275000Y-121285000D01*
X168275000Y-133985000D02*
X168275000Y-128270000D01*
X165735000Y-112395000D02*
X165735000Y-111125000D01*
X164465000Y-113665000D02*
X165735000Y-112395000D01*
X164465000Y-120015000D02*
X164465000Y-113665000D01*
X165735000Y-121285000D02*
X164465000Y-120015000D01*
X165735000Y-129540000D02*
X165735000Y-121285000D01*
X165735000Y-129540000D02*
X165735000Y-133985000D01*
X126365000Y-127635000D02*
X125095000Y-126365000D01*
X126365000Y-140970000D02*
X126365000Y-127635000D01*
X168275000Y-96520000D02*
X168275000Y-95885000D01*
X167005000Y-97790000D02*
X168275000Y-96520000D01*
X167005000Y-100965000D02*
X167005000Y-97790000D01*
X179705000Y-104775000D02*
X179705000Y-109220000D01*
X179705000Y-102235000D02*
X179705000Y-104775000D01*
X179705000Y-97790000D02*
X179705000Y-102235000D01*
X163195000Y-121285000D02*
X163195000Y-133985000D01*
X161925000Y-120015000D02*
X163195000Y-121285000D01*
X161925000Y-113665000D02*
X161925000Y-120015000D01*
X163195000Y-112395000D02*
X161925000Y-113665000D01*
X163195000Y-111125000D02*
X163195000Y-112395000D01*
X172085000Y-101600000D02*
X172085000Y-97790000D01*
X174625000Y-97790000D02*
X174625000Y-109220000D01*
X164465000Y-100965000D02*
X164465000Y-109220000D01*
X164465000Y-94615000D02*
X164465000Y-100965000D01*
X165735000Y-93345000D02*
X164465000Y-94615000D01*
X165735000Y-92075000D02*
X165735000Y-93345000D01*
X147955000Y-106680000D02*
X147955000Y-111125000D01*
X146685000Y-105410000D02*
X147955000Y-106680000D01*
X146685000Y-101600000D02*
X146685000Y-105410000D01*
X111125000Y-128270000D02*
X111125000Y-128270000D01*
D22*
X125095000Y-87630000D02*
X125095000Y-91440000D01*
D21*
X145415000Y-88265000D02*
X145415000Y-85725000D01*
X147955000Y-83185000D02*
X147955000Y-80645000D01*
X145415000Y-85725000D02*
X147955000Y-83185000D01*
X122555000Y-121285000D02*
X122555000Y-126365000D01*
X123190000Y-120650000D02*
X122555000Y-121285000D01*
D22*
X160655000Y-114935000D02*
X160655000Y-118745000D01*
X154940000Y-144780000D02*
X154940000Y-146050000D01*
X155575000Y-118745000D02*
X155575000Y-121285000D01*
X155575000Y-121285000D02*
X153987500Y-122872500D01*
X153987500Y-122872500D02*
X153987500Y-143827500D01*
X153987500Y-143827500D02*
X154940000Y-144780000D01*
X159702500Y-114935000D02*
X159067500Y-114300000D01*
X160655000Y-114935000D02*
X159702500Y-114935000D01*
X159067500Y-114300000D02*
X159067500Y-95885000D01*
X122555000Y-67627500D02*
X122555000Y-66675000D01*
X122555000Y-76835000D02*
X122555000Y-75882500D01*
X122555000Y-75882500D02*
X121920000Y-75247500D01*
X121920000Y-75247500D02*
X119062500Y-75247500D01*
X118427500Y-74612500D02*
X118427500Y-68897500D01*
X119062500Y-75247500D02*
X118427500Y-74612500D01*
X118427500Y-68897500D02*
X119062500Y-68262500D01*
X119062500Y-68262500D02*
X121920000Y-68262500D01*
X121920000Y-68262500D02*
X122555000Y-67627500D01*
D21*
X109855000Y-132080000D02*
X109855000Y-123825000D01*
X135255000Y-80645000D02*
X135255000Y-88265000D01*
X132080000Y-132715000D02*
X132080000Y-88265000D01*
X132080000Y-133350000D02*
X132080000Y-132715000D01*
X133350000Y-134620000D02*
X132080000Y-133350000D01*
X133350000Y-143510000D02*
X133350000Y-134620000D01*
X187960000Y-142875000D02*
X187960000Y-146050000D01*
X132080000Y-80010000D02*
X132080000Y-88265000D01*
X134620000Y-62865000D02*
X133985000Y-63500000D01*
X138430000Y-62865000D02*
X134620000Y-62865000D01*
X139382500Y-61912500D02*
X138430000Y-62865000D01*
X133985000Y-78105000D02*
X132080000Y-80010000D01*
X140970000Y-61912500D02*
X139382500Y-61912500D01*
X133985000Y-63500000D02*
X133985000Y-78105000D01*
X140970000Y-59055000D02*
X141605000Y-59690000D01*
X141605000Y-59690000D02*
X141605000Y-61277500D01*
X138112500Y-57785000D02*
X139382500Y-59055000D01*
X141605000Y-61277500D02*
X140970000Y-61912500D01*
X139382500Y-59055000D02*
X140970000Y-59055000D01*
X137795000Y-57785000D02*
X138112500Y-57785000D01*
X100965000Y-138430000D02*
X100330000Y-137795000D01*
X100330000Y-137795000D02*
X100330000Y-80645000D01*
X100330000Y-80645000D02*
X100965000Y-80010000D01*
X100965000Y-80010000D02*
X108585000Y-80010000D01*
X134620000Y-53975000D02*
X135255000Y-54610000D01*
X108585000Y-80010000D02*
X109220000Y-79375000D01*
X109220000Y-79375000D02*
X109220000Y-54610000D01*
X109220000Y-54610000D02*
X109855000Y-53975000D01*
X109855000Y-53975000D02*
X134620000Y-53975000D01*
X135255000Y-54610000D02*
X135255000Y-57785000D01*
X191135000Y-54610000D02*
X191135000Y-68580000D01*
X190500000Y-140970000D02*
X186055000Y-140970000D01*
X191135000Y-68580000D02*
X191770000Y-69215000D01*
X198120000Y-137160000D02*
X197485000Y-137795000D01*
X191135000Y-140335000D02*
X190500000Y-140970000D01*
X191770000Y-69215000D02*
X197485000Y-69215000D01*
X197485000Y-69215000D02*
X198120000Y-69850000D01*
X198120000Y-69850000D02*
X198120000Y-137160000D01*
X197485000Y-137795000D02*
X191770000Y-137795000D01*
X191770000Y-137795000D02*
X191135000Y-138430000D01*
X191135000Y-138430000D02*
X191135000Y-140335000D01*
X186055000Y-140970000D02*
X185420000Y-141605000D01*
X185420000Y-141605000D02*
X185420000Y-146050000D01*
X151130000Y-56515000D02*
X149225000Y-56515000D01*
X150495000Y-121920000D02*
X150495000Y-121285000D01*
X150495000Y-121285000D02*
X151765000Y-120015000D01*
X149225000Y-56515000D02*
X147955000Y-57785000D01*
X151765000Y-120015000D02*
X151765000Y-57150000D01*
X151765000Y-57150000D02*
X151130000Y-56515000D01*
X150495000Y-121920000D02*
X150495000Y-126365000D01*
X179705000Y-141605000D02*
X182880000Y-144780000D01*
X179705000Y-124460000D02*
X179705000Y-141605000D01*
X182880000Y-144780000D02*
X182880000Y-146050000D01*
X178435000Y-144145000D02*
X180340000Y-146050000D01*
X178435000Y-136525000D02*
X178435000Y-144145000D01*
X177165000Y-135255000D02*
X178435000Y-136525000D01*
X177165000Y-122555000D02*
X177165000Y-135255000D01*
X153670000Y-55880000D02*
X147320000Y-55880000D01*
X147320000Y-55880000D02*
X146685000Y-56515000D01*
X152400000Y-119380000D02*
X152400000Y-62865000D01*
X152400000Y-62865000D02*
X154305000Y-60960000D01*
X154305000Y-60960000D02*
X154305000Y-56515000D01*
X154305000Y-56515000D02*
X153670000Y-55880000D01*
X146685000Y-56515000D02*
X146685000Y-58420000D01*
X146685000Y-58420000D02*
X147955000Y-59690000D01*
X147955000Y-59690000D02*
X147955000Y-60325000D01*
X153670000Y-63500000D02*
X153035000Y-64135000D01*
X153035000Y-64135000D02*
X153035000Y-120015000D01*
X153035000Y-120015000D02*
X151765000Y-121285000D01*
X147955000Y-142240000D02*
X147320000Y-142875000D01*
X147320000Y-142875000D02*
X147320000Y-146050000D01*
X151765000Y-121285000D02*
X151765000Y-141605000D01*
X151130000Y-142240000D02*
X147955000Y-142240000D01*
X151765000Y-141605000D02*
X151130000Y-142240000D01*
X127000000Y-142240000D02*
X127000000Y-116840000D01*
X142240000Y-142240000D02*
X142240000Y-146050000D01*
X133985000Y-62230000D02*
X135255000Y-60960000D01*
X128270000Y-62230000D02*
X133985000Y-62230000D01*
X127000000Y-63500000D02*
X128270000Y-62230000D01*
X135255000Y-60960000D02*
X135255000Y-60325000D01*
X127000000Y-116840000D02*
X127000000Y-63500000D01*
X186055000Y-110490000D02*
X186055000Y-111125000D01*
X187325000Y-109220000D02*
X186055000Y-110490000D01*
X187325000Y-86677500D02*
X187325000Y-109220000D01*
X186055000Y-139065000D02*
X186055000Y-133985000D01*
X132080000Y-144780000D02*
X132080000Y-146050000D01*
X132080000Y-139065000D02*
X132080000Y-144780000D01*
X188595000Y-110490000D02*
X188595000Y-111125000D01*
X189865000Y-109220000D02*
X188595000Y-110490000D01*
X189865000Y-95250000D02*
X189865000Y-109220000D01*
X188595000Y-86042500D02*
X188595000Y-93980000D01*
X188595000Y-93980000D02*
X189865000Y-95250000D01*
X188595000Y-137795000D02*
X188595000Y-133985000D01*
X129540000Y-144780000D02*
X129540000Y-146050000D01*
X130175000Y-144145000D02*
X129540000Y-144780000D01*
X130175000Y-137795000D02*
X130175000Y-144145000D01*
X191135000Y-110490000D02*
X191135000Y-111125000D01*
X192405000Y-109220000D02*
X191135000Y-110490000D01*
X192405000Y-95250000D02*
X192405000Y-109220000D01*
X189865000Y-92710000D02*
X192405000Y-95250000D01*
X189865000Y-85407500D02*
X189865000Y-92710000D01*
X191135000Y-136525000D02*
X191135000Y-133985000D01*
X127000000Y-144780000D02*
X127000000Y-146050000D01*
X127635000Y-144145000D02*
X127000000Y-144780000D01*
X128905000Y-144145000D02*
X127635000Y-144145000D01*
X129540000Y-143510000D02*
X128905000Y-144145000D01*
X129540000Y-136525000D02*
X129540000Y-143510000D01*
X193675000Y-95488125D02*
X193675000Y-95885000D01*
X190500000Y-92313125D02*
X193675000Y-95488125D01*
X190500000Y-84772500D02*
X190500000Y-92313125D01*
X193675000Y-119380000D02*
X193675000Y-118745000D01*
X192405000Y-120650000D02*
X193675000Y-119380000D01*
X192405000Y-135890000D02*
X192405000Y-120650000D01*
X125095000Y-143510000D02*
X124460000Y-144145000D01*
X128270000Y-143510000D02*
X125095000Y-143510000D01*
X124460000Y-144145000D02*
X124460000Y-146050000D01*
X128905000Y-142875000D02*
X128270000Y-143510000D01*
X128905000Y-135890000D02*
X128905000Y-142875000D01*
X189230000Y-93345000D02*
X191135000Y-95250000D01*
X191135000Y-95250000D02*
X191135000Y-95885000D01*
X189230000Y-84137500D02*
X189230000Y-93345000D01*
X191135000Y-119380000D02*
X191135000Y-118745000D01*
X189865000Y-120650000D02*
X191135000Y-119380000D01*
X189865000Y-137160000D02*
X189865000Y-120650000D01*
X121920000Y-137160000D02*
X121920000Y-146050000D01*
X188595000Y-95250000D02*
X188595000Y-95885000D01*
X187960000Y-94615000D02*
X188595000Y-95250000D01*
X187960000Y-83502500D02*
X187960000Y-94615000D01*
X187325000Y-120650000D02*
X188595000Y-119380000D01*
X187325000Y-138430000D02*
X187325000Y-120650000D01*
X188595000Y-119380000D02*
X188595000Y-118745000D01*
X119380000Y-138430000D02*
X119380000Y-146050000D01*
X186055000Y-95250000D02*
X186055000Y-95885000D01*
X186690000Y-82867500D02*
X186690000Y-94615000D01*
X186690000Y-94615000D02*
X186055000Y-95250000D01*
X186055000Y-119380000D02*
X186055000Y-118745000D01*
X184785000Y-120650000D02*
X186055000Y-119380000D01*
X184785000Y-139700000D02*
X184785000Y-120650000D01*
X116840000Y-139700000D02*
X116840000Y-146050000D01*
X183515000Y-119380000D02*
X183515000Y-118745000D01*
X182245000Y-120650000D02*
X183515000Y-119380000D01*
X182245000Y-140335000D02*
X182245000Y-120650000D01*
X114935000Y-140335000D02*
X114935000Y-145415000D01*
X114935000Y-145415000D02*
X114300000Y-146050000D01*
X183515000Y-95250000D02*
X183515000Y-95885000D01*
X185420000Y-93345000D02*
X183515000Y-95250000D01*
X185420000Y-82232500D02*
X185420000Y-93345000D01*
X132715000Y-55245000D02*
X132715000Y-57785000D01*
X132080000Y-54610000D02*
X132715000Y-55245000D01*
X114300000Y-55086250D02*
X114776250Y-54610000D01*
X114776250Y-54610000D02*
X132080000Y-54610000D01*
X114300000Y-58420000D02*
X114300000Y-55086250D01*
X111125000Y-61595000D02*
X114300000Y-58420000D01*
X110490000Y-81915000D02*
X111125000Y-81280000D01*
X111125000Y-81280000D02*
X111125000Y-61595000D01*
X102870000Y-81915000D02*
X110490000Y-81915000D01*
X102235000Y-82550000D02*
X102870000Y-81915000D01*
X102235000Y-105410000D02*
X102235000Y-82550000D01*
X100965000Y-144780000D02*
X101600000Y-145415000D01*
X100965000Y-139700000D02*
X100965000Y-144780000D01*
X101600000Y-145415000D02*
X101600000Y-146050000D01*
X101600000Y-123190000D02*
X101600000Y-139065000D01*
X101600000Y-139065000D02*
X100965000Y-139700000D01*
X102235000Y-122555000D02*
X101600000Y-123190000D01*
X102235000Y-105410000D02*
X102235000Y-122555000D01*
X102870000Y-83185000D02*
X102870000Y-106045000D01*
X132715000Y-60325000D02*
X131445000Y-59055000D01*
X103505000Y-82550000D02*
X102870000Y-83185000D01*
X131445000Y-59055000D02*
X131445000Y-55880000D01*
X131445000Y-55880000D02*
X130810000Y-55245000D01*
X111760000Y-81915000D02*
X111125000Y-82550000D01*
X130810000Y-55245000D02*
X117475000Y-55245000D01*
X117475000Y-55245000D02*
X116840000Y-55880000D01*
X116840000Y-55880000D02*
X116840000Y-58420000D01*
X116840000Y-58420000D02*
X116205000Y-59055000D01*
X111125000Y-82550000D02*
X103505000Y-82550000D01*
X116205000Y-59055000D02*
X114935000Y-59055000D01*
X114935000Y-59055000D02*
X111760000Y-62230000D01*
X111760000Y-62230000D02*
X111760000Y-81915000D01*
X101600000Y-143510000D02*
X104140000Y-146050000D01*
X101600000Y-140176250D02*
X101600000Y-143510000D01*
X102235000Y-123825000D02*
X102235000Y-139541250D01*
X102870000Y-123190000D02*
X102235000Y-123825000D01*
X102235000Y-139541250D02*
X101600000Y-140176250D01*
X102870000Y-106045000D02*
X102870000Y-123190000D01*
X126365000Y-89535000D02*
X126365000Y-109855000D01*
X126365000Y-74295000D02*
X126365000Y-89535000D01*
X153670000Y-82550000D02*
X153670000Y-64770000D01*
X152400000Y-121920000D02*
X152400000Y-144780000D01*
X153670000Y-120650000D02*
X152400000Y-121920000D01*
X152400000Y-144780000D02*
X152400000Y-146050000D01*
X153670000Y-120650000D02*
X153670000Y-82550000D01*
X149860000Y-142875000D02*
X149860000Y-146050000D01*
X109855000Y-142875000D02*
X109855000Y-137160000D01*
X109855000Y-137160000D02*
X109855000Y-133985000D01*
X137795000Y-126365000D02*
X137795000Y-129540000D01*
X139065000Y-120015000D02*
X139065000Y-106680000D01*
X139065000Y-106680000D02*
X137795000Y-105410000D01*
X137795000Y-121285000D02*
X139065000Y-120015000D01*
X137795000Y-126365000D02*
X137795000Y-121285000D01*
X137795000Y-105410000D02*
X137795000Y-103505000D01*
X108585000Y-112395000D02*
X109855000Y-111125000D01*
X108585000Y-131445000D02*
X108585000Y-112395000D01*
X116205000Y-112395000D02*
X117475000Y-111125000D01*
X116205000Y-132715000D02*
X116205000Y-112395000D01*
X163195000Y-118745000D02*
X163195000Y-114935000D01*
X165735000Y-120015000D02*
X165735000Y-118745000D01*
X167005000Y-121285000D02*
X165735000Y-120015000D01*
X167005000Y-123825000D02*
X167005000Y-121285000D01*
X179705000Y-117475000D02*
X178435000Y-116205000D01*
X178435000Y-116205000D02*
X178435000Y-114935000D01*
X179705000Y-123190000D02*
X179705000Y-117475000D01*
X179070000Y-123825000D02*
X179705000Y-123190000D01*
X161925000Y-109855000D02*
X160655000Y-111125000D01*
X161925000Y-99060000D02*
X161925000Y-109855000D01*
X110490000Y-59055000D02*
X110490000Y-57785000D01*
X109855000Y-59690000D02*
X110490000Y-59055000D01*
X109220000Y-80645000D02*
X109855000Y-80010000D01*
X101600000Y-80645000D02*
X109220000Y-80645000D01*
X109855000Y-80010000D02*
X109855000Y-59690000D01*
X100965000Y-81280000D02*
X101600000Y-80645000D01*
X100965000Y-125730000D02*
X100965000Y-81280000D01*
X118745000Y-112395000D02*
X120015000Y-111125000D01*
X118745000Y-125095000D02*
X118745000Y-112395000D01*
X118110000Y-125730000D02*
X118745000Y-125095000D01*
D22*
X127635000Y-61436250D02*
X127635000Y-60325000D01*
X125412500Y-63658750D02*
X127635000Y-61436250D01*
X125095000Y-70485000D02*
X125412500Y-70167500D01*
X125412500Y-70167500D02*
X125412500Y-63658750D01*
X125095000Y-71755000D02*
X125095000Y-70485000D01*
D21*
X132715000Y-124460000D02*
X132715000Y-80645000D01*
X141605000Y-93345000D02*
X141605000Y-72390000D01*
X145415000Y-71755000D02*
X145415000Y-64135000D01*
X128270000Y-127000000D02*
X128905000Y-126365000D01*
X128270000Y-139065000D02*
X128270000Y-127000000D01*
X128905000Y-126365000D02*
X128905000Y-71755000D01*
X109220000Y-139065000D02*
X109220000Y-146050000D01*
X111760000Y-137795000D02*
X111760000Y-146050000D01*
X142875000Y-71120000D02*
X142875000Y-64135000D01*
X128270000Y-125730000D02*
X128270000Y-71120000D01*
X127635000Y-126365000D02*
X128270000Y-125730000D01*
X127635000Y-137795000D02*
X127635000Y-126365000D01*
X177165000Y-97790000D02*
X177165000Y-108585000D01*
X139065000Y-123825000D02*
X139065000Y-135255000D01*
X136525000Y-137795000D02*
X136525000Y-144145000D01*
X136525000Y-144145000D02*
X137160000Y-144780000D01*
X137160000Y-144780000D02*
X137160000Y-146050000D01*
X139065000Y-135255000D02*
X136525000Y-137795000D01*
X150495000Y-116205000D02*
X150495000Y-111125000D01*
X145415000Y-59690000D02*
X145415000Y-60325000D01*
X144145000Y-53975000D02*
X144145000Y-58420000D01*
X144145000Y-58420000D02*
X145415000Y-59690000D01*
X144780000Y-142240000D02*
X144780000Y-146050000D01*
X184150000Y-59055000D02*
X177165000Y-59055000D01*
X184785000Y-59690000D02*
X184150000Y-59055000D01*
X177165000Y-59055000D02*
X175895000Y-60325000D01*
X184785000Y-80645000D02*
X184785000Y-59690000D01*
X186055000Y-81915000D02*
X184785000Y-80645000D01*
X186055000Y-93821250D02*
X186055000Y-81915000D01*
X184785000Y-109220000D02*
X184785000Y-95091250D01*
X183515000Y-110490000D02*
X184785000Y-109220000D01*
X184785000Y-95091250D02*
X186055000Y-93821250D01*
X183515000Y-111125000D02*
X183515000Y-110490000D01*
X160020000Y-137160000D02*
X160020000Y-146050000D01*
X159385000Y-136525000D02*
X160020000Y-137160000D01*
X159385000Y-132080000D02*
X159385000Y-136525000D01*
X161925000Y-131445000D02*
X161925000Y-145415000D01*
X161925000Y-145415000D02*
X162560000Y-146050000D01*
X165100000Y-144780000D02*
X165100000Y-146050000D01*
X164465000Y-130810000D02*
X164465000Y-144145000D01*
X164465000Y-144145000D02*
X165100000Y-144780000D01*
X167640000Y-144780000D02*
X167640000Y-146050000D01*
X167005000Y-144145000D02*
X167640000Y-144780000D01*
X167005000Y-130175000D02*
X167005000Y-144145000D01*
X170180000Y-144780000D02*
X170180000Y-146050000D01*
X169545000Y-144145000D02*
X170180000Y-144780000D01*
X169545000Y-128905000D02*
X169545000Y-144145000D01*
X175260000Y-145415000D02*
X175260000Y-146050000D01*
X172085000Y-142240000D02*
X175260000Y-145415000D01*
X172085000Y-128270000D02*
X172085000Y-142240000D01*
X174625000Y-142875000D02*
X177800000Y-146050000D01*
X174625000Y-129540000D02*
X174625000Y-142875000D01*
X118110000Y-128270000D02*
X120015000Y-126365000D01*
X118110000Y-141605000D02*
X118110000Y-128270000D01*
X127635000Y-70485000D02*
X127635000Y-125095000D01*
X127635000Y-66675000D02*
X127635000Y-70485000D01*
X128270000Y-66040000D02*
X127635000Y-66675000D01*
X131445000Y-66040000D02*
X128270000Y-66040000D01*
X191770000Y-142240000D02*
X191770000Y-144780000D01*
X191770000Y-144780000D02*
X193040000Y-146050000D01*
X133350000Y-77470000D02*
X131445000Y-79375000D01*
X131445000Y-79375000D02*
X131445000Y-127635000D01*
X133350000Y-66675000D02*
X133350000Y-77470000D01*
X182245000Y-97790000D02*
X182245000Y-109220000D01*
X188595000Y-72390000D02*
X187960000Y-71755000D01*
X187960000Y-71755000D02*
X187960000Y-59055000D01*
X194310000Y-72390000D02*
X188595000Y-72390000D01*
X194945000Y-73025000D02*
X194310000Y-72390000D01*
X194945000Y-97790000D02*
X194945000Y-73025000D01*
X169545000Y-97790000D02*
X169545000Y-109220000D01*
X158115000Y-61595000D02*
X158115000Y-60325000D01*
X158115000Y-97790000D02*
X158115000Y-61595000D01*
X167005000Y-109220000D02*
X167005000Y-100965000D01*
X167005000Y-56515000D02*
X167005000Y-58420000D01*
X188595000Y-56515000D02*
X187960000Y-55880000D01*
X165735000Y-59690000D02*
X165735000Y-60325000D01*
X188595000Y-71120000D02*
X188595000Y-56515000D01*
X167640000Y-55880000D02*
X167005000Y-56515000D01*
X194945000Y-71755000D02*
X189230000Y-71755000D01*
X195580000Y-72390000D02*
X194945000Y-71755000D01*
X167005000Y-58420000D02*
X165735000Y-59690000D01*
X195580000Y-100330000D02*
X195580000Y-72390000D01*
X187960000Y-55880000D02*
X167640000Y-55880000D01*
X189230000Y-71755000D02*
X188595000Y-71120000D01*
X194945000Y-100965000D02*
X195580000Y-100330000D01*
X165100000Y-54610000D02*
X164465000Y-55245000D01*
X189865000Y-55245000D02*
X189230000Y-54610000D01*
X189865000Y-69850000D02*
X189865000Y-55245000D01*
X164465000Y-55245000D02*
X164465000Y-59055000D01*
X190500000Y-70485000D02*
X189865000Y-69850000D01*
X196850000Y-71120000D02*
X196215000Y-70485000D01*
X196850000Y-101600000D02*
X196850000Y-71120000D01*
X189230000Y-54610000D02*
X165100000Y-54610000D01*
X196215000Y-102235000D02*
X196850000Y-101600000D01*
X194945000Y-102235000D02*
X196215000Y-102235000D01*
X196215000Y-70485000D02*
X190500000Y-70485000D01*
X164465000Y-59055000D02*
X163195000Y-60325000D01*
X163195000Y-97790000D02*
X163195000Y-111125000D01*
X161925000Y-96520000D02*
X163195000Y-97790000D01*
X161925000Y-62865000D02*
X161925000Y-96520000D01*
X160655000Y-61595000D02*
X161925000Y-62865000D01*
X160655000Y-60325000D02*
X160655000Y-61595000D01*
X172085000Y-102870000D02*
X172085000Y-101600000D01*
X172085000Y-109220000D02*
X172085000Y-102870000D01*
X194310000Y-101600000D02*
X195580000Y-101600000D01*
X195580000Y-101600000D02*
X196215000Y-100965000D01*
X188595000Y-55245000D02*
X166370000Y-55245000D01*
X196215000Y-100965000D02*
X196215000Y-71755000D01*
X196215000Y-71755000D02*
X195580000Y-71120000D01*
X195580000Y-71120000D02*
X189865000Y-71120000D01*
X189865000Y-71120000D02*
X189230000Y-70485000D01*
X189230000Y-70485000D02*
X189230000Y-55880000D01*
X189230000Y-55880000D02*
X188595000Y-55245000D01*
X166370000Y-55245000D02*
X165735000Y-55880000D01*
X165735000Y-55880000D02*
X165735000Y-57785000D01*
X189865000Y-53975000D02*
X163830000Y-53975000D01*
X190500000Y-69215000D02*
X190500000Y-54610000D01*
X163195000Y-54610000D02*
X163195000Y-57785000D01*
X191135000Y-69850000D02*
X190500000Y-69215000D01*
X196850000Y-69850000D02*
X191135000Y-69850000D01*
X197485000Y-70485000D02*
X196850000Y-69850000D01*
X197485000Y-102235000D02*
X197485000Y-70485000D01*
X190500000Y-54610000D02*
X189865000Y-53975000D01*
X196850000Y-102870000D02*
X197485000Y-102235000D01*
X163830000Y-53975000D02*
X163195000Y-54610000D01*
X194310000Y-102870000D02*
X196850000Y-102870000D01*
X156845000Y-64135000D02*
X156845000Y-59055000D01*
X140335000Y-107950000D02*
X140335000Y-111125000D01*
X156210000Y-64770000D02*
X156845000Y-64135000D01*
X154305000Y-107950000D02*
X154305000Y-65405000D01*
X156845000Y-59055000D02*
X158115000Y-57785000D01*
X154305000Y-65405000D02*
X154940000Y-64770000D01*
X154940000Y-64770000D02*
X156210000Y-64770000D01*
X141605000Y-108585000D02*
X141605000Y-107315000D01*
X139065000Y-104775000D02*
X139065000Y-86360000D01*
X141605000Y-107315000D02*
X139065000Y-104775000D01*
X139065000Y-121920000D02*
X139065000Y-123825000D01*
X141605000Y-119380000D02*
X139065000Y-121920000D01*
X141605000Y-108585000D02*
X141605000Y-119380000D01*
X142240000Y-59055000D02*
X140970000Y-57785000D01*
X140970000Y-57785000D02*
X140335000Y-57785000D01*
X143510000Y-59055000D02*
X142240000Y-59055000D01*
X144145000Y-61912500D02*
X144145000Y-59690000D01*
X143510000Y-62547500D02*
X144145000Y-61912500D01*
X139065000Y-63182500D02*
X139700000Y-62547500D01*
X144145000Y-59690000D02*
X143510000Y-59055000D01*
X139065000Y-75565000D02*
X139065000Y-63182500D01*
X139700000Y-62547500D02*
X143510000Y-62547500D01*
X137795000Y-76835000D02*
X139065000Y-75565000D01*
X137795000Y-80645000D02*
X137795000Y-76835000D01*
X139700000Y-142240000D02*
X139700000Y-146050000D01*
X143510000Y-141605000D02*
X140335000Y-141605000D01*
X144145000Y-140970000D02*
X143510000Y-141605000D01*
X144145000Y-121920000D02*
X144145000Y-140970000D01*
X140335000Y-141605000D02*
X139700000Y-142240000D01*
X145415000Y-120650000D02*
X144145000Y-121920000D01*
X150495000Y-106045000D02*
X150495000Y-111125000D01*
X149225000Y-104775000D02*
X150495000Y-106045000D01*
X149225000Y-92710000D02*
X149225000Y-104775000D01*
X146685000Y-90170000D02*
X149225000Y-92710000D01*
X146685000Y-85725000D02*
X146685000Y-90170000D01*
X149225000Y-79375000D02*
X149225000Y-83185000D01*
X149225000Y-83185000D02*
X146685000Y-85725000D01*
X148590000Y-78740000D02*
X149225000Y-79375000D01*
X146685000Y-78740000D02*
X148590000Y-78740000D01*
X190500000Y-142240000D02*
X191770000Y-140970000D01*
X198755000Y-137795000D02*
X198755000Y-69215000D01*
X191770000Y-140970000D02*
X191770000Y-139065000D01*
X191770000Y-139065000D02*
X192405000Y-138430000D01*
X191770000Y-67945000D02*
X191770000Y-53975000D01*
X192405000Y-138430000D02*
X198120000Y-138430000D01*
X198120000Y-138430000D02*
X198755000Y-137795000D01*
X198755000Y-69215000D02*
X198120000Y-68580000D01*
X198120000Y-68580000D02*
X192405000Y-68580000D01*
X192405000Y-68580000D02*
X191770000Y-67945000D01*
X169545000Y-59055000D02*
X170815000Y-57785000D01*
X169545000Y-61595000D02*
X169545000Y-59055000D01*
X168910000Y-62230000D02*
X169545000Y-61595000D01*
X168275000Y-62230000D02*
X168910000Y-62230000D01*
X167005000Y-63500000D02*
X168275000Y-62230000D01*
X172085000Y-70485000D02*
X167005000Y-65405000D01*
X167005000Y-65405000D02*
X167005000Y-63500000D01*
X172085000Y-96520000D02*
X172085000Y-70485000D01*
X170815000Y-97790000D02*
X172085000Y-96520000D01*
X170815000Y-111125000D02*
X170815000Y-97790000D01*
X164465000Y-63182500D02*
X165100000Y-62547500D01*
X167005000Y-68580000D02*
X164465000Y-66040000D01*
X167005000Y-89535000D02*
X167005000Y-68580000D01*
X166687500Y-62547500D02*
X168275000Y-60960000D01*
X165100000Y-62547500D02*
X166687500Y-62547500D01*
X167640000Y-90170000D02*
X167005000Y-89535000D01*
X168275000Y-60960000D02*
X168275000Y-60325000D01*
X168910000Y-90170000D02*
X167640000Y-90170000D01*
X164465000Y-66040000D02*
X164465000Y-63182500D01*
X169545000Y-96520000D02*
X169545000Y-90805000D01*
X168275000Y-97790000D02*
X169545000Y-96520000D01*
X169545000Y-90805000D02*
X168910000Y-90170000D01*
X168275000Y-111125000D02*
X168275000Y-97790000D01*
X167005000Y-59690000D02*
X168275000Y-58420000D01*
X165735000Y-111125000D02*
X165735000Y-97790000D01*
X163830000Y-62547500D02*
X164465000Y-61912500D01*
X165735000Y-97790000D02*
X167005000Y-96520000D01*
X164465000Y-61912500D02*
X166052500Y-61912500D01*
X167005000Y-96520000D02*
X167005000Y-90805000D01*
X167005000Y-90805000D02*
X166370000Y-90170000D01*
X168275000Y-58420000D02*
X168275000Y-57785000D01*
X165100000Y-90170000D02*
X164465000Y-89535000D01*
X166370000Y-90170000D02*
X165100000Y-90170000D01*
X164465000Y-89535000D02*
X164465000Y-67310000D01*
X164465000Y-67310000D02*
X163830000Y-66675000D01*
X163830000Y-66675000D02*
X163830000Y-62547500D01*
X166052500Y-61912500D02*
X167005000Y-60960000D01*
X167005000Y-60960000D02*
X167005000Y-59690000D01*
X198120000Y-139065000D02*
X198120000Y-143510000D01*
X198120000Y-143510000D02*
X195580000Y-146050000D01*
X153035000Y-122555000D02*
X153035000Y-132080000D01*
X154305000Y-121285000D02*
X153035000Y-122555000D01*
X154305000Y-107950000D02*
X154305000Y-121285000D01*
X114935000Y-130175000D02*
X114935000Y-118745000D01*
X136525000Y-129540000D02*
X135255000Y-130810000D01*
X136525000Y-118110000D02*
X136525000Y-129540000D01*
X137795000Y-116840000D02*
X136525000Y-118110000D01*
X137795000Y-111125000D02*
X137795000Y-116840000D01*
X135255000Y-130810000D02*
X135255000Y-133985000D01*
X142875000Y-86360000D02*
X142875000Y-80645000D01*
X144145000Y-87630000D02*
X142875000Y-86360000D01*
X144145000Y-104140000D02*
X144145000Y-87630000D01*
X146685000Y-106680000D02*
X144145000Y-104140000D01*
X146685000Y-120650000D02*
X146685000Y-106680000D01*
X145415000Y-121920000D02*
X146685000Y-120650000D01*
X145415000Y-126365000D02*
X145415000Y-121920000D01*
X150495000Y-92392500D02*
X150495000Y-95885000D01*
X149225000Y-91122500D02*
X150495000Y-92392500D01*
X149860000Y-86360000D02*
X149225000Y-86995000D01*
X149860000Y-82550000D02*
X149860000Y-86360000D01*
X149225000Y-86995000D02*
X149225000Y-91122500D01*
X150495000Y-101600000D02*
X150495000Y-95885000D01*
X149225000Y-120650000D02*
X147955000Y-121920000D01*
X149225000Y-106045000D02*
X149225000Y-120650000D01*
X147955000Y-121920000D02*
X147955000Y-126365000D01*
X154940000Y-88265000D02*
X154940000Y-93345000D01*
X144145000Y-66040000D02*
X144145000Y-86360000D01*
X146685000Y-91440000D02*
X146685000Y-101600000D01*
X145415000Y-90170000D02*
X146685000Y-91440000D01*
X159385000Y-116205000D02*
X159385000Y-128270000D01*
X158115000Y-114935000D02*
X159385000Y-116205000D01*
X158115000Y-99060000D02*
X158115000Y-114935000D01*
X110490000Y-80645000D02*
X110490000Y-60325000D01*
X109855000Y-81280000D02*
X110490000Y-80645000D01*
X110490000Y-60325000D02*
X113030000Y-57785000D01*
X102235000Y-81280000D02*
X109855000Y-81280000D01*
X101600000Y-81915000D02*
X102235000Y-81280000D01*
X101600000Y-121920000D02*
X101600000Y-81915000D01*
X121285000Y-127635000D02*
X122555000Y-128905000D01*
X121285000Y-124460000D02*
X121285000Y-127635000D01*
X111125000Y-120015000D02*
X109855000Y-118745000D01*
X111125000Y-128905000D02*
X111125000Y-120015000D01*
D22*
X125095000Y-78422500D02*
X125095000Y-76835000D01*
X123507500Y-80010000D02*
X125095000Y-78422500D01*
X123507500Y-87153750D02*
X123507500Y-80010000D01*
X123983750Y-87630000D02*
X123507500Y-87153750D01*
X125095000Y-87630000D02*
X123983750Y-87630000D01*
D21*
X140335000Y-98425000D02*
X140335000Y-101600000D01*
X141605000Y-97155000D02*
X140335000Y-98425000D01*
X141605000Y-94615000D02*
X141605000Y-97155000D01*
X140335000Y-93345000D02*
X141605000Y-94615000D01*
X140335000Y-88265000D02*
X140335000Y-93345000D01*
D22*
X127635000Y-56832500D02*
X127635000Y-57785000D01*
X127000000Y-56197500D02*
X127635000Y-56832500D01*
X124142500Y-56197500D02*
X127000000Y-56197500D01*
X124142500Y-63500000D02*
X123507500Y-62865000D01*
X123507500Y-62865000D02*
X123507500Y-56832500D01*
X123507500Y-70167500D02*
X124142500Y-69532500D01*
X123507500Y-56832500D02*
X124142500Y-56197500D01*
X124142500Y-69532500D02*
X124142500Y-63500000D01*
X120650000Y-70167500D02*
X123507500Y-70167500D01*
X120015000Y-70802500D02*
X120650000Y-70167500D01*
X120015000Y-71755000D02*
X120015000Y-70802500D01*
D21*
X140335000Y-103505000D02*
X140335000Y-104775000D01*
X140335000Y-104775000D02*
X142875000Y-107315000D01*
X142875000Y-107315000D02*
X142875000Y-109220000D01*
X138430000Y-118110000D02*
X137795000Y-118745000D01*
X138430000Y-113030000D02*
X138430000Y-118110000D01*
X141605000Y-98425000D02*
X142875000Y-97155000D01*
X141605000Y-104775000D02*
X141605000Y-98425000D01*
X144145000Y-107315000D02*
X141605000Y-104775000D01*
X144145000Y-114300000D02*
X144145000Y-107315000D01*
X142875000Y-97155000D02*
X142875000Y-95885000D01*
X145415000Y-115570000D02*
X144145000Y-114300000D01*
X145415000Y-118745000D02*
X145415000Y-115570000D01*
X129540000Y-127000000D02*
X129540000Y-121920000D01*
X128905000Y-127635000D02*
X129540000Y-127000000D01*
X128905000Y-131445000D02*
X128905000Y-127635000D01*
X142875000Y-114300000D02*
X142875000Y-111125000D01*
X144145000Y-115570000D02*
X142875000Y-114300000D01*
D22*
X117792500Y-76835000D02*
X120015000Y-76835000D01*
X117157500Y-76200000D02*
X117792500Y-76835000D01*
X117157500Y-67627500D02*
X117157500Y-76200000D01*
X116522500Y-66992500D02*
X117157500Y-67627500D01*
X113030000Y-66992500D02*
X116522500Y-66992500D01*
X125095000Y-96520000D02*
X125095000Y-100330000D01*
D21*
X123825000Y-130175000D02*
X122555000Y-131445000D01*
X123825000Y-113030000D02*
X123825000Y-130175000D01*
X136525000Y-65405000D02*
X135890000Y-64770000D01*
X136525000Y-116840000D02*
X136525000Y-65405000D01*
X135890000Y-64770000D02*
X135255000Y-64135000D01*
X183515000Y-80645000D02*
X183515000Y-74295000D01*
X144145000Y-120650000D02*
X140335000Y-124460000D01*
X144145000Y-115570000D02*
X144145000Y-116205000D01*
X144145000Y-116205000D02*
X144145000Y-120650000D01*
X140335000Y-124460000D02*
X140335000Y-126365000D01*
D23*
X157418500Y-97263728D02*
X157342687Y-97377190D01*
X157276991Y-97535793D01*
X157243500Y-97704165D01*
X157243500Y-97875835D01*
X157276991Y-98044207D01*
X157342687Y-98202810D01*
X157438062Y-98345549D01*
X157517513Y-98425000D01*
X157438062Y-98504451D01*
X157342687Y-98647190D01*
X157276991Y-98805793D01*
X157243500Y-98974165D01*
X157243500Y-99145835D01*
X157276991Y-99314207D01*
X157342687Y-99472810D01*
X157418500Y-99586272D01*
X157418501Y-114900774D01*
X157415130Y-114935000D01*
X157428578Y-115071538D01*
X157468404Y-115202828D01*
X157468405Y-115202829D01*
X157533080Y-115323827D01*
X157620118Y-115429883D01*
X157646696Y-115451695D01*
X158688500Y-116493500D01*
X158688501Y-127743726D01*
X158612687Y-127857190D01*
X158546991Y-128015793D01*
X158513500Y-128184165D01*
X158513500Y-128355835D01*
X158546991Y-128524207D01*
X158612687Y-128682810D01*
X158708062Y-128825549D01*
X158829451Y-128946938D01*
X158972190Y-129042313D01*
X159130793Y-129108009D01*
X159299165Y-129141500D01*
X159470835Y-129141500D01*
X159639207Y-129108009D01*
X159797810Y-129042313D01*
X159940549Y-128946938D01*
X159958500Y-128928987D01*
X159958501Y-131421014D01*
X159940549Y-131403062D01*
X159797810Y-131307687D01*
X159639207Y-131241991D01*
X159470835Y-131208500D01*
X159299165Y-131208500D01*
X159130793Y-131241991D01*
X158972190Y-131307687D01*
X158829451Y-131403062D01*
X158708062Y-131524451D01*
X158612687Y-131667190D01*
X158546991Y-131825793D01*
X158513500Y-131994165D01*
X158513500Y-132165835D01*
X158546991Y-132334207D01*
X158612687Y-132492810D01*
X158688500Y-132606273D01*
X158688501Y-136490774D01*
X158685130Y-136525000D01*
X158698578Y-136661538D01*
X158738404Y-136792828D01*
X158738405Y-136792829D01*
X158803080Y-136913827D01*
X158890118Y-137019883D01*
X158916695Y-137041694D01*
X159323500Y-137448500D01*
X159323501Y-144805762D01*
X159113847Y-144945849D01*
X158915849Y-145143847D01*
X158819789Y-145287610D01*
X158766026Y-145187447D01*
X158573040Y-144953129D01*
X158338049Y-144760964D01*
X158070083Y-144618335D01*
X157784753Y-144531785D01*
X157543500Y-144677593D01*
X157543500Y-145986500D01*
X157563500Y-145986500D01*
X157563500Y-146113500D01*
X157543500Y-146113500D01*
X157543500Y-146133500D01*
X157416500Y-146133500D01*
X157416500Y-146113500D01*
X157396500Y-146113500D01*
X157396500Y-145986500D01*
X157416500Y-145986500D01*
X157416500Y-144677593D01*
X157175247Y-144531785D01*
X156889917Y-144618335D01*
X156621951Y-144760964D01*
X156386960Y-144953129D01*
X156193974Y-145187447D01*
X156140211Y-145287610D01*
X156044151Y-145143847D01*
X155886506Y-144986202D01*
X155886506Y-144826490D01*
X155891085Y-144779999D01*
X155872810Y-144594452D01*
X155818687Y-144416034D01*
X155786542Y-144355895D01*
X155730798Y-144251605D01*
X155612519Y-144107481D01*
X155576405Y-144077843D01*
X154934006Y-143435445D01*
X154934006Y-125101276D01*
X155002831Y-125137806D01*
X155285548Y-125222669D01*
X155579389Y-125250745D01*
X155873061Y-125220957D01*
X156155279Y-125134448D01*
X156407898Y-124999419D01*
X156470276Y-124730078D01*
X155575000Y-123834803D01*
X155560858Y-123848945D01*
X155471055Y-123759142D01*
X155485197Y-123745000D01*
X155664803Y-123745000D01*
X156560078Y-124640276D01*
X156829419Y-124577898D01*
X156967806Y-124317169D01*
X157052669Y-124034452D01*
X157080745Y-123740611D01*
X157050957Y-123446939D01*
X156964448Y-123164721D01*
X156829419Y-122912102D01*
X156560078Y-122849724D01*
X155664803Y-123745000D01*
X155485197Y-123745000D01*
X155471055Y-123730858D01*
X155560858Y-123641055D01*
X155575000Y-123655197D01*
X156470276Y-122759922D01*
X156407898Y-122490581D01*
X156147169Y-122352194D01*
X155915813Y-122282748D01*
X156211400Y-121987161D01*
X156247519Y-121957519D01*
X156365798Y-121813395D01*
X156453688Y-121648964D01*
X156507810Y-121470547D01*
X156521506Y-121331491D01*
X156526085Y-121285001D01*
X156521506Y-121238510D01*
X156521506Y-119738088D01*
X156640314Y-119619280D01*
X156790407Y-119394649D01*
X156893794Y-119145052D01*
X156946500Y-118880081D01*
X156946500Y-118609919D01*
X156893794Y-118344948D01*
X156790407Y-118095351D01*
X156640314Y-117870720D01*
X156449280Y-117679686D01*
X156224649Y-117529593D01*
X155975052Y-117426206D01*
X155710081Y-117373500D01*
X155439919Y-117373500D01*
X155174948Y-117426206D01*
X155001500Y-117498051D01*
X155001500Y-108476272D01*
X155077313Y-108362810D01*
X155143009Y-108204207D01*
X155176500Y-108035835D01*
X155176500Y-107864165D01*
X155143009Y-107695793D01*
X155077313Y-107537190D01*
X155001500Y-107423728D01*
X155001500Y-102277100D01*
X155002831Y-102277806D01*
X155285548Y-102362669D01*
X155579389Y-102390745D01*
X155873061Y-102360957D01*
X156155279Y-102274448D01*
X156407898Y-102139419D01*
X156470276Y-101870078D01*
X155575000Y-100974803D01*
X155560858Y-100988945D01*
X155471055Y-100899142D01*
X155485197Y-100885000D01*
X155664803Y-100885000D01*
X156560078Y-101780276D01*
X156829419Y-101717898D01*
X156967806Y-101457169D01*
X157052669Y-101174452D01*
X157080745Y-100880611D01*
X157050957Y-100586939D01*
X156964448Y-100304721D01*
X156829419Y-100052102D01*
X156560078Y-99989724D01*
X155664803Y-100885000D01*
X155485197Y-100885000D01*
X155471055Y-100870858D01*
X155560858Y-100781055D01*
X155575000Y-100795197D01*
X156470276Y-99899922D01*
X156407898Y-99630581D01*
X156147169Y-99492194D01*
X155864452Y-99407331D01*
X155570611Y-99379255D01*
X155276939Y-99409043D01*
X155001500Y-99493474D01*
X155001500Y-97131949D01*
X155174948Y-97203794D01*
X155439919Y-97256500D01*
X155710081Y-97256500D01*
X155975052Y-97203794D01*
X156224649Y-97100407D01*
X156449280Y-96950314D01*
X156640314Y-96759280D01*
X156790407Y-96534649D01*
X156893794Y-96285052D01*
X156946500Y-96020081D01*
X156946500Y-95749919D01*
X156893794Y-95484948D01*
X156790407Y-95235351D01*
X156640314Y-95010720D01*
X156449280Y-94819686D01*
X156224649Y-94669593D01*
X155975052Y-94566206D01*
X155710081Y-94513500D01*
X155439919Y-94513500D01*
X155174948Y-94566206D01*
X155001500Y-94638051D01*
X155001500Y-94216500D01*
X155025835Y-94216500D01*
X155194207Y-94183009D01*
X155352810Y-94117313D01*
X155495549Y-94021938D01*
X155616938Y-93900549D01*
X155712313Y-93757810D01*
X155778009Y-93599207D01*
X155811500Y-93430835D01*
X155811500Y-93259165D01*
X155778009Y-93090793D01*
X155712313Y-92932190D01*
X155636500Y-92818728D01*
X155636500Y-88791272D01*
X155712313Y-88677810D01*
X155778009Y-88519207D01*
X155811500Y-88350835D01*
X155811500Y-88179165D01*
X155778009Y-88010793D01*
X155712313Y-87852190D01*
X155616938Y-87709451D01*
X155495549Y-87588062D01*
X155352810Y-87492687D01*
X155194207Y-87426991D01*
X155025835Y-87393500D01*
X155001500Y-87393500D01*
X155001500Y-87037100D01*
X155002831Y-87037806D01*
X155285548Y-87122669D01*
X155579389Y-87150745D01*
X155873061Y-87120957D01*
X156155279Y-87034448D01*
X156407898Y-86899419D01*
X156470276Y-86630078D01*
X155575000Y-85734803D01*
X155560858Y-85748945D01*
X155471055Y-85659142D01*
X155485197Y-85645000D01*
X155664803Y-85645000D01*
X156560078Y-86540276D01*
X156829419Y-86477898D01*
X156967806Y-86217169D01*
X157052669Y-85934452D01*
X157080745Y-85640611D01*
X157050957Y-85346939D01*
X156964448Y-85064721D01*
X156829419Y-84812102D01*
X156560078Y-84749724D01*
X155664803Y-85645000D01*
X155485197Y-85645000D01*
X155471055Y-85630858D01*
X155560858Y-85541055D01*
X155575000Y-85555197D01*
X156470276Y-84659922D01*
X156407898Y-84390581D01*
X156147169Y-84252194D01*
X155864452Y-84167331D01*
X155570611Y-84139255D01*
X155276939Y-84169043D01*
X155001500Y-84253474D01*
X155001500Y-81891949D01*
X155174948Y-81963794D01*
X155439919Y-82016500D01*
X155710081Y-82016500D01*
X155975052Y-81963794D01*
X156224649Y-81860407D01*
X156449280Y-81710314D01*
X156640314Y-81519280D01*
X156790407Y-81294649D01*
X156893794Y-81045052D01*
X156946500Y-80780081D01*
X156946500Y-80509919D01*
X156893794Y-80244948D01*
X156790407Y-79995351D01*
X156640314Y-79770720D01*
X156449280Y-79579686D01*
X156224649Y-79429593D01*
X155975052Y-79326206D01*
X155710081Y-79273500D01*
X155439919Y-79273500D01*
X155174948Y-79326206D01*
X155001500Y-79398051D01*
X155001500Y-75541949D01*
X155174948Y-75613794D01*
X155439919Y-75666500D01*
X155710081Y-75666500D01*
X155975052Y-75613794D01*
X156224649Y-75510407D01*
X156449280Y-75360314D01*
X156640314Y-75169280D01*
X156790407Y-74944649D01*
X156893794Y-74695052D01*
X156946500Y-74430081D01*
X156946500Y-74159919D01*
X156893794Y-73894948D01*
X156790407Y-73645351D01*
X156640314Y-73420720D01*
X156449280Y-73229686D01*
X156224649Y-73079593D01*
X155975052Y-72976206D01*
X155710081Y-72923500D01*
X155439919Y-72923500D01*
X155174948Y-72976206D01*
X155001500Y-73048051D01*
X155001500Y-68049265D01*
X156375000Y-68049265D01*
X156487034Y-68038231D01*
X156594762Y-68005552D01*
X156694045Y-67952484D01*
X156781067Y-67881067D01*
X156852484Y-67794045D01*
X156905552Y-67694762D01*
X156938231Y-67587034D01*
X156949265Y-67475000D01*
X156949265Y-65875000D01*
X156938231Y-65762966D01*
X156905552Y-65655238D01*
X156852484Y-65555955D01*
X156781067Y-65468933D01*
X156694045Y-65397516D01*
X156602738Y-65348711D01*
X156704883Y-65264883D01*
X156726699Y-65238300D01*
X157313309Y-64651691D01*
X157339882Y-64629883D01*
X157361691Y-64603309D01*
X157361694Y-64603306D01*
X157415751Y-64537437D01*
X157418501Y-64534087D01*
X157418500Y-97263728D01*
G04 #@! TA.AperFunction,Conductor*
D24*
G36*
X157418500Y-97263728D02*
G01*
X157342687Y-97377190D01*
X157276991Y-97535793D01*
X157243500Y-97704165D01*
X157243500Y-97875835D01*
X157276991Y-98044207D01*
X157342687Y-98202810D01*
X157438062Y-98345549D01*
X157517513Y-98425000D01*
X157438062Y-98504451D01*
X157342687Y-98647190D01*
X157276991Y-98805793D01*
X157243500Y-98974165D01*
X157243500Y-99145835D01*
X157276991Y-99314207D01*
X157342687Y-99472810D01*
X157418500Y-99586272D01*
X157418501Y-114900774D01*
X157415130Y-114935000D01*
X157428578Y-115071538D01*
X157468404Y-115202828D01*
X157468405Y-115202829D01*
X157533080Y-115323827D01*
X157620118Y-115429883D01*
X157646696Y-115451695D01*
X158688500Y-116493500D01*
X158688501Y-127743726D01*
X158612687Y-127857190D01*
X158546991Y-128015793D01*
X158513500Y-128184165D01*
X158513500Y-128355835D01*
X158546991Y-128524207D01*
X158612687Y-128682810D01*
X158708062Y-128825549D01*
X158829451Y-128946938D01*
X158972190Y-129042313D01*
X159130793Y-129108009D01*
X159299165Y-129141500D01*
X159470835Y-129141500D01*
X159639207Y-129108009D01*
X159797810Y-129042313D01*
X159940549Y-128946938D01*
X159958500Y-128928987D01*
X159958501Y-131421014D01*
X159940549Y-131403062D01*
X159797810Y-131307687D01*
X159639207Y-131241991D01*
X159470835Y-131208500D01*
X159299165Y-131208500D01*
X159130793Y-131241991D01*
X158972190Y-131307687D01*
X158829451Y-131403062D01*
X158708062Y-131524451D01*
X158612687Y-131667190D01*
X158546991Y-131825793D01*
X158513500Y-131994165D01*
X158513500Y-132165835D01*
X158546991Y-132334207D01*
X158612687Y-132492810D01*
X158688500Y-132606273D01*
X158688501Y-136490774D01*
X158685130Y-136525000D01*
X158698578Y-136661538D01*
X158738404Y-136792828D01*
X158738405Y-136792829D01*
X158803080Y-136913827D01*
X158890118Y-137019883D01*
X158916695Y-137041694D01*
X159323500Y-137448500D01*
X159323501Y-144805762D01*
X159113847Y-144945849D01*
X158915849Y-145143847D01*
X158819789Y-145287610D01*
X158766026Y-145187447D01*
X158573040Y-144953129D01*
X158338049Y-144760964D01*
X158070083Y-144618335D01*
X157784753Y-144531785D01*
X157543500Y-144677593D01*
X157543500Y-145986500D01*
X157563500Y-145986500D01*
X157563500Y-146113500D01*
X157543500Y-146113500D01*
X157543500Y-146133500D01*
X157416500Y-146133500D01*
X157416500Y-146113500D01*
X157396500Y-146113500D01*
X157396500Y-145986500D01*
X157416500Y-145986500D01*
X157416500Y-144677593D01*
X157175247Y-144531785D01*
X156889917Y-144618335D01*
X156621951Y-144760964D01*
X156386960Y-144953129D01*
X156193974Y-145187447D01*
X156140211Y-145287610D01*
X156044151Y-145143847D01*
X155886506Y-144986202D01*
X155886506Y-144826490D01*
X155891085Y-144779999D01*
X155872810Y-144594452D01*
X155818687Y-144416034D01*
X155786542Y-144355895D01*
X155730798Y-144251605D01*
X155612519Y-144107481D01*
X155576405Y-144077843D01*
X154934006Y-143435445D01*
X154934006Y-125101276D01*
X155002831Y-125137806D01*
X155285548Y-125222669D01*
X155579389Y-125250745D01*
X155873061Y-125220957D01*
X156155279Y-125134448D01*
X156407898Y-124999419D01*
X156470276Y-124730078D01*
X155575000Y-123834803D01*
X155560858Y-123848945D01*
X155471055Y-123759142D01*
X155485197Y-123745000D01*
X155664803Y-123745000D01*
X156560078Y-124640276D01*
X156829419Y-124577898D01*
X156967806Y-124317169D01*
X157052669Y-124034452D01*
X157080745Y-123740611D01*
X157050957Y-123446939D01*
X156964448Y-123164721D01*
X156829419Y-122912102D01*
X156560078Y-122849724D01*
X155664803Y-123745000D01*
X155485197Y-123745000D01*
X155471055Y-123730858D01*
X155560858Y-123641055D01*
X155575000Y-123655197D01*
X156470276Y-122759922D01*
X156407898Y-122490581D01*
X156147169Y-122352194D01*
X155915813Y-122282748D01*
X156211400Y-121987161D01*
X156247519Y-121957519D01*
X156365798Y-121813395D01*
X156453688Y-121648964D01*
X156507810Y-121470547D01*
X156521506Y-121331491D01*
X156526085Y-121285001D01*
X156521506Y-121238510D01*
X156521506Y-119738088D01*
X156640314Y-119619280D01*
X156790407Y-119394649D01*
X156893794Y-119145052D01*
X156946500Y-118880081D01*
X156946500Y-118609919D01*
X156893794Y-118344948D01*
X156790407Y-118095351D01*
X156640314Y-117870720D01*
X156449280Y-117679686D01*
X156224649Y-117529593D01*
X155975052Y-117426206D01*
X155710081Y-117373500D01*
X155439919Y-117373500D01*
X155174948Y-117426206D01*
X155001500Y-117498051D01*
X155001500Y-108476272D01*
X155077313Y-108362810D01*
X155143009Y-108204207D01*
X155176500Y-108035835D01*
X155176500Y-107864165D01*
X155143009Y-107695793D01*
X155077313Y-107537190D01*
X155001500Y-107423728D01*
X155001500Y-102277100D01*
X155002831Y-102277806D01*
X155285548Y-102362669D01*
X155579389Y-102390745D01*
X155873061Y-102360957D01*
X156155279Y-102274448D01*
X156407898Y-102139419D01*
X156470276Y-101870078D01*
X155575000Y-100974803D01*
X155560858Y-100988945D01*
X155471055Y-100899142D01*
X155485197Y-100885000D01*
X155664803Y-100885000D01*
X156560078Y-101780276D01*
X156829419Y-101717898D01*
X156967806Y-101457169D01*
X157052669Y-101174452D01*
X157080745Y-100880611D01*
X157050957Y-100586939D01*
X156964448Y-100304721D01*
X156829419Y-100052102D01*
X156560078Y-99989724D01*
X155664803Y-100885000D01*
X155485197Y-100885000D01*
X155471055Y-100870858D01*
X155560858Y-100781055D01*
X155575000Y-100795197D01*
X156470276Y-99899922D01*
X156407898Y-99630581D01*
X156147169Y-99492194D01*
X155864452Y-99407331D01*
X155570611Y-99379255D01*
X155276939Y-99409043D01*
X155001500Y-99493474D01*
X155001500Y-97131949D01*
X155174948Y-97203794D01*
X155439919Y-97256500D01*
X155710081Y-97256500D01*
X155975052Y-97203794D01*
X156224649Y-97100407D01*
X156449280Y-96950314D01*
X156640314Y-96759280D01*
X156790407Y-96534649D01*
X156893794Y-96285052D01*
X156946500Y-96020081D01*
X156946500Y-95749919D01*
X156893794Y-95484948D01*
X156790407Y-95235351D01*
X156640314Y-95010720D01*
X156449280Y-94819686D01*
X156224649Y-94669593D01*
X155975052Y-94566206D01*
X155710081Y-94513500D01*
X155439919Y-94513500D01*
X155174948Y-94566206D01*
X155001500Y-94638051D01*
X155001500Y-94216500D01*
X155025835Y-94216500D01*
X155194207Y-94183009D01*
X155352810Y-94117313D01*
X155495549Y-94021938D01*
X155616938Y-93900549D01*
X155712313Y-93757810D01*
X155778009Y-93599207D01*
X155811500Y-93430835D01*
X155811500Y-93259165D01*
X155778009Y-93090793D01*
X155712313Y-92932190D01*
X155636500Y-92818728D01*
X155636500Y-88791272D01*
X155712313Y-88677810D01*
X155778009Y-88519207D01*
X155811500Y-88350835D01*
X155811500Y-88179165D01*
X155778009Y-88010793D01*
X155712313Y-87852190D01*
X155616938Y-87709451D01*
X155495549Y-87588062D01*
X155352810Y-87492687D01*
X155194207Y-87426991D01*
X155025835Y-87393500D01*
X155001500Y-87393500D01*
X155001500Y-87037100D01*
X155002831Y-87037806D01*
X155285548Y-87122669D01*
X155579389Y-87150745D01*
X155873061Y-87120957D01*
X156155279Y-87034448D01*
X156407898Y-86899419D01*
X156470276Y-86630078D01*
X155575000Y-85734803D01*
X155560858Y-85748945D01*
X155471055Y-85659142D01*
X155485197Y-85645000D01*
X155664803Y-85645000D01*
X156560078Y-86540276D01*
X156829419Y-86477898D01*
X156967806Y-86217169D01*
X157052669Y-85934452D01*
X157080745Y-85640611D01*
X157050957Y-85346939D01*
X156964448Y-85064721D01*
X156829419Y-84812102D01*
X156560078Y-84749724D01*
X155664803Y-85645000D01*
X155485197Y-85645000D01*
X155471055Y-85630858D01*
X155560858Y-85541055D01*
X155575000Y-85555197D01*
X156470276Y-84659922D01*
X156407898Y-84390581D01*
X156147169Y-84252194D01*
X155864452Y-84167331D01*
X155570611Y-84139255D01*
X155276939Y-84169043D01*
X155001500Y-84253474D01*
X155001500Y-81891949D01*
X155174948Y-81963794D01*
X155439919Y-82016500D01*
X155710081Y-82016500D01*
X155975052Y-81963794D01*
X156224649Y-81860407D01*
X156449280Y-81710314D01*
X156640314Y-81519280D01*
X156790407Y-81294649D01*
X156893794Y-81045052D01*
X156946500Y-80780081D01*
X156946500Y-80509919D01*
X156893794Y-80244948D01*
X156790407Y-79995351D01*
X156640314Y-79770720D01*
X156449280Y-79579686D01*
X156224649Y-79429593D01*
X155975052Y-79326206D01*
X155710081Y-79273500D01*
X155439919Y-79273500D01*
X155174948Y-79326206D01*
X155001500Y-79398051D01*
X155001500Y-75541949D01*
X155174948Y-75613794D01*
X155439919Y-75666500D01*
X155710081Y-75666500D01*
X155975052Y-75613794D01*
X156224649Y-75510407D01*
X156449280Y-75360314D01*
X156640314Y-75169280D01*
X156790407Y-74944649D01*
X156893794Y-74695052D01*
X156946500Y-74430081D01*
X156946500Y-74159919D01*
X156893794Y-73894948D01*
X156790407Y-73645351D01*
X156640314Y-73420720D01*
X156449280Y-73229686D01*
X156224649Y-73079593D01*
X155975052Y-72976206D01*
X155710081Y-72923500D01*
X155439919Y-72923500D01*
X155174948Y-72976206D01*
X155001500Y-73048051D01*
X155001500Y-68049265D01*
X156375000Y-68049265D01*
X156487034Y-68038231D01*
X156594762Y-68005552D01*
X156694045Y-67952484D01*
X156781067Y-67881067D01*
X156852484Y-67794045D01*
X156905552Y-67694762D01*
X156938231Y-67587034D01*
X156949265Y-67475000D01*
X156949265Y-65875000D01*
X156938231Y-65762966D01*
X156905552Y-65655238D01*
X156852484Y-65555955D01*
X156781067Y-65468933D01*
X156694045Y-65397516D01*
X156602738Y-65348711D01*
X156704883Y-65264883D01*
X156726699Y-65238300D01*
X157313309Y-64651691D01*
X157339882Y-64629883D01*
X157361691Y-64603309D01*
X157361694Y-64603306D01*
X157415751Y-64537437D01*
X157418501Y-64534087D01*
X157418500Y-97263728D01*
G37*
G04 #@! TD.AperFunction*
D23*
X149279593Y-127014649D02*
X149429686Y-127239280D01*
X149620720Y-127430314D01*
X149845351Y-127580407D01*
X150094948Y-127683794D01*
X150359919Y-127736500D01*
X150630081Y-127736500D01*
X150895052Y-127683794D01*
X151068500Y-127611949D01*
X151068501Y-132601102D01*
X151064131Y-132598784D01*
X150791925Y-132516212D01*
X150558500Y-132662649D01*
X150558500Y-133921500D01*
X150578500Y-133921500D01*
X150578500Y-134048500D01*
X150558500Y-134048500D01*
X150558500Y-135307351D01*
X150791925Y-135453788D01*
X151064131Y-135371216D01*
X151068501Y-135368898D01*
X151068501Y-141316499D01*
X150841501Y-141543500D01*
X147989216Y-141543500D01*
X147955000Y-141540130D01*
X147920784Y-141543500D01*
X147818462Y-141553578D01*
X147687171Y-141593404D01*
X147566173Y-141658079D01*
X147460117Y-141745117D01*
X147438305Y-141771695D01*
X146851696Y-142358305D01*
X146825117Y-142380118D01*
X146738079Y-142486174D01*
X146673405Y-142607171D01*
X146673404Y-142607172D01*
X146633578Y-142738462D01*
X146620130Y-142875000D01*
X146623500Y-142909215D01*
X146623501Y-144805762D01*
X146413847Y-144945849D01*
X146215849Y-145143847D01*
X146060283Y-145376667D01*
X146050000Y-145401492D01*
X146039717Y-145376667D01*
X145884151Y-145143847D01*
X145686153Y-144945849D01*
X145476500Y-144805763D01*
X145476500Y-142766272D01*
X145552313Y-142652810D01*
X145618009Y-142494207D01*
X145651500Y-142325835D01*
X145651500Y-142154165D01*
X145618009Y-141985793D01*
X145552313Y-141827190D01*
X145456938Y-141684451D01*
X145335549Y-141563062D01*
X145192810Y-141467687D01*
X145034207Y-141401991D01*
X144865835Y-141368500D01*
X144718983Y-141368500D01*
X144726921Y-141358827D01*
X144791596Y-141237829D01*
X144831422Y-141106538D01*
X144841500Y-141004216D01*
X144841500Y-141004215D01*
X144844870Y-140970000D01*
X144841500Y-140935784D01*
X144841500Y-135231949D01*
X145014948Y-135303794D01*
X145279919Y-135356500D01*
X145550081Y-135356500D01*
X145815052Y-135303794D01*
X146064649Y-135200407D01*
X146289280Y-135050314D01*
X146480314Y-134859280D01*
X146630407Y-134634649D01*
X146685000Y-134502851D01*
X146739593Y-134634649D01*
X146889686Y-134859280D01*
X147080720Y-135050314D01*
X147305351Y-135200407D01*
X147554948Y-135303794D01*
X147819919Y-135356500D01*
X148090081Y-135356500D01*
X148355052Y-135303794D01*
X148604649Y-135200407D01*
X148829280Y-135050314D01*
X149020314Y-134859280D01*
X149159700Y-134650673D01*
X149251644Y-134821404D01*
X149438709Y-135047899D01*
X149666367Y-135233548D01*
X149925869Y-135371216D01*
X150198075Y-135453788D01*
X150431500Y-135307351D01*
X150431500Y-134048500D01*
X150411500Y-134048500D01*
X150411500Y-133921500D01*
X150431500Y-133921500D01*
X150431500Y-132662649D01*
X150198075Y-132516212D01*
X149925869Y-132598784D01*
X149666367Y-132736452D01*
X149438709Y-132922101D01*
X149251644Y-133148596D01*
X149159700Y-133319327D01*
X149020314Y-133110720D01*
X148829280Y-132919686D01*
X148604649Y-132769593D01*
X148355052Y-132666206D01*
X148090081Y-132613500D01*
X147819919Y-132613500D01*
X147554948Y-132666206D01*
X147305351Y-132769593D01*
X147080720Y-132919686D01*
X146889686Y-133110720D01*
X146739593Y-133335351D01*
X146685000Y-133467149D01*
X146630407Y-133335351D01*
X146480314Y-133110720D01*
X146289280Y-132919686D01*
X146064649Y-132769593D01*
X145815052Y-132666206D01*
X145550081Y-132613500D01*
X145279919Y-132613500D01*
X145014948Y-132666206D01*
X144841500Y-132738051D01*
X144841500Y-127611949D01*
X145014948Y-127683794D01*
X145279919Y-127736500D01*
X145550081Y-127736500D01*
X145815052Y-127683794D01*
X146064649Y-127580407D01*
X146289280Y-127430314D01*
X146480314Y-127239280D01*
X146630407Y-127014649D01*
X146685000Y-126882851D01*
X146739593Y-127014649D01*
X146889686Y-127239280D01*
X147080720Y-127430314D01*
X147305351Y-127580407D01*
X147554948Y-127683794D01*
X147819919Y-127736500D01*
X148090081Y-127736500D01*
X148355052Y-127683794D01*
X148604649Y-127580407D01*
X148829280Y-127430314D01*
X149020314Y-127239280D01*
X149170407Y-127014649D01*
X149225000Y-126882851D01*
X149279593Y-127014649D01*
G04 #@! TA.AperFunction,Conductor*
D24*
G36*
X149279593Y-127014649D02*
G01*
X149429686Y-127239280D01*
X149620720Y-127430314D01*
X149845351Y-127580407D01*
X150094948Y-127683794D01*
X150359919Y-127736500D01*
X150630081Y-127736500D01*
X150895052Y-127683794D01*
X151068500Y-127611949D01*
X151068501Y-132601102D01*
X151064131Y-132598784D01*
X150791925Y-132516212D01*
X150558500Y-132662649D01*
X150558500Y-133921500D01*
X150578500Y-133921500D01*
X150578500Y-134048500D01*
X150558500Y-134048500D01*
X150558500Y-135307351D01*
X150791925Y-135453788D01*
X151064131Y-135371216D01*
X151068501Y-135368898D01*
X151068501Y-141316499D01*
X150841501Y-141543500D01*
X147989216Y-141543500D01*
X147955000Y-141540130D01*
X147920784Y-141543500D01*
X147818462Y-141553578D01*
X147687171Y-141593404D01*
X147566173Y-141658079D01*
X147460117Y-141745117D01*
X147438305Y-141771695D01*
X146851696Y-142358305D01*
X146825117Y-142380118D01*
X146738079Y-142486174D01*
X146673405Y-142607171D01*
X146673404Y-142607172D01*
X146633578Y-142738462D01*
X146620130Y-142875000D01*
X146623500Y-142909215D01*
X146623501Y-144805762D01*
X146413847Y-144945849D01*
X146215849Y-145143847D01*
X146060283Y-145376667D01*
X146050000Y-145401492D01*
X146039717Y-145376667D01*
X145884151Y-145143847D01*
X145686153Y-144945849D01*
X145476500Y-144805763D01*
X145476500Y-142766272D01*
X145552313Y-142652810D01*
X145618009Y-142494207D01*
X145651500Y-142325835D01*
X145651500Y-142154165D01*
X145618009Y-141985793D01*
X145552313Y-141827190D01*
X145456938Y-141684451D01*
X145335549Y-141563062D01*
X145192810Y-141467687D01*
X145034207Y-141401991D01*
X144865835Y-141368500D01*
X144718983Y-141368500D01*
X144726921Y-141358827D01*
X144791596Y-141237829D01*
X144831422Y-141106538D01*
X144841500Y-141004216D01*
X144841500Y-141004215D01*
X144844870Y-140970000D01*
X144841500Y-140935784D01*
X144841500Y-135231949D01*
X145014948Y-135303794D01*
X145279919Y-135356500D01*
X145550081Y-135356500D01*
X145815052Y-135303794D01*
X146064649Y-135200407D01*
X146289280Y-135050314D01*
X146480314Y-134859280D01*
X146630407Y-134634649D01*
X146685000Y-134502851D01*
X146739593Y-134634649D01*
X146889686Y-134859280D01*
X147080720Y-135050314D01*
X147305351Y-135200407D01*
X147554948Y-135303794D01*
X147819919Y-135356500D01*
X148090081Y-135356500D01*
X148355052Y-135303794D01*
X148604649Y-135200407D01*
X148829280Y-135050314D01*
X149020314Y-134859280D01*
X149159700Y-134650673D01*
X149251644Y-134821404D01*
X149438709Y-135047899D01*
X149666367Y-135233548D01*
X149925869Y-135371216D01*
X150198075Y-135453788D01*
X150431500Y-135307351D01*
X150431500Y-134048500D01*
X150411500Y-134048500D01*
X150411500Y-133921500D01*
X150431500Y-133921500D01*
X150431500Y-132662649D01*
X150198075Y-132516212D01*
X149925869Y-132598784D01*
X149666367Y-132736452D01*
X149438709Y-132922101D01*
X149251644Y-133148596D01*
X149159700Y-133319327D01*
X149020314Y-133110720D01*
X148829280Y-132919686D01*
X148604649Y-132769593D01*
X148355052Y-132666206D01*
X148090081Y-132613500D01*
X147819919Y-132613500D01*
X147554948Y-132666206D01*
X147305351Y-132769593D01*
X147080720Y-132919686D01*
X146889686Y-133110720D01*
X146739593Y-133335351D01*
X146685000Y-133467149D01*
X146630407Y-133335351D01*
X146480314Y-133110720D01*
X146289280Y-132919686D01*
X146064649Y-132769593D01*
X145815052Y-132666206D01*
X145550081Y-132613500D01*
X145279919Y-132613500D01*
X145014948Y-132666206D01*
X144841500Y-132738051D01*
X144841500Y-127611949D01*
X145014948Y-127683794D01*
X145279919Y-127736500D01*
X145550081Y-127736500D01*
X145815052Y-127683794D01*
X146064649Y-127580407D01*
X146289280Y-127430314D01*
X146480314Y-127239280D01*
X146630407Y-127014649D01*
X146685000Y-126882851D01*
X146739593Y-127014649D01*
X146889686Y-127239280D01*
X147080720Y-127430314D01*
X147305351Y-127580407D01*
X147554948Y-127683794D01*
X147819919Y-127736500D01*
X148090081Y-127736500D01*
X148355052Y-127683794D01*
X148604649Y-127580407D01*
X148829280Y-127430314D01*
X149020314Y-127239280D01*
X149170407Y-127014649D01*
X149225000Y-126882851D01*
X149279593Y-127014649D01*
G37*
G04 #@! TD.AperFunction*
D23*
X125158500Y-133921500D02*
X125178500Y-133921500D01*
X125178500Y-134048500D01*
X125158500Y-134048500D01*
X125158500Y-135357407D01*
X125399753Y-135503215D01*
X125668500Y-135421695D01*
X125668500Y-140443728D01*
X125592687Y-140557190D01*
X125526991Y-140715793D01*
X125493500Y-140884165D01*
X125493500Y-141055835D01*
X125526991Y-141224207D01*
X125592687Y-141382810D01*
X125688062Y-141525549D01*
X125809451Y-141646938D01*
X125952190Y-141742313D01*
X126110793Y-141808009D01*
X126226129Y-141830951D01*
X126161991Y-141985793D01*
X126128500Y-142154165D01*
X126128500Y-142325835D01*
X126161991Y-142494207D01*
X126227687Y-142652810D01*
X126323062Y-142795549D01*
X126341013Y-142813500D01*
X125129216Y-142813500D01*
X125095000Y-142810130D01*
X125060784Y-142813500D01*
X124958462Y-142823578D01*
X124827171Y-142863404D01*
X124706173Y-142928079D01*
X124600117Y-143015117D01*
X124578305Y-143041695D01*
X123991696Y-143628305D01*
X123965117Y-143650118D01*
X123878079Y-143756174D01*
X123839198Y-143828915D01*
X123813404Y-143877172D01*
X123773578Y-144008462D01*
X123760130Y-144145000D01*
X123763500Y-144179216D01*
X123763500Y-144805763D01*
X123553847Y-144945849D01*
X123355849Y-145143847D01*
X123200283Y-145376667D01*
X123190000Y-145401492D01*
X123179717Y-145376667D01*
X123024151Y-145143847D01*
X122826153Y-144945849D01*
X122616500Y-144805763D01*
X122616500Y-137686272D01*
X122692313Y-137572810D01*
X122758009Y-137414207D01*
X122791500Y-137245835D01*
X122791500Y-137074165D01*
X122758009Y-136905793D01*
X122692313Y-136747190D01*
X122596938Y-136604451D01*
X122475549Y-136483062D01*
X122332810Y-136387687D01*
X122174207Y-136321991D01*
X122005835Y-136288500D01*
X121834165Y-136288500D01*
X121665793Y-136321991D01*
X121507190Y-136387687D01*
X121364451Y-136483062D01*
X121243062Y-136604451D01*
X121147687Y-136747190D01*
X121081991Y-136905793D01*
X121048500Y-137074165D01*
X121048500Y-137245835D01*
X121081991Y-137414207D01*
X121147687Y-137572810D01*
X121223500Y-137686272D01*
X121223501Y-144805762D01*
X121013847Y-144945849D01*
X120815849Y-145143847D01*
X120660283Y-145376667D01*
X120650000Y-145401492D01*
X120639717Y-145376667D01*
X120484151Y-145143847D01*
X120286153Y-144945849D01*
X120076500Y-144805763D01*
X120076500Y-138956272D01*
X120152313Y-138842810D01*
X120218009Y-138684207D01*
X120251500Y-138515835D01*
X120251500Y-138344165D01*
X120218009Y-138175793D01*
X120152313Y-138017190D01*
X120056938Y-137874451D01*
X119935549Y-137753062D01*
X119792810Y-137657687D01*
X119634207Y-137591991D01*
X119465835Y-137558500D01*
X119294165Y-137558500D01*
X119125793Y-137591991D01*
X118967190Y-137657687D01*
X118824451Y-137753062D01*
X118806500Y-137771013D01*
X118806500Y-135280104D01*
X118845955Y-135312484D01*
X118945238Y-135365552D01*
X119052966Y-135398231D01*
X119165000Y-135409265D01*
X120865000Y-135409265D01*
X120977034Y-135398231D01*
X121084762Y-135365552D01*
X121184045Y-135312484D01*
X121271067Y-135241067D01*
X121342484Y-135154045D01*
X121395552Y-135054762D01*
X121428231Y-134947034D01*
X121435933Y-134868830D01*
X121450849Y-134891153D01*
X121648847Y-135089151D01*
X121881667Y-135244717D01*
X122140364Y-135351873D01*
X122414994Y-135406500D01*
X122695006Y-135406500D01*
X122969636Y-135351873D01*
X123228333Y-135244717D01*
X123461153Y-135089151D01*
X123659151Y-134891153D01*
X123755211Y-134747390D01*
X123808974Y-134847553D01*
X124001960Y-135081871D01*
X124236951Y-135274036D01*
X124504917Y-135416665D01*
X124790247Y-135503215D01*
X125031500Y-135357407D01*
X125031500Y-134048500D01*
X125011500Y-134048500D01*
X125011500Y-133921500D01*
X125031500Y-133921500D01*
X125031500Y-133901500D01*
X125158500Y-133901500D01*
X125158500Y-133921500D01*
G04 #@! TA.AperFunction,Conductor*
D24*
G36*
X125158500Y-133921500D02*
G01*
X125178500Y-133921500D01*
X125178500Y-134048500D01*
X125158500Y-134048500D01*
X125158500Y-135357407D01*
X125399753Y-135503215D01*
X125668500Y-135421695D01*
X125668500Y-140443728D01*
X125592687Y-140557190D01*
X125526991Y-140715793D01*
X125493500Y-140884165D01*
X125493500Y-141055835D01*
X125526991Y-141224207D01*
X125592687Y-141382810D01*
X125688062Y-141525549D01*
X125809451Y-141646938D01*
X125952190Y-141742313D01*
X126110793Y-141808009D01*
X126226129Y-141830951D01*
X126161991Y-141985793D01*
X126128500Y-142154165D01*
X126128500Y-142325835D01*
X126161991Y-142494207D01*
X126227687Y-142652810D01*
X126323062Y-142795549D01*
X126341013Y-142813500D01*
X125129216Y-142813500D01*
X125095000Y-142810130D01*
X125060784Y-142813500D01*
X124958462Y-142823578D01*
X124827171Y-142863404D01*
X124706173Y-142928079D01*
X124600117Y-143015117D01*
X124578305Y-143041695D01*
X123991696Y-143628305D01*
X123965117Y-143650118D01*
X123878079Y-143756174D01*
X123839198Y-143828915D01*
X123813404Y-143877172D01*
X123773578Y-144008462D01*
X123760130Y-144145000D01*
X123763500Y-144179216D01*
X123763500Y-144805763D01*
X123553847Y-144945849D01*
X123355849Y-145143847D01*
X123200283Y-145376667D01*
X123190000Y-145401492D01*
X123179717Y-145376667D01*
X123024151Y-145143847D01*
X122826153Y-144945849D01*
X122616500Y-144805763D01*
X122616500Y-137686272D01*
X122692313Y-137572810D01*
X122758009Y-137414207D01*
X122791500Y-137245835D01*
X122791500Y-137074165D01*
X122758009Y-136905793D01*
X122692313Y-136747190D01*
X122596938Y-136604451D01*
X122475549Y-136483062D01*
X122332810Y-136387687D01*
X122174207Y-136321991D01*
X122005835Y-136288500D01*
X121834165Y-136288500D01*
X121665793Y-136321991D01*
X121507190Y-136387687D01*
X121364451Y-136483062D01*
X121243062Y-136604451D01*
X121147687Y-136747190D01*
X121081991Y-136905793D01*
X121048500Y-137074165D01*
X121048500Y-137245835D01*
X121081991Y-137414207D01*
X121147687Y-137572810D01*
X121223500Y-137686272D01*
X121223501Y-144805762D01*
X121013847Y-144945849D01*
X120815849Y-145143847D01*
X120660283Y-145376667D01*
X120650000Y-145401492D01*
X120639717Y-145376667D01*
X120484151Y-145143847D01*
X120286153Y-144945849D01*
X120076500Y-144805763D01*
X120076500Y-138956272D01*
X120152313Y-138842810D01*
X120218009Y-138684207D01*
X120251500Y-138515835D01*
X120251500Y-138344165D01*
X120218009Y-138175793D01*
X120152313Y-138017190D01*
X120056938Y-137874451D01*
X119935549Y-137753062D01*
X119792810Y-137657687D01*
X119634207Y-137591991D01*
X119465835Y-137558500D01*
X119294165Y-137558500D01*
X119125793Y-137591991D01*
X118967190Y-137657687D01*
X118824451Y-137753062D01*
X118806500Y-137771013D01*
X118806500Y-135280104D01*
X118845955Y-135312484D01*
X118945238Y-135365552D01*
X119052966Y-135398231D01*
X119165000Y-135409265D01*
X120865000Y-135409265D01*
X120977034Y-135398231D01*
X121084762Y-135365552D01*
X121184045Y-135312484D01*
X121271067Y-135241067D01*
X121342484Y-135154045D01*
X121395552Y-135054762D01*
X121428231Y-134947034D01*
X121435933Y-134868830D01*
X121450849Y-134891153D01*
X121648847Y-135089151D01*
X121881667Y-135244717D01*
X122140364Y-135351873D01*
X122414994Y-135406500D01*
X122695006Y-135406500D01*
X122969636Y-135351873D01*
X123228333Y-135244717D01*
X123461153Y-135089151D01*
X123659151Y-134891153D01*
X123755211Y-134747390D01*
X123808974Y-134847553D01*
X124001960Y-135081871D01*
X124236951Y-135274036D01*
X124504917Y-135416665D01*
X124790247Y-135503215D01*
X125031500Y-135357407D01*
X125031500Y-134048500D01*
X125011500Y-134048500D01*
X125011500Y-133921500D01*
X125031500Y-133921500D01*
X125031500Y-133901500D01*
X125158500Y-133901500D01*
X125158500Y-133921500D01*
G37*
G04 #@! TD.AperFunction*
D23*
X116210994Y-68019555D02*
X116210995Y-76153499D01*
X116206415Y-76200000D01*
X116224690Y-76385546D01*
X116250758Y-76471480D01*
X116278813Y-76563964D01*
X116366703Y-76728395D01*
X116484982Y-76872519D01*
X116521100Y-76902160D01*
X117090339Y-77471400D01*
X117119981Y-77507519D01*
X117264105Y-77625798D01*
X117428536Y-77713688D01*
X117548182Y-77749982D01*
X117606953Y-77767810D01*
X117792500Y-77786085D01*
X117838991Y-77781506D01*
X118600240Y-77781506D01*
X118601769Y-77797034D01*
X118634448Y-77904762D01*
X118687516Y-78004045D01*
X118758933Y-78091067D01*
X118845955Y-78162484D01*
X118945238Y-78215552D01*
X119052966Y-78248231D01*
X119165000Y-78259265D01*
X120865000Y-78259265D01*
X120977034Y-78248231D01*
X121084762Y-78215552D01*
X121184045Y-78162484D01*
X121271067Y-78091067D01*
X121342484Y-78004045D01*
X121395552Y-77904762D01*
X121428231Y-77797034D01*
X121435933Y-77718830D01*
X121450849Y-77741153D01*
X121648847Y-77939151D01*
X121881667Y-78094717D01*
X122140364Y-78201873D01*
X122414994Y-78256500D01*
X122695006Y-78256500D01*
X122969636Y-78201873D01*
X123228333Y-78094717D01*
X123461153Y-77939151D01*
X123659151Y-77741153D01*
X123814717Y-77508333D01*
X123825000Y-77483508D01*
X123835283Y-77508333D01*
X123990849Y-77741153D01*
X124148494Y-77898798D01*
X124148494Y-78030445D01*
X122871101Y-79307839D01*
X122834982Y-79337481D01*
X122716703Y-79481605D01*
X122665174Y-79578009D01*
X122628813Y-79646036D01*
X122574690Y-79824454D01*
X122556415Y-80010000D01*
X122560995Y-80056501D01*
X122560994Y-87107259D01*
X122556415Y-87153750D01*
X122574690Y-87339296D01*
X122628812Y-87517713D01*
X122716702Y-87682145D01*
X122834981Y-87826269D01*
X122871105Y-87855915D01*
X123281585Y-88266395D01*
X123311231Y-88302519D01*
X123455355Y-88420798D01*
X123619786Y-88508688D01*
X123731977Y-88542721D01*
X123764448Y-88649762D01*
X123817516Y-88749045D01*
X123888933Y-88836067D01*
X123975955Y-88907484D01*
X124075238Y-88960552D01*
X124148494Y-88982774D01*
X124148495Y-90376201D01*
X123990849Y-90533847D01*
X123835283Y-90766667D01*
X123728127Y-91025364D01*
X123673500Y-91299994D01*
X123673500Y-91580006D01*
X123728127Y-91854636D01*
X123835283Y-92113333D01*
X123990849Y-92346153D01*
X124188847Y-92544151D01*
X124332610Y-92640211D01*
X124232447Y-92693974D01*
X123998129Y-92886960D01*
X123805964Y-93121951D01*
X123663335Y-93389917D01*
X123576785Y-93675247D01*
X123722593Y-93916500D01*
X125031500Y-93916500D01*
X125031500Y-93896500D01*
X125158500Y-93896500D01*
X125158500Y-93916500D01*
X125178500Y-93916500D01*
X125178500Y-94043500D01*
X125158500Y-94043500D01*
X125158500Y-94063500D01*
X125031500Y-94063500D01*
X125031500Y-94043500D01*
X123722593Y-94043500D01*
X123576785Y-94284753D01*
X123663335Y-94570083D01*
X123805964Y-94838049D01*
X123998129Y-95073040D01*
X124064353Y-95127583D01*
X124025238Y-95139448D01*
X123925955Y-95192516D01*
X123838933Y-95263933D01*
X123767516Y-95350955D01*
X123714448Y-95450238D01*
X123681769Y-95557966D01*
X123670735Y-95670000D01*
X123670735Y-97370000D01*
X123681769Y-97482034D01*
X123714448Y-97589762D01*
X123767516Y-97689045D01*
X123838933Y-97776067D01*
X123925955Y-97847484D01*
X124025238Y-97900552D01*
X124132966Y-97933231D01*
X124148494Y-97934760D01*
X124148495Y-98977226D01*
X124075238Y-98999448D01*
X123975955Y-99052516D01*
X123888933Y-99123933D01*
X123817516Y-99210955D01*
X123764448Y-99310238D01*
X123731769Y-99417966D01*
X123720735Y-99530000D01*
X123720735Y-101130000D01*
X123731769Y-101242034D01*
X123764448Y-101349762D01*
X123817516Y-101449045D01*
X123888933Y-101536067D01*
X123975955Y-101607484D01*
X124075238Y-101660552D01*
X124182966Y-101693231D01*
X124233698Y-101698227D01*
X124199724Y-101844922D01*
X125095000Y-102740197D01*
X125109142Y-102726055D01*
X125198945Y-102815858D01*
X125184803Y-102830000D01*
X125198945Y-102844142D01*
X125109142Y-102933945D01*
X125095000Y-102919803D01*
X124199724Y-103815078D01*
X124262102Y-104084419D01*
X124522831Y-104222806D01*
X124805548Y-104307669D01*
X125099389Y-104335745D01*
X125393061Y-104305957D01*
X125668501Y-104221526D01*
X125668501Y-109566499D01*
X125439787Y-109795213D01*
X125230081Y-109753500D01*
X124959919Y-109753500D01*
X124694948Y-109806206D01*
X124445351Y-109909593D01*
X124220720Y-110059686D01*
X124029686Y-110250720D01*
X123879593Y-110475351D01*
X123825000Y-110607149D01*
X123770407Y-110475351D01*
X123620314Y-110250720D01*
X123429280Y-110059686D01*
X123204649Y-109909593D01*
X122955052Y-109806206D01*
X122690081Y-109753500D01*
X122419919Y-109753500D01*
X122154948Y-109806206D01*
X121905351Y-109909593D01*
X121680720Y-110059686D01*
X121489686Y-110250720D01*
X121339593Y-110475351D01*
X121285000Y-110607149D01*
X121230407Y-110475351D01*
X121080314Y-110250720D01*
X120889280Y-110059686D01*
X120664649Y-109909593D01*
X120415052Y-109806206D01*
X120150081Y-109753500D01*
X119879919Y-109753500D01*
X119614948Y-109806206D01*
X119365351Y-109909593D01*
X119140720Y-110059686D01*
X118949686Y-110250720D01*
X118799593Y-110475351D01*
X118745000Y-110607149D01*
X118690407Y-110475351D01*
X118540314Y-110250720D01*
X118349280Y-110059686D01*
X118124649Y-109909593D01*
X117875052Y-109806206D01*
X117610081Y-109753500D01*
X117339919Y-109753500D01*
X117074948Y-109806206D01*
X116825351Y-109909593D01*
X116600720Y-110059686D01*
X116409686Y-110250720D01*
X116259593Y-110475351D01*
X116205000Y-110607149D01*
X116150407Y-110475351D01*
X116000314Y-110250720D01*
X115809280Y-110059686D01*
X115584649Y-109909593D01*
X115335052Y-109806206D01*
X115070081Y-109753500D01*
X114799919Y-109753500D01*
X114534948Y-109806206D01*
X114285351Y-109909593D01*
X114060720Y-110059686D01*
X113869686Y-110250720D01*
X113719593Y-110475351D01*
X113665000Y-110607149D01*
X113610407Y-110475351D01*
X113460314Y-110250720D01*
X113269280Y-110059686D01*
X113044649Y-109909593D01*
X112795052Y-109806206D01*
X112530081Y-109753500D01*
X112259919Y-109753500D01*
X111994948Y-109806206D01*
X111745351Y-109909593D01*
X111520720Y-110059686D01*
X111329686Y-110250720D01*
X111179593Y-110475351D01*
X111125000Y-110607149D01*
X111070407Y-110475351D01*
X110920314Y-110250720D01*
X110729280Y-110059686D01*
X110504649Y-109909593D01*
X110255052Y-109806206D01*
X109990081Y-109753500D01*
X109719919Y-109753500D01*
X109454948Y-109806206D01*
X109205351Y-109909593D01*
X108980720Y-110059686D01*
X108789686Y-110250720D01*
X108639593Y-110475351D01*
X108585000Y-110607149D01*
X108530407Y-110475351D01*
X108380314Y-110250720D01*
X108189280Y-110059686D01*
X107964649Y-109909593D01*
X107715052Y-109806206D01*
X107450081Y-109753500D01*
X107179919Y-109753500D01*
X106914948Y-109806206D01*
X106665351Y-109909593D01*
X106440720Y-110059686D01*
X106249686Y-110250720D01*
X106099593Y-110475351D01*
X105996206Y-110724948D01*
X105943500Y-110989919D01*
X105943500Y-111260081D01*
X105996206Y-111525052D01*
X106099593Y-111774649D01*
X106249686Y-111999280D01*
X106440720Y-112190314D01*
X106665351Y-112340407D01*
X106914948Y-112443794D01*
X107179919Y-112496500D01*
X107450081Y-112496500D01*
X107715052Y-112443794D01*
X107887354Y-112372424D01*
X107885130Y-112395000D01*
X107888501Y-112429226D01*
X107888501Y-117370735D01*
X106515000Y-117370735D01*
X106402966Y-117381769D01*
X106295238Y-117414448D01*
X106195955Y-117467516D01*
X106108933Y-117538933D01*
X106037516Y-117625955D01*
X105984448Y-117725238D01*
X105951769Y-117832966D01*
X105940735Y-117945000D01*
X105940735Y-119545000D01*
X105951769Y-119657034D01*
X105984448Y-119764762D01*
X106037516Y-119864045D01*
X106108933Y-119951067D01*
X106195955Y-120022484D01*
X106295238Y-120075552D01*
X106402966Y-120108231D01*
X106515000Y-120119265D01*
X106618500Y-120119265D01*
X106618501Y-122640897D01*
X106440720Y-122759686D01*
X106249686Y-122950720D01*
X106099593Y-123175351D01*
X105996206Y-123424948D01*
X105943500Y-123689919D01*
X105943500Y-123960081D01*
X105996206Y-124225052D01*
X106099593Y-124474649D01*
X106249686Y-124699280D01*
X106440720Y-124890314D01*
X106665351Y-125040407D01*
X106914948Y-125143794D01*
X107179919Y-125196500D01*
X107450081Y-125196500D01*
X107715052Y-125143794D01*
X107888500Y-125071949D01*
X107888500Y-130918728D01*
X107812687Y-131032190D01*
X107746991Y-131190793D01*
X107713500Y-131359165D01*
X107713500Y-131530835D01*
X107746991Y-131699207D01*
X107812687Y-131857810D01*
X107908062Y-132000549D01*
X108029451Y-132121938D01*
X108172190Y-132217313D01*
X108330793Y-132283009D01*
X108499165Y-132316500D01*
X108670835Y-132316500D01*
X108839207Y-132283009D01*
X108994049Y-132218871D01*
X109016991Y-132334207D01*
X109082687Y-132492810D01*
X109178062Y-132635549D01*
X109280838Y-132738325D01*
X109205351Y-132769593D01*
X108980720Y-132919686D01*
X108789686Y-133110720D01*
X108639593Y-133335351D01*
X108585000Y-133467149D01*
X108530407Y-133335351D01*
X108380314Y-133110720D01*
X108189280Y-132919686D01*
X107964649Y-132769593D01*
X107715052Y-132666206D01*
X107450081Y-132613500D01*
X107179919Y-132613500D01*
X106914948Y-132666206D01*
X106665351Y-132769593D01*
X106440720Y-132919686D01*
X106249686Y-133110720D01*
X106099593Y-133335351D01*
X105996206Y-133584948D01*
X105943500Y-133849919D01*
X105943500Y-134120081D01*
X105996206Y-134385052D01*
X106099593Y-134634649D01*
X106249686Y-134859280D01*
X106440720Y-135050314D01*
X106665351Y-135200407D01*
X106914948Y-135303794D01*
X107179919Y-135356500D01*
X107450081Y-135356500D01*
X107715052Y-135303794D01*
X107964649Y-135200407D01*
X108189280Y-135050314D01*
X108380314Y-134859280D01*
X108530407Y-134634649D01*
X108585000Y-134502851D01*
X108639593Y-134634649D01*
X108789686Y-134859280D01*
X108980720Y-135050314D01*
X109158501Y-135169103D01*
X109158500Y-137194215D01*
X109158501Y-137194225D01*
X109158501Y-138193500D01*
X109134165Y-138193500D01*
X108965793Y-138226991D01*
X108807190Y-138292687D01*
X108664451Y-138388062D01*
X108543062Y-138509451D01*
X108447687Y-138652190D01*
X108381991Y-138810793D01*
X108348500Y-138979165D01*
X108348500Y-139150835D01*
X108381991Y-139319207D01*
X108447687Y-139477810D01*
X108523500Y-139591272D01*
X108523501Y-144805762D01*
X108313847Y-144945849D01*
X108115849Y-145143847D01*
X107960283Y-145376667D01*
X107950000Y-145401492D01*
X107939717Y-145376667D01*
X107784151Y-145143847D01*
X107586153Y-144945849D01*
X107353333Y-144790283D01*
X107094636Y-144683127D01*
X106820006Y-144628500D01*
X106539994Y-144628500D01*
X106265364Y-144683127D01*
X106006667Y-144790283D01*
X105773847Y-144945849D01*
X105575849Y-145143847D01*
X105420283Y-145376667D01*
X105410000Y-145401492D01*
X105399717Y-145376667D01*
X105244151Y-145143847D01*
X105046153Y-144945849D01*
X104813333Y-144790283D01*
X104554636Y-144683127D01*
X104521320Y-144676500D01*
X105077516Y-144676500D01*
X105670924Y-144558464D01*
X106229901Y-144326928D01*
X106732967Y-143990790D01*
X107160790Y-143562967D01*
X107496928Y-143059901D01*
X107728464Y-142500924D01*
X107846500Y-141907516D01*
X107846500Y-141302484D01*
X107728464Y-140709076D01*
X107496928Y-140150099D01*
X107160790Y-139647033D01*
X106732967Y-139219210D01*
X106229901Y-138883072D01*
X105670924Y-138651536D01*
X105077516Y-138533500D01*
X104472484Y-138533500D01*
X103879076Y-138651536D01*
X103320099Y-138883072D01*
X102931500Y-139142726D01*
X102931500Y-124113499D01*
X103338306Y-123706694D01*
X103364883Y-123684883D01*
X103451921Y-123578827D01*
X103516596Y-123457829D01*
X103556422Y-123326538D01*
X103566500Y-123224216D01*
X103566500Y-123224215D01*
X103569870Y-123190000D01*
X103566500Y-123155784D01*
X103566500Y-106571272D01*
X103642313Y-106457810D01*
X103708009Y-106299207D01*
X103741500Y-106130835D01*
X103741500Y-105959165D01*
X103708009Y-105790793D01*
X103642313Y-105632190D01*
X103566500Y-105518728D01*
X103566500Y-102834389D01*
X123589255Y-102834389D01*
X123619043Y-103128061D01*
X123705552Y-103410279D01*
X123840581Y-103662898D01*
X124109922Y-103725276D01*
X125005197Y-102830000D01*
X124109922Y-101934724D01*
X123840581Y-101997102D01*
X123702194Y-102257831D01*
X123617331Y-102540548D01*
X123589255Y-102834389D01*
X103566500Y-102834389D01*
X103566500Y-98171000D01*
X105092500Y-98171000D01*
X105092500Y-99187000D01*
X105096160Y-99224165D01*
X105107001Y-99259901D01*
X105124605Y-99292836D01*
X105148296Y-99321704D01*
X105177164Y-99345395D01*
X105210099Y-99362999D01*
X105245835Y-99373840D01*
X105283000Y-99377500D01*
X106172000Y-99377500D01*
X106209165Y-99373840D01*
X106244901Y-99362999D01*
X106277836Y-99345395D01*
X106306704Y-99321704D01*
X106330395Y-99292836D01*
X106347999Y-99259901D01*
X106358840Y-99224165D01*
X106362500Y-99187000D01*
X106362500Y-98933000D01*
X120205500Y-98933000D01*
X120205500Y-99187000D01*
X120209160Y-99224165D01*
X120220001Y-99259901D01*
X120237605Y-99292836D01*
X120261296Y-99321704D01*
X120290164Y-99345395D01*
X120323099Y-99362999D01*
X120358835Y-99373840D01*
X120396000Y-99377500D01*
X121412000Y-99377500D01*
X121449165Y-99373840D01*
X121484901Y-99362999D01*
X121517836Y-99345395D01*
X121546704Y-99321704D01*
X121570395Y-99292836D01*
X121587999Y-99259901D01*
X121598840Y-99224165D01*
X121602500Y-99187000D01*
X121602500Y-98298000D01*
X121598840Y-98260835D01*
X121587999Y-98225099D01*
X121570395Y-98192164D01*
X121546704Y-98163296D01*
X121517836Y-98139605D01*
X121484901Y-98122001D01*
X121449165Y-98111160D01*
X121412000Y-98107500D01*
X121158000Y-98107500D01*
X121120835Y-98111160D01*
X121085099Y-98122001D01*
X121052164Y-98139605D01*
X121023296Y-98163296D01*
X120999605Y-98192164D01*
X120982001Y-98225099D01*
X120971160Y-98260835D01*
X120967500Y-98298000D01*
X120967500Y-98742500D01*
X120396000Y-98742500D01*
X120358835Y-98746160D01*
X120323099Y-98757001D01*
X120290164Y-98774605D01*
X120261296Y-98798296D01*
X120237605Y-98827164D01*
X120220001Y-98860099D01*
X120209160Y-98895835D01*
X120205500Y-98933000D01*
X106362500Y-98933000D01*
X106358840Y-98895835D01*
X106347999Y-98860099D01*
X106330395Y-98827164D01*
X106306704Y-98798296D01*
X106277836Y-98774605D01*
X106244901Y-98757001D01*
X106209165Y-98746160D01*
X106172000Y-98742500D01*
X105727500Y-98742500D01*
X105727500Y-98171000D01*
X105723840Y-98133835D01*
X105712999Y-98098099D01*
X105695395Y-98065164D01*
X105671704Y-98036296D01*
X105642836Y-98012605D01*
X105609901Y-97995001D01*
X105574165Y-97984160D01*
X105537000Y-97980500D01*
X105283000Y-97980500D01*
X105245835Y-97984160D01*
X105210099Y-97995001D01*
X105177164Y-98012605D01*
X105148296Y-98036296D01*
X105124605Y-98065164D01*
X105107001Y-98098099D01*
X105096160Y-98133835D01*
X105092500Y-98171000D01*
X103566500Y-98171000D01*
X103566500Y-88773000D01*
X105092500Y-88773000D01*
X105092500Y-89662000D01*
X105096160Y-89699165D01*
X105107001Y-89734901D01*
X105124605Y-89767836D01*
X105148296Y-89796704D01*
X105177164Y-89820395D01*
X105210099Y-89837999D01*
X105245835Y-89848840D01*
X105283000Y-89852500D01*
X105537000Y-89852500D01*
X105574165Y-89848840D01*
X105609901Y-89837999D01*
X105642836Y-89820395D01*
X105671704Y-89796704D01*
X105695395Y-89767836D01*
X105712999Y-89734901D01*
X105723840Y-89699165D01*
X105727500Y-89662000D01*
X105727500Y-89217500D01*
X106299000Y-89217500D01*
X106336165Y-89213840D01*
X106371901Y-89202999D01*
X106404836Y-89185395D01*
X106433704Y-89161704D01*
X106457395Y-89132836D01*
X106474999Y-89099901D01*
X106485840Y-89064165D01*
X106489500Y-89027000D01*
X106489500Y-88773000D01*
X120332500Y-88773000D01*
X120332500Y-89027000D01*
X120336160Y-89064165D01*
X120347001Y-89099901D01*
X120364605Y-89132836D01*
X120388296Y-89161704D01*
X120417164Y-89185395D01*
X120450099Y-89202999D01*
X120485835Y-89213840D01*
X120523000Y-89217500D01*
X120967500Y-89217500D01*
X120967500Y-89789000D01*
X120971160Y-89826165D01*
X120982001Y-89861901D01*
X120999605Y-89894836D01*
X121023296Y-89923704D01*
X121052164Y-89947395D01*
X121085099Y-89964999D01*
X121120835Y-89975840D01*
X121158000Y-89979500D01*
X121412000Y-89979500D01*
X121449165Y-89975840D01*
X121484901Y-89964999D01*
X121517836Y-89947395D01*
X121546704Y-89923704D01*
X121570395Y-89894836D01*
X121587999Y-89861901D01*
X121598840Y-89826165D01*
X121602500Y-89789000D01*
X121602500Y-88773000D01*
X121598840Y-88735835D01*
X121587999Y-88700099D01*
X121570395Y-88667164D01*
X121546704Y-88638296D01*
X121517836Y-88614605D01*
X121484901Y-88597001D01*
X121449165Y-88586160D01*
X121412000Y-88582500D01*
X120523000Y-88582500D01*
X120485835Y-88586160D01*
X120450099Y-88597001D01*
X120417164Y-88614605D01*
X120388296Y-88638296D01*
X120364605Y-88667164D01*
X120347001Y-88700099D01*
X120336160Y-88735835D01*
X120332500Y-88773000D01*
X106489500Y-88773000D01*
X106485840Y-88735835D01*
X106474999Y-88700099D01*
X106457395Y-88667164D01*
X106433704Y-88638296D01*
X106404836Y-88614605D01*
X106371901Y-88597001D01*
X106336165Y-88586160D01*
X106299000Y-88582500D01*
X105283000Y-88582500D01*
X105245835Y-88586160D01*
X105210099Y-88597001D01*
X105177164Y-88614605D01*
X105148296Y-88638296D01*
X105124605Y-88667164D01*
X105107001Y-88700099D01*
X105096160Y-88735835D01*
X105092500Y-88773000D01*
X103566500Y-88773000D01*
X103566500Y-83473499D01*
X103793500Y-83246500D01*
X111090784Y-83246500D01*
X111125000Y-83249870D01*
X111261538Y-83236422D01*
X111292803Y-83226938D01*
X111392829Y-83196596D01*
X111513827Y-83131921D01*
X111619883Y-83044883D01*
X111641699Y-83018300D01*
X112228306Y-82431694D01*
X112254883Y-82409883D01*
X112341921Y-82303827D01*
X112406596Y-82182829D01*
X112446422Y-82051538D01*
X112456500Y-81949216D01*
X112456500Y-81949215D01*
X112459870Y-81915000D01*
X112456500Y-81880784D01*
X112456500Y-68366765D01*
X113830000Y-68366765D01*
X113942034Y-68355731D01*
X114049762Y-68323052D01*
X114149045Y-68269984D01*
X114236067Y-68198567D01*
X114307484Y-68111545D01*
X114360552Y-68012262D01*
X114382774Y-67939006D01*
X116130446Y-67939006D01*
X116210994Y-68019555D01*
G04 #@! TA.AperFunction,Conductor*
D24*
G36*
X116210994Y-68019555D02*
G01*
X116210995Y-76153499D01*
X116206415Y-76200000D01*
X116224690Y-76385546D01*
X116250758Y-76471480D01*
X116278813Y-76563964D01*
X116366703Y-76728395D01*
X116484982Y-76872519D01*
X116521100Y-76902160D01*
X117090339Y-77471400D01*
X117119981Y-77507519D01*
X117264105Y-77625798D01*
X117428536Y-77713688D01*
X117548182Y-77749982D01*
X117606953Y-77767810D01*
X117792500Y-77786085D01*
X117838991Y-77781506D01*
X118600240Y-77781506D01*
X118601769Y-77797034D01*
X118634448Y-77904762D01*
X118687516Y-78004045D01*
X118758933Y-78091067D01*
X118845955Y-78162484D01*
X118945238Y-78215552D01*
X119052966Y-78248231D01*
X119165000Y-78259265D01*
X120865000Y-78259265D01*
X120977034Y-78248231D01*
X121084762Y-78215552D01*
X121184045Y-78162484D01*
X121271067Y-78091067D01*
X121342484Y-78004045D01*
X121395552Y-77904762D01*
X121428231Y-77797034D01*
X121435933Y-77718830D01*
X121450849Y-77741153D01*
X121648847Y-77939151D01*
X121881667Y-78094717D01*
X122140364Y-78201873D01*
X122414994Y-78256500D01*
X122695006Y-78256500D01*
X122969636Y-78201873D01*
X123228333Y-78094717D01*
X123461153Y-77939151D01*
X123659151Y-77741153D01*
X123814717Y-77508333D01*
X123825000Y-77483508D01*
X123835283Y-77508333D01*
X123990849Y-77741153D01*
X124148494Y-77898798D01*
X124148494Y-78030445D01*
X122871101Y-79307839D01*
X122834982Y-79337481D01*
X122716703Y-79481605D01*
X122665174Y-79578009D01*
X122628813Y-79646036D01*
X122574690Y-79824454D01*
X122556415Y-80010000D01*
X122560995Y-80056501D01*
X122560994Y-87107259D01*
X122556415Y-87153750D01*
X122574690Y-87339296D01*
X122628812Y-87517713D01*
X122716702Y-87682145D01*
X122834981Y-87826269D01*
X122871105Y-87855915D01*
X123281585Y-88266395D01*
X123311231Y-88302519D01*
X123455355Y-88420798D01*
X123619786Y-88508688D01*
X123731977Y-88542721D01*
X123764448Y-88649762D01*
X123817516Y-88749045D01*
X123888933Y-88836067D01*
X123975955Y-88907484D01*
X124075238Y-88960552D01*
X124148494Y-88982774D01*
X124148495Y-90376201D01*
X123990849Y-90533847D01*
X123835283Y-90766667D01*
X123728127Y-91025364D01*
X123673500Y-91299994D01*
X123673500Y-91580006D01*
X123728127Y-91854636D01*
X123835283Y-92113333D01*
X123990849Y-92346153D01*
X124188847Y-92544151D01*
X124332610Y-92640211D01*
X124232447Y-92693974D01*
X123998129Y-92886960D01*
X123805964Y-93121951D01*
X123663335Y-93389917D01*
X123576785Y-93675247D01*
X123722593Y-93916500D01*
X125031500Y-93916500D01*
X125031500Y-93896500D01*
X125158500Y-93896500D01*
X125158500Y-93916500D01*
X125178500Y-93916500D01*
X125178500Y-94043500D01*
X125158500Y-94043500D01*
X125158500Y-94063500D01*
X125031500Y-94063500D01*
X125031500Y-94043500D01*
X123722593Y-94043500D01*
X123576785Y-94284753D01*
X123663335Y-94570083D01*
X123805964Y-94838049D01*
X123998129Y-95073040D01*
X124064353Y-95127583D01*
X124025238Y-95139448D01*
X123925955Y-95192516D01*
X123838933Y-95263933D01*
X123767516Y-95350955D01*
X123714448Y-95450238D01*
X123681769Y-95557966D01*
X123670735Y-95670000D01*
X123670735Y-97370000D01*
X123681769Y-97482034D01*
X123714448Y-97589762D01*
X123767516Y-97689045D01*
X123838933Y-97776067D01*
X123925955Y-97847484D01*
X124025238Y-97900552D01*
X124132966Y-97933231D01*
X124148494Y-97934760D01*
X124148495Y-98977226D01*
X124075238Y-98999448D01*
X123975955Y-99052516D01*
X123888933Y-99123933D01*
X123817516Y-99210955D01*
X123764448Y-99310238D01*
X123731769Y-99417966D01*
X123720735Y-99530000D01*
X123720735Y-101130000D01*
X123731769Y-101242034D01*
X123764448Y-101349762D01*
X123817516Y-101449045D01*
X123888933Y-101536067D01*
X123975955Y-101607484D01*
X124075238Y-101660552D01*
X124182966Y-101693231D01*
X124233698Y-101698227D01*
X124199724Y-101844922D01*
X125095000Y-102740197D01*
X125109142Y-102726055D01*
X125198945Y-102815858D01*
X125184803Y-102830000D01*
X125198945Y-102844142D01*
X125109142Y-102933945D01*
X125095000Y-102919803D01*
X124199724Y-103815078D01*
X124262102Y-104084419D01*
X124522831Y-104222806D01*
X124805548Y-104307669D01*
X125099389Y-104335745D01*
X125393061Y-104305957D01*
X125668501Y-104221526D01*
X125668501Y-109566499D01*
X125439787Y-109795213D01*
X125230081Y-109753500D01*
X124959919Y-109753500D01*
X124694948Y-109806206D01*
X124445351Y-109909593D01*
X124220720Y-110059686D01*
X124029686Y-110250720D01*
X123879593Y-110475351D01*
X123825000Y-110607149D01*
X123770407Y-110475351D01*
X123620314Y-110250720D01*
X123429280Y-110059686D01*
X123204649Y-109909593D01*
X122955052Y-109806206D01*
X122690081Y-109753500D01*
X122419919Y-109753500D01*
X122154948Y-109806206D01*
X121905351Y-109909593D01*
X121680720Y-110059686D01*
X121489686Y-110250720D01*
X121339593Y-110475351D01*
X121285000Y-110607149D01*
X121230407Y-110475351D01*
X121080314Y-110250720D01*
X120889280Y-110059686D01*
X120664649Y-109909593D01*
X120415052Y-109806206D01*
X120150081Y-109753500D01*
X119879919Y-109753500D01*
X119614948Y-109806206D01*
X119365351Y-109909593D01*
X119140720Y-110059686D01*
X118949686Y-110250720D01*
X118799593Y-110475351D01*
X118745000Y-110607149D01*
X118690407Y-110475351D01*
X118540314Y-110250720D01*
X118349280Y-110059686D01*
X118124649Y-109909593D01*
X117875052Y-109806206D01*
X117610081Y-109753500D01*
X117339919Y-109753500D01*
X117074948Y-109806206D01*
X116825351Y-109909593D01*
X116600720Y-110059686D01*
X116409686Y-110250720D01*
X116259593Y-110475351D01*
X116205000Y-110607149D01*
X116150407Y-110475351D01*
X116000314Y-110250720D01*
X115809280Y-110059686D01*
X115584649Y-109909593D01*
X115335052Y-109806206D01*
X115070081Y-109753500D01*
X114799919Y-109753500D01*
X114534948Y-109806206D01*
X114285351Y-109909593D01*
X114060720Y-110059686D01*
X113869686Y-110250720D01*
X113719593Y-110475351D01*
X113665000Y-110607149D01*
X113610407Y-110475351D01*
X113460314Y-110250720D01*
X113269280Y-110059686D01*
X113044649Y-109909593D01*
X112795052Y-109806206D01*
X112530081Y-109753500D01*
X112259919Y-109753500D01*
X111994948Y-109806206D01*
X111745351Y-109909593D01*
X111520720Y-110059686D01*
X111329686Y-110250720D01*
X111179593Y-110475351D01*
X111125000Y-110607149D01*
X111070407Y-110475351D01*
X110920314Y-110250720D01*
X110729280Y-110059686D01*
X110504649Y-109909593D01*
X110255052Y-109806206D01*
X109990081Y-109753500D01*
X109719919Y-109753500D01*
X109454948Y-109806206D01*
X109205351Y-109909593D01*
X108980720Y-110059686D01*
X108789686Y-110250720D01*
X108639593Y-110475351D01*
X108585000Y-110607149D01*
X108530407Y-110475351D01*
X108380314Y-110250720D01*
X108189280Y-110059686D01*
X107964649Y-109909593D01*
X107715052Y-109806206D01*
X107450081Y-109753500D01*
X107179919Y-109753500D01*
X106914948Y-109806206D01*
X106665351Y-109909593D01*
X106440720Y-110059686D01*
X106249686Y-110250720D01*
X106099593Y-110475351D01*
X105996206Y-110724948D01*
X105943500Y-110989919D01*
X105943500Y-111260081D01*
X105996206Y-111525052D01*
X106099593Y-111774649D01*
X106249686Y-111999280D01*
X106440720Y-112190314D01*
X106665351Y-112340407D01*
X106914948Y-112443794D01*
X107179919Y-112496500D01*
X107450081Y-112496500D01*
X107715052Y-112443794D01*
X107887354Y-112372424D01*
X107885130Y-112395000D01*
X107888501Y-112429226D01*
X107888501Y-117370735D01*
X106515000Y-117370735D01*
X106402966Y-117381769D01*
X106295238Y-117414448D01*
X106195955Y-117467516D01*
X106108933Y-117538933D01*
X106037516Y-117625955D01*
X105984448Y-117725238D01*
X105951769Y-117832966D01*
X105940735Y-117945000D01*
X105940735Y-119545000D01*
X105951769Y-119657034D01*
X105984448Y-119764762D01*
X106037516Y-119864045D01*
X106108933Y-119951067D01*
X106195955Y-120022484D01*
X106295238Y-120075552D01*
X106402966Y-120108231D01*
X106515000Y-120119265D01*
X106618500Y-120119265D01*
X106618501Y-122640897D01*
X106440720Y-122759686D01*
X106249686Y-122950720D01*
X106099593Y-123175351D01*
X105996206Y-123424948D01*
X105943500Y-123689919D01*
X105943500Y-123960081D01*
X105996206Y-124225052D01*
X106099593Y-124474649D01*
X106249686Y-124699280D01*
X106440720Y-124890314D01*
X106665351Y-125040407D01*
X106914948Y-125143794D01*
X107179919Y-125196500D01*
X107450081Y-125196500D01*
X107715052Y-125143794D01*
X107888500Y-125071949D01*
X107888500Y-130918728D01*
X107812687Y-131032190D01*
X107746991Y-131190793D01*
X107713500Y-131359165D01*
X107713500Y-131530835D01*
X107746991Y-131699207D01*
X107812687Y-131857810D01*
X107908062Y-132000549D01*
X108029451Y-132121938D01*
X108172190Y-132217313D01*
X108330793Y-132283009D01*
X108499165Y-132316500D01*
X108670835Y-132316500D01*
X108839207Y-132283009D01*
X108994049Y-132218871D01*
X109016991Y-132334207D01*
X109082687Y-132492810D01*
X109178062Y-132635549D01*
X109280838Y-132738325D01*
X109205351Y-132769593D01*
X108980720Y-132919686D01*
X108789686Y-133110720D01*
X108639593Y-133335351D01*
X108585000Y-133467149D01*
X108530407Y-133335351D01*
X108380314Y-133110720D01*
X108189280Y-132919686D01*
X107964649Y-132769593D01*
X107715052Y-132666206D01*
X107450081Y-132613500D01*
X107179919Y-132613500D01*
X106914948Y-132666206D01*
X106665351Y-132769593D01*
X106440720Y-132919686D01*
X106249686Y-133110720D01*
X106099593Y-133335351D01*
X105996206Y-133584948D01*
X105943500Y-133849919D01*
X105943500Y-134120081D01*
X105996206Y-134385052D01*
X106099593Y-134634649D01*
X106249686Y-134859280D01*
X106440720Y-135050314D01*
X106665351Y-135200407D01*
X106914948Y-135303794D01*
X107179919Y-135356500D01*
X107450081Y-135356500D01*
X107715052Y-135303794D01*
X107964649Y-135200407D01*
X108189280Y-135050314D01*
X108380314Y-134859280D01*
X108530407Y-134634649D01*
X108585000Y-134502851D01*
X108639593Y-134634649D01*
X108789686Y-134859280D01*
X108980720Y-135050314D01*
X109158501Y-135169103D01*
X109158500Y-137194215D01*
X109158501Y-137194225D01*
X109158501Y-138193500D01*
X109134165Y-138193500D01*
X108965793Y-138226991D01*
X108807190Y-138292687D01*
X108664451Y-138388062D01*
X108543062Y-138509451D01*
X108447687Y-138652190D01*
X108381991Y-138810793D01*
X108348500Y-138979165D01*
X108348500Y-139150835D01*
X108381991Y-139319207D01*
X108447687Y-139477810D01*
X108523500Y-139591272D01*
X108523501Y-144805762D01*
X108313847Y-144945849D01*
X108115849Y-145143847D01*
X107960283Y-145376667D01*
X107950000Y-145401492D01*
X107939717Y-145376667D01*
X107784151Y-145143847D01*
X107586153Y-144945849D01*
X107353333Y-144790283D01*
X107094636Y-144683127D01*
X106820006Y-144628500D01*
X106539994Y-144628500D01*
X106265364Y-144683127D01*
X106006667Y-144790283D01*
X105773847Y-144945849D01*
X105575849Y-145143847D01*
X105420283Y-145376667D01*
X105410000Y-145401492D01*
X105399717Y-145376667D01*
X105244151Y-145143847D01*
X105046153Y-144945849D01*
X104813333Y-144790283D01*
X104554636Y-144683127D01*
X104521320Y-144676500D01*
X105077516Y-144676500D01*
X105670924Y-144558464D01*
X106229901Y-144326928D01*
X106732967Y-143990790D01*
X107160790Y-143562967D01*
X107496928Y-143059901D01*
X107728464Y-142500924D01*
X107846500Y-141907516D01*
X107846500Y-141302484D01*
X107728464Y-140709076D01*
X107496928Y-140150099D01*
X107160790Y-139647033D01*
X106732967Y-139219210D01*
X106229901Y-138883072D01*
X105670924Y-138651536D01*
X105077516Y-138533500D01*
X104472484Y-138533500D01*
X103879076Y-138651536D01*
X103320099Y-138883072D01*
X102931500Y-139142726D01*
X102931500Y-124113499D01*
X103338306Y-123706694D01*
X103364883Y-123684883D01*
X103451921Y-123578827D01*
X103516596Y-123457829D01*
X103556422Y-123326538D01*
X103566500Y-123224216D01*
X103566500Y-123224215D01*
X103569870Y-123190000D01*
X103566500Y-123155784D01*
X103566500Y-106571272D01*
X103642313Y-106457810D01*
X103708009Y-106299207D01*
X103741500Y-106130835D01*
X103741500Y-105959165D01*
X103708009Y-105790793D01*
X103642313Y-105632190D01*
X103566500Y-105518728D01*
X103566500Y-102834389D01*
X123589255Y-102834389D01*
X123619043Y-103128061D01*
X123705552Y-103410279D01*
X123840581Y-103662898D01*
X124109922Y-103725276D01*
X125005197Y-102830000D01*
X124109922Y-101934724D01*
X123840581Y-101997102D01*
X123702194Y-102257831D01*
X123617331Y-102540548D01*
X123589255Y-102834389D01*
X103566500Y-102834389D01*
X103566500Y-98171000D01*
X105092500Y-98171000D01*
X105092500Y-99187000D01*
X105096160Y-99224165D01*
X105107001Y-99259901D01*
X105124605Y-99292836D01*
X105148296Y-99321704D01*
X105177164Y-99345395D01*
X105210099Y-99362999D01*
X105245835Y-99373840D01*
X105283000Y-99377500D01*
X106172000Y-99377500D01*
X106209165Y-99373840D01*
X106244901Y-99362999D01*
X106277836Y-99345395D01*
X106306704Y-99321704D01*
X106330395Y-99292836D01*
X106347999Y-99259901D01*
X106358840Y-99224165D01*
X106362500Y-99187000D01*
X106362500Y-98933000D01*
X120205500Y-98933000D01*
X120205500Y-99187000D01*
X120209160Y-99224165D01*
X120220001Y-99259901D01*
X120237605Y-99292836D01*
X120261296Y-99321704D01*
X120290164Y-99345395D01*
X120323099Y-99362999D01*
X120358835Y-99373840D01*
X120396000Y-99377500D01*
X121412000Y-99377500D01*
X121449165Y-99373840D01*
X121484901Y-99362999D01*
X121517836Y-99345395D01*
X121546704Y-99321704D01*
X121570395Y-99292836D01*
X121587999Y-99259901D01*
X121598840Y-99224165D01*
X121602500Y-99187000D01*
X121602500Y-98298000D01*
X121598840Y-98260835D01*
X121587999Y-98225099D01*
X121570395Y-98192164D01*
X121546704Y-98163296D01*
X121517836Y-98139605D01*
X121484901Y-98122001D01*
X121449165Y-98111160D01*
X121412000Y-98107500D01*
X121158000Y-98107500D01*
X121120835Y-98111160D01*
X121085099Y-98122001D01*
X121052164Y-98139605D01*
X121023296Y-98163296D01*
X120999605Y-98192164D01*
X120982001Y-98225099D01*
X120971160Y-98260835D01*
X120967500Y-98298000D01*
X120967500Y-98742500D01*
X120396000Y-98742500D01*
X120358835Y-98746160D01*
X120323099Y-98757001D01*
X120290164Y-98774605D01*
X120261296Y-98798296D01*
X120237605Y-98827164D01*
X120220001Y-98860099D01*
X120209160Y-98895835D01*
X120205500Y-98933000D01*
X106362500Y-98933000D01*
X106358840Y-98895835D01*
X106347999Y-98860099D01*
X106330395Y-98827164D01*
X106306704Y-98798296D01*
X106277836Y-98774605D01*
X106244901Y-98757001D01*
X106209165Y-98746160D01*
X106172000Y-98742500D01*
X105727500Y-98742500D01*
X105727500Y-98171000D01*
X105723840Y-98133835D01*
X105712999Y-98098099D01*
X105695395Y-98065164D01*
X105671704Y-98036296D01*
X105642836Y-98012605D01*
X105609901Y-97995001D01*
X105574165Y-97984160D01*
X105537000Y-97980500D01*
X105283000Y-97980500D01*
X105245835Y-97984160D01*
X105210099Y-97995001D01*
X105177164Y-98012605D01*
X105148296Y-98036296D01*
X105124605Y-98065164D01*
X105107001Y-98098099D01*
X105096160Y-98133835D01*
X105092500Y-98171000D01*
X103566500Y-98171000D01*
X103566500Y-88773000D01*
X105092500Y-88773000D01*
X105092500Y-89662000D01*
X105096160Y-89699165D01*
X105107001Y-89734901D01*
X105124605Y-89767836D01*
X105148296Y-89796704D01*
X105177164Y-89820395D01*
X105210099Y-89837999D01*
X105245835Y-89848840D01*
X105283000Y-89852500D01*
X105537000Y-89852500D01*
X105574165Y-89848840D01*
X105609901Y-89837999D01*
X105642836Y-89820395D01*
X105671704Y-89796704D01*
X105695395Y-89767836D01*
X105712999Y-89734901D01*
X105723840Y-89699165D01*
X105727500Y-89662000D01*
X105727500Y-89217500D01*
X106299000Y-89217500D01*
X106336165Y-89213840D01*
X106371901Y-89202999D01*
X106404836Y-89185395D01*
X106433704Y-89161704D01*
X106457395Y-89132836D01*
X106474999Y-89099901D01*
X106485840Y-89064165D01*
X106489500Y-89027000D01*
X106489500Y-88773000D01*
X120332500Y-88773000D01*
X120332500Y-89027000D01*
X120336160Y-89064165D01*
X120347001Y-89099901D01*
X120364605Y-89132836D01*
X120388296Y-89161704D01*
X120417164Y-89185395D01*
X120450099Y-89202999D01*
X120485835Y-89213840D01*
X120523000Y-89217500D01*
X120967500Y-89217500D01*
X120967500Y-89789000D01*
X120971160Y-89826165D01*
X120982001Y-89861901D01*
X120999605Y-89894836D01*
X121023296Y-89923704D01*
X121052164Y-89947395D01*
X121085099Y-89964999D01*
X121120835Y-89975840D01*
X121158000Y-89979500D01*
X121412000Y-89979500D01*
X121449165Y-89975840D01*
X121484901Y-89964999D01*
X121517836Y-89947395D01*
X121546704Y-89923704D01*
X121570395Y-89894836D01*
X121587999Y-89861901D01*
X121598840Y-89826165D01*
X121602500Y-89789000D01*
X121602500Y-88773000D01*
X121598840Y-88735835D01*
X121587999Y-88700099D01*
X121570395Y-88667164D01*
X121546704Y-88638296D01*
X121517836Y-88614605D01*
X121484901Y-88597001D01*
X121449165Y-88586160D01*
X121412000Y-88582500D01*
X120523000Y-88582500D01*
X120485835Y-88586160D01*
X120450099Y-88597001D01*
X120417164Y-88614605D01*
X120388296Y-88638296D01*
X120364605Y-88667164D01*
X120347001Y-88700099D01*
X120336160Y-88735835D01*
X120332500Y-88773000D01*
X106489500Y-88773000D01*
X106485840Y-88735835D01*
X106474999Y-88700099D01*
X106457395Y-88667164D01*
X106433704Y-88638296D01*
X106404836Y-88614605D01*
X106371901Y-88597001D01*
X106336165Y-88586160D01*
X106299000Y-88582500D01*
X105283000Y-88582500D01*
X105245835Y-88586160D01*
X105210099Y-88597001D01*
X105177164Y-88614605D01*
X105148296Y-88638296D01*
X105124605Y-88667164D01*
X105107001Y-88700099D01*
X105096160Y-88735835D01*
X105092500Y-88773000D01*
X103566500Y-88773000D01*
X103566500Y-83473499D01*
X103793500Y-83246500D01*
X111090784Y-83246500D01*
X111125000Y-83249870D01*
X111261538Y-83236422D01*
X111292803Y-83226938D01*
X111392829Y-83196596D01*
X111513827Y-83131921D01*
X111619883Y-83044883D01*
X111641699Y-83018300D01*
X112228306Y-82431694D01*
X112254883Y-82409883D01*
X112341921Y-82303827D01*
X112406596Y-82182829D01*
X112446422Y-82051538D01*
X112456500Y-81949216D01*
X112456500Y-81949215D01*
X112459870Y-81915000D01*
X112456500Y-81880784D01*
X112456500Y-68366765D01*
X113830000Y-68366765D01*
X113942034Y-68355731D01*
X114049762Y-68323052D01*
X114149045Y-68269984D01*
X114236067Y-68198567D01*
X114307484Y-68111545D01*
X114360552Y-68012262D01*
X114382774Y-67939006D01*
X116130446Y-67939006D01*
X116210994Y-68019555D01*
G37*
G04 #@! TD.AperFunction*
D23*
X197423501Y-136871499D02*
X197196501Y-137098500D01*
X191804216Y-137098500D01*
X191794904Y-137097583D01*
X191811938Y-137080549D01*
X191907313Y-136937810D01*
X191973009Y-136779207D01*
X191995951Y-136663871D01*
X192150793Y-136728009D01*
X192319165Y-136761500D01*
X192490835Y-136761500D01*
X192659207Y-136728009D01*
X192817810Y-136662313D01*
X192960549Y-136566938D01*
X193081938Y-136445549D01*
X193177313Y-136302810D01*
X193243009Y-136144207D01*
X193276500Y-135975835D01*
X193276500Y-135804165D01*
X193243009Y-135635793D01*
X193177313Y-135477190D01*
X193106665Y-135371457D01*
X193378075Y-135453788D01*
X193611500Y-135307351D01*
X193611500Y-134048500D01*
X193738500Y-134048500D01*
X193738500Y-135307351D01*
X193971925Y-135453788D01*
X194244131Y-135371216D01*
X194503633Y-135233548D01*
X194731291Y-135047899D01*
X194918356Y-134821404D01*
X195057640Y-134562766D01*
X195143790Y-134281925D01*
X194997531Y-134048500D01*
X193738500Y-134048500D01*
X193611500Y-134048500D01*
X193591500Y-134048500D01*
X193591500Y-133921500D01*
X193611500Y-133921500D01*
X193611500Y-132662649D01*
X193738500Y-132662649D01*
X193738500Y-133921500D01*
X194997531Y-133921500D01*
X195143790Y-133688075D01*
X195057640Y-133407234D01*
X194918356Y-133148596D01*
X194731291Y-132922101D01*
X194503633Y-132736452D01*
X194244131Y-132598784D01*
X193971925Y-132516212D01*
X193738500Y-132662649D01*
X193611500Y-132662649D01*
X193378075Y-132516212D01*
X193105869Y-132598784D01*
X193101500Y-132601102D01*
X193101500Y-120938499D01*
X193951662Y-120088338D01*
X194075052Y-120063794D01*
X194324649Y-119960407D01*
X194549280Y-119810314D01*
X194740314Y-119619280D01*
X194890407Y-119394649D01*
X194993794Y-119145052D01*
X195046500Y-118880081D01*
X195046500Y-118609919D01*
X194993794Y-118344948D01*
X194890407Y-118095351D01*
X194740314Y-117870720D01*
X194549280Y-117679686D01*
X194371500Y-117560898D01*
X194371500Y-113064215D01*
X194374870Y-113029999D01*
X194361422Y-112893461D01*
X194352153Y-112862904D01*
X194321596Y-112762171D01*
X194256921Y-112641173D01*
X194169883Y-112535117D01*
X194168657Y-112534111D01*
X194244131Y-112511216D01*
X194503633Y-112373548D01*
X194731291Y-112187899D01*
X194918356Y-111961404D01*
X195057640Y-111702766D01*
X195143790Y-111421925D01*
X194997531Y-111188500D01*
X193738500Y-111188500D01*
X193738500Y-111208500D01*
X193611500Y-111208500D01*
X193611500Y-111188500D01*
X193591500Y-111188500D01*
X193591500Y-111061500D01*
X193611500Y-111061500D01*
X193611500Y-111041500D01*
X193738500Y-111041500D01*
X193738500Y-111061500D01*
X194997531Y-111061500D01*
X195143790Y-110828075D01*
X195057640Y-110547234D01*
X194918356Y-110288596D01*
X194731291Y-110062101D01*
X194503633Y-109876452D01*
X194244131Y-109738784D01*
X194168656Y-109715889D01*
X194169882Y-109714883D01*
X194191691Y-109688309D01*
X194191694Y-109688306D01*
X194237238Y-109632810D01*
X194256921Y-109608827D01*
X194321596Y-109487829D01*
X194361187Y-109357313D01*
X194361422Y-109356539D01*
X194374870Y-109220001D01*
X194371500Y-109185785D01*
X194371500Y-103741500D01*
X194395835Y-103741500D01*
X194564207Y-103708009D01*
X194722810Y-103642313D01*
X194836272Y-103566500D01*
X196815784Y-103566500D01*
X196850000Y-103569870D01*
X196986538Y-103556422D01*
X197017803Y-103546938D01*
X197117829Y-103516596D01*
X197238827Y-103451921D01*
X197344883Y-103364883D01*
X197366699Y-103338300D01*
X197423500Y-103281499D01*
X197423501Y-136871499D01*
G04 #@! TA.AperFunction,Conductor*
D24*
G36*
X197423501Y-136871499D02*
G01*
X197196501Y-137098500D01*
X191804216Y-137098500D01*
X191794904Y-137097583D01*
X191811938Y-137080549D01*
X191907313Y-136937810D01*
X191973009Y-136779207D01*
X191995951Y-136663871D01*
X192150793Y-136728009D01*
X192319165Y-136761500D01*
X192490835Y-136761500D01*
X192659207Y-136728009D01*
X192817810Y-136662313D01*
X192960549Y-136566938D01*
X193081938Y-136445549D01*
X193177313Y-136302810D01*
X193243009Y-136144207D01*
X193276500Y-135975835D01*
X193276500Y-135804165D01*
X193243009Y-135635793D01*
X193177313Y-135477190D01*
X193106665Y-135371457D01*
X193378075Y-135453788D01*
X193611500Y-135307351D01*
X193611500Y-134048500D01*
X193738500Y-134048500D01*
X193738500Y-135307351D01*
X193971925Y-135453788D01*
X194244131Y-135371216D01*
X194503633Y-135233548D01*
X194731291Y-135047899D01*
X194918356Y-134821404D01*
X195057640Y-134562766D01*
X195143790Y-134281925D01*
X194997531Y-134048500D01*
X193738500Y-134048500D01*
X193611500Y-134048500D01*
X193591500Y-134048500D01*
X193591500Y-133921500D01*
X193611500Y-133921500D01*
X193611500Y-132662649D01*
X193738500Y-132662649D01*
X193738500Y-133921500D01*
X194997531Y-133921500D01*
X195143790Y-133688075D01*
X195057640Y-133407234D01*
X194918356Y-133148596D01*
X194731291Y-132922101D01*
X194503633Y-132736452D01*
X194244131Y-132598784D01*
X193971925Y-132516212D01*
X193738500Y-132662649D01*
X193611500Y-132662649D01*
X193378075Y-132516212D01*
X193105869Y-132598784D01*
X193101500Y-132601102D01*
X193101500Y-120938499D01*
X193951662Y-120088338D01*
X194075052Y-120063794D01*
X194324649Y-119960407D01*
X194549280Y-119810314D01*
X194740314Y-119619280D01*
X194890407Y-119394649D01*
X194993794Y-119145052D01*
X195046500Y-118880081D01*
X195046500Y-118609919D01*
X194993794Y-118344948D01*
X194890407Y-118095351D01*
X194740314Y-117870720D01*
X194549280Y-117679686D01*
X194371500Y-117560898D01*
X194371500Y-113064215D01*
X194374870Y-113029999D01*
X194361422Y-112893461D01*
X194352153Y-112862904D01*
X194321596Y-112762171D01*
X194256921Y-112641173D01*
X194169883Y-112535117D01*
X194168657Y-112534111D01*
X194244131Y-112511216D01*
X194503633Y-112373548D01*
X194731291Y-112187899D01*
X194918356Y-111961404D01*
X195057640Y-111702766D01*
X195143790Y-111421925D01*
X194997531Y-111188500D01*
X193738500Y-111188500D01*
X193738500Y-111208500D01*
X193611500Y-111208500D01*
X193611500Y-111188500D01*
X193591500Y-111188500D01*
X193591500Y-111061500D01*
X193611500Y-111061500D01*
X193611500Y-111041500D01*
X193738500Y-111041500D01*
X193738500Y-111061500D01*
X194997531Y-111061500D01*
X195143790Y-110828075D01*
X195057640Y-110547234D01*
X194918356Y-110288596D01*
X194731291Y-110062101D01*
X194503633Y-109876452D01*
X194244131Y-109738784D01*
X194168656Y-109715889D01*
X194169882Y-109714883D01*
X194191691Y-109688309D01*
X194191694Y-109688306D01*
X194237238Y-109632810D01*
X194256921Y-109608827D01*
X194321596Y-109487829D01*
X194361187Y-109357313D01*
X194361422Y-109356539D01*
X194374870Y-109220001D01*
X194371500Y-109185785D01*
X194371500Y-103741500D01*
X194395835Y-103741500D01*
X194564207Y-103708009D01*
X194722810Y-103642313D01*
X194836272Y-103566500D01*
X196815784Y-103566500D01*
X196850000Y-103569870D01*
X196986538Y-103556422D01*
X197017803Y-103546938D01*
X197117829Y-103516596D01*
X197238827Y-103451921D01*
X197344883Y-103364883D01*
X197366699Y-103338300D01*
X197423500Y-103281499D01*
X197423501Y-136871499D01*
G37*
G04 #@! TD.AperFunction*
D23*
X151068500Y-117361102D02*
X151064131Y-117358784D01*
X150791925Y-117276212D01*
X150558500Y-117422649D01*
X150558500Y-118681500D01*
X150578500Y-118681500D01*
X150578500Y-118808500D01*
X150558500Y-118808500D01*
X150558500Y-120067351D01*
X150662442Y-120132558D01*
X150026696Y-120768305D01*
X150000118Y-120790117D01*
X149913080Y-120896173D01*
X149848404Y-121017171D01*
X149823444Y-121099454D01*
X149808578Y-121148462D01*
X149795130Y-121285000D01*
X149798500Y-121319216D01*
X149798500Y-121393728D01*
X149722687Y-121507190D01*
X149656991Y-121665793D01*
X149623500Y-121834165D01*
X149623500Y-122005835D01*
X149656991Y-122174207D01*
X149722687Y-122332810D01*
X149798500Y-122446273D01*
X149798501Y-125180897D01*
X149620720Y-125299686D01*
X149429686Y-125490720D01*
X149279593Y-125715351D01*
X149225000Y-125847149D01*
X149170407Y-125715351D01*
X149020314Y-125490720D01*
X148829280Y-125299686D01*
X148651500Y-125180898D01*
X148651500Y-122208499D01*
X149693306Y-121166694D01*
X149719883Y-121144883D01*
X149806921Y-121038827D01*
X149871596Y-120917829D01*
X149910336Y-120790118D01*
X149911422Y-120786539D01*
X149924870Y-120650001D01*
X149921500Y-120615784D01*
X149921500Y-120128898D01*
X149925869Y-120131216D01*
X150198075Y-120213788D01*
X150431500Y-120067351D01*
X150431500Y-118808500D01*
X150411500Y-118808500D01*
X150411500Y-118681500D01*
X150431500Y-118681500D01*
X150431500Y-117422649D01*
X150198075Y-117276212D01*
X149925869Y-117358784D01*
X149921500Y-117361102D01*
X149921500Y-116863987D01*
X149939451Y-116881938D01*
X150082190Y-116977313D01*
X150240793Y-117043009D01*
X150409165Y-117076500D01*
X150580835Y-117076500D01*
X150749207Y-117043009D01*
X150907810Y-116977313D01*
X151050549Y-116881938D01*
X151068500Y-116863987D01*
X151068500Y-117361102D01*
G04 #@! TA.AperFunction,Conductor*
D24*
G36*
X151068500Y-117361102D02*
G01*
X151064131Y-117358784D01*
X150791925Y-117276212D01*
X150558500Y-117422649D01*
X150558500Y-118681500D01*
X150578500Y-118681500D01*
X150578500Y-118808500D01*
X150558500Y-118808500D01*
X150558500Y-120067351D01*
X150662442Y-120132558D01*
X150026696Y-120768305D01*
X150000118Y-120790117D01*
X149913080Y-120896173D01*
X149848404Y-121017171D01*
X149823444Y-121099454D01*
X149808578Y-121148462D01*
X149795130Y-121285000D01*
X149798500Y-121319216D01*
X149798500Y-121393728D01*
X149722687Y-121507190D01*
X149656991Y-121665793D01*
X149623500Y-121834165D01*
X149623500Y-122005835D01*
X149656991Y-122174207D01*
X149722687Y-122332810D01*
X149798500Y-122446273D01*
X149798501Y-125180897D01*
X149620720Y-125299686D01*
X149429686Y-125490720D01*
X149279593Y-125715351D01*
X149225000Y-125847149D01*
X149170407Y-125715351D01*
X149020314Y-125490720D01*
X148829280Y-125299686D01*
X148651500Y-125180898D01*
X148651500Y-122208499D01*
X149693306Y-121166694D01*
X149719883Y-121144883D01*
X149806921Y-121038827D01*
X149871596Y-120917829D01*
X149910336Y-120790118D01*
X149911422Y-120786539D01*
X149924870Y-120650001D01*
X149921500Y-120615784D01*
X149921500Y-120128898D01*
X149925869Y-120131216D01*
X150198075Y-120213788D01*
X150431500Y-120067351D01*
X150431500Y-118808500D01*
X150411500Y-118808500D01*
X150411500Y-118681500D01*
X150431500Y-118681500D01*
X150431500Y-117422649D01*
X150198075Y-117276212D01*
X149925869Y-117358784D01*
X149921500Y-117361102D01*
X149921500Y-116863987D01*
X149939451Y-116881938D01*
X150082190Y-116977313D01*
X150240793Y-117043009D01*
X150409165Y-117076500D01*
X150580835Y-117076500D01*
X150749207Y-117043009D01*
X150907810Y-116977313D01*
X151050549Y-116881938D01*
X151068500Y-116863987D01*
X151068500Y-117361102D01*
G37*
G04 #@! TD.AperFunction*
D23*
X123879593Y-111774649D02*
X124029686Y-111999280D01*
X124220720Y-112190314D01*
X124445351Y-112340407D01*
X124694948Y-112443794D01*
X124959919Y-112496500D01*
X125230081Y-112496500D01*
X125495052Y-112443794D01*
X125744649Y-112340407D01*
X125969280Y-112190314D01*
X126160314Y-111999280D01*
X126303500Y-111784986D01*
X126303500Y-116313728D01*
X126227687Y-116427190D01*
X126161991Y-116585793D01*
X126128500Y-116754165D01*
X126128500Y-116925835D01*
X126161991Y-117094207D01*
X126227687Y-117252810D01*
X126303501Y-117366274D01*
X126303501Y-117866394D01*
X126151291Y-117682101D01*
X125923633Y-117496452D01*
X125664131Y-117358784D01*
X125391925Y-117276212D01*
X125158500Y-117422649D01*
X125158500Y-118681500D01*
X125178500Y-118681500D01*
X125178500Y-118808500D01*
X125158500Y-118808500D01*
X125158500Y-120067351D01*
X125391925Y-120213788D01*
X125664131Y-120131216D01*
X125923633Y-119993548D01*
X126151291Y-119807899D01*
X126303501Y-119623606D01*
X126303501Y-125615017D01*
X126199151Y-125458847D01*
X126001153Y-125260849D01*
X125768333Y-125105283D01*
X125509636Y-124998127D01*
X125235006Y-124943500D01*
X124954994Y-124943500D01*
X124680364Y-124998127D01*
X124521500Y-125063931D01*
X124521500Y-120128898D01*
X124525869Y-120131216D01*
X124798075Y-120213788D01*
X125031500Y-120067351D01*
X125031500Y-118808500D01*
X125011500Y-118808500D01*
X125011500Y-118681500D01*
X125031500Y-118681500D01*
X125031500Y-117422649D01*
X124798075Y-117276212D01*
X124525869Y-117358784D01*
X124521500Y-117361102D01*
X124521500Y-113556272D01*
X124597313Y-113442810D01*
X124663009Y-113284207D01*
X124696500Y-113115835D01*
X124696500Y-112944165D01*
X124663009Y-112775793D01*
X124597313Y-112617190D01*
X124501938Y-112474451D01*
X124380549Y-112353062D01*
X124237810Y-112257687D01*
X124079207Y-112191991D01*
X123910835Y-112158500D01*
X123739165Y-112158500D01*
X123570793Y-112191991D01*
X123412190Y-112257687D01*
X123269451Y-112353062D01*
X123148062Y-112474451D01*
X123052687Y-112617190D01*
X122986991Y-112775793D01*
X122953500Y-112944165D01*
X122953500Y-113115835D01*
X122986991Y-113284207D01*
X123052687Y-113442810D01*
X123128500Y-113556272D01*
X123128500Y-117498051D01*
X122955052Y-117426206D01*
X122690081Y-117373500D01*
X122419919Y-117373500D01*
X122154948Y-117426206D01*
X121905351Y-117529593D01*
X121680720Y-117679686D01*
X121489686Y-117870720D01*
X121339593Y-118095351D01*
X121285000Y-118227149D01*
X121230407Y-118095351D01*
X121080314Y-117870720D01*
X120889280Y-117679686D01*
X120664649Y-117529593D01*
X120415052Y-117426206D01*
X120150081Y-117373500D01*
X119879919Y-117373500D01*
X119614948Y-117426206D01*
X119441500Y-117498051D01*
X119441500Y-112683499D01*
X119670213Y-112454787D01*
X119879919Y-112496500D01*
X120150081Y-112496500D01*
X120415052Y-112443794D01*
X120664649Y-112340407D01*
X120889280Y-112190314D01*
X121080314Y-111999280D01*
X121230407Y-111774649D01*
X121285000Y-111642851D01*
X121339593Y-111774649D01*
X121489686Y-111999280D01*
X121680720Y-112190314D01*
X121905351Y-112340407D01*
X122154948Y-112443794D01*
X122419919Y-112496500D01*
X122690081Y-112496500D01*
X122955052Y-112443794D01*
X123204649Y-112340407D01*
X123429280Y-112190314D01*
X123620314Y-111999280D01*
X123770407Y-111774649D01*
X123825000Y-111642851D01*
X123879593Y-111774649D01*
G04 #@! TA.AperFunction,Conductor*
D24*
G36*
X123879593Y-111774649D02*
G01*
X124029686Y-111999280D01*
X124220720Y-112190314D01*
X124445351Y-112340407D01*
X124694948Y-112443794D01*
X124959919Y-112496500D01*
X125230081Y-112496500D01*
X125495052Y-112443794D01*
X125744649Y-112340407D01*
X125969280Y-112190314D01*
X126160314Y-111999280D01*
X126303500Y-111784986D01*
X126303500Y-116313728D01*
X126227687Y-116427190D01*
X126161991Y-116585793D01*
X126128500Y-116754165D01*
X126128500Y-116925835D01*
X126161991Y-117094207D01*
X126227687Y-117252810D01*
X126303501Y-117366274D01*
X126303501Y-117866394D01*
X126151291Y-117682101D01*
X125923633Y-117496452D01*
X125664131Y-117358784D01*
X125391925Y-117276212D01*
X125158500Y-117422649D01*
X125158500Y-118681500D01*
X125178500Y-118681500D01*
X125178500Y-118808500D01*
X125158500Y-118808500D01*
X125158500Y-120067351D01*
X125391925Y-120213788D01*
X125664131Y-120131216D01*
X125923633Y-119993548D01*
X126151291Y-119807899D01*
X126303501Y-119623606D01*
X126303501Y-125615017D01*
X126199151Y-125458847D01*
X126001153Y-125260849D01*
X125768333Y-125105283D01*
X125509636Y-124998127D01*
X125235006Y-124943500D01*
X124954994Y-124943500D01*
X124680364Y-124998127D01*
X124521500Y-125063931D01*
X124521500Y-120128898D01*
X124525869Y-120131216D01*
X124798075Y-120213788D01*
X125031500Y-120067351D01*
X125031500Y-118808500D01*
X125011500Y-118808500D01*
X125011500Y-118681500D01*
X125031500Y-118681500D01*
X125031500Y-117422649D01*
X124798075Y-117276212D01*
X124525869Y-117358784D01*
X124521500Y-117361102D01*
X124521500Y-113556272D01*
X124597313Y-113442810D01*
X124663009Y-113284207D01*
X124696500Y-113115835D01*
X124696500Y-112944165D01*
X124663009Y-112775793D01*
X124597313Y-112617190D01*
X124501938Y-112474451D01*
X124380549Y-112353062D01*
X124237810Y-112257687D01*
X124079207Y-112191991D01*
X123910835Y-112158500D01*
X123739165Y-112158500D01*
X123570793Y-112191991D01*
X123412190Y-112257687D01*
X123269451Y-112353062D01*
X123148062Y-112474451D01*
X123052687Y-112617190D01*
X122986991Y-112775793D01*
X122953500Y-112944165D01*
X122953500Y-113115835D01*
X122986991Y-113284207D01*
X123052687Y-113442810D01*
X123128500Y-113556272D01*
X123128500Y-117498051D01*
X122955052Y-117426206D01*
X122690081Y-117373500D01*
X122419919Y-117373500D01*
X122154948Y-117426206D01*
X121905351Y-117529593D01*
X121680720Y-117679686D01*
X121489686Y-117870720D01*
X121339593Y-118095351D01*
X121285000Y-118227149D01*
X121230407Y-118095351D01*
X121080314Y-117870720D01*
X120889280Y-117679686D01*
X120664649Y-117529593D01*
X120415052Y-117426206D01*
X120150081Y-117373500D01*
X119879919Y-117373500D01*
X119614948Y-117426206D01*
X119441500Y-117498051D01*
X119441500Y-112683499D01*
X119670213Y-112454787D01*
X119879919Y-112496500D01*
X120150081Y-112496500D01*
X120415052Y-112443794D01*
X120664649Y-112340407D01*
X120889280Y-112190314D01*
X121080314Y-111999280D01*
X121230407Y-111774649D01*
X121285000Y-111642851D01*
X121339593Y-111774649D01*
X121489686Y-111999280D01*
X121680720Y-112190314D01*
X121905351Y-112340407D01*
X122154948Y-112443794D01*
X122419919Y-112496500D01*
X122690081Y-112496500D01*
X122955052Y-112443794D01*
X123204649Y-112340407D01*
X123429280Y-112190314D01*
X123620314Y-111999280D01*
X123770407Y-111774649D01*
X123825000Y-111642851D01*
X123879593Y-111774649D01*
G37*
G04 #@! TD.AperFunction*
D23*
X134854948Y-97203794D02*
X135119919Y-97256500D01*
X135390081Y-97256500D01*
X135655052Y-97203794D01*
X135828500Y-97131949D01*
X135828500Y-102004483D01*
X135493125Y-102006500D01*
X135318500Y-102181125D01*
X135318500Y-103441500D01*
X135338500Y-103441500D01*
X135338500Y-103568500D01*
X135318500Y-103568500D01*
X135318500Y-104828875D01*
X135493125Y-105003500D01*
X135828500Y-105005517D01*
X135828500Y-109878051D01*
X135655052Y-109806206D01*
X135390081Y-109753500D01*
X135119919Y-109753500D01*
X134854948Y-109806206D01*
X134614006Y-109906008D01*
X134614006Y-105005923D01*
X135016875Y-105003500D01*
X135191500Y-104828875D01*
X135191500Y-103568500D01*
X135171500Y-103568500D01*
X135171500Y-103441500D01*
X135191500Y-103441500D01*
X135191500Y-102181125D01*
X135016875Y-102006500D01*
X134614006Y-102004077D01*
X134614006Y-97103992D01*
X134854948Y-97203794D01*
G04 #@! TA.AperFunction,Conductor*
D24*
G36*
X134854948Y-97203794D02*
G01*
X135119919Y-97256500D01*
X135390081Y-97256500D01*
X135655052Y-97203794D01*
X135828500Y-97131949D01*
X135828500Y-102004483D01*
X135493125Y-102006500D01*
X135318500Y-102181125D01*
X135318500Y-103441500D01*
X135338500Y-103441500D01*
X135338500Y-103568500D01*
X135318500Y-103568500D01*
X135318500Y-104828875D01*
X135493125Y-105003500D01*
X135828500Y-105005517D01*
X135828500Y-109878051D01*
X135655052Y-109806206D01*
X135390081Y-109753500D01*
X135119919Y-109753500D01*
X134854948Y-109806206D01*
X134614006Y-109906008D01*
X134614006Y-105005923D01*
X135016875Y-105003500D01*
X135191500Y-104828875D01*
X135191500Y-103568500D01*
X135171500Y-103568500D01*
X135171500Y-103441500D01*
X135191500Y-103441500D01*
X135191500Y-102181125D01*
X135016875Y-102006500D01*
X134614006Y-102004077D01*
X134614006Y-97103992D01*
X134854948Y-97203794D01*
G37*
G04 #@! TD.AperFunction*
D23*
X150558500Y-103441500D02*
X150578500Y-103441500D01*
X150578500Y-103568500D01*
X150558500Y-103568500D01*
X150558500Y-104827351D01*
X150791925Y-104973788D01*
X151064131Y-104891216D01*
X151068500Y-104888898D01*
X151068500Y-105645912D01*
X151034746Y-105604783D01*
X151011694Y-105576694D01*
X151011691Y-105576691D01*
X150989882Y-105550117D01*
X150963309Y-105528309D01*
X150327558Y-104892558D01*
X150431500Y-104827351D01*
X150431500Y-103568500D01*
X150411500Y-103568500D01*
X150411500Y-103441500D01*
X150431500Y-103441500D01*
X150431500Y-103421500D01*
X150558500Y-103421500D01*
X150558500Y-103441500D01*
G04 #@! TA.AperFunction,Conductor*
D24*
G36*
X150558500Y-103441500D02*
G01*
X150578500Y-103441500D01*
X150578500Y-103568500D01*
X150558500Y-103568500D01*
X150558500Y-104827351D01*
X150791925Y-104973788D01*
X151064131Y-104891216D01*
X151068500Y-104888898D01*
X151068500Y-105645912D01*
X151034746Y-105604783D01*
X151011694Y-105576694D01*
X151011691Y-105576691D01*
X150989882Y-105550117D01*
X150963309Y-105528309D01*
X150327558Y-104892558D01*
X150431500Y-104827351D01*
X150431500Y-103568500D01*
X150411500Y-103568500D01*
X150411500Y-103441500D01*
X150431500Y-103441500D01*
X150431500Y-103421500D01*
X150558500Y-103421500D01*
X150558500Y-103441500D01*
G37*
G04 #@! TD.AperFunction*
D23*
X148528500Y-92998499D02*
X148528500Y-94501102D01*
X148524131Y-94498784D01*
X148251925Y-94416212D01*
X148018500Y-94562649D01*
X148018500Y-95821500D01*
X148038500Y-95821500D01*
X148038500Y-95948500D01*
X148018500Y-95948500D01*
X148018500Y-97207351D01*
X148251925Y-97353788D01*
X148524131Y-97271216D01*
X148528500Y-97268898D01*
X148528501Y-102258051D01*
X148355052Y-102186206D01*
X148090081Y-102133500D01*
X147819919Y-102133500D01*
X147554948Y-102186206D01*
X147381500Y-102258051D01*
X147381500Y-97268898D01*
X147385869Y-97271216D01*
X147658075Y-97353788D01*
X147891500Y-97207351D01*
X147891500Y-95948500D01*
X147871500Y-95948500D01*
X147871500Y-95821500D01*
X147891500Y-95821500D01*
X147891500Y-94562649D01*
X147658075Y-94416212D01*
X147385869Y-94498784D01*
X147381500Y-94501102D01*
X147381500Y-91851499D01*
X148528500Y-92998499D01*
G04 #@! TA.AperFunction,Conductor*
D24*
G36*
X148528500Y-92998499D02*
G01*
X148528500Y-94501102D01*
X148524131Y-94498784D01*
X148251925Y-94416212D01*
X148018500Y-94562649D01*
X148018500Y-95821500D01*
X148038500Y-95821500D01*
X148038500Y-95948500D01*
X148018500Y-95948500D01*
X148018500Y-97207351D01*
X148251925Y-97353788D01*
X148524131Y-97271216D01*
X148528500Y-97268898D01*
X148528501Y-102258051D01*
X148355052Y-102186206D01*
X148090081Y-102133500D01*
X147819919Y-102133500D01*
X147554948Y-102186206D01*
X147381500Y-102258051D01*
X147381500Y-97268898D01*
X147385869Y-97271216D01*
X147658075Y-97353788D01*
X147891500Y-97207351D01*
X147891500Y-95948500D01*
X147871500Y-95948500D01*
X147871500Y-95821500D01*
X147891500Y-95821500D01*
X147891500Y-94562649D01*
X147658075Y-94416212D01*
X147385869Y-94498784D01*
X147381500Y-94501102D01*
X147381500Y-91851499D01*
X148528500Y-92998499D01*
G37*
G04 #@! TD.AperFunction*
D23*
X138368501Y-94501102D02*
X138364131Y-94498784D01*
X138091925Y-94416212D01*
X137858500Y-94562649D01*
X137858500Y-95821500D01*
X137878500Y-95821500D01*
X137878500Y-95948500D01*
X137858500Y-95948500D01*
X137858500Y-97207351D01*
X138091925Y-97353788D01*
X138364131Y-97271216D01*
X138368500Y-97268898D01*
X138368500Y-102258051D01*
X138195052Y-102186206D01*
X137930081Y-102133500D01*
X137659919Y-102133500D01*
X137394948Y-102186206D01*
X137221500Y-102258051D01*
X137221500Y-97268898D01*
X137225869Y-97271216D01*
X137498075Y-97353788D01*
X137731500Y-97207351D01*
X137731500Y-95948500D01*
X137711500Y-95948500D01*
X137711500Y-95821500D01*
X137731500Y-95821500D01*
X137731500Y-94562649D01*
X137498075Y-94416212D01*
X137225869Y-94498784D01*
X137221500Y-94501102D01*
X137221500Y-89511949D01*
X137394948Y-89583794D01*
X137659919Y-89636500D01*
X137930081Y-89636500D01*
X138195052Y-89583794D01*
X138368501Y-89511949D01*
X138368501Y-94501102D01*
G04 #@! TA.AperFunction,Conductor*
D24*
G36*
X138368501Y-94501102D02*
G01*
X138364131Y-94498784D01*
X138091925Y-94416212D01*
X137858500Y-94562649D01*
X137858500Y-95821500D01*
X137878500Y-95821500D01*
X137878500Y-95948500D01*
X137858500Y-95948500D01*
X137858500Y-97207351D01*
X138091925Y-97353788D01*
X138364131Y-97271216D01*
X138368500Y-97268898D01*
X138368500Y-102258051D01*
X138195052Y-102186206D01*
X137930081Y-102133500D01*
X137659919Y-102133500D01*
X137394948Y-102186206D01*
X137221500Y-102258051D01*
X137221500Y-97268898D01*
X137225869Y-97271216D01*
X137498075Y-97353788D01*
X137731500Y-97207351D01*
X137731500Y-95948500D01*
X137711500Y-95948500D01*
X137711500Y-95821500D01*
X137731500Y-95821500D01*
X137731500Y-94562649D01*
X137498075Y-94416212D01*
X137225869Y-94498784D01*
X137221500Y-94501102D01*
X137221500Y-89511949D01*
X137394948Y-89583794D01*
X137659919Y-89636500D01*
X137930081Y-89636500D01*
X138195052Y-89583794D01*
X138368501Y-89511949D01*
X138368501Y-94501102D01*
G37*
G04 #@! TD.AperFunction*
D23*
X130278945Y-100870858D02*
X130264803Y-100885000D01*
X130278945Y-100899142D01*
X130189142Y-100988945D01*
X130175000Y-100974803D01*
X130160858Y-100988945D01*
X130071055Y-100899142D01*
X130085197Y-100885000D01*
X130071055Y-100870858D01*
X130160858Y-100781055D01*
X130175000Y-100795197D01*
X130189142Y-100781055D01*
X130278945Y-100870858D01*
G04 #@! TA.AperFunction,Conductor*
D24*
G36*
X130278945Y-100870858D02*
G01*
X130264803Y-100885000D01*
X130278945Y-100899142D01*
X130189142Y-100988945D01*
X130175000Y-100974803D01*
X130160858Y-100988945D01*
X130071055Y-100899142D01*
X130085197Y-100885000D01*
X130071055Y-100870858D01*
X130160858Y-100781055D01*
X130175000Y-100795197D01*
X130189142Y-100781055D01*
X130278945Y-100870858D01*
G37*
G04 #@! TD.AperFunction*
D23*
X184787507Y-81632506D02*
X184743062Y-81676951D01*
X184647687Y-81819690D01*
X184581991Y-81978293D01*
X184548500Y-82146665D01*
X184548500Y-82318335D01*
X184581991Y-82486707D01*
X184647687Y-82645310D01*
X184723500Y-82758772D01*
X184723500Y-87386394D01*
X184571291Y-87202101D01*
X184343633Y-87016452D01*
X184084131Y-86878784D01*
X183811925Y-86796212D01*
X183578500Y-86942649D01*
X183578500Y-88201500D01*
X183598500Y-88201500D01*
X183598500Y-88328500D01*
X183578500Y-88328500D01*
X183578500Y-89587351D01*
X183811925Y-89733788D01*
X184084131Y-89651216D01*
X184343633Y-89513548D01*
X184571291Y-89327899D01*
X184723501Y-89143606D01*
X184723501Y-93056499D01*
X183238339Y-94541662D01*
X183114948Y-94566206D01*
X182941500Y-94638051D01*
X182941500Y-89648898D01*
X182945869Y-89651216D01*
X183218075Y-89733788D01*
X183451500Y-89587351D01*
X183451500Y-88328500D01*
X183431500Y-88328500D01*
X183431500Y-88201500D01*
X183451500Y-88201500D01*
X183451500Y-86942649D01*
X183218075Y-86796212D01*
X182945869Y-86878784D01*
X182941500Y-86881102D01*
X182941500Y-81891949D01*
X183114948Y-81963794D01*
X183379919Y-82016500D01*
X183650081Y-82016500D01*
X183915052Y-81963794D01*
X184164649Y-81860407D01*
X184389280Y-81710314D01*
X184580314Y-81519280D01*
X184617952Y-81462951D01*
X184787507Y-81632506D01*
G04 #@! TA.AperFunction,Conductor*
D24*
G36*
X184787507Y-81632506D02*
G01*
X184743062Y-81676951D01*
X184647687Y-81819690D01*
X184581991Y-81978293D01*
X184548500Y-82146665D01*
X184548500Y-82318335D01*
X184581991Y-82486707D01*
X184647687Y-82645310D01*
X184723500Y-82758772D01*
X184723500Y-87386394D01*
X184571291Y-87202101D01*
X184343633Y-87016452D01*
X184084131Y-86878784D01*
X183811925Y-86796212D01*
X183578500Y-86942649D01*
X183578500Y-88201500D01*
X183598500Y-88201500D01*
X183598500Y-88328500D01*
X183578500Y-88328500D01*
X183578500Y-89587351D01*
X183811925Y-89733788D01*
X184084131Y-89651216D01*
X184343633Y-89513548D01*
X184571291Y-89327899D01*
X184723501Y-89143606D01*
X184723501Y-93056499D01*
X183238339Y-94541662D01*
X183114948Y-94566206D01*
X182941500Y-94638051D01*
X182941500Y-89648898D01*
X182945869Y-89651216D01*
X183218075Y-89733788D01*
X183451500Y-89587351D01*
X183451500Y-88328500D01*
X183431500Y-88328500D01*
X183431500Y-88201500D01*
X183451500Y-88201500D01*
X183451500Y-86942649D01*
X183218075Y-86796212D01*
X182945869Y-86878784D01*
X182941500Y-86881102D01*
X182941500Y-81891949D01*
X183114948Y-81963794D01*
X183379919Y-82016500D01*
X183650081Y-82016500D01*
X183915052Y-81963794D01*
X184164649Y-81860407D01*
X184389280Y-81710314D01*
X184580314Y-81519280D01*
X184617952Y-81462951D01*
X184787507Y-81632506D01*
G37*
G04 #@! TD.AperFunction*
D23*
X151068501Y-86881102D02*
X151064131Y-86878784D01*
X150791925Y-86796212D01*
X150558500Y-86942649D01*
X150558500Y-88201500D01*
X150578500Y-88201500D01*
X150578500Y-88328500D01*
X150558500Y-88328500D01*
X150558500Y-89587351D01*
X150791925Y-89733788D01*
X151064131Y-89651216D01*
X151068500Y-89648898D01*
X151068500Y-91993413D01*
X151011780Y-91924299D01*
X151011694Y-91924194D01*
X151011691Y-91924191D01*
X150989882Y-91897617D01*
X150963309Y-91875809D01*
X149921500Y-90834001D01*
X149921500Y-89648898D01*
X149925869Y-89651216D01*
X150198075Y-89733788D01*
X150431500Y-89587351D01*
X150431500Y-88328500D01*
X150411500Y-88328500D01*
X150411500Y-88201500D01*
X150431500Y-88201500D01*
X150431500Y-86942649D01*
X150327558Y-86877442D01*
X150328304Y-86876695D01*
X150354883Y-86854883D01*
X150441921Y-86748827D01*
X150506596Y-86627829D01*
X150546422Y-86496538D01*
X150556500Y-86394216D01*
X150556500Y-86394215D01*
X150559870Y-86360000D01*
X150556500Y-86325784D01*
X150556500Y-83076272D01*
X150632313Y-82962810D01*
X150698009Y-82804207D01*
X150731500Y-82635835D01*
X150731500Y-82464165D01*
X150698009Y-82295793D01*
X150632313Y-82137190D01*
X150551671Y-82016500D01*
X150630081Y-82016500D01*
X150895052Y-81963794D01*
X151068501Y-81891949D01*
X151068501Y-86881102D01*
G04 #@! TA.AperFunction,Conductor*
D24*
G36*
X151068501Y-86881102D02*
G01*
X151064131Y-86878784D01*
X150791925Y-86796212D01*
X150558500Y-86942649D01*
X150558500Y-88201500D01*
X150578500Y-88201500D01*
X150578500Y-88328500D01*
X150558500Y-88328500D01*
X150558500Y-89587351D01*
X150791925Y-89733788D01*
X151064131Y-89651216D01*
X151068500Y-89648898D01*
X151068500Y-91993413D01*
X151011780Y-91924299D01*
X151011694Y-91924194D01*
X151011691Y-91924191D01*
X150989882Y-91897617D01*
X150963309Y-91875809D01*
X149921500Y-90834001D01*
X149921500Y-89648898D01*
X149925869Y-89651216D01*
X150198075Y-89733788D01*
X150431500Y-89587351D01*
X150431500Y-88328500D01*
X150411500Y-88328500D01*
X150411500Y-88201500D01*
X150431500Y-88201500D01*
X150431500Y-86942649D01*
X150327558Y-86877442D01*
X150328304Y-86876695D01*
X150354883Y-86854883D01*
X150441921Y-86748827D01*
X150506596Y-86627829D01*
X150546422Y-86496538D01*
X150556500Y-86394216D01*
X150556500Y-86394215D01*
X150559870Y-86360000D01*
X150556500Y-86325784D01*
X150556500Y-83076272D01*
X150632313Y-82962810D01*
X150698009Y-82804207D01*
X150731500Y-82635835D01*
X150731500Y-82464165D01*
X150698009Y-82295793D01*
X150632313Y-82137190D01*
X150551671Y-82016500D01*
X150630081Y-82016500D01*
X150895052Y-81963794D01*
X151068501Y-81891949D01*
X151068501Y-86881102D01*
G37*
G04 #@! TD.AperFunction*
D23*
X125198945Y-85115858D02*
X125184803Y-85130000D01*
X125198945Y-85144142D01*
X125109142Y-85233945D01*
X125095000Y-85219803D01*
X125080858Y-85233945D01*
X124991055Y-85144142D01*
X125005197Y-85130000D01*
X124991055Y-85115858D01*
X125080858Y-85026055D01*
X125095000Y-85040197D01*
X125109142Y-85026055D01*
X125198945Y-85115858D01*
G04 #@! TA.AperFunction,Conductor*
D24*
G36*
X125198945Y-85115858D02*
G01*
X125184803Y-85130000D01*
X125198945Y-85144142D01*
X125109142Y-85233945D01*
X125095000Y-85219803D01*
X125080858Y-85233945D01*
X124991055Y-85144142D01*
X125005197Y-85130000D01*
X124991055Y-85115858D01*
X125080858Y-85026055D01*
X125095000Y-85040197D01*
X125109142Y-85026055D01*
X125198945Y-85115858D01*
G37*
G04 #@! TD.AperFunction*
D23*
X199081381Y-68556381D02*
X198636699Y-68111700D01*
X198614883Y-68085117D01*
X198508827Y-67998079D01*
X198387829Y-67933404D01*
X198256538Y-67893578D01*
X198154216Y-67883500D01*
X198120000Y-67880130D01*
X198085784Y-67883500D01*
X196764217Y-67883500D01*
X196902967Y-67790790D01*
X197330790Y-67362967D01*
X197666928Y-66859901D01*
X197898464Y-66300924D01*
X198016500Y-65707516D01*
X198016500Y-65102484D01*
X197898464Y-64509076D01*
X197666928Y-63950099D01*
X197330790Y-63447033D01*
X196902967Y-63019210D01*
X196399901Y-62683072D01*
X195840924Y-62451536D01*
X195247516Y-62333500D01*
X194642484Y-62333500D01*
X194049076Y-62451536D01*
X193490099Y-62683072D01*
X192987033Y-63019210D01*
X192559210Y-63447033D01*
X192466500Y-63585783D01*
X192466500Y-54501272D01*
X192542313Y-54387810D01*
X192608009Y-54229207D01*
X192641500Y-54060835D01*
X192641500Y-53889165D01*
X192608009Y-53720793D01*
X192542313Y-53562190D01*
X192446938Y-53419451D01*
X192325549Y-53298062D01*
X192182810Y-53202687D01*
X192024207Y-53136991D01*
X191855835Y-53103500D01*
X191684165Y-53103500D01*
X191515793Y-53136991D01*
X191357190Y-53202687D01*
X191214451Y-53298062D01*
X191093062Y-53419451D01*
X190997687Y-53562190D01*
X190931991Y-53720793D01*
X190923497Y-53763497D01*
X190880793Y-53771991D01*
X190722190Y-53837687D01*
X190716493Y-53841494D01*
X190381699Y-53506700D01*
X190359883Y-53480117D01*
X190253827Y-53393079D01*
X190132829Y-53328404D01*
X190001538Y-53288578D01*
X189899216Y-53278500D01*
X189865000Y-53275130D01*
X189830784Y-53278500D01*
X163864216Y-53278500D01*
X163830000Y-53275130D01*
X163795784Y-53278500D01*
X163693462Y-53288578D01*
X163562171Y-53328404D01*
X163441173Y-53393079D01*
X163335117Y-53480117D01*
X163313305Y-53506696D01*
X162726696Y-54093305D01*
X162700117Y-54115118D01*
X162613079Y-54221174D01*
X162548405Y-54342171D01*
X162548404Y-54342172D01*
X162508578Y-54473462D01*
X162495130Y-54610000D01*
X162498500Y-54644216D01*
X162498501Y-56540762D01*
X162288847Y-56680849D01*
X162090849Y-56878847D01*
X161935283Y-57111667D01*
X161925000Y-57136492D01*
X161914717Y-57111667D01*
X161759151Y-56878847D01*
X161561153Y-56680849D01*
X161328333Y-56525283D01*
X161069636Y-56418127D01*
X160795006Y-56363500D01*
X160514994Y-56363500D01*
X160240364Y-56418127D01*
X159981667Y-56525283D01*
X159748847Y-56680849D01*
X159550849Y-56878847D01*
X159395283Y-57111667D01*
X159385000Y-57136492D01*
X159374717Y-57111667D01*
X159219151Y-56878847D01*
X159021153Y-56680849D01*
X158788333Y-56525283D01*
X158529636Y-56418127D01*
X158255006Y-56363500D01*
X157974994Y-56363500D01*
X157700364Y-56418127D01*
X157441667Y-56525283D01*
X157208847Y-56680849D01*
X157010849Y-56878847D01*
X156855283Y-57111667D01*
X156845000Y-57136492D01*
X156834717Y-57111667D01*
X156679151Y-56878847D01*
X156481153Y-56680849D01*
X156248333Y-56525283D01*
X155989636Y-56418127D01*
X155715006Y-56363500D01*
X155434994Y-56363500D01*
X155160364Y-56418127D01*
X155001798Y-56483807D01*
X154991422Y-56378462D01*
X154951596Y-56247171D01*
X154945892Y-56236500D01*
X154886921Y-56126173D01*
X154799883Y-56020117D01*
X154773304Y-55998305D01*
X154186699Y-55411700D01*
X154164883Y-55385117D01*
X154058827Y-55298079D01*
X153937829Y-55233404D01*
X153806538Y-55193578D01*
X153704216Y-55183500D01*
X153670000Y-55180130D01*
X153635784Y-55183500D01*
X147354216Y-55183500D01*
X147320000Y-55180130D01*
X147285784Y-55183500D01*
X147183462Y-55193578D01*
X147052171Y-55233404D01*
X146931173Y-55298079D01*
X146825117Y-55385117D01*
X146803306Y-55411694D01*
X146216696Y-55998305D01*
X146190117Y-56020118D01*
X146103079Y-56126174D01*
X146045915Y-56233120D01*
X146038404Y-56247172D01*
X145998578Y-56378462D01*
X145988202Y-56483807D01*
X145829636Y-56418127D01*
X145555006Y-56363500D01*
X145274994Y-56363500D01*
X145000364Y-56418127D01*
X144841500Y-56483931D01*
X144841500Y-54501272D01*
X144917313Y-54387810D01*
X144983009Y-54229207D01*
X145016500Y-54060835D01*
X145016500Y-53889165D01*
X144983009Y-53720793D01*
X144917313Y-53562190D01*
X144821938Y-53419451D01*
X144700549Y-53298062D01*
X144557810Y-53202687D01*
X144399207Y-53136991D01*
X144230835Y-53103500D01*
X144059165Y-53103500D01*
X143890793Y-53136991D01*
X143732190Y-53202687D01*
X143589451Y-53298062D01*
X143468062Y-53419451D01*
X143372687Y-53562190D01*
X143306991Y-53720793D01*
X143273500Y-53889165D01*
X143273500Y-54060835D01*
X143306991Y-54229207D01*
X143372687Y-54387810D01*
X143448500Y-54501273D01*
X143448501Y-56483931D01*
X143289636Y-56418127D01*
X143015006Y-56363500D01*
X142734994Y-56363500D01*
X142460364Y-56418127D01*
X142201667Y-56525283D01*
X141968847Y-56680849D01*
X141770849Y-56878847D01*
X141615283Y-57111667D01*
X141605000Y-57136492D01*
X141594717Y-57111667D01*
X141439151Y-56878847D01*
X141241153Y-56680849D01*
X141008333Y-56525283D01*
X140749636Y-56418127D01*
X140475006Y-56363500D01*
X140194994Y-56363500D01*
X139920364Y-56418127D01*
X139661667Y-56525283D01*
X139428847Y-56680849D01*
X139230849Y-56878847D01*
X139075283Y-57111667D01*
X139065000Y-57136492D01*
X139054717Y-57111667D01*
X138899151Y-56878847D01*
X138701153Y-56680849D01*
X138468333Y-56525283D01*
X138209636Y-56418127D01*
X137935006Y-56363500D01*
X137654994Y-56363500D01*
X137380364Y-56418127D01*
X137121667Y-56525283D01*
X136888847Y-56680849D01*
X136690849Y-56878847D01*
X136535283Y-57111667D01*
X136525000Y-57136492D01*
X136514717Y-57111667D01*
X136359151Y-56878847D01*
X136161153Y-56680849D01*
X135951500Y-56540763D01*
X135951500Y-54644216D01*
X135954870Y-54610000D01*
X135941422Y-54473462D01*
X135901596Y-54342171D01*
X135848496Y-54242829D01*
X135836921Y-54221173D01*
X135794746Y-54169783D01*
X135771694Y-54141694D01*
X135771691Y-54141691D01*
X135749882Y-54115117D01*
X135723309Y-54093309D01*
X135136699Y-53506700D01*
X135114883Y-53480117D01*
X135008827Y-53393079D01*
X134887829Y-53328404D01*
X134756538Y-53288578D01*
X134654216Y-53278500D01*
X134620000Y-53275130D01*
X134585784Y-53278500D01*
X109889216Y-53278500D01*
X109855000Y-53275130D01*
X109820784Y-53278500D01*
X109718462Y-53288578D01*
X109587171Y-53328404D01*
X109466173Y-53393079D01*
X109360117Y-53480117D01*
X109338305Y-53506696D01*
X108751696Y-54093305D01*
X108725118Y-54115117D01*
X108638080Y-54221173D01*
X108633786Y-54229207D01*
X108573404Y-54342172D01*
X108533578Y-54473462D01*
X108520130Y-54610000D01*
X108523501Y-54644226D01*
X108523501Y-56483931D01*
X108364636Y-56418127D01*
X108090006Y-56363500D01*
X107809994Y-56363500D01*
X107535364Y-56418127D01*
X107276667Y-56525283D01*
X107043847Y-56680849D01*
X106845849Y-56878847D01*
X106749789Y-57022610D01*
X106696026Y-56922447D01*
X106503040Y-56688129D01*
X106268049Y-56495964D01*
X106000083Y-56353335D01*
X105714753Y-56266785D01*
X105473500Y-56412593D01*
X105473500Y-57721500D01*
X105493500Y-57721500D01*
X105493500Y-57848500D01*
X105473500Y-57848500D01*
X105473500Y-59157407D01*
X105714753Y-59303215D01*
X106000083Y-59216665D01*
X106268049Y-59074036D01*
X106503040Y-58881871D01*
X106696026Y-58647553D01*
X106749789Y-58547390D01*
X106845849Y-58691153D01*
X107043847Y-58889151D01*
X107276667Y-59044717D01*
X107535364Y-59151873D01*
X107809994Y-59206500D01*
X108090006Y-59206500D01*
X108364636Y-59151873D01*
X108523501Y-59086069D01*
X108523500Y-79086500D01*
X108296501Y-79313500D01*
X103278570Y-79313500D01*
X103452808Y-79082503D01*
X103584927Y-78808920D01*
X103648215Y-78579753D01*
X103502407Y-78338500D01*
X101693500Y-78338500D01*
X101693500Y-78358500D01*
X101566500Y-78358500D01*
X101566500Y-78338500D01*
X101546500Y-78338500D01*
X101546500Y-78211500D01*
X101566500Y-78211500D01*
X101566500Y-76726500D01*
X101693500Y-76726500D01*
X101693500Y-78211500D01*
X103502407Y-78211500D01*
X103648215Y-77970247D01*
X103584927Y-77741080D01*
X103452808Y-77467497D01*
X103269855Y-77224946D01*
X103043098Y-77022748D01*
X102968398Y-76978793D01*
X106016010Y-76978793D01*
X106039287Y-77214899D01*
X106244718Y-77320876D01*
X106466876Y-77384738D01*
X106697224Y-77404032D01*
X106926912Y-77378017D01*
X107147110Y-77307691D01*
X107320713Y-77214899D01*
X107343990Y-76978793D01*
X106680000Y-76314803D01*
X106016010Y-76978793D01*
X102968398Y-76978793D01*
X102781251Y-76868673D01*
X102494377Y-76768642D01*
X102193500Y-76726500D01*
X101693500Y-76726500D01*
X101566500Y-76726500D01*
X101066500Y-76726500D01*
X100765623Y-76768642D01*
X100506500Y-76858996D01*
X100506500Y-73721931D01*
X104433520Y-73721931D01*
X104433520Y-73928069D01*
X104473736Y-74130247D01*
X104552622Y-74320694D01*
X104667146Y-74492092D01*
X104800054Y-74625000D01*
X104667146Y-74757908D01*
X104552622Y-74929306D01*
X104473736Y-75119753D01*
X104433520Y-75321931D01*
X104433520Y-75528069D01*
X104473736Y-75730247D01*
X104552622Y-75920694D01*
X104667146Y-76092092D01*
X104812908Y-76237854D01*
X104984306Y-76352378D01*
X105174753Y-76431264D01*
X105376931Y-76471480D01*
X105526934Y-76471480D01*
X105526983Y-76471912D01*
X105597309Y-76692110D01*
X105690101Y-76865713D01*
X105926207Y-76888990D01*
X106590197Y-76225000D01*
X106769803Y-76225000D01*
X107433793Y-76888990D01*
X107669899Y-76865713D01*
X107775876Y-76660282D01*
X107839738Y-76438124D01*
X107859032Y-76207776D01*
X107833017Y-75978088D01*
X107762691Y-75757890D01*
X107669899Y-75584287D01*
X107433793Y-75561010D01*
X106769803Y-76225000D01*
X106590197Y-76225000D01*
X106576055Y-76210858D01*
X106665858Y-76121055D01*
X106680000Y-76135197D01*
X107343990Y-75471207D01*
X107341097Y-75441860D01*
X107347092Y-75437854D01*
X107492854Y-75292092D01*
X107607378Y-75120694D01*
X107686264Y-74930247D01*
X107726480Y-74728069D01*
X107726480Y-74521931D01*
X107686264Y-74319753D01*
X107607378Y-74129306D01*
X107492854Y-73957908D01*
X107359946Y-73825000D01*
X107492854Y-73692092D01*
X107607378Y-73520694D01*
X107686264Y-73330247D01*
X107726480Y-73128069D01*
X107726480Y-72921931D01*
X107686264Y-72719753D01*
X107607378Y-72529306D01*
X107492854Y-72357908D01*
X107347092Y-72212146D01*
X107175694Y-72097622D01*
X106985247Y-72018736D01*
X106783069Y-71978520D01*
X106576931Y-71978520D01*
X106374753Y-72018736D01*
X106184306Y-72097622D01*
X106012908Y-72212146D01*
X105867146Y-72357908D01*
X105752622Y-72529306D01*
X105673736Y-72719753D01*
X105659040Y-72793632D01*
X105583069Y-72778520D01*
X105376931Y-72778520D01*
X105174753Y-72818736D01*
X104984306Y-72897622D01*
X104812908Y-73012146D01*
X104667146Y-73157908D01*
X104552622Y-73329306D01*
X104473736Y-73519753D01*
X104433520Y-73721931D01*
X100506500Y-73721931D01*
X100506500Y-72391004D01*
X100765623Y-72481358D01*
X101066500Y-72523500D01*
X101566500Y-72523500D01*
X101566500Y-71038500D01*
X101693500Y-71038500D01*
X101693500Y-72523500D01*
X102193500Y-72523500D01*
X102494377Y-72481358D01*
X102781251Y-72381327D01*
X103043098Y-72227252D01*
X103269855Y-72025054D01*
X103452808Y-71782503D01*
X103584927Y-71508920D01*
X103648215Y-71279753D01*
X103502407Y-71038500D01*
X101693500Y-71038500D01*
X101566500Y-71038500D01*
X101546500Y-71038500D01*
X101546500Y-70911500D01*
X101566500Y-70911500D01*
X101566500Y-69426500D01*
X101693500Y-69426500D01*
X101693500Y-70911500D01*
X103502407Y-70911500D01*
X103648215Y-70670247D01*
X103584927Y-70441080D01*
X103452808Y-70167497D01*
X103269855Y-69924946D01*
X103043098Y-69722748D01*
X102781251Y-69568673D01*
X102494377Y-69468642D01*
X102193500Y-69426500D01*
X101693500Y-69426500D01*
X101566500Y-69426500D01*
X101066500Y-69426500D01*
X100765623Y-69468642D01*
X100506500Y-69558996D01*
X100506500Y-65102484D01*
X101703500Y-65102484D01*
X101703500Y-65707516D01*
X101821536Y-66300924D01*
X102053072Y-66859901D01*
X102389210Y-67362967D01*
X102817033Y-67790790D01*
X103320099Y-68126928D01*
X103879076Y-68358464D01*
X104472484Y-68476500D01*
X105077516Y-68476500D01*
X105670924Y-68358464D01*
X106229901Y-68126928D01*
X106732967Y-67790790D01*
X107160790Y-67362967D01*
X107496928Y-66859901D01*
X107728464Y-66300924D01*
X107846500Y-65707516D01*
X107846500Y-65102484D01*
X107728464Y-64509076D01*
X107496928Y-63950099D01*
X107160790Y-63447033D01*
X106732967Y-63019210D01*
X106229901Y-62683072D01*
X105670924Y-62451536D01*
X105077516Y-62333500D01*
X104472484Y-62333500D01*
X103879076Y-62451536D01*
X103320099Y-62683072D01*
X102817033Y-63019210D01*
X102389210Y-63447033D01*
X102053072Y-63950099D01*
X101821536Y-64509076D01*
X101703500Y-65102484D01*
X100506500Y-65102484D01*
X100506500Y-58635000D01*
X101318120Y-58635000D01*
X101331606Y-58771930D01*
X101371547Y-58903598D01*
X101436408Y-59024944D01*
X101523696Y-59131304D01*
X101630056Y-59218592D01*
X101751402Y-59283453D01*
X101883070Y-59323394D01*
X102020000Y-59336880D01*
X102631875Y-59333500D01*
X102806500Y-59158875D01*
X102806500Y-57848500D01*
X102933500Y-57848500D01*
X102933500Y-59158875D01*
X103108125Y-59333500D01*
X103720000Y-59336880D01*
X103856930Y-59323394D01*
X103988598Y-59283453D01*
X104109944Y-59218592D01*
X104216304Y-59131304D01*
X104303592Y-59024944D01*
X104360872Y-58917780D01*
X104551951Y-59074036D01*
X104819917Y-59216665D01*
X105105247Y-59303215D01*
X105346500Y-59157407D01*
X105346500Y-57848500D01*
X102933500Y-57848500D01*
X102806500Y-57848500D01*
X101496125Y-57848500D01*
X101321500Y-58023125D01*
X101318120Y-58635000D01*
X100506500Y-58635000D01*
X100506500Y-56935000D01*
X101318120Y-56935000D01*
X101321500Y-57546875D01*
X101496125Y-57721500D01*
X102806500Y-57721500D01*
X102806500Y-56411125D01*
X102933500Y-56411125D01*
X102933500Y-57721500D01*
X105346500Y-57721500D01*
X105346500Y-56412593D01*
X105105247Y-56266785D01*
X104819917Y-56353335D01*
X104551951Y-56495964D01*
X104360872Y-56652220D01*
X104303592Y-56545056D01*
X104216304Y-56438696D01*
X104109944Y-56351408D01*
X103988598Y-56286547D01*
X103856930Y-56246606D01*
X103720000Y-56233120D01*
X103108125Y-56236500D01*
X102933500Y-56411125D01*
X102806500Y-56411125D01*
X102631875Y-56236500D01*
X102020000Y-56233120D01*
X101883070Y-56246606D01*
X101751402Y-56286547D01*
X101630056Y-56351408D01*
X101523696Y-56438696D01*
X101436408Y-56545056D01*
X101371547Y-56666402D01*
X101331606Y-56798070D01*
X101318120Y-56935000D01*
X100506500Y-56935000D01*
X100506500Y-47966500D01*
X199081381Y-47966500D01*
X199081381Y-68556381D01*
G04 #@! TA.AperFunction,Conductor*
D24*
G36*
X199081381Y-68556381D02*
G01*
X198636699Y-68111700D01*
X198614883Y-68085117D01*
X198508827Y-67998079D01*
X198387829Y-67933404D01*
X198256538Y-67893578D01*
X198154216Y-67883500D01*
X198120000Y-67880130D01*
X198085784Y-67883500D01*
X196764217Y-67883500D01*
X196902967Y-67790790D01*
X197330790Y-67362967D01*
X197666928Y-66859901D01*
X197898464Y-66300924D01*
X198016500Y-65707516D01*
X198016500Y-65102484D01*
X197898464Y-64509076D01*
X197666928Y-63950099D01*
X197330790Y-63447033D01*
X196902967Y-63019210D01*
X196399901Y-62683072D01*
X195840924Y-62451536D01*
X195247516Y-62333500D01*
X194642484Y-62333500D01*
X194049076Y-62451536D01*
X193490099Y-62683072D01*
X192987033Y-63019210D01*
X192559210Y-63447033D01*
X192466500Y-63585783D01*
X192466500Y-54501272D01*
X192542313Y-54387810D01*
X192608009Y-54229207D01*
X192641500Y-54060835D01*
X192641500Y-53889165D01*
X192608009Y-53720793D01*
X192542313Y-53562190D01*
X192446938Y-53419451D01*
X192325549Y-53298062D01*
X192182810Y-53202687D01*
X192024207Y-53136991D01*
X191855835Y-53103500D01*
X191684165Y-53103500D01*
X191515793Y-53136991D01*
X191357190Y-53202687D01*
X191214451Y-53298062D01*
X191093062Y-53419451D01*
X190997687Y-53562190D01*
X190931991Y-53720793D01*
X190923497Y-53763497D01*
X190880793Y-53771991D01*
X190722190Y-53837687D01*
X190716493Y-53841494D01*
X190381699Y-53506700D01*
X190359883Y-53480117D01*
X190253827Y-53393079D01*
X190132829Y-53328404D01*
X190001538Y-53288578D01*
X189899216Y-53278500D01*
X189865000Y-53275130D01*
X189830784Y-53278500D01*
X163864216Y-53278500D01*
X163830000Y-53275130D01*
X163795784Y-53278500D01*
X163693462Y-53288578D01*
X163562171Y-53328404D01*
X163441173Y-53393079D01*
X163335117Y-53480117D01*
X163313305Y-53506696D01*
X162726696Y-54093305D01*
X162700117Y-54115118D01*
X162613079Y-54221174D01*
X162548405Y-54342171D01*
X162548404Y-54342172D01*
X162508578Y-54473462D01*
X162495130Y-54610000D01*
X162498500Y-54644216D01*
X162498501Y-56540762D01*
X162288847Y-56680849D01*
X162090849Y-56878847D01*
X161935283Y-57111667D01*
X161925000Y-57136492D01*
X161914717Y-57111667D01*
X161759151Y-56878847D01*
X161561153Y-56680849D01*
X161328333Y-56525283D01*
X161069636Y-56418127D01*
X160795006Y-56363500D01*
X160514994Y-56363500D01*
X160240364Y-56418127D01*
X159981667Y-56525283D01*
X159748847Y-56680849D01*
X159550849Y-56878847D01*
X159395283Y-57111667D01*
X159385000Y-57136492D01*
X159374717Y-57111667D01*
X159219151Y-56878847D01*
X159021153Y-56680849D01*
X158788333Y-56525283D01*
X158529636Y-56418127D01*
X158255006Y-56363500D01*
X157974994Y-56363500D01*
X157700364Y-56418127D01*
X157441667Y-56525283D01*
X157208847Y-56680849D01*
X157010849Y-56878847D01*
X156855283Y-57111667D01*
X156845000Y-57136492D01*
X156834717Y-57111667D01*
X156679151Y-56878847D01*
X156481153Y-56680849D01*
X156248333Y-56525283D01*
X155989636Y-56418127D01*
X155715006Y-56363500D01*
X155434994Y-56363500D01*
X155160364Y-56418127D01*
X155001798Y-56483807D01*
X154991422Y-56378462D01*
X154951596Y-56247171D01*
X154945892Y-56236500D01*
X154886921Y-56126173D01*
X154799883Y-56020117D01*
X154773304Y-55998305D01*
X154186699Y-55411700D01*
X154164883Y-55385117D01*
X154058827Y-55298079D01*
X153937829Y-55233404D01*
X153806538Y-55193578D01*
X153704216Y-55183500D01*
X153670000Y-55180130D01*
X153635784Y-55183500D01*
X147354216Y-55183500D01*
X147320000Y-55180130D01*
X147285784Y-55183500D01*
X147183462Y-55193578D01*
X147052171Y-55233404D01*
X146931173Y-55298079D01*
X146825117Y-55385117D01*
X146803306Y-55411694D01*
X146216696Y-55998305D01*
X146190117Y-56020118D01*
X146103079Y-56126174D01*
X146045915Y-56233120D01*
X146038404Y-56247172D01*
X145998578Y-56378462D01*
X145988202Y-56483807D01*
X145829636Y-56418127D01*
X145555006Y-56363500D01*
X145274994Y-56363500D01*
X145000364Y-56418127D01*
X144841500Y-56483931D01*
X144841500Y-54501272D01*
X144917313Y-54387810D01*
X144983009Y-54229207D01*
X145016500Y-54060835D01*
X145016500Y-53889165D01*
X144983009Y-53720793D01*
X144917313Y-53562190D01*
X144821938Y-53419451D01*
X144700549Y-53298062D01*
X144557810Y-53202687D01*
X144399207Y-53136991D01*
X144230835Y-53103500D01*
X144059165Y-53103500D01*
X143890793Y-53136991D01*
X143732190Y-53202687D01*
X143589451Y-53298062D01*
X143468062Y-53419451D01*
X143372687Y-53562190D01*
X143306991Y-53720793D01*
X143273500Y-53889165D01*
X143273500Y-54060835D01*
X143306991Y-54229207D01*
X143372687Y-54387810D01*
X143448500Y-54501273D01*
X143448501Y-56483931D01*
X143289636Y-56418127D01*
X143015006Y-56363500D01*
X142734994Y-56363500D01*
X142460364Y-56418127D01*
X142201667Y-56525283D01*
X141968847Y-56680849D01*
X141770849Y-56878847D01*
X141615283Y-57111667D01*
X141605000Y-57136492D01*
X141594717Y-57111667D01*
X141439151Y-56878847D01*
X141241153Y-56680849D01*
X141008333Y-56525283D01*
X140749636Y-56418127D01*
X140475006Y-56363500D01*
X140194994Y-56363500D01*
X139920364Y-56418127D01*
X139661667Y-56525283D01*
X139428847Y-56680849D01*
X139230849Y-56878847D01*
X139075283Y-57111667D01*
X139065000Y-57136492D01*
X139054717Y-57111667D01*
X138899151Y-56878847D01*
X138701153Y-56680849D01*
X138468333Y-56525283D01*
X138209636Y-56418127D01*
X137935006Y-56363500D01*
X137654994Y-56363500D01*
X137380364Y-56418127D01*
X137121667Y-56525283D01*
X136888847Y-56680849D01*
X136690849Y-56878847D01*
X136535283Y-57111667D01*
X136525000Y-57136492D01*
X136514717Y-57111667D01*
X136359151Y-56878847D01*
X136161153Y-56680849D01*
X135951500Y-56540763D01*
X135951500Y-54644216D01*
X135954870Y-54610000D01*
X135941422Y-54473462D01*
X135901596Y-54342171D01*
X135848496Y-54242829D01*
X135836921Y-54221173D01*
X135794746Y-54169783D01*
X135771694Y-54141694D01*
X135771691Y-54141691D01*
X135749882Y-54115117D01*
X135723309Y-54093309D01*
X135136699Y-53506700D01*
X135114883Y-53480117D01*
X135008827Y-53393079D01*
X134887829Y-53328404D01*
X134756538Y-53288578D01*
X134654216Y-53278500D01*
X134620000Y-53275130D01*
X134585784Y-53278500D01*
X109889216Y-53278500D01*
X109855000Y-53275130D01*
X109820784Y-53278500D01*
X109718462Y-53288578D01*
X109587171Y-53328404D01*
X109466173Y-53393079D01*
X109360117Y-53480117D01*
X109338305Y-53506696D01*
X108751696Y-54093305D01*
X108725118Y-54115117D01*
X108638080Y-54221173D01*
X108633786Y-54229207D01*
X108573404Y-54342172D01*
X108533578Y-54473462D01*
X108520130Y-54610000D01*
X108523501Y-54644226D01*
X108523501Y-56483931D01*
X108364636Y-56418127D01*
X108090006Y-56363500D01*
X107809994Y-56363500D01*
X107535364Y-56418127D01*
X107276667Y-56525283D01*
X107043847Y-56680849D01*
X106845849Y-56878847D01*
X106749789Y-57022610D01*
X106696026Y-56922447D01*
X106503040Y-56688129D01*
X106268049Y-56495964D01*
X106000083Y-56353335D01*
X105714753Y-56266785D01*
X105473500Y-56412593D01*
X105473500Y-57721500D01*
X105493500Y-57721500D01*
X105493500Y-57848500D01*
X105473500Y-57848500D01*
X105473500Y-59157407D01*
X105714753Y-59303215D01*
X106000083Y-59216665D01*
X106268049Y-59074036D01*
X106503040Y-58881871D01*
X106696026Y-58647553D01*
X106749789Y-58547390D01*
X106845849Y-58691153D01*
X107043847Y-58889151D01*
X107276667Y-59044717D01*
X107535364Y-59151873D01*
X107809994Y-59206500D01*
X108090006Y-59206500D01*
X108364636Y-59151873D01*
X108523501Y-59086069D01*
X108523500Y-79086500D01*
X108296501Y-79313500D01*
X103278570Y-79313500D01*
X103452808Y-79082503D01*
X103584927Y-78808920D01*
X103648215Y-78579753D01*
X103502407Y-78338500D01*
X101693500Y-78338500D01*
X101693500Y-78358500D01*
X101566500Y-78358500D01*
X101566500Y-78338500D01*
X101546500Y-78338500D01*
X101546500Y-78211500D01*
X101566500Y-78211500D01*
X101566500Y-76726500D01*
X101693500Y-76726500D01*
X101693500Y-78211500D01*
X103502407Y-78211500D01*
X103648215Y-77970247D01*
X103584927Y-77741080D01*
X103452808Y-77467497D01*
X103269855Y-77224946D01*
X103043098Y-77022748D01*
X102968398Y-76978793D01*
X106016010Y-76978793D01*
X106039287Y-77214899D01*
X106244718Y-77320876D01*
X106466876Y-77384738D01*
X106697224Y-77404032D01*
X106926912Y-77378017D01*
X107147110Y-77307691D01*
X107320713Y-77214899D01*
X107343990Y-76978793D01*
X106680000Y-76314803D01*
X106016010Y-76978793D01*
X102968398Y-76978793D01*
X102781251Y-76868673D01*
X102494377Y-76768642D01*
X102193500Y-76726500D01*
X101693500Y-76726500D01*
X101566500Y-76726500D01*
X101066500Y-76726500D01*
X100765623Y-76768642D01*
X100506500Y-76858996D01*
X100506500Y-73721931D01*
X104433520Y-73721931D01*
X104433520Y-73928069D01*
X104473736Y-74130247D01*
X104552622Y-74320694D01*
X104667146Y-74492092D01*
X104800054Y-74625000D01*
X104667146Y-74757908D01*
X104552622Y-74929306D01*
X104473736Y-75119753D01*
X104433520Y-75321931D01*
X104433520Y-75528069D01*
X104473736Y-75730247D01*
X104552622Y-75920694D01*
X104667146Y-76092092D01*
X104812908Y-76237854D01*
X104984306Y-76352378D01*
X105174753Y-76431264D01*
X105376931Y-76471480D01*
X105526934Y-76471480D01*
X105526983Y-76471912D01*
X105597309Y-76692110D01*
X105690101Y-76865713D01*
X105926207Y-76888990D01*
X106590197Y-76225000D01*
X106769803Y-76225000D01*
X107433793Y-76888990D01*
X107669899Y-76865713D01*
X107775876Y-76660282D01*
X107839738Y-76438124D01*
X107859032Y-76207776D01*
X107833017Y-75978088D01*
X107762691Y-75757890D01*
X107669899Y-75584287D01*
X107433793Y-75561010D01*
X106769803Y-76225000D01*
X106590197Y-76225000D01*
X106576055Y-76210858D01*
X106665858Y-76121055D01*
X106680000Y-76135197D01*
X107343990Y-75471207D01*
X107341097Y-75441860D01*
X107347092Y-75437854D01*
X107492854Y-75292092D01*
X107607378Y-75120694D01*
X107686264Y-74930247D01*
X107726480Y-74728069D01*
X107726480Y-74521931D01*
X107686264Y-74319753D01*
X107607378Y-74129306D01*
X107492854Y-73957908D01*
X107359946Y-73825000D01*
X107492854Y-73692092D01*
X107607378Y-73520694D01*
X107686264Y-73330247D01*
X107726480Y-73128069D01*
X107726480Y-72921931D01*
X107686264Y-72719753D01*
X107607378Y-72529306D01*
X107492854Y-72357908D01*
X107347092Y-72212146D01*
X107175694Y-72097622D01*
X106985247Y-72018736D01*
X106783069Y-71978520D01*
X106576931Y-71978520D01*
X106374753Y-72018736D01*
X106184306Y-72097622D01*
X106012908Y-72212146D01*
X105867146Y-72357908D01*
X105752622Y-72529306D01*
X105673736Y-72719753D01*
X105659040Y-72793632D01*
X105583069Y-72778520D01*
X105376931Y-72778520D01*
X105174753Y-72818736D01*
X104984306Y-72897622D01*
X104812908Y-73012146D01*
X104667146Y-73157908D01*
X104552622Y-73329306D01*
X104473736Y-73519753D01*
X104433520Y-73721931D01*
X100506500Y-73721931D01*
X100506500Y-72391004D01*
X100765623Y-72481358D01*
X101066500Y-72523500D01*
X101566500Y-72523500D01*
X101566500Y-71038500D01*
X101693500Y-71038500D01*
X101693500Y-72523500D01*
X102193500Y-72523500D01*
X102494377Y-72481358D01*
X102781251Y-72381327D01*
X103043098Y-72227252D01*
X103269855Y-72025054D01*
X103452808Y-71782503D01*
X103584927Y-71508920D01*
X103648215Y-71279753D01*
X103502407Y-71038500D01*
X101693500Y-71038500D01*
X101566500Y-71038500D01*
X101546500Y-71038500D01*
X101546500Y-70911500D01*
X101566500Y-70911500D01*
X101566500Y-69426500D01*
X101693500Y-69426500D01*
X101693500Y-70911500D01*
X103502407Y-70911500D01*
X103648215Y-70670247D01*
X103584927Y-70441080D01*
X103452808Y-70167497D01*
X103269855Y-69924946D01*
X103043098Y-69722748D01*
X102781251Y-69568673D01*
X102494377Y-69468642D01*
X102193500Y-69426500D01*
X101693500Y-69426500D01*
X101566500Y-69426500D01*
X101066500Y-69426500D01*
X100765623Y-69468642D01*
X100506500Y-69558996D01*
X100506500Y-65102484D01*
X101703500Y-65102484D01*
X101703500Y-65707516D01*
X101821536Y-66300924D01*
X102053072Y-66859901D01*
X102389210Y-67362967D01*
X102817033Y-67790790D01*
X103320099Y-68126928D01*
X103879076Y-68358464D01*
X104472484Y-68476500D01*
X105077516Y-68476500D01*
X105670924Y-68358464D01*
X106229901Y-68126928D01*
X106732967Y-67790790D01*
X107160790Y-67362967D01*
X107496928Y-66859901D01*
X107728464Y-66300924D01*
X107846500Y-65707516D01*
X107846500Y-65102484D01*
X107728464Y-64509076D01*
X107496928Y-63950099D01*
X107160790Y-63447033D01*
X106732967Y-63019210D01*
X106229901Y-62683072D01*
X105670924Y-62451536D01*
X105077516Y-62333500D01*
X104472484Y-62333500D01*
X103879076Y-62451536D01*
X103320099Y-62683072D01*
X102817033Y-63019210D01*
X102389210Y-63447033D01*
X102053072Y-63950099D01*
X101821536Y-64509076D01*
X101703500Y-65102484D01*
X100506500Y-65102484D01*
X100506500Y-58635000D01*
X101318120Y-58635000D01*
X101331606Y-58771930D01*
X101371547Y-58903598D01*
X101436408Y-59024944D01*
X101523696Y-59131304D01*
X101630056Y-59218592D01*
X101751402Y-59283453D01*
X101883070Y-59323394D01*
X102020000Y-59336880D01*
X102631875Y-59333500D01*
X102806500Y-59158875D01*
X102806500Y-57848500D01*
X102933500Y-57848500D01*
X102933500Y-59158875D01*
X103108125Y-59333500D01*
X103720000Y-59336880D01*
X103856930Y-59323394D01*
X103988598Y-59283453D01*
X104109944Y-59218592D01*
X104216304Y-59131304D01*
X104303592Y-59024944D01*
X104360872Y-58917780D01*
X104551951Y-59074036D01*
X104819917Y-59216665D01*
X105105247Y-59303215D01*
X105346500Y-59157407D01*
X105346500Y-57848500D01*
X102933500Y-57848500D01*
X102806500Y-57848500D01*
X101496125Y-57848500D01*
X101321500Y-58023125D01*
X101318120Y-58635000D01*
X100506500Y-58635000D01*
X100506500Y-56935000D01*
X101318120Y-56935000D01*
X101321500Y-57546875D01*
X101496125Y-57721500D01*
X102806500Y-57721500D01*
X102806500Y-56411125D01*
X102933500Y-56411125D01*
X102933500Y-57721500D01*
X105346500Y-57721500D01*
X105346500Y-56412593D01*
X105105247Y-56266785D01*
X104819917Y-56353335D01*
X104551951Y-56495964D01*
X104360872Y-56652220D01*
X104303592Y-56545056D01*
X104216304Y-56438696D01*
X104109944Y-56351408D01*
X103988598Y-56286547D01*
X103856930Y-56246606D01*
X103720000Y-56233120D01*
X103108125Y-56236500D01*
X102933500Y-56411125D01*
X102806500Y-56411125D01*
X102631875Y-56236500D01*
X102020000Y-56233120D01*
X101883070Y-56246606D01*
X101751402Y-56286547D01*
X101630056Y-56351408D01*
X101523696Y-56438696D01*
X101436408Y-56545056D01*
X101371547Y-56666402D01*
X101331606Y-56798070D01*
X101318120Y-56935000D01*
X100506500Y-56935000D01*
X100506500Y-47966500D01*
X199081381Y-47966500D01*
X199081381Y-68556381D01*
G37*
G04 #@! TD.AperFunction*
D23*
X122871100Y-56130340D02*
X122834982Y-56159981D01*
X122716703Y-56304105D01*
X122674508Y-56383047D01*
X122628813Y-56468536D01*
X122574690Y-56646954D01*
X122556415Y-56832500D01*
X122560995Y-56879001D01*
X122560994Y-62818509D01*
X122556415Y-62865000D01*
X122560994Y-62911490D01*
X122574690Y-63050546D01*
X122628812Y-63228963D01*
X122716702Y-63393395D01*
X122834981Y-63537519D01*
X122871105Y-63567165D01*
X123195995Y-63892055D01*
X123195995Y-65401888D01*
X122969636Y-65308127D01*
X122695006Y-65253500D01*
X122414994Y-65253500D01*
X122140364Y-65308127D01*
X121881667Y-65415283D01*
X121648847Y-65570849D01*
X121450849Y-65768847D01*
X121435933Y-65791170D01*
X121428231Y-65712966D01*
X121395552Y-65605238D01*
X121342484Y-65505955D01*
X121271067Y-65418933D01*
X121184045Y-65347516D01*
X121084762Y-65294448D01*
X120977034Y-65261769D01*
X120865000Y-65250735D01*
X119165000Y-65250735D01*
X119052966Y-65261769D01*
X118945238Y-65294448D01*
X118845955Y-65347516D01*
X118758933Y-65418933D01*
X118687516Y-65505955D01*
X118634448Y-65605238D01*
X118601769Y-65712966D01*
X118590735Y-65825000D01*
X118590735Y-67441433D01*
X118534105Y-67471702D01*
X118389981Y-67589981D01*
X118360339Y-67626100D01*
X118104006Y-67882433D01*
X118104006Y-67673990D01*
X118108585Y-67627500D01*
X118090310Y-67441953D01*
X118072673Y-67383812D01*
X118036188Y-67263536D01*
X117948298Y-67099105D01*
X117830019Y-66954981D01*
X117793900Y-66925339D01*
X117224665Y-66356105D01*
X117195019Y-66319981D01*
X117050895Y-66201702D01*
X116886464Y-66113812D01*
X116708047Y-66059690D01*
X116568991Y-66045994D01*
X116522500Y-66041415D01*
X116476009Y-66045994D01*
X114382774Y-66045994D01*
X114360552Y-65972738D01*
X114307484Y-65873455D01*
X114236067Y-65786433D01*
X114149045Y-65715016D01*
X114049762Y-65661948D01*
X113942034Y-65629269D01*
X113891302Y-65624273D01*
X113925276Y-65477578D01*
X113030000Y-64582303D01*
X113015858Y-64596445D01*
X112926055Y-64506642D01*
X112940197Y-64492500D01*
X113119803Y-64492500D01*
X114015078Y-65387776D01*
X114284419Y-65325398D01*
X114422806Y-65064669D01*
X114507669Y-64781952D01*
X114535745Y-64488111D01*
X114505957Y-64194439D01*
X114419448Y-63912221D01*
X114284419Y-63659602D01*
X114015078Y-63597224D01*
X113119803Y-64492500D01*
X112940197Y-64492500D01*
X112926055Y-64478358D01*
X113015858Y-64388555D01*
X113030000Y-64402697D01*
X113925276Y-63507422D01*
X113862898Y-63238081D01*
X113602169Y-63099694D01*
X113319452Y-63014831D01*
X113025611Y-62986755D01*
X112731939Y-63016543D01*
X112456500Y-63100974D01*
X112456500Y-62518499D01*
X115223500Y-59751500D01*
X116170784Y-59751500D01*
X116205000Y-59754870D01*
X116341538Y-59741422D01*
X116372803Y-59731938D01*
X116472829Y-59701596D01*
X116593827Y-59636921D01*
X116699883Y-59549883D01*
X116721699Y-59523300D01*
X117308304Y-58936695D01*
X117334883Y-58914883D01*
X117421921Y-58808827D01*
X117486596Y-58687829D01*
X117526422Y-58556538D01*
X117536500Y-58454216D01*
X117536500Y-58454215D01*
X117539870Y-58420000D01*
X117536500Y-58385784D01*
X117536500Y-56168499D01*
X117763500Y-55941500D01*
X123059940Y-55941500D01*
X122871100Y-56130340D01*
G04 #@! TA.AperFunction,Conductor*
D24*
G36*
X122871100Y-56130340D02*
G01*
X122834982Y-56159981D01*
X122716703Y-56304105D01*
X122674508Y-56383047D01*
X122628813Y-56468536D01*
X122574690Y-56646954D01*
X122556415Y-56832500D01*
X122560995Y-56879001D01*
X122560994Y-62818509D01*
X122556415Y-62865000D01*
X122560994Y-62911490D01*
X122574690Y-63050546D01*
X122628812Y-63228963D01*
X122716702Y-63393395D01*
X122834981Y-63537519D01*
X122871105Y-63567165D01*
X123195995Y-63892055D01*
X123195995Y-65401888D01*
X122969636Y-65308127D01*
X122695006Y-65253500D01*
X122414994Y-65253500D01*
X122140364Y-65308127D01*
X121881667Y-65415283D01*
X121648847Y-65570849D01*
X121450849Y-65768847D01*
X121435933Y-65791170D01*
X121428231Y-65712966D01*
X121395552Y-65605238D01*
X121342484Y-65505955D01*
X121271067Y-65418933D01*
X121184045Y-65347516D01*
X121084762Y-65294448D01*
X120977034Y-65261769D01*
X120865000Y-65250735D01*
X119165000Y-65250735D01*
X119052966Y-65261769D01*
X118945238Y-65294448D01*
X118845955Y-65347516D01*
X118758933Y-65418933D01*
X118687516Y-65505955D01*
X118634448Y-65605238D01*
X118601769Y-65712966D01*
X118590735Y-65825000D01*
X118590735Y-67441433D01*
X118534105Y-67471702D01*
X118389981Y-67589981D01*
X118360339Y-67626100D01*
X118104006Y-67882433D01*
X118104006Y-67673990D01*
X118108585Y-67627500D01*
X118090310Y-67441953D01*
X118072673Y-67383812D01*
X118036188Y-67263536D01*
X117948298Y-67099105D01*
X117830019Y-66954981D01*
X117793900Y-66925339D01*
X117224665Y-66356105D01*
X117195019Y-66319981D01*
X117050895Y-66201702D01*
X116886464Y-66113812D01*
X116708047Y-66059690D01*
X116568991Y-66045994D01*
X116522500Y-66041415D01*
X116476009Y-66045994D01*
X114382774Y-66045994D01*
X114360552Y-65972738D01*
X114307484Y-65873455D01*
X114236067Y-65786433D01*
X114149045Y-65715016D01*
X114049762Y-65661948D01*
X113942034Y-65629269D01*
X113891302Y-65624273D01*
X113925276Y-65477578D01*
X113030000Y-64582303D01*
X113015858Y-64596445D01*
X112926055Y-64506642D01*
X112940197Y-64492500D01*
X113119803Y-64492500D01*
X114015078Y-65387776D01*
X114284419Y-65325398D01*
X114422806Y-65064669D01*
X114507669Y-64781952D01*
X114535745Y-64488111D01*
X114505957Y-64194439D01*
X114419448Y-63912221D01*
X114284419Y-63659602D01*
X114015078Y-63597224D01*
X113119803Y-64492500D01*
X112940197Y-64492500D01*
X112926055Y-64478358D01*
X113015858Y-64388555D01*
X113030000Y-64402697D01*
X113925276Y-63507422D01*
X113862898Y-63238081D01*
X113602169Y-63099694D01*
X113319452Y-63014831D01*
X113025611Y-62986755D01*
X112731939Y-63016543D01*
X112456500Y-63100974D01*
X112456500Y-62518499D01*
X115223500Y-59751500D01*
X116170784Y-59751500D01*
X116205000Y-59754870D01*
X116341538Y-59741422D01*
X116372803Y-59731938D01*
X116472829Y-59701596D01*
X116593827Y-59636921D01*
X116699883Y-59549883D01*
X116721699Y-59523300D01*
X117308304Y-58936695D01*
X117334883Y-58914883D01*
X117421921Y-58808827D01*
X117486596Y-58687829D01*
X117526422Y-58556538D01*
X117536500Y-58454216D01*
X117536500Y-58454215D01*
X117539870Y-58420000D01*
X117536500Y-58385784D01*
X117536500Y-56168499D01*
X117763500Y-55941500D01*
X123059940Y-55941500D01*
X122871100Y-56130340D01*
G37*
G04 #@! TD.AperFunction*
D23*
X150598945Y-64120858D02*
X150584803Y-64135000D01*
X150598945Y-64149142D01*
X150509142Y-64238945D01*
X150495000Y-64224803D01*
X150480858Y-64238945D01*
X150391055Y-64149142D01*
X150405197Y-64135000D01*
X150391055Y-64120858D01*
X150480858Y-64031055D01*
X150495000Y-64045197D01*
X150509142Y-64031055D01*
X150598945Y-64120858D01*
G04 #@! TA.AperFunction,Conductor*
D24*
G36*
X150598945Y-64120858D02*
G01*
X150584803Y-64135000D01*
X150598945Y-64149142D01*
X150509142Y-64238945D01*
X150495000Y-64224803D01*
X150480858Y-64238945D01*
X150391055Y-64149142D01*
X150405197Y-64135000D01*
X150391055Y-64120858D01*
X150480858Y-64031055D01*
X150495000Y-64045197D01*
X150509142Y-64031055D01*
X150598945Y-64120858D01*
G37*
G04 #@! TD.AperFunction*
D23*
X125158500Y-57721500D02*
X125178500Y-57721500D01*
X125178500Y-57848500D01*
X125158500Y-57848500D01*
X125158500Y-60261500D01*
X125178500Y-60261500D01*
X125178500Y-60388500D01*
X125158500Y-60388500D01*
X125158500Y-61698875D01*
X125333125Y-61873500D01*
X125856299Y-61876390D01*
X124855672Y-62877017D01*
X124815019Y-62827481D01*
X124778900Y-62797839D01*
X124454006Y-62472946D01*
X124454006Y-61875725D01*
X124856875Y-61873500D01*
X125031500Y-61698875D01*
X125031500Y-60388500D01*
X125011500Y-60388500D01*
X125011500Y-60261500D01*
X125031500Y-60261500D01*
X125031500Y-57848500D01*
X125011500Y-57848500D01*
X125011500Y-57721500D01*
X125031500Y-57721500D01*
X125031500Y-57701500D01*
X125158500Y-57701500D01*
X125158500Y-57721500D01*
G04 #@! TA.AperFunction,Conductor*
D24*
G36*
X125158500Y-57721500D02*
G01*
X125178500Y-57721500D01*
X125178500Y-57848500D01*
X125158500Y-57848500D01*
X125158500Y-60261500D01*
X125178500Y-60261500D01*
X125178500Y-60388500D01*
X125158500Y-60388500D01*
X125158500Y-61698875D01*
X125333125Y-61873500D01*
X125856299Y-61876390D01*
X124855672Y-62877017D01*
X124815019Y-62827481D01*
X124778900Y-62797839D01*
X124454006Y-62472946D01*
X124454006Y-61875725D01*
X124856875Y-61873500D01*
X125031500Y-61698875D01*
X125031500Y-60388500D01*
X125011500Y-60388500D01*
X125011500Y-60261500D01*
X125031500Y-60261500D01*
X125031500Y-57848500D01*
X125011500Y-57848500D01*
X125011500Y-57721500D01*
X125031500Y-57721500D01*
X125031500Y-57701500D01*
X125158500Y-57701500D01*
X125158500Y-57721500D01*
G37*
G04 #@! TD.AperFunction*
M02*
