G04 #@! TF.GenerationSoftware,KiCad,Pcbnew,(5.1.12)-1*
G04 #@! TF.CreationDate,2021-12-10T02:29:56-05:00*
G04 #@! TF.ProjectId,1802-Mini-Super-Elf-Bus,31383032-2d4d-4696-9e69-2d5375706572,rev?*
G04 #@! TF.SameCoordinates,Original*
G04 #@! TF.FileFunction,Legend,Top*
G04 #@! TF.FilePolarity,Positive*
%FSLAX46Y46*%
G04 Gerber Fmt 4.6, Leading zero omitted, Abs format (unit mm)*
G04 Created by KiCad (PCBNEW (5.1.12)-1) date 2021-12-10 02:29:56*
%MOMM*%
%LPD*%
G01*
G04 APERTURE LIST*
%ADD10C,0.150000*%
%ADD11C,0.175400*%
%ADD12C,0.200800*%
%ADD13C,0.200000*%
%ADD14C,0.120000*%
G04 APERTURE END LIST*
D10*
X110680476Y-59793214D02*
X110680476Y-60459880D01*
X110442380Y-59412261D02*
X110204285Y-60126547D01*
X110823333Y-60126547D01*
X187930476Y-57332619D02*
X187978095Y-57285000D01*
X188073333Y-57237380D01*
X188311428Y-57237380D01*
X188406666Y-57285000D01*
X188454285Y-57332619D01*
X188501904Y-57427857D01*
X188501904Y-57523095D01*
X188454285Y-57665952D01*
X187882857Y-58237380D01*
X188501904Y-58237380D01*
X189406666Y-57237380D02*
X188930476Y-57237380D01*
X188882857Y-57713571D01*
X188930476Y-57665952D01*
X189025714Y-57618333D01*
X189263809Y-57618333D01*
X189359047Y-57665952D01*
X189406666Y-57713571D01*
X189454285Y-57808809D01*
X189454285Y-58046904D01*
X189406666Y-58142142D01*
X189359047Y-58189761D01*
X189263809Y-58237380D01*
X189025714Y-58237380D01*
X188930476Y-58189761D01*
X188882857Y-58142142D01*
X188454285Y-59777380D02*
X187978095Y-59777380D01*
X187930476Y-60253571D01*
X187978095Y-60205952D01*
X188073333Y-60158333D01*
X188311428Y-60158333D01*
X188406666Y-60205952D01*
X188454285Y-60253571D01*
X188501904Y-60348809D01*
X188501904Y-60586904D01*
X188454285Y-60682142D01*
X188406666Y-60729761D01*
X188311428Y-60777380D01*
X188073333Y-60777380D01*
X187978095Y-60729761D01*
X187930476Y-60682142D01*
X189120952Y-59777380D02*
X189216190Y-59777380D01*
X189311428Y-59825000D01*
X189359047Y-59872619D01*
X189406666Y-59967857D01*
X189454285Y-60158333D01*
X189454285Y-60396428D01*
X189406666Y-60586904D01*
X189359047Y-60682142D01*
X189311428Y-60729761D01*
X189216190Y-60777380D01*
X189120952Y-60777380D01*
X189025714Y-60729761D01*
X188978095Y-60682142D01*
X188930476Y-60586904D01*
X188882857Y-60396428D01*
X188882857Y-60158333D01*
X188930476Y-59967857D01*
X188978095Y-59872619D01*
X189025714Y-59825000D01*
X189120952Y-59777380D01*
X121378214Y-59872619D02*
X121425833Y-59825000D01*
X121521071Y-59777380D01*
X121759166Y-59777380D01*
X121854404Y-59825000D01*
X121902023Y-59872619D01*
X121949642Y-59967857D01*
X121949642Y-60063095D01*
X121902023Y-60205952D01*
X121330595Y-60777380D01*
X121949642Y-60777380D01*
X122806785Y-59777380D02*
X122616309Y-59777380D01*
X122521071Y-59825000D01*
X122473452Y-59872619D01*
X122378214Y-60015476D01*
X122330595Y-60205952D01*
X122330595Y-60586904D01*
X122378214Y-60682142D01*
X122425833Y-60729761D01*
X122521071Y-60777380D01*
X122711547Y-60777380D01*
X122806785Y-60729761D01*
X122854404Y-60682142D01*
X122902023Y-60586904D01*
X122902023Y-60348809D01*
X122854404Y-60253571D01*
X122806785Y-60205952D01*
X122711547Y-60158333D01*
X122521071Y-60158333D01*
X122425833Y-60205952D01*
X122378214Y-60253571D01*
X122330595Y-60348809D01*
X122902023Y-58237380D02*
X122330595Y-58237380D01*
X122616309Y-58237380D02*
X122616309Y-57237380D01*
X122521071Y-57380238D01*
X122425833Y-57475476D01*
X122330595Y-57523095D01*
X118975476Y-64539761D02*
X119118333Y-64587380D01*
X119356428Y-64587380D01*
X119451666Y-64539761D01*
X119499285Y-64492142D01*
X119546904Y-64396904D01*
X119546904Y-64301666D01*
X119499285Y-64206428D01*
X119451666Y-64158809D01*
X119356428Y-64111190D01*
X119165952Y-64063571D01*
X119070714Y-64015952D01*
X119023095Y-63968333D01*
X118975476Y-63873095D01*
X118975476Y-63777857D01*
X119023095Y-63682619D01*
X119070714Y-63635000D01*
X119165952Y-63587380D01*
X119404047Y-63587380D01*
X119546904Y-63635000D01*
X119975476Y-64063571D02*
X120308809Y-64063571D01*
X120451666Y-64587380D02*
X119975476Y-64587380D01*
X119975476Y-63587380D01*
X120451666Y-63587380D01*
X121451666Y-64587380D02*
X121118333Y-64111190D01*
X120880238Y-64587380D02*
X120880238Y-63587380D01*
X121261190Y-63587380D01*
X121356428Y-63635000D01*
X121404047Y-63682619D01*
X121451666Y-63777857D01*
X121451666Y-63920714D01*
X121404047Y-64015952D01*
X121356428Y-64063571D01*
X121261190Y-64111190D01*
X120880238Y-64111190D01*
X121880238Y-64587380D02*
X121880238Y-63587380D01*
X122308809Y-64301666D02*
X122785000Y-64301666D01*
X122213571Y-64587380D02*
X122546904Y-63587380D01*
X122880238Y-64587380D01*
X123689761Y-64587380D02*
X123213571Y-64587380D01*
X123213571Y-63587380D01*
X127859404Y-133485000D02*
X127764166Y-133437380D01*
X127621309Y-133437380D01*
X127478452Y-133485000D01*
X127383214Y-133580238D01*
X127335595Y-133675476D01*
X127287976Y-133865952D01*
X127287976Y-134008809D01*
X127335595Y-134199285D01*
X127383214Y-134294523D01*
X127478452Y-134389761D01*
X127621309Y-134437380D01*
X127716547Y-134437380D01*
X127859404Y-134389761D01*
X127907023Y-134342142D01*
X127907023Y-134008809D01*
X127716547Y-134008809D01*
X128335595Y-134437380D02*
X128335595Y-133437380D01*
X128907023Y-134437380D01*
X128907023Y-133437380D01*
X129383214Y-134437380D02*
X129383214Y-133437380D01*
X129621309Y-133437380D01*
X129764166Y-133485000D01*
X129859404Y-133580238D01*
X129907023Y-133675476D01*
X129954642Y-133865952D01*
X129954642Y-134008809D01*
X129907023Y-134199285D01*
X129859404Y-134294523D01*
X129764166Y-134389761D01*
X129621309Y-134437380D01*
X129383214Y-134437380D01*
X127335595Y-131897380D02*
X127335595Y-130897380D01*
X127811785Y-131897380D02*
X127811785Y-130897380D01*
X128383214Y-131897380D01*
X128383214Y-130897380D01*
X128716547Y-130897380D02*
X129049880Y-131897380D01*
X129383214Y-130897380D01*
X127335595Y-129357380D02*
X127335595Y-128357380D01*
X127811785Y-129357380D02*
X127811785Y-128357380D01*
X128383214Y-129357380D01*
X128383214Y-128357380D01*
X128716547Y-128357380D02*
X129049880Y-129357380D01*
X129383214Y-128357380D01*
X119364523Y-79827380D02*
X119364523Y-78827380D01*
X119745476Y-78827380D01*
X119840714Y-78875000D01*
X119888333Y-78922619D01*
X119935952Y-79017857D01*
X119935952Y-79160714D01*
X119888333Y-79255952D01*
X119840714Y-79303571D01*
X119745476Y-79351190D01*
X119364523Y-79351190D01*
X120269285Y-78827380D02*
X120507380Y-79827380D01*
X120697857Y-79113095D01*
X120888333Y-79827380D01*
X121126428Y-78827380D01*
X122078809Y-79827380D02*
X121745476Y-79351190D01*
X121507380Y-79827380D02*
X121507380Y-78827380D01*
X121888333Y-78827380D01*
X121983571Y-78875000D01*
X122031190Y-78922619D01*
X122078809Y-79017857D01*
X122078809Y-79160714D01*
X122031190Y-79255952D01*
X121983571Y-79303571D01*
X121888333Y-79351190D01*
X121507380Y-79351190D01*
X123221666Y-79779761D02*
X123364523Y-79827380D01*
X123602619Y-79827380D01*
X123697857Y-79779761D01*
X123745476Y-79732142D01*
X123793095Y-79636904D01*
X123793095Y-79541666D01*
X123745476Y-79446428D01*
X123697857Y-79398809D01*
X123602619Y-79351190D01*
X123412142Y-79303571D01*
X123316904Y-79255952D01*
X123269285Y-79208333D01*
X123221666Y-79113095D01*
X123221666Y-79017857D01*
X123269285Y-78922619D01*
X123316904Y-78875000D01*
X123412142Y-78827380D01*
X123650238Y-78827380D01*
X123793095Y-78875000D01*
X124793095Y-79827380D02*
X124459761Y-79351190D01*
X124221666Y-79827380D02*
X124221666Y-78827380D01*
X124602619Y-78827380D01*
X124697857Y-78875000D01*
X124745476Y-78922619D01*
X124793095Y-79017857D01*
X124793095Y-79160714D01*
X124745476Y-79255952D01*
X124697857Y-79303571D01*
X124602619Y-79351190D01*
X124221666Y-79351190D01*
X125793095Y-79732142D02*
X125745476Y-79779761D01*
X125602619Y-79827380D01*
X125507380Y-79827380D01*
X125364523Y-79779761D01*
X125269285Y-79684523D01*
X125221666Y-79589285D01*
X125174047Y-79398809D01*
X125174047Y-79255952D01*
X125221666Y-79065476D01*
X125269285Y-78970238D01*
X125364523Y-78875000D01*
X125507380Y-78827380D01*
X125602619Y-78827380D01*
X125745476Y-78875000D01*
X125793095Y-78922619D01*
X118793095Y-74699761D02*
X118935952Y-74747380D01*
X119174047Y-74747380D01*
X119269285Y-74699761D01*
X119316904Y-74652142D01*
X119364523Y-74556904D01*
X119364523Y-74461666D01*
X119316904Y-74366428D01*
X119269285Y-74318809D01*
X119174047Y-74271190D01*
X118983571Y-74223571D01*
X118888333Y-74175952D01*
X118840714Y-74128333D01*
X118793095Y-74033095D01*
X118793095Y-73937857D01*
X118840714Y-73842619D01*
X118888333Y-73795000D01*
X118983571Y-73747380D01*
X119221666Y-73747380D01*
X119364523Y-73795000D01*
X119793095Y-74652142D02*
X119840714Y-74699761D01*
X119793095Y-74747380D01*
X119745476Y-74699761D01*
X119793095Y-74652142D01*
X119793095Y-74747380D01*
X120269285Y-74223571D02*
X120602619Y-74223571D01*
X120745476Y-74747380D02*
X120269285Y-74747380D01*
X120269285Y-73747380D01*
X120745476Y-73747380D01*
X121650238Y-74747380D02*
X121174047Y-74747380D01*
X121174047Y-73747380D01*
X122316904Y-74223571D02*
X121983571Y-74223571D01*
X121983571Y-74747380D02*
X121983571Y-73747380D01*
X122459761Y-73747380D01*
X123602619Y-74747380D02*
X123602619Y-73747380D01*
X123983571Y-73747380D01*
X124078809Y-73795000D01*
X124126428Y-73842619D01*
X124174047Y-73937857D01*
X124174047Y-74080714D01*
X124126428Y-74175952D01*
X124078809Y-74223571D01*
X123983571Y-74271190D01*
X123602619Y-74271190D01*
X124507380Y-73747380D02*
X124745476Y-74747380D01*
X124935952Y-74033095D01*
X125126428Y-74747380D01*
X125364523Y-73747380D01*
X126316904Y-74747380D02*
X125983571Y-74271190D01*
X125745476Y-74747380D02*
X125745476Y-73747380D01*
X126126428Y-73747380D01*
X126221666Y-73795000D01*
X126269285Y-73842619D01*
X126316904Y-73937857D01*
X126316904Y-74080714D01*
X126269285Y-74175952D01*
X126221666Y-74223571D01*
X126126428Y-74271190D01*
X125745476Y-74271190D01*
X108672380Y-75884404D02*
X109481904Y-75884404D01*
X109577142Y-75836785D01*
X109624761Y-75789166D01*
X109672380Y-75693928D01*
X109672380Y-75503452D01*
X109624761Y-75408214D01*
X109577142Y-75360595D01*
X109481904Y-75312976D01*
X108672380Y-75312976D01*
X109624761Y-74884404D02*
X109672380Y-74741547D01*
X109672380Y-74503452D01*
X109624761Y-74408214D01*
X109577142Y-74360595D01*
X109481904Y-74312976D01*
X109386666Y-74312976D01*
X109291428Y-74360595D01*
X109243809Y-74408214D01*
X109196190Y-74503452D01*
X109148571Y-74693928D01*
X109100952Y-74789166D01*
X109053333Y-74836785D01*
X108958095Y-74884404D01*
X108862857Y-74884404D01*
X108767619Y-74836785D01*
X108720000Y-74789166D01*
X108672380Y-74693928D01*
X108672380Y-74455833D01*
X108720000Y-74312976D01*
X109148571Y-73551071D02*
X109196190Y-73408214D01*
X109243809Y-73360595D01*
X109339047Y-73312976D01*
X109481904Y-73312976D01*
X109577142Y-73360595D01*
X109624761Y-73408214D01*
X109672380Y-73503452D01*
X109672380Y-73884404D01*
X108672380Y-73884404D01*
X108672380Y-73551071D01*
X108720000Y-73455833D01*
X108767619Y-73408214D01*
X108862857Y-73360595D01*
X108958095Y-73360595D01*
X109053333Y-73408214D01*
X109100952Y-73455833D01*
X109148571Y-73551071D01*
X109148571Y-73884404D01*
X118975476Y-69667380D02*
X118975476Y-68667380D01*
X119356428Y-68667380D01*
X119451666Y-68715000D01*
X119499285Y-68762619D01*
X119546904Y-68857857D01*
X119546904Y-69000714D01*
X119499285Y-69095952D01*
X119451666Y-69143571D01*
X119356428Y-69191190D01*
X118975476Y-69191190D01*
X120165952Y-68667380D02*
X120356428Y-68667380D01*
X120451666Y-68715000D01*
X120546904Y-68810238D01*
X120594523Y-69000714D01*
X120594523Y-69334047D01*
X120546904Y-69524523D01*
X120451666Y-69619761D01*
X120356428Y-69667380D01*
X120165952Y-69667380D01*
X120070714Y-69619761D01*
X119975476Y-69524523D01*
X119927857Y-69334047D01*
X119927857Y-69000714D01*
X119975476Y-68810238D01*
X120070714Y-68715000D01*
X120165952Y-68667380D01*
X120927857Y-68667380D02*
X121165952Y-69667380D01*
X121356428Y-68953095D01*
X121546904Y-69667380D01*
X121785000Y-68667380D01*
X122165952Y-69143571D02*
X122499285Y-69143571D01*
X122642142Y-69667380D02*
X122165952Y-69667380D01*
X122165952Y-68667380D01*
X122642142Y-68667380D01*
X123642142Y-69667380D02*
X123308809Y-69191190D01*
X123070714Y-69667380D02*
X123070714Y-68667380D01*
X123451666Y-68667380D01*
X123546904Y-68715000D01*
X123594523Y-68762619D01*
X123642142Y-68857857D01*
X123642142Y-69000714D01*
X123594523Y-69095952D01*
X123546904Y-69143571D01*
X123451666Y-69191190D01*
X123070714Y-69191190D01*
X115250595Y-76287380D02*
X115250595Y-77096904D01*
X115298214Y-77192142D01*
X115345833Y-77239761D01*
X115441071Y-77287380D01*
X115631547Y-77287380D01*
X115726785Y-77239761D01*
X115774404Y-77192142D01*
X115822023Y-77096904D01*
X115822023Y-76287380D01*
X116250595Y-77239761D02*
X116393452Y-77287380D01*
X116631547Y-77287380D01*
X116726785Y-77239761D01*
X116774404Y-77192142D01*
X116822023Y-77096904D01*
X116822023Y-77001666D01*
X116774404Y-76906428D01*
X116726785Y-76858809D01*
X116631547Y-76811190D01*
X116441071Y-76763571D01*
X116345833Y-76715952D01*
X116298214Y-76668333D01*
X116250595Y-76573095D01*
X116250595Y-76477857D01*
X116298214Y-76382619D01*
X116345833Y-76335000D01*
X116441071Y-76287380D01*
X116679166Y-76287380D01*
X116822023Y-76335000D01*
X117583928Y-76763571D02*
X117726785Y-76811190D01*
X117774404Y-76858809D01*
X117822023Y-76954047D01*
X117822023Y-77096904D01*
X117774404Y-77192142D01*
X117726785Y-77239761D01*
X117631547Y-77287380D01*
X117250595Y-77287380D01*
X117250595Y-76287380D01*
X117583928Y-76287380D01*
X117679166Y-76335000D01*
X117726785Y-76382619D01*
X117774404Y-76477857D01*
X117774404Y-76573095D01*
X117726785Y-76668333D01*
X117679166Y-76715952D01*
X117583928Y-76763571D01*
X117250595Y-76763571D01*
X127287976Y-77239761D02*
X127430833Y-77287380D01*
X127668928Y-77287380D01*
X127764166Y-77239761D01*
X127811785Y-77192142D01*
X127859404Y-77096904D01*
X127859404Y-77001666D01*
X127811785Y-76906428D01*
X127764166Y-76858809D01*
X127668928Y-76811190D01*
X127478452Y-76763571D01*
X127383214Y-76715952D01*
X127335595Y-76668333D01*
X127287976Y-76573095D01*
X127287976Y-76477857D01*
X127335595Y-76382619D01*
X127383214Y-76335000D01*
X127478452Y-76287380D01*
X127716547Y-76287380D01*
X127859404Y-76335000D01*
X128287976Y-77192142D02*
X128335595Y-77239761D01*
X128287976Y-77287380D01*
X128240357Y-77239761D01*
X128287976Y-77192142D01*
X128287976Y-77287380D01*
X128764166Y-76763571D02*
X129097500Y-76763571D01*
X129240357Y-77287380D02*
X128764166Y-77287380D01*
X128764166Y-76287380D01*
X129240357Y-76287380D01*
X130145119Y-77287380D02*
X129668928Y-77287380D01*
X129668928Y-76287380D01*
X130811785Y-76763571D02*
X130478452Y-76763571D01*
X130478452Y-77287380D02*
X130478452Y-76287380D01*
X130954642Y-76287380D01*
X115060119Y-72207380D02*
X114488690Y-72207380D01*
X114774404Y-72207380D02*
X114774404Y-71207380D01*
X114679166Y-71350238D01*
X114583928Y-71445476D01*
X114488690Y-71493095D01*
X115679166Y-71207380D02*
X115774404Y-71207380D01*
X115869642Y-71255000D01*
X115917261Y-71302619D01*
X115964880Y-71397857D01*
X116012500Y-71588333D01*
X116012500Y-71826428D01*
X115964880Y-72016904D01*
X115917261Y-72112142D01*
X115869642Y-72159761D01*
X115774404Y-72207380D01*
X115679166Y-72207380D01*
X115583928Y-72159761D01*
X115536309Y-72112142D01*
X115488690Y-72016904D01*
X115441071Y-71826428D01*
X115441071Y-71588333D01*
X115488690Y-71397857D01*
X115536309Y-71302619D01*
X115583928Y-71255000D01*
X115679166Y-71207380D01*
X116298214Y-71207380D02*
X116631547Y-72207380D01*
X116964880Y-71207380D01*
X117822023Y-72207380D02*
X117250595Y-72207380D01*
X117536309Y-72207380D02*
X117536309Y-71207380D01*
X117441071Y-71350238D01*
X117345833Y-71445476D01*
X117250595Y-71493095D01*
X127859404Y-72207380D02*
X127287976Y-72207380D01*
X127573690Y-72207380D02*
X127573690Y-71207380D01*
X127478452Y-71350238D01*
X127383214Y-71445476D01*
X127287976Y-71493095D01*
X128478452Y-71207380D02*
X128573690Y-71207380D01*
X128668928Y-71255000D01*
X128716547Y-71302619D01*
X128764166Y-71397857D01*
X128811785Y-71588333D01*
X128811785Y-71826428D01*
X128764166Y-72016904D01*
X128716547Y-72112142D01*
X128668928Y-72159761D01*
X128573690Y-72207380D01*
X128478452Y-72207380D01*
X128383214Y-72159761D01*
X128335595Y-72112142D01*
X128287976Y-72016904D01*
X128240357Y-71826428D01*
X128240357Y-71588333D01*
X128287976Y-71397857D01*
X128335595Y-71302619D01*
X128383214Y-71255000D01*
X128478452Y-71207380D01*
X129097500Y-71207380D02*
X129430833Y-72207380D01*
X129764166Y-71207380D01*
X130049880Y-71302619D02*
X130097500Y-71255000D01*
X130192738Y-71207380D01*
X130430833Y-71207380D01*
X130526071Y-71255000D01*
X130573690Y-71302619D01*
X130621309Y-71397857D01*
X130621309Y-71493095D01*
X130573690Y-71635952D01*
X130002261Y-72207380D01*
X130621309Y-72207380D01*
X115760476Y-59459880D02*
X115570000Y-59459880D01*
X115474761Y-59507500D01*
X115427142Y-59555119D01*
X115331904Y-59697976D01*
X115284285Y-59888452D01*
X115284285Y-60269404D01*
X115331904Y-60364642D01*
X115379523Y-60412261D01*
X115474761Y-60459880D01*
X115665238Y-60459880D01*
X115760476Y-60412261D01*
X115808095Y-60364642D01*
X115855714Y-60269404D01*
X115855714Y-60031309D01*
X115808095Y-59936071D01*
X115760476Y-59888452D01*
X115665238Y-59840833D01*
X115474761Y-59840833D01*
X115379523Y-59888452D01*
X115331904Y-59936071D01*
X115284285Y-60031309D01*
X183850595Y-92527380D02*
X183850595Y-91527380D01*
X183850595Y-92003571D02*
X184422023Y-92003571D01*
X184422023Y-92527380D02*
X184422023Y-91527380D01*
X184898214Y-92527380D02*
X184898214Y-91527380D01*
X185898214Y-91575000D02*
X185802976Y-91527380D01*
X185660119Y-91527380D01*
X185517261Y-91575000D01*
X185422023Y-91670238D01*
X185374404Y-91765476D01*
X185326785Y-91955952D01*
X185326785Y-92098809D01*
X185374404Y-92289285D01*
X185422023Y-92384523D01*
X185517261Y-92479761D01*
X185660119Y-92527380D01*
X185755357Y-92527380D01*
X185898214Y-92479761D01*
X185945833Y-92432142D01*
X185945833Y-92098809D01*
X185755357Y-92098809D01*
X186374404Y-92527380D02*
X186374404Y-91527380D01*
X186374404Y-92003571D02*
X186945833Y-92003571D01*
X186945833Y-92527380D02*
X186945833Y-91527380D01*
X188183928Y-92527380D02*
X188183928Y-91527380D01*
X188517261Y-92241666D01*
X188850595Y-91527380D01*
X188850595Y-92527380D01*
X189326785Y-92003571D02*
X189660119Y-92003571D01*
X189802976Y-92527380D02*
X189326785Y-92527380D01*
X189326785Y-91527380D01*
X189802976Y-91527380D01*
X190231547Y-92527380D02*
X190231547Y-91527380D01*
X190564880Y-92241666D01*
X190898214Y-91527380D01*
X190898214Y-92527380D01*
X192707738Y-92432142D02*
X192660119Y-92479761D01*
X192517261Y-92527380D01*
X192422023Y-92527380D01*
X192279166Y-92479761D01*
X192183928Y-92384523D01*
X192136309Y-92289285D01*
X192088690Y-92098809D01*
X192088690Y-91955952D01*
X192136309Y-91765476D01*
X192183928Y-91670238D01*
X192279166Y-91575000D01*
X192422023Y-91527380D01*
X192517261Y-91527380D01*
X192660119Y-91575000D01*
X192707738Y-91622619D01*
X193326785Y-91527380D02*
X193517261Y-91527380D01*
X193612500Y-91575000D01*
X193707738Y-91670238D01*
X193755357Y-91860714D01*
X193755357Y-92194047D01*
X193707738Y-92384523D01*
X193612500Y-92479761D01*
X193517261Y-92527380D01*
X193326785Y-92527380D01*
X193231547Y-92479761D01*
X193136309Y-92384523D01*
X193088690Y-92194047D01*
X193088690Y-91860714D01*
X193136309Y-91670238D01*
X193231547Y-91575000D01*
X193326785Y-91527380D01*
X194183928Y-92527380D02*
X194183928Y-91527380D01*
X194755357Y-92527380D01*
X194755357Y-91527380D01*
X195564880Y-92003571D02*
X195231547Y-92003571D01*
X195231547Y-92527380D02*
X195231547Y-91527380D01*
X195707738Y-91527380D01*
X181396309Y-103957380D02*
X181396309Y-102957380D01*
X181396309Y-103433571D02*
X181967738Y-103433571D01*
X181967738Y-103957380D02*
X181967738Y-102957380D01*
X182443928Y-103957380D02*
X182443928Y-102957380D01*
X183443928Y-103005000D02*
X183348690Y-102957380D01*
X183205833Y-102957380D01*
X183062976Y-103005000D01*
X182967738Y-103100238D01*
X182920119Y-103195476D01*
X182872500Y-103385952D01*
X182872500Y-103528809D01*
X182920119Y-103719285D01*
X182967738Y-103814523D01*
X183062976Y-103909761D01*
X183205833Y-103957380D01*
X183301071Y-103957380D01*
X183443928Y-103909761D01*
X183491547Y-103862142D01*
X183491547Y-103528809D01*
X183301071Y-103528809D01*
X183920119Y-103957380D02*
X183920119Y-102957380D01*
X183920119Y-103433571D02*
X184491547Y-103433571D01*
X184491547Y-103957380D02*
X184491547Y-102957380D01*
X185729642Y-103957380D02*
X185729642Y-102957380D01*
X186062976Y-103671666D01*
X186396309Y-102957380D01*
X186396309Y-103957380D01*
X186872500Y-103433571D02*
X187205833Y-103433571D01*
X187348690Y-103957380D02*
X186872500Y-103957380D01*
X186872500Y-102957380D01*
X187348690Y-102957380D01*
X187777261Y-103957380D02*
X187777261Y-102957380D01*
X188110595Y-103671666D01*
X188443928Y-102957380D01*
X188443928Y-103957380D01*
X189110595Y-102957380D02*
X189301071Y-102957380D01*
X189396309Y-103005000D01*
X189491547Y-103100238D01*
X189539166Y-103290714D01*
X189539166Y-103624047D01*
X189491547Y-103814523D01*
X189396309Y-103909761D01*
X189301071Y-103957380D01*
X189110595Y-103957380D01*
X189015357Y-103909761D01*
X188920119Y-103814523D01*
X188872500Y-103624047D01*
X188872500Y-103290714D01*
X188920119Y-103100238D01*
X189015357Y-103005000D01*
X189110595Y-102957380D01*
X190539166Y-103957380D02*
X190205833Y-103481190D01*
X189967738Y-103957380D02*
X189967738Y-102957380D01*
X190348690Y-102957380D01*
X190443928Y-103005000D01*
X190491547Y-103052619D01*
X190539166Y-103147857D01*
X190539166Y-103290714D01*
X190491547Y-103385952D01*
X190443928Y-103433571D01*
X190348690Y-103481190D01*
X189967738Y-103481190D01*
X191158214Y-103481190D02*
X191158214Y-103957380D01*
X190824880Y-102957380D02*
X191158214Y-103481190D01*
X191491547Y-102957380D01*
X182158214Y-126817380D02*
X181682023Y-126817380D01*
X181682023Y-125817380D01*
X182682023Y-125817380D02*
X182872500Y-125817380D01*
X182967738Y-125865000D01*
X183062976Y-125960238D01*
X183110595Y-126150714D01*
X183110595Y-126484047D01*
X183062976Y-126674523D01*
X182967738Y-126769761D01*
X182872500Y-126817380D01*
X182682023Y-126817380D01*
X182586785Y-126769761D01*
X182491547Y-126674523D01*
X182443928Y-126484047D01*
X182443928Y-126150714D01*
X182491547Y-125960238D01*
X182586785Y-125865000D01*
X182682023Y-125817380D01*
X183443928Y-125817380D02*
X183682023Y-126817380D01*
X183872500Y-126103095D01*
X184062976Y-126817380D01*
X184301071Y-125817380D01*
X185443928Y-126817380D02*
X185443928Y-125817380D01*
X185777261Y-126531666D01*
X186110595Y-125817380D01*
X186110595Y-126817380D01*
X186586785Y-126293571D02*
X186920119Y-126293571D01*
X187062976Y-126817380D02*
X186586785Y-126817380D01*
X186586785Y-125817380D01*
X187062976Y-125817380D01*
X187491547Y-126817380D02*
X187491547Y-125817380D01*
X187824880Y-126531666D01*
X188158214Y-125817380D01*
X188158214Y-126817380D01*
X188824880Y-125817380D02*
X189015357Y-125817380D01*
X189110595Y-125865000D01*
X189205833Y-125960238D01*
X189253452Y-126150714D01*
X189253452Y-126484047D01*
X189205833Y-126674523D01*
X189110595Y-126769761D01*
X189015357Y-126817380D01*
X188824880Y-126817380D01*
X188729642Y-126769761D01*
X188634404Y-126674523D01*
X188586785Y-126484047D01*
X188586785Y-126150714D01*
X188634404Y-125960238D01*
X188729642Y-125865000D01*
X188824880Y-125817380D01*
X190253452Y-126817380D02*
X189920119Y-126341190D01*
X189682023Y-126817380D02*
X189682023Y-125817380D01*
X190062976Y-125817380D01*
X190158214Y-125865000D01*
X190205833Y-125912619D01*
X190253452Y-126007857D01*
X190253452Y-126150714D01*
X190205833Y-126245952D01*
X190158214Y-126293571D01*
X190062976Y-126341190D01*
X189682023Y-126341190D01*
X190872500Y-126341190D02*
X190872500Y-126817380D01*
X190539166Y-125817380D02*
X190872500Y-126341190D01*
X191205833Y-125817380D01*
X127335595Y-126293571D02*
X127668928Y-126293571D01*
X127811785Y-126817380D02*
X127335595Y-126817380D01*
X127335595Y-125817380D01*
X127811785Y-125817380D01*
X128573690Y-126293571D02*
X128240357Y-126293571D01*
X128240357Y-126817380D02*
X128240357Y-125817380D01*
X128716547Y-125817380D01*
X129049880Y-125912619D02*
X129097500Y-125865000D01*
X129192738Y-125817380D01*
X129430833Y-125817380D01*
X129526071Y-125865000D01*
X129573690Y-125912619D01*
X129621309Y-126007857D01*
X129621309Y-126103095D01*
X129573690Y-126245952D01*
X129002261Y-126817380D01*
X129621309Y-126817380D01*
X195397380Y-88438571D02*
X194730714Y-88438571D01*
X194825952Y-88438571D02*
X194778333Y-88390952D01*
X194730714Y-88295714D01*
X194730714Y-88152857D01*
X194778333Y-88057619D01*
X194873571Y-88010000D01*
X195397380Y-88010000D01*
X194873571Y-88010000D02*
X194778333Y-87962380D01*
X194730714Y-87867142D01*
X194730714Y-87724285D01*
X194778333Y-87629047D01*
X194873571Y-87581428D01*
X195397380Y-87581428D01*
X195397380Y-86676666D02*
X194873571Y-86676666D01*
X194778333Y-86724285D01*
X194730714Y-86819523D01*
X194730714Y-87010000D01*
X194778333Y-87105238D01*
X195349761Y-86676666D02*
X195397380Y-86771904D01*
X195397380Y-87010000D01*
X195349761Y-87105238D01*
X195254523Y-87152857D01*
X195159285Y-87152857D01*
X195064047Y-87105238D01*
X195016428Y-87010000D01*
X195016428Y-86771904D01*
X194968809Y-86676666D01*
X195397380Y-85771904D02*
X194397380Y-85771904D01*
X195349761Y-85771904D02*
X195397380Y-85867142D01*
X195397380Y-86057619D01*
X195349761Y-86152857D01*
X195302142Y-86200476D01*
X195206904Y-86248095D01*
X194921190Y-86248095D01*
X194825952Y-86200476D01*
X194778333Y-86152857D01*
X194730714Y-86057619D01*
X194730714Y-85867142D01*
X194778333Y-85771904D01*
X195397380Y-85152857D02*
X195349761Y-85248095D01*
X195302142Y-85295714D01*
X195206904Y-85343333D01*
X194921190Y-85343333D01*
X194825952Y-85295714D01*
X194778333Y-85248095D01*
X194730714Y-85152857D01*
X194730714Y-85010000D01*
X194778333Y-84914761D01*
X194825952Y-84867142D01*
X194921190Y-84819523D01*
X195206904Y-84819523D01*
X195302142Y-84867142D01*
X195349761Y-84914761D01*
X195397380Y-85010000D01*
X195397380Y-85152857D01*
X195397380Y-84248095D02*
X195349761Y-84343333D01*
X195254523Y-84390952D01*
X194397380Y-84390952D01*
X195349761Y-83486190D02*
X195397380Y-83581428D01*
X195397380Y-83771904D01*
X195349761Y-83867142D01*
X195254523Y-83914761D01*
X194873571Y-83914761D01*
X194778333Y-83867142D01*
X194730714Y-83771904D01*
X194730714Y-83581428D01*
X194778333Y-83486190D01*
X194873571Y-83438571D01*
X194968809Y-83438571D01*
X195064047Y-83914761D01*
X195302142Y-83010000D02*
X195349761Y-82962380D01*
X195397380Y-83010000D01*
X195349761Y-83057619D01*
X195302142Y-83010000D01*
X195397380Y-83010000D01*
X194730714Y-82533809D02*
X195397380Y-82533809D01*
X194825952Y-82533809D02*
X194778333Y-82486190D01*
X194730714Y-82390952D01*
X194730714Y-82248095D01*
X194778333Y-82152857D01*
X194873571Y-82105238D01*
X195397380Y-82105238D01*
X195349761Y-81248095D02*
X195397380Y-81343333D01*
X195397380Y-81533809D01*
X195349761Y-81629047D01*
X195254523Y-81676666D01*
X194873571Y-81676666D01*
X194778333Y-81629047D01*
X194730714Y-81533809D01*
X194730714Y-81343333D01*
X194778333Y-81248095D01*
X194873571Y-81200476D01*
X194968809Y-81200476D01*
X195064047Y-81676666D01*
X194730714Y-80914761D02*
X194730714Y-80533809D01*
X194397380Y-80771904D02*
X195254523Y-80771904D01*
X195349761Y-80724285D01*
X195397380Y-80629047D01*
X195397380Y-80533809D01*
X194349761Y-79486190D02*
X195635476Y-80343333D01*
X195397380Y-78629047D02*
X195397380Y-79200476D01*
X195397380Y-78914761D02*
X194397380Y-78914761D01*
X194540238Y-79010000D01*
X194635476Y-79105238D01*
X194683095Y-79200476D01*
X194825952Y-78057619D02*
X194778333Y-78152857D01*
X194730714Y-78200476D01*
X194635476Y-78248095D01*
X194587857Y-78248095D01*
X194492619Y-78200476D01*
X194445000Y-78152857D01*
X194397380Y-78057619D01*
X194397380Y-77867142D01*
X194445000Y-77771904D01*
X194492619Y-77724285D01*
X194587857Y-77676666D01*
X194635476Y-77676666D01*
X194730714Y-77724285D01*
X194778333Y-77771904D01*
X194825952Y-77867142D01*
X194825952Y-78057619D01*
X194873571Y-78152857D01*
X194921190Y-78200476D01*
X195016428Y-78248095D01*
X195206904Y-78248095D01*
X195302142Y-78200476D01*
X195349761Y-78152857D01*
X195397380Y-78057619D01*
X195397380Y-77867142D01*
X195349761Y-77771904D01*
X195302142Y-77724285D01*
X195206904Y-77676666D01*
X195016428Y-77676666D01*
X194921190Y-77724285D01*
X194873571Y-77771904D01*
X194825952Y-77867142D01*
X194397380Y-77057619D02*
X194397380Y-76962380D01*
X194445000Y-76867142D01*
X194492619Y-76819523D01*
X194587857Y-76771904D01*
X194778333Y-76724285D01*
X195016428Y-76724285D01*
X195206904Y-76771904D01*
X195302142Y-76819523D01*
X195349761Y-76867142D01*
X195397380Y-76962380D01*
X195397380Y-77057619D01*
X195349761Y-77152857D01*
X195302142Y-77200476D01*
X195206904Y-77248095D01*
X195016428Y-77295714D01*
X194778333Y-77295714D01*
X194587857Y-77248095D01*
X194492619Y-77200476D01*
X194445000Y-77152857D01*
X194397380Y-77057619D01*
X194492619Y-76343333D02*
X194445000Y-76295714D01*
X194397380Y-76200476D01*
X194397380Y-75962380D01*
X194445000Y-75867142D01*
X194492619Y-75819523D01*
X194587857Y-75771904D01*
X194683095Y-75771904D01*
X194825952Y-75819523D01*
X195397380Y-76390952D01*
X195397380Y-75771904D01*
X194349761Y-74629047D02*
X195635476Y-75486190D01*
X195397380Y-74295714D02*
X194730714Y-74295714D01*
X194825952Y-74295714D02*
X194778333Y-74248095D01*
X194730714Y-74152857D01*
X194730714Y-74010000D01*
X194778333Y-73914761D01*
X194873571Y-73867142D01*
X195397380Y-73867142D01*
X194873571Y-73867142D02*
X194778333Y-73819523D01*
X194730714Y-73724285D01*
X194730714Y-73581428D01*
X194778333Y-73486190D01*
X194873571Y-73438571D01*
X195397380Y-73438571D01*
X195397380Y-72962380D02*
X194730714Y-72962380D01*
X194397380Y-72962380D02*
X194445000Y-73010000D01*
X194492619Y-72962380D01*
X194445000Y-72914761D01*
X194397380Y-72962380D01*
X194492619Y-72962380D01*
X194730714Y-72486190D02*
X195397380Y-72486190D01*
X194825952Y-72486190D02*
X194778333Y-72438571D01*
X194730714Y-72343333D01*
X194730714Y-72200476D01*
X194778333Y-72105238D01*
X194873571Y-72057619D01*
X195397380Y-72057619D01*
X195397380Y-71581428D02*
X194730714Y-71581428D01*
X194397380Y-71581428D02*
X194445000Y-71629047D01*
X194492619Y-71581428D01*
X194445000Y-71533809D01*
X194397380Y-71581428D01*
X194492619Y-71581428D01*
D11*
X193547571Y-87438571D02*
X193607285Y-87295714D01*
X193607285Y-87057619D01*
X193547571Y-86962380D01*
X193487857Y-86914761D01*
X193368428Y-86867142D01*
X193249000Y-86867142D01*
X193129571Y-86914761D01*
X193069857Y-86962380D01*
X193010142Y-87057619D01*
X192950428Y-87248095D01*
X192890714Y-87343333D01*
X192831000Y-87390952D01*
X192711571Y-87438571D01*
X192592142Y-87438571D01*
X192472714Y-87390952D01*
X192413000Y-87343333D01*
X192353285Y-87248095D01*
X192353285Y-87010000D01*
X192413000Y-86867142D01*
X192771285Y-86010000D02*
X193607285Y-86010000D01*
X192771285Y-86438571D02*
X193428142Y-86438571D01*
X193547571Y-86390952D01*
X193607285Y-86295714D01*
X193607285Y-86152857D01*
X193547571Y-86057619D01*
X193487857Y-86010000D01*
X192771285Y-85533809D02*
X194025285Y-85533809D01*
X192831000Y-85533809D02*
X192771285Y-85438571D01*
X192771285Y-85248095D01*
X192831000Y-85152857D01*
X192890714Y-85105238D01*
X193010142Y-85057619D01*
X193368428Y-85057619D01*
X193487857Y-85105238D01*
X193547571Y-85152857D01*
X193607285Y-85248095D01*
X193607285Y-85438571D01*
X193547571Y-85533809D01*
X193547571Y-84248095D02*
X193607285Y-84343333D01*
X193607285Y-84533809D01*
X193547571Y-84629047D01*
X193428142Y-84676666D01*
X192950428Y-84676666D01*
X192831000Y-84629047D01*
X192771285Y-84533809D01*
X192771285Y-84343333D01*
X192831000Y-84248095D01*
X192950428Y-84200476D01*
X193069857Y-84200476D01*
X193189285Y-84676666D01*
X193607285Y-83771904D02*
X192771285Y-83771904D01*
X193010142Y-83771904D02*
X192890714Y-83724285D01*
X192831000Y-83676666D01*
X192771285Y-83581428D01*
X192771285Y-83486190D01*
X192950428Y-82390952D02*
X192950428Y-82057619D01*
X193607285Y-81914761D02*
X193607285Y-82390952D01*
X192353285Y-82390952D01*
X192353285Y-81914761D01*
X193607285Y-81343333D02*
X193547571Y-81438571D01*
X193428142Y-81486190D01*
X192353285Y-81486190D01*
X192771285Y-81105238D02*
X192771285Y-80724285D01*
X193607285Y-80962380D02*
X192532428Y-80962380D01*
X192413000Y-80914761D01*
X192353285Y-80819523D01*
X192353285Y-80724285D01*
X192950428Y-79295714D02*
X193010142Y-79152857D01*
X193069857Y-79105238D01*
X193189285Y-79057619D01*
X193368428Y-79057619D01*
X193487857Y-79105238D01*
X193547571Y-79152857D01*
X193607285Y-79248095D01*
X193607285Y-79629047D01*
X192353285Y-79629047D01*
X192353285Y-79295714D01*
X192413000Y-79200476D01*
X192472714Y-79152857D01*
X192592142Y-79105238D01*
X192711571Y-79105238D01*
X192831000Y-79152857D01*
X192890714Y-79200476D01*
X192950428Y-79295714D01*
X192950428Y-79629047D01*
X192771285Y-78200476D02*
X193607285Y-78200476D01*
X192771285Y-78629047D02*
X193428142Y-78629047D01*
X193547571Y-78581428D01*
X193607285Y-78486190D01*
X193607285Y-78343333D01*
X193547571Y-78248095D01*
X193487857Y-78200476D01*
X193547571Y-77771904D02*
X193607285Y-77676666D01*
X193607285Y-77486190D01*
X193547571Y-77390952D01*
X193428142Y-77343333D01*
X193368428Y-77343333D01*
X193249000Y-77390952D01*
X193189285Y-77486190D01*
X193189285Y-77629047D01*
X193129571Y-77724285D01*
X193010142Y-77771904D01*
X192950428Y-77771904D01*
X192831000Y-77724285D01*
X192771285Y-77629047D01*
X192771285Y-77486190D01*
X192831000Y-77390952D01*
X193607285Y-76152857D02*
X192771285Y-76152857D01*
X193010142Y-76152857D02*
X192890714Y-76105238D01*
X192831000Y-76057619D01*
X192771285Y-75962380D01*
X192771285Y-75867142D01*
X193547571Y-75152857D02*
X193607285Y-75248095D01*
X193607285Y-75438571D01*
X193547571Y-75533809D01*
X193428142Y-75581428D01*
X192950428Y-75581428D01*
X192831000Y-75533809D01*
X192771285Y-75438571D01*
X192771285Y-75248095D01*
X192831000Y-75152857D01*
X192950428Y-75105238D01*
X193069857Y-75105238D01*
X193189285Y-75581428D01*
X192771285Y-74771904D02*
X193607285Y-74533809D01*
X192771285Y-74295714D01*
X192950428Y-72819523D02*
X193010142Y-72676666D01*
X193069857Y-72629047D01*
X193189285Y-72581428D01*
X193368428Y-72581428D01*
X193487857Y-72629047D01*
X193547571Y-72676666D01*
X193607285Y-72771904D01*
X193607285Y-73152857D01*
X192353285Y-73152857D01*
X192353285Y-72819523D01*
X192413000Y-72724285D01*
X192472714Y-72676666D01*
X192592142Y-72629047D01*
X192711571Y-72629047D01*
X192831000Y-72676666D01*
X192890714Y-72724285D01*
X192950428Y-72819523D01*
X192950428Y-73152857D01*
D12*
X191702285Y-84070571D02*
X191702285Y-84787142D01*
X191702285Y-84428857D02*
X190448285Y-84428857D01*
X190627428Y-84548285D01*
X190746857Y-84667714D01*
X190806571Y-84787142D01*
X190985714Y-83354000D02*
X190926000Y-83473428D01*
X190866285Y-83533142D01*
X190746857Y-83592857D01*
X190687142Y-83592857D01*
X190567714Y-83533142D01*
X190508000Y-83473428D01*
X190448285Y-83354000D01*
X190448285Y-83115142D01*
X190508000Y-82995714D01*
X190567714Y-82936000D01*
X190687142Y-82876285D01*
X190746857Y-82876285D01*
X190866285Y-82936000D01*
X190926000Y-82995714D01*
X190985714Y-83115142D01*
X190985714Y-83354000D01*
X191045428Y-83473428D01*
X191105142Y-83533142D01*
X191224571Y-83592857D01*
X191463428Y-83592857D01*
X191582857Y-83533142D01*
X191642571Y-83473428D01*
X191702285Y-83354000D01*
X191702285Y-83115142D01*
X191642571Y-82995714D01*
X191582857Y-82936000D01*
X191463428Y-82876285D01*
X191224571Y-82876285D01*
X191105142Y-82936000D01*
X191045428Y-82995714D01*
X190985714Y-83115142D01*
X190448285Y-82100000D02*
X190448285Y-81980571D01*
X190508000Y-81861142D01*
X190567714Y-81801428D01*
X190687142Y-81741714D01*
X190926000Y-81682000D01*
X191224571Y-81682000D01*
X191463428Y-81741714D01*
X191582857Y-81801428D01*
X191642571Y-81861142D01*
X191702285Y-81980571D01*
X191702285Y-82100000D01*
X191642571Y-82219428D01*
X191582857Y-82279142D01*
X191463428Y-82338857D01*
X191224571Y-82398571D01*
X190926000Y-82398571D01*
X190687142Y-82338857D01*
X190567714Y-82279142D01*
X190508000Y-82219428D01*
X190448285Y-82100000D01*
X190567714Y-81204285D02*
X190508000Y-81144571D01*
X190448285Y-81025142D01*
X190448285Y-80726571D01*
X190508000Y-80607142D01*
X190567714Y-80547428D01*
X190687142Y-80487714D01*
X190806571Y-80487714D01*
X190985714Y-80547428D01*
X191702285Y-81264000D01*
X191702285Y-80487714D01*
X190388571Y-79054571D02*
X192000857Y-80129428D01*
X191702285Y-78636571D02*
X190448285Y-78636571D01*
X191344000Y-78218571D01*
X190448285Y-77800571D01*
X191702285Y-77800571D01*
X191702285Y-77203428D02*
X190448285Y-77203428D01*
X191702285Y-76606285D02*
X190448285Y-76606285D01*
X191702285Y-75889714D01*
X190448285Y-75889714D01*
X191702285Y-75292571D02*
X190448285Y-75292571D01*
D10*
X103155714Y-60459880D02*
X102584285Y-60459880D01*
X102870000Y-60459880D02*
X102870000Y-59459880D01*
X102774761Y-59602738D01*
X102679523Y-59697976D01*
X102584285Y-59745595D01*
X113268095Y-59459880D02*
X112791904Y-59459880D01*
X112744285Y-59936071D01*
X112791904Y-59888452D01*
X112887142Y-59840833D01*
X113125238Y-59840833D01*
X113220476Y-59888452D01*
X113268095Y-59936071D01*
X113315714Y-60031309D01*
X113315714Y-60269404D01*
X113268095Y-60364642D01*
X113220476Y-60412261D01*
X113125238Y-60459880D01*
X112887142Y-60459880D01*
X112791904Y-60412261D01*
X112744285Y-60364642D01*
X105124285Y-59555119D02*
X105171904Y-59507500D01*
X105267142Y-59459880D01*
X105505238Y-59459880D01*
X105600476Y-59507500D01*
X105648095Y-59555119D01*
X105695714Y-59650357D01*
X105695714Y-59745595D01*
X105648095Y-59888452D01*
X105076666Y-60459880D01*
X105695714Y-60459880D01*
X107616666Y-59459880D02*
X108235714Y-59459880D01*
X107902380Y-59840833D01*
X108045238Y-59840833D01*
X108140476Y-59888452D01*
X108188095Y-59936071D01*
X108235714Y-60031309D01*
X108235714Y-60269404D01*
X108188095Y-60364642D01*
X108140476Y-60412261D01*
X108045238Y-60459880D01*
X107759523Y-60459880D01*
X107664285Y-60412261D01*
X107616666Y-60364642D01*
X101052380Y-144539642D02*
X101052380Y-143920595D01*
X101433333Y-144253928D01*
X101433333Y-144111071D01*
X101480952Y-144015833D01*
X101528571Y-143968214D01*
X101623809Y-143920595D01*
X101861904Y-143920595D01*
X101957142Y-143968214D01*
X102004761Y-144015833D01*
X102052380Y-144111071D01*
X102052380Y-144396785D01*
X102004761Y-144492023D01*
X101957142Y-144539642D01*
X102052380Y-143444404D02*
X102052380Y-143253928D01*
X102004761Y-143158690D01*
X101957142Y-143111071D01*
X101814285Y-143015833D01*
X101623809Y-142968214D01*
X101242857Y-142968214D01*
X101147619Y-143015833D01*
X101100000Y-143063452D01*
X101052380Y-143158690D01*
X101052380Y-143349166D01*
X101100000Y-143444404D01*
X101147619Y-143492023D01*
X101242857Y-143539642D01*
X101480952Y-143539642D01*
X101576190Y-143492023D01*
X101623809Y-143444404D01*
X101671428Y-143349166D01*
X101671428Y-143158690D01*
X101623809Y-143063452D01*
X101576190Y-143015833D01*
X101480952Y-142968214D01*
X108672380Y-144539642D02*
X108672380Y-143920595D01*
X109053333Y-144253928D01*
X109053333Y-144111071D01*
X109100952Y-144015833D01*
X109148571Y-143968214D01*
X109243809Y-143920595D01*
X109481904Y-143920595D01*
X109577142Y-143968214D01*
X109624761Y-144015833D01*
X109672380Y-144111071D01*
X109672380Y-144396785D01*
X109624761Y-144492023D01*
X109577142Y-144539642D01*
X108672380Y-143063452D02*
X108672380Y-143253928D01*
X108720000Y-143349166D01*
X108767619Y-143396785D01*
X108910476Y-143492023D01*
X109100952Y-143539642D01*
X109481904Y-143539642D01*
X109577142Y-143492023D01*
X109624761Y-143444404D01*
X109672380Y-143349166D01*
X109672380Y-143158690D01*
X109624761Y-143063452D01*
X109577142Y-143015833D01*
X109481904Y-142968214D01*
X109243809Y-142968214D01*
X109148571Y-143015833D01*
X109100952Y-143063452D01*
X109053333Y-143158690D01*
X109053333Y-143349166D01*
X109100952Y-143444404D01*
X109148571Y-143492023D01*
X109243809Y-143539642D01*
X111212380Y-144539642D02*
X111212380Y-143920595D01*
X111593333Y-144253928D01*
X111593333Y-144111071D01*
X111640952Y-144015833D01*
X111688571Y-143968214D01*
X111783809Y-143920595D01*
X112021904Y-143920595D01*
X112117142Y-143968214D01*
X112164761Y-144015833D01*
X112212380Y-144111071D01*
X112212380Y-144396785D01*
X112164761Y-144492023D01*
X112117142Y-144539642D01*
X111212380Y-143015833D02*
X111212380Y-143492023D01*
X111688571Y-143539642D01*
X111640952Y-143492023D01*
X111593333Y-143396785D01*
X111593333Y-143158690D01*
X111640952Y-143063452D01*
X111688571Y-143015833D01*
X111783809Y-142968214D01*
X112021904Y-142968214D01*
X112117142Y-143015833D01*
X112164761Y-143063452D01*
X112212380Y-143158690D01*
X112212380Y-143396785D01*
X112164761Y-143492023D01*
X112117142Y-143539642D01*
X113752380Y-144539642D02*
X113752380Y-143920595D01*
X114133333Y-144253928D01*
X114133333Y-144111071D01*
X114180952Y-144015833D01*
X114228571Y-143968214D01*
X114323809Y-143920595D01*
X114561904Y-143920595D01*
X114657142Y-143968214D01*
X114704761Y-144015833D01*
X114752380Y-144111071D01*
X114752380Y-144396785D01*
X114704761Y-144492023D01*
X114657142Y-144539642D01*
X114085714Y-143063452D02*
X114752380Y-143063452D01*
X113704761Y-143301547D02*
X114419047Y-143539642D01*
X114419047Y-142920595D01*
X116292380Y-144539642D02*
X116292380Y-143920595D01*
X116673333Y-144253928D01*
X116673333Y-144111071D01*
X116720952Y-144015833D01*
X116768571Y-143968214D01*
X116863809Y-143920595D01*
X117101904Y-143920595D01*
X117197142Y-143968214D01*
X117244761Y-144015833D01*
X117292380Y-144111071D01*
X117292380Y-144396785D01*
X117244761Y-144492023D01*
X117197142Y-144539642D01*
X116292380Y-143587261D02*
X116292380Y-142968214D01*
X116673333Y-143301547D01*
X116673333Y-143158690D01*
X116720952Y-143063452D01*
X116768571Y-143015833D01*
X116863809Y-142968214D01*
X117101904Y-142968214D01*
X117197142Y-143015833D01*
X117244761Y-143063452D01*
X117292380Y-143158690D01*
X117292380Y-143444404D01*
X117244761Y-143539642D01*
X117197142Y-143587261D01*
X118832380Y-144539642D02*
X118832380Y-143920595D01*
X119213333Y-144253928D01*
X119213333Y-144111071D01*
X119260952Y-144015833D01*
X119308571Y-143968214D01*
X119403809Y-143920595D01*
X119641904Y-143920595D01*
X119737142Y-143968214D01*
X119784761Y-144015833D01*
X119832380Y-144111071D01*
X119832380Y-144396785D01*
X119784761Y-144492023D01*
X119737142Y-144539642D01*
X118927619Y-143539642D02*
X118880000Y-143492023D01*
X118832380Y-143396785D01*
X118832380Y-143158690D01*
X118880000Y-143063452D01*
X118927619Y-143015833D01*
X119022857Y-142968214D01*
X119118095Y-142968214D01*
X119260952Y-143015833D01*
X119832380Y-143587261D01*
X119832380Y-142968214D01*
X121372380Y-144539642D02*
X121372380Y-143920595D01*
X121753333Y-144253928D01*
X121753333Y-144111071D01*
X121800952Y-144015833D01*
X121848571Y-143968214D01*
X121943809Y-143920595D01*
X122181904Y-143920595D01*
X122277142Y-143968214D01*
X122324761Y-144015833D01*
X122372380Y-144111071D01*
X122372380Y-144396785D01*
X122324761Y-144492023D01*
X122277142Y-144539642D01*
X122372380Y-142968214D02*
X122372380Y-143539642D01*
X122372380Y-143253928D02*
X121372380Y-143253928D01*
X121515238Y-143349166D01*
X121610476Y-143444404D01*
X121658095Y-143539642D01*
X123912380Y-144539642D02*
X123912380Y-143920595D01*
X124293333Y-144253928D01*
X124293333Y-144111071D01*
X124340952Y-144015833D01*
X124388571Y-143968214D01*
X124483809Y-143920595D01*
X124721904Y-143920595D01*
X124817142Y-143968214D01*
X124864761Y-144015833D01*
X124912380Y-144111071D01*
X124912380Y-144396785D01*
X124864761Y-144492023D01*
X124817142Y-144539642D01*
X123912380Y-143301547D02*
X123912380Y-143206309D01*
X123960000Y-143111071D01*
X124007619Y-143063452D01*
X124102857Y-143015833D01*
X124293333Y-142968214D01*
X124531428Y-142968214D01*
X124721904Y-143015833D01*
X124817142Y-143063452D01*
X124864761Y-143111071D01*
X124912380Y-143206309D01*
X124912380Y-143301547D01*
X124864761Y-143396785D01*
X124817142Y-143444404D01*
X124721904Y-143492023D01*
X124531428Y-143539642D01*
X124293333Y-143539642D01*
X124102857Y-143492023D01*
X124007619Y-143444404D01*
X123960000Y-143396785D01*
X123912380Y-143301547D01*
X126547619Y-144492023D02*
X126500000Y-144444404D01*
X126452380Y-144349166D01*
X126452380Y-144111071D01*
X126500000Y-144015833D01*
X126547619Y-143968214D01*
X126642857Y-143920595D01*
X126738095Y-143920595D01*
X126880952Y-143968214D01*
X127452380Y-144539642D01*
X127452380Y-143920595D01*
X127452380Y-143444404D02*
X127452380Y-143253928D01*
X127404761Y-143158690D01*
X127357142Y-143111071D01*
X127214285Y-143015833D01*
X127023809Y-142968214D01*
X126642857Y-142968214D01*
X126547619Y-143015833D01*
X126500000Y-143063452D01*
X126452380Y-143158690D01*
X126452380Y-143349166D01*
X126500000Y-143444404D01*
X126547619Y-143492023D01*
X126642857Y-143539642D01*
X126880952Y-143539642D01*
X126976190Y-143492023D01*
X127023809Y-143444404D01*
X127071428Y-143349166D01*
X127071428Y-143158690D01*
X127023809Y-143063452D01*
X126976190Y-143015833D01*
X126880952Y-142968214D01*
X129087619Y-144492023D02*
X129040000Y-144444404D01*
X128992380Y-144349166D01*
X128992380Y-144111071D01*
X129040000Y-144015833D01*
X129087619Y-143968214D01*
X129182857Y-143920595D01*
X129278095Y-143920595D01*
X129420952Y-143968214D01*
X129992380Y-144539642D01*
X129992380Y-143920595D01*
X129420952Y-143349166D02*
X129373333Y-143444404D01*
X129325714Y-143492023D01*
X129230476Y-143539642D01*
X129182857Y-143539642D01*
X129087619Y-143492023D01*
X129040000Y-143444404D01*
X128992380Y-143349166D01*
X128992380Y-143158690D01*
X129040000Y-143063452D01*
X129087619Y-143015833D01*
X129182857Y-142968214D01*
X129230476Y-142968214D01*
X129325714Y-143015833D01*
X129373333Y-143063452D01*
X129420952Y-143158690D01*
X129420952Y-143349166D01*
X129468571Y-143444404D01*
X129516190Y-143492023D01*
X129611428Y-143539642D01*
X129801904Y-143539642D01*
X129897142Y-143492023D01*
X129944761Y-143444404D01*
X129992380Y-143349166D01*
X129992380Y-143158690D01*
X129944761Y-143063452D01*
X129897142Y-143015833D01*
X129801904Y-142968214D01*
X129611428Y-142968214D01*
X129516190Y-143015833D01*
X129468571Y-143063452D01*
X129420952Y-143158690D01*
X131627619Y-144492023D02*
X131580000Y-144444404D01*
X131532380Y-144349166D01*
X131532380Y-144111071D01*
X131580000Y-144015833D01*
X131627619Y-143968214D01*
X131722857Y-143920595D01*
X131818095Y-143920595D01*
X131960952Y-143968214D01*
X132532380Y-144539642D01*
X132532380Y-143920595D01*
X131532380Y-143587261D02*
X131532380Y-142920595D01*
X132532380Y-143349166D01*
X134167619Y-144492023D02*
X134120000Y-144444404D01*
X134072380Y-144349166D01*
X134072380Y-144111071D01*
X134120000Y-144015833D01*
X134167619Y-143968214D01*
X134262857Y-143920595D01*
X134358095Y-143920595D01*
X134500952Y-143968214D01*
X135072380Y-144539642D01*
X135072380Y-143920595D01*
X134072380Y-143063452D02*
X134072380Y-143253928D01*
X134120000Y-143349166D01*
X134167619Y-143396785D01*
X134310476Y-143492023D01*
X134500952Y-143539642D01*
X134881904Y-143539642D01*
X134977142Y-143492023D01*
X135024761Y-143444404D01*
X135072380Y-143349166D01*
X135072380Y-143158690D01*
X135024761Y-143063452D01*
X134977142Y-143015833D01*
X134881904Y-142968214D01*
X134643809Y-142968214D01*
X134548571Y-143015833D01*
X134500952Y-143063452D01*
X134453333Y-143158690D01*
X134453333Y-143349166D01*
X134500952Y-143444404D01*
X134548571Y-143492023D01*
X134643809Y-143539642D01*
X136707619Y-144492023D02*
X136660000Y-144444404D01*
X136612380Y-144349166D01*
X136612380Y-144111071D01*
X136660000Y-144015833D01*
X136707619Y-143968214D01*
X136802857Y-143920595D01*
X136898095Y-143920595D01*
X137040952Y-143968214D01*
X137612380Y-144539642D01*
X137612380Y-143920595D01*
X136612380Y-143015833D02*
X136612380Y-143492023D01*
X137088571Y-143539642D01*
X137040952Y-143492023D01*
X136993333Y-143396785D01*
X136993333Y-143158690D01*
X137040952Y-143063452D01*
X137088571Y-143015833D01*
X137183809Y-142968214D01*
X137421904Y-142968214D01*
X137517142Y-143015833D01*
X137564761Y-143063452D01*
X137612380Y-143158690D01*
X137612380Y-143396785D01*
X137564761Y-143492023D01*
X137517142Y-143539642D01*
X139247619Y-144492023D02*
X139200000Y-144444404D01*
X139152380Y-144349166D01*
X139152380Y-144111071D01*
X139200000Y-144015833D01*
X139247619Y-143968214D01*
X139342857Y-143920595D01*
X139438095Y-143920595D01*
X139580952Y-143968214D01*
X140152380Y-144539642D01*
X140152380Y-143920595D01*
X139485714Y-143063452D02*
X140152380Y-143063452D01*
X139104761Y-143301547D02*
X139819047Y-143539642D01*
X139819047Y-142920595D01*
X141787619Y-144492023D02*
X141740000Y-144444404D01*
X141692380Y-144349166D01*
X141692380Y-144111071D01*
X141740000Y-144015833D01*
X141787619Y-143968214D01*
X141882857Y-143920595D01*
X141978095Y-143920595D01*
X142120952Y-143968214D01*
X142692380Y-144539642D01*
X142692380Y-143920595D01*
X141692380Y-143587261D02*
X141692380Y-142968214D01*
X142073333Y-143301547D01*
X142073333Y-143158690D01*
X142120952Y-143063452D01*
X142168571Y-143015833D01*
X142263809Y-142968214D01*
X142501904Y-142968214D01*
X142597142Y-143015833D01*
X142644761Y-143063452D01*
X142692380Y-143158690D01*
X142692380Y-143444404D01*
X142644761Y-143539642D01*
X142597142Y-143587261D01*
X144327619Y-144492023D02*
X144280000Y-144444404D01*
X144232380Y-144349166D01*
X144232380Y-144111071D01*
X144280000Y-144015833D01*
X144327619Y-143968214D01*
X144422857Y-143920595D01*
X144518095Y-143920595D01*
X144660952Y-143968214D01*
X145232380Y-144539642D01*
X145232380Y-143920595D01*
X144327619Y-143539642D02*
X144280000Y-143492023D01*
X144232380Y-143396785D01*
X144232380Y-143158690D01*
X144280000Y-143063452D01*
X144327619Y-143015833D01*
X144422857Y-142968214D01*
X144518095Y-142968214D01*
X144660952Y-143015833D01*
X145232380Y-143587261D01*
X145232380Y-142968214D01*
X146867619Y-144492023D02*
X146820000Y-144444404D01*
X146772380Y-144349166D01*
X146772380Y-144111071D01*
X146820000Y-144015833D01*
X146867619Y-143968214D01*
X146962857Y-143920595D01*
X147058095Y-143920595D01*
X147200952Y-143968214D01*
X147772380Y-144539642D01*
X147772380Y-143920595D01*
X147772380Y-142968214D02*
X147772380Y-143539642D01*
X147772380Y-143253928D02*
X146772380Y-143253928D01*
X146915238Y-143349166D01*
X147010476Y-143444404D01*
X147058095Y-143539642D01*
X149407619Y-144492023D02*
X149360000Y-144444404D01*
X149312380Y-144349166D01*
X149312380Y-144111071D01*
X149360000Y-144015833D01*
X149407619Y-143968214D01*
X149502857Y-143920595D01*
X149598095Y-143920595D01*
X149740952Y-143968214D01*
X150312380Y-144539642D01*
X150312380Y-143920595D01*
X149312380Y-143301547D02*
X149312380Y-143206309D01*
X149360000Y-143111071D01*
X149407619Y-143063452D01*
X149502857Y-143015833D01*
X149693333Y-142968214D01*
X149931428Y-142968214D01*
X150121904Y-143015833D01*
X150217142Y-143063452D01*
X150264761Y-143111071D01*
X150312380Y-143206309D01*
X150312380Y-143301547D01*
X150264761Y-143396785D01*
X150217142Y-143444404D01*
X150121904Y-143492023D01*
X149931428Y-143539642D01*
X149693333Y-143539642D01*
X149502857Y-143492023D01*
X149407619Y-143444404D01*
X149360000Y-143396785D01*
X149312380Y-143301547D01*
X152852380Y-143920595D02*
X152852380Y-144492023D01*
X152852380Y-144206309D02*
X151852380Y-144206309D01*
X151995238Y-144301547D01*
X152090476Y-144396785D01*
X152138095Y-144492023D01*
X152852380Y-143444404D02*
X152852380Y-143253928D01*
X152804761Y-143158690D01*
X152757142Y-143111071D01*
X152614285Y-143015833D01*
X152423809Y-142968214D01*
X152042857Y-142968214D01*
X151947619Y-143015833D01*
X151900000Y-143063452D01*
X151852380Y-143158690D01*
X151852380Y-143349166D01*
X151900000Y-143444404D01*
X151947619Y-143492023D01*
X152042857Y-143539642D01*
X152280952Y-143539642D01*
X152376190Y-143492023D01*
X152423809Y-143444404D01*
X152471428Y-143349166D01*
X152471428Y-143158690D01*
X152423809Y-143063452D01*
X152376190Y-143015833D01*
X152280952Y-142968214D01*
X155392380Y-143920595D02*
X155392380Y-144492023D01*
X155392380Y-144206309D02*
X154392380Y-144206309D01*
X154535238Y-144301547D01*
X154630476Y-144396785D01*
X154678095Y-144492023D01*
X154820952Y-143349166D02*
X154773333Y-143444404D01*
X154725714Y-143492023D01*
X154630476Y-143539642D01*
X154582857Y-143539642D01*
X154487619Y-143492023D01*
X154440000Y-143444404D01*
X154392380Y-143349166D01*
X154392380Y-143158690D01*
X154440000Y-143063452D01*
X154487619Y-143015833D01*
X154582857Y-142968214D01*
X154630476Y-142968214D01*
X154725714Y-143015833D01*
X154773333Y-143063452D01*
X154820952Y-143158690D01*
X154820952Y-143349166D01*
X154868571Y-143444404D01*
X154916190Y-143492023D01*
X155011428Y-143539642D01*
X155201904Y-143539642D01*
X155297142Y-143492023D01*
X155344761Y-143444404D01*
X155392380Y-143349166D01*
X155392380Y-143158690D01*
X155344761Y-143063452D01*
X155297142Y-143015833D01*
X155201904Y-142968214D01*
X155011428Y-142968214D01*
X154916190Y-143015833D01*
X154868571Y-143063452D01*
X154820952Y-143158690D01*
X157932380Y-143920595D02*
X157932380Y-144492023D01*
X157932380Y-144206309D02*
X156932380Y-144206309D01*
X157075238Y-144301547D01*
X157170476Y-144396785D01*
X157218095Y-144492023D01*
X156932380Y-143587261D02*
X156932380Y-142920595D01*
X157932380Y-143349166D01*
X160472380Y-143920595D02*
X160472380Y-144492023D01*
X160472380Y-144206309D02*
X159472380Y-144206309D01*
X159615238Y-144301547D01*
X159710476Y-144396785D01*
X159758095Y-144492023D01*
X159472380Y-143063452D02*
X159472380Y-143253928D01*
X159520000Y-143349166D01*
X159567619Y-143396785D01*
X159710476Y-143492023D01*
X159900952Y-143539642D01*
X160281904Y-143539642D01*
X160377142Y-143492023D01*
X160424761Y-143444404D01*
X160472380Y-143349166D01*
X160472380Y-143158690D01*
X160424761Y-143063452D01*
X160377142Y-143015833D01*
X160281904Y-142968214D01*
X160043809Y-142968214D01*
X159948571Y-143015833D01*
X159900952Y-143063452D01*
X159853333Y-143158690D01*
X159853333Y-143349166D01*
X159900952Y-143444404D01*
X159948571Y-143492023D01*
X160043809Y-143539642D01*
X163012380Y-143920595D02*
X163012380Y-144492023D01*
X163012380Y-144206309D02*
X162012380Y-144206309D01*
X162155238Y-144301547D01*
X162250476Y-144396785D01*
X162298095Y-144492023D01*
X162012380Y-143015833D02*
X162012380Y-143492023D01*
X162488571Y-143539642D01*
X162440952Y-143492023D01*
X162393333Y-143396785D01*
X162393333Y-143158690D01*
X162440952Y-143063452D01*
X162488571Y-143015833D01*
X162583809Y-142968214D01*
X162821904Y-142968214D01*
X162917142Y-143015833D01*
X162964761Y-143063452D01*
X163012380Y-143158690D01*
X163012380Y-143396785D01*
X162964761Y-143492023D01*
X162917142Y-143539642D01*
X165552380Y-143920595D02*
X165552380Y-144492023D01*
X165552380Y-144206309D02*
X164552380Y-144206309D01*
X164695238Y-144301547D01*
X164790476Y-144396785D01*
X164838095Y-144492023D01*
X164885714Y-143063452D02*
X165552380Y-143063452D01*
X164504761Y-143301547D02*
X165219047Y-143539642D01*
X165219047Y-142920595D01*
X168092380Y-143920595D02*
X168092380Y-144492023D01*
X168092380Y-144206309D02*
X167092380Y-144206309D01*
X167235238Y-144301547D01*
X167330476Y-144396785D01*
X167378095Y-144492023D01*
X167092380Y-143587261D02*
X167092380Y-142968214D01*
X167473333Y-143301547D01*
X167473333Y-143158690D01*
X167520952Y-143063452D01*
X167568571Y-143015833D01*
X167663809Y-142968214D01*
X167901904Y-142968214D01*
X167997142Y-143015833D01*
X168044761Y-143063452D01*
X168092380Y-143158690D01*
X168092380Y-143444404D01*
X168044761Y-143539642D01*
X167997142Y-143587261D01*
X170632380Y-143920595D02*
X170632380Y-144492023D01*
X170632380Y-144206309D02*
X169632380Y-144206309D01*
X169775238Y-144301547D01*
X169870476Y-144396785D01*
X169918095Y-144492023D01*
X169727619Y-143539642D02*
X169680000Y-143492023D01*
X169632380Y-143396785D01*
X169632380Y-143158690D01*
X169680000Y-143063452D01*
X169727619Y-143015833D01*
X169822857Y-142968214D01*
X169918095Y-142968214D01*
X170060952Y-143015833D01*
X170632380Y-143587261D01*
X170632380Y-142968214D01*
X173172380Y-143920595D02*
X173172380Y-144492023D01*
X173172380Y-144206309D02*
X172172380Y-144206309D01*
X172315238Y-144301547D01*
X172410476Y-144396785D01*
X172458095Y-144492023D01*
X173172380Y-142968214D02*
X173172380Y-143539642D01*
X173172380Y-143253928D02*
X172172380Y-143253928D01*
X172315238Y-143349166D01*
X172410476Y-143444404D01*
X172458095Y-143539642D01*
X175712380Y-143920595D02*
X175712380Y-144492023D01*
X175712380Y-144206309D02*
X174712380Y-144206309D01*
X174855238Y-144301547D01*
X174950476Y-144396785D01*
X174998095Y-144492023D01*
X174712380Y-143301547D02*
X174712380Y-143206309D01*
X174760000Y-143111071D01*
X174807619Y-143063452D01*
X174902857Y-143015833D01*
X175093333Y-142968214D01*
X175331428Y-142968214D01*
X175521904Y-143015833D01*
X175617142Y-143063452D01*
X175664761Y-143111071D01*
X175712380Y-143206309D01*
X175712380Y-143301547D01*
X175664761Y-143396785D01*
X175617142Y-143444404D01*
X175521904Y-143492023D01*
X175331428Y-143539642D01*
X175093333Y-143539642D01*
X174902857Y-143492023D01*
X174807619Y-143444404D01*
X174760000Y-143396785D01*
X174712380Y-143301547D01*
X178252380Y-144396785D02*
X178252380Y-144206309D01*
X178204761Y-144111071D01*
X178157142Y-144063452D01*
X178014285Y-143968214D01*
X177823809Y-143920595D01*
X177442857Y-143920595D01*
X177347619Y-143968214D01*
X177300000Y-144015833D01*
X177252380Y-144111071D01*
X177252380Y-144301547D01*
X177300000Y-144396785D01*
X177347619Y-144444404D01*
X177442857Y-144492023D01*
X177680952Y-144492023D01*
X177776190Y-144444404D01*
X177823809Y-144396785D01*
X177871428Y-144301547D01*
X177871428Y-144111071D01*
X177823809Y-144015833D01*
X177776190Y-143968214D01*
X177680952Y-143920595D01*
X180220952Y-144301547D02*
X180173333Y-144396785D01*
X180125714Y-144444404D01*
X180030476Y-144492023D01*
X179982857Y-144492023D01*
X179887619Y-144444404D01*
X179840000Y-144396785D01*
X179792380Y-144301547D01*
X179792380Y-144111071D01*
X179840000Y-144015833D01*
X179887619Y-143968214D01*
X179982857Y-143920595D01*
X180030476Y-143920595D01*
X180125714Y-143968214D01*
X180173333Y-144015833D01*
X180220952Y-144111071D01*
X180220952Y-144301547D01*
X180268571Y-144396785D01*
X180316190Y-144444404D01*
X180411428Y-144492023D01*
X180601904Y-144492023D01*
X180697142Y-144444404D01*
X180744761Y-144396785D01*
X180792380Y-144301547D01*
X180792380Y-144111071D01*
X180744761Y-144015833D01*
X180697142Y-143968214D01*
X180601904Y-143920595D01*
X180411428Y-143920595D01*
X180316190Y-143968214D01*
X180268571Y-144015833D01*
X180220952Y-144111071D01*
X182332380Y-144539642D02*
X182332380Y-143872976D01*
X183332380Y-144301547D01*
X184872380Y-144015833D02*
X184872380Y-144206309D01*
X184920000Y-144301547D01*
X184967619Y-144349166D01*
X185110476Y-144444404D01*
X185300952Y-144492023D01*
X185681904Y-144492023D01*
X185777142Y-144444404D01*
X185824761Y-144396785D01*
X185872380Y-144301547D01*
X185872380Y-144111071D01*
X185824761Y-144015833D01*
X185777142Y-143968214D01*
X185681904Y-143920595D01*
X185443809Y-143920595D01*
X185348571Y-143968214D01*
X185300952Y-144015833D01*
X185253333Y-144111071D01*
X185253333Y-144301547D01*
X185300952Y-144396785D01*
X185348571Y-144444404D01*
X185443809Y-144492023D01*
X187412380Y-143968214D02*
X187412380Y-144444404D01*
X187888571Y-144492023D01*
X187840952Y-144444404D01*
X187793333Y-144349166D01*
X187793333Y-144111071D01*
X187840952Y-144015833D01*
X187888571Y-143968214D01*
X187983809Y-143920595D01*
X188221904Y-143920595D01*
X188317142Y-143968214D01*
X188364761Y-144015833D01*
X188412380Y-144111071D01*
X188412380Y-144349166D01*
X188364761Y-144444404D01*
X188317142Y-144492023D01*
X190285714Y-144015833D02*
X190952380Y-144015833D01*
X189904761Y-144253928D02*
X190619047Y-144492023D01*
X190619047Y-143872976D01*
X198572380Y-143860595D02*
X198572380Y-144432023D01*
X198572380Y-144146309D02*
X197572380Y-144146309D01*
X197715238Y-144241547D01*
X197810476Y-144336785D01*
X197858095Y-144432023D01*
D13*
X140335000Y-127000000D02*
X140970000Y-127000000D01*
D10*
X189634761Y-55770119D02*
X189682380Y-55627261D01*
X189682380Y-55389166D01*
X189634761Y-55293928D01*
X189587142Y-55246309D01*
X189491904Y-55198690D01*
X189396666Y-55198690D01*
X189301428Y-55246309D01*
X189253809Y-55293928D01*
X189206190Y-55389166D01*
X189158571Y-55579642D01*
X189110952Y-55674880D01*
X189063333Y-55722500D01*
X188968095Y-55770119D01*
X188872857Y-55770119D01*
X188777619Y-55722500D01*
X188730000Y-55674880D01*
X188682380Y-55579642D01*
X188682380Y-55341547D01*
X188730000Y-55198690D01*
X188682380Y-54770119D02*
X189491904Y-54770119D01*
X189587142Y-54722500D01*
X189634761Y-54674880D01*
X189682380Y-54579642D01*
X189682380Y-54389166D01*
X189634761Y-54293928D01*
X189587142Y-54246309D01*
X189491904Y-54198690D01*
X188682380Y-54198690D01*
X189682380Y-53722500D02*
X188682380Y-53722500D01*
X188682380Y-53341547D01*
X188730000Y-53246309D01*
X188777619Y-53198690D01*
X188872857Y-53151071D01*
X189015714Y-53151071D01*
X189110952Y-53198690D01*
X189158571Y-53246309D01*
X189206190Y-53341547D01*
X189206190Y-53722500D01*
X189158571Y-52722500D02*
X189158571Y-52389166D01*
X189682380Y-52246309D02*
X189682380Y-52722500D01*
X188682380Y-52722500D01*
X188682380Y-52246309D01*
X189682380Y-51246309D02*
X189206190Y-51579642D01*
X189682380Y-51817738D02*
X188682380Y-51817738D01*
X188682380Y-51436785D01*
X188730000Y-51341547D01*
X188777619Y-51293928D01*
X188872857Y-51246309D01*
X189015714Y-51246309D01*
X189110952Y-51293928D01*
X189158571Y-51341547D01*
X189206190Y-51436785D01*
X189206190Y-51817738D01*
X189158571Y-50055833D02*
X189158571Y-49722500D01*
X189682380Y-49579642D02*
X189682380Y-50055833D01*
X188682380Y-50055833D01*
X188682380Y-49579642D01*
X189682380Y-48674880D02*
X189682380Y-49151071D01*
X188682380Y-49151071D01*
X189158571Y-48008214D02*
X189158571Y-48341547D01*
X189682380Y-48341547D02*
X188682380Y-48341547D01*
X188682380Y-47865357D01*
X119149761Y-57103452D02*
X119197380Y-56960595D01*
X119197380Y-56722500D01*
X119149761Y-56627261D01*
X119102142Y-56579642D01*
X119006904Y-56532023D01*
X118911666Y-56532023D01*
X118816428Y-56579642D01*
X118768809Y-56627261D01*
X118721190Y-56722500D01*
X118673571Y-56912976D01*
X118625952Y-57008214D01*
X118578333Y-57055833D01*
X118483095Y-57103452D01*
X118387857Y-57103452D01*
X118292619Y-57055833D01*
X118245000Y-57008214D01*
X118197380Y-56912976D01*
X118197380Y-56674880D01*
X118245000Y-56532023D01*
X118673571Y-56103452D02*
X118673571Y-55770119D01*
X119197380Y-55627261D02*
X119197380Y-56103452D01*
X118197380Y-56103452D01*
X118197380Y-55627261D01*
X119197380Y-54627261D02*
X118721190Y-54960595D01*
X119197380Y-55198690D02*
X118197380Y-55198690D01*
X118197380Y-54817738D01*
X118245000Y-54722500D01*
X118292619Y-54674880D01*
X118387857Y-54627261D01*
X118530714Y-54627261D01*
X118625952Y-54674880D01*
X118673571Y-54722500D01*
X118721190Y-54817738D01*
X118721190Y-55198690D01*
X119197380Y-54198690D02*
X118197380Y-54198690D01*
X118911666Y-53770119D02*
X118911666Y-53293928D01*
X119197380Y-53865357D02*
X118197380Y-53532023D01*
X119197380Y-53198690D01*
X119197380Y-52389166D02*
X119197380Y-52865357D01*
X118197380Y-52865357D01*
X119197380Y-51293928D02*
X118197380Y-51293928D01*
X118197380Y-50912976D01*
X118245000Y-50817738D01*
X118292619Y-50770119D01*
X118387857Y-50722500D01*
X118530714Y-50722500D01*
X118625952Y-50770119D01*
X118673571Y-50817738D01*
X118721190Y-50912976D01*
X118721190Y-51293928D01*
X118197380Y-50103452D02*
X118197380Y-49912976D01*
X118245000Y-49817738D01*
X118340238Y-49722500D01*
X118530714Y-49674880D01*
X118864047Y-49674880D01*
X119054523Y-49722500D01*
X119149761Y-49817738D01*
X119197380Y-49912976D01*
X119197380Y-50103452D01*
X119149761Y-50198690D01*
X119054523Y-50293928D01*
X118864047Y-50341547D01*
X118530714Y-50341547D01*
X118340238Y-50293928D01*
X118245000Y-50198690D01*
X118197380Y-50103452D01*
X119197380Y-48674880D02*
X118721190Y-49008214D01*
X119197380Y-49246309D02*
X118197380Y-49246309D01*
X118197380Y-48865357D01*
X118245000Y-48770119D01*
X118292619Y-48722500D01*
X118387857Y-48674880D01*
X118530714Y-48674880D01*
X118625952Y-48722500D01*
X118673571Y-48770119D01*
X118721190Y-48865357D01*
X118721190Y-49246309D01*
X118197380Y-48389166D02*
X118197380Y-47817738D01*
X119197380Y-48103452D02*
X118197380Y-48103452D01*
X119840714Y-136977380D02*
X119507380Y-136501190D01*
X119269285Y-136977380D02*
X119269285Y-135977380D01*
X119650238Y-135977380D01*
X119745476Y-136025000D01*
X119793095Y-136072619D01*
X119840714Y-136167857D01*
X119840714Y-136310714D01*
X119793095Y-136405952D01*
X119745476Y-136453571D01*
X119650238Y-136501190D01*
X119269285Y-136501190D01*
X120174047Y-135977380D02*
X120840714Y-136977380D01*
X120840714Y-135977380D02*
X120174047Y-136977380D01*
X122316904Y-136453571D02*
X121983571Y-136453571D01*
X121983571Y-136977380D02*
X121983571Y-135977380D01*
X122459761Y-135977380D01*
X123316904Y-136977380D02*
X122840714Y-136977380D01*
X122840714Y-135977380D01*
X123840714Y-135977380D02*
X124031190Y-135977380D01*
X124126428Y-136025000D01*
X124221666Y-136120238D01*
X124269285Y-136310714D01*
X124269285Y-136644047D01*
X124221666Y-136834523D01*
X124126428Y-136929761D01*
X124031190Y-136977380D01*
X123840714Y-136977380D01*
X123745476Y-136929761D01*
X123650238Y-136834523D01*
X123602619Y-136644047D01*
X123602619Y-136310714D01*
X123650238Y-136120238D01*
X123745476Y-136025000D01*
X123840714Y-135977380D01*
X124650238Y-136691666D02*
X125126428Y-136691666D01*
X124555000Y-136977380D02*
X124888333Y-135977380D01*
X125221666Y-136977380D01*
X125412142Y-135977380D02*
X125983571Y-135977380D01*
X125697857Y-136977380D02*
X125697857Y-135977380D01*
X115869642Y-131897380D02*
X115536309Y-131421190D01*
X115298214Y-131897380D02*
X115298214Y-130897380D01*
X115679166Y-130897380D01*
X115774404Y-130945000D01*
X115822023Y-130992619D01*
X115869642Y-131087857D01*
X115869642Y-131230714D01*
X115822023Y-131325952D01*
X115774404Y-131373571D01*
X115679166Y-131421190D01*
X115298214Y-131421190D01*
X116202976Y-130897380D02*
X116869642Y-131897380D01*
X116869642Y-130897380D02*
X116202976Y-131897380D01*
X117250595Y-131897380D02*
X117250595Y-130897380D01*
X117488690Y-130897380D01*
X117631547Y-130945000D01*
X117726785Y-131040238D01*
X117774404Y-131135476D01*
X117822023Y-131325952D01*
X117822023Y-131468809D01*
X117774404Y-131659285D01*
X117726785Y-131754523D01*
X117631547Y-131849761D01*
X117488690Y-131897380D01*
X117250595Y-131897380D01*
X115393452Y-128357380D02*
X115964880Y-128357380D01*
X115679166Y-129357380D02*
X115679166Y-128357380D01*
X116202976Y-128357380D02*
X116869642Y-129357380D01*
X116869642Y-128357380D02*
X116202976Y-129357380D01*
X117250595Y-129357380D02*
X117250595Y-128357380D01*
X117488690Y-128357380D01*
X117631547Y-128405000D01*
X117726785Y-128500238D01*
X117774404Y-128595476D01*
X117822023Y-128785952D01*
X117822023Y-128928809D01*
X117774404Y-129119285D01*
X117726785Y-129214523D01*
X117631547Y-129309761D01*
X117488690Y-129357380D01*
X117250595Y-129357380D01*
X115250595Y-133437380D02*
X115583928Y-134437380D01*
X115917261Y-133437380D01*
X116822023Y-134342142D02*
X116774404Y-134389761D01*
X116631547Y-134437380D01*
X116536309Y-134437380D01*
X116393452Y-134389761D01*
X116298214Y-134294523D01*
X116250595Y-134199285D01*
X116202976Y-134008809D01*
X116202976Y-133865952D01*
X116250595Y-133675476D01*
X116298214Y-133580238D01*
X116393452Y-133485000D01*
X116536309Y-133437380D01*
X116631547Y-133437380D01*
X116774404Y-133485000D01*
X116822023Y-133532619D01*
X117822023Y-134342142D02*
X117774404Y-134389761D01*
X117631547Y-134437380D01*
X117536309Y-134437380D01*
X117393452Y-134389761D01*
X117298214Y-134294523D01*
X117250595Y-134199285D01*
X117202976Y-134008809D01*
X117202976Y-133865952D01*
X117250595Y-133675476D01*
X117298214Y-133580238D01*
X117393452Y-133485000D01*
X117536309Y-133437380D01*
X117631547Y-133437380D01*
X117774404Y-133485000D01*
X117822023Y-133532619D01*
X115536309Y-126293571D02*
X115869642Y-126293571D01*
X116012500Y-126817380D02*
X115536309Y-126817380D01*
X115536309Y-125817380D01*
X116012500Y-125817380D01*
X116774404Y-126293571D02*
X116441071Y-126293571D01*
X116441071Y-126817380D02*
X116441071Y-125817380D01*
X116917261Y-125817380D01*
X117202976Y-125817380D02*
X117822023Y-125817380D01*
X117488690Y-126198333D01*
X117631547Y-126198333D01*
X117726785Y-126245952D01*
X117774404Y-126293571D01*
X117822023Y-126388809D01*
X117822023Y-126626904D01*
X117774404Y-126722142D01*
X117726785Y-126769761D01*
X117631547Y-126817380D01*
X117345833Y-126817380D01*
X117250595Y-126769761D01*
X117202976Y-126722142D01*
X119840714Y-124277380D02*
X119507380Y-123801190D01*
X119269285Y-124277380D02*
X119269285Y-123277380D01*
X119650238Y-123277380D01*
X119745476Y-123325000D01*
X119793095Y-123372619D01*
X119840714Y-123467857D01*
X119840714Y-123610714D01*
X119793095Y-123705952D01*
X119745476Y-123753571D01*
X119650238Y-123801190D01*
X119269285Y-123801190D01*
X120174047Y-123277380D02*
X120840714Y-124277380D01*
X120840714Y-123277380D02*
X120174047Y-124277380D01*
X121983571Y-124277380D02*
X121983571Y-123277380D01*
X122459761Y-124277380D02*
X122459761Y-123277380D01*
X123031190Y-124277380D01*
X123031190Y-123277380D01*
X123507380Y-124277380D02*
X123507380Y-123277380D01*
X123888333Y-123277380D01*
X123983571Y-123325000D01*
X124031190Y-123372619D01*
X124078809Y-123467857D01*
X124078809Y-123610714D01*
X124031190Y-123705952D01*
X123983571Y-123753571D01*
X123888333Y-123801190D01*
X123507380Y-123801190D01*
X124507380Y-123277380D02*
X124507380Y-124086904D01*
X124555000Y-124182142D01*
X124602619Y-124229761D01*
X124697857Y-124277380D01*
X124888333Y-124277380D01*
X124983571Y-124229761D01*
X125031190Y-124182142D01*
X125078809Y-124086904D01*
X125078809Y-123277380D01*
X125412142Y-123277380D02*
X125983571Y-123277380D01*
X125697857Y-124277380D02*
X125697857Y-123277380D01*
X184326785Y-115387380D02*
X183850595Y-115387380D01*
X183850595Y-114387380D01*
X184850595Y-114387380D02*
X185041071Y-114387380D01*
X185136309Y-114435000D01*
X185231547Y-114530238D01*
X185279166Y-114720714D01*
X185279166Y-115054047D01*
X185231547Y-115244523D01*
X185136309Y-115339761D01*
X185041071Y-115387380D01*
X184850595Y-115387380D01*
X184755357Y-115339761D01*
X184660119Y-115244523D01*
X184612500Y-115054047D01*
X184612500Y-114720714D01*
X184660119Y-114530238D01*
X184755357Y-114435000D01*
X184850595Y-114387380D01*
X185612500Y-114387380D02*
X185850595Y-115387380D01*
X186041071Y-114673095D01*
X186231547Y-115387380D01*
X186469642Y-114387380D01*
X187612500Y-115387380D02*
X187612500Y-114387380D01*
X187945833Y-115101666D01*
X188279166Y-114387380D01*
X188279166Y-115387380D01*
X188755357Y-114863571D02*
X189088690Y-114863571D01*
X189231547Y-115387380D02*
X188755357Y-115387380D01*
X188755357Y-114387380D01*
X189231547Y-114387380D01*
X189660119Y-115387380D02*
X189660119Y-114387380D01*
X189993452Y-115101666D01*
X190326785Y-114387380D01*
X190326785Y-115387380D01*
X192136309Y-115292142D02*
X192088690Y-115339761D01*
X191945833Y-115387380D01*
X191850595Y-115387380D01*
X191707738Y-115339761D01*
X191612500Y-115244523D01*
X191564880Y-115149285D01*
X191517261Y-114958809D01*
X191517261Y-114815952D01*
X191564880Y-114625476D01*
X191612500Y-114530238D01*
X191707738Y-114435000D01*
X191850595Y-114387380D01*
X191945833Y-114387380D01*
X192088690Y-114435000D01*
X192136309Y-114482619D01*
X192755357Y-114387380D02*
X192945833Y-114387380D01*
X193041071Y-114435000D01*
X193136309Y-114530238D01*
X193183928Y-114720714D01*
X193183928Y-115054047D01*
X193136309Y-115244523D01*
X193041071Y-115339761D01*
X192945833Y-115387380D01*
X192755357Y-115387380D01*
X192660119Y-115339761D01*
X192564880Y-115244523D01*
X192517261Y-115054047D01*
X192517261Y-114720714D01*
X192564880Y-114530238D01*
X192660119Y-114435000D01*
X192755357Y-114387380D01*
X193612500Y-115387380D02*
X193612500Y-114387380D01*
X194183928Y-115387380D01*
X194183928Y-114387380D01*
X194993452Y-114863571D02*
X194660119Y-114863571D01*
X194660119Y-115387380D02*
X194660119Y-114387380D01*
X195136309Y-114387380D01*
D14*
X108380000Y-73225000D02*
X107980000Y-73025000D01*
X108380000Y-72825000D02*
X108380000Y-73225000D01*
X107980000Y-73025000D02*
X108380000Y-72825000D01*
X107580000Y-69925000D02*
X107580000Y-71625000D01*
X107580000Y-79325000D02*
X99880000Y-79325000D01*
X107580000Y-77625000D02*
X107580000Y-79325000D01*
X99880000Y-69925000D02*
X107580000Y-69925000D01*
X133925000Y-131175000D02*
X133925000Y-132825000D01*
X133925000Y-132825000D02*
X151825000Y-132825000D01*
X151825000Y-132825000D02*
X151825000Y-127525000D01*
X151825000Y-127525000D02*
X133925000Y-127525000D01*
X133925000Y-127525000D02*
X133925000Y-129175000D01*
X133865000Y-135315000D02*
X151885000Y-135315000D01*
X151885000Y-135315000D02*
X151885000Y-125035000D01*
X151885000Y-125035000D02*
X133865000Y-125035000D01*
X133865000Y-125035000D02*
X133865000Y-135315000D01*
X133925000Y-129175000D02*
G75*
G02*
X133925000Y-131175000I0J-1000000D01*
G01*
X133925000Y-98695000D02*
G75*
G02*
X133925000Y-100695000I0J-1000000D01*
G01*
X133925000Y-100695000D02*
X133925000Y-102345000D01*
X133925000Y-102345000D02*
X151825000Y-102345000D01*
X151825000Y-102345000D02*
X151825000Y-97045000D01*
X151825000Y-97045000D02*
X133925000Y-97045000D01*
X133925000Y-97045000D02*
X133925000Y-98695000D01*
X133865000Y-104835000D02*
X151885000Y-104835000D01*
X151885000Y-104835000D02*
X151885000Y-94555000D01*
X151885000Y-94555000D02*
X133865000Y-94555000D01*
X133865000Y-94555000D02*
X133865000Y-104835000D01*
X123765000Y-56345000D02*
X187385000Y-56345000D01*
X187385000Y-56345000D02*
X187385000Y-53685000D01*
X187385000Y-53685000D02*
X123765000Y-53685000D01*
X123765000Y-53685000D02*
X123765000Y-56345000D01*
X124715000Y-53685000D02*
X124715000Y-47685000D01*
X124715000Y-47685000D02*
X125475000Y-47685000D01*
X125475000Y-47685000D02*
X125475000Y-53685000D01*
X124775000Y-53685000D02*
X124775000Y-47685000D01*
X124895000Y-53685000D02*
X124895000Y-47685000D01*
X125015000Y-53685000D02*
X125015000Y-47685000D01*
X125135000Y-53685000D02*
X125135000Y-47685000D01*
X125255000Y-53685000D02*
X125255000Y-47685000D01*
X125375000Y-53685000D02*
X125375000Y-47685000D01*
X124715000Y-56742071D02*
X124715000Y-56345000D01*
X125475000Y-56742071D02*
X125475000Y-56345000D01*
X124715000Y-59215000D02*
X124715000Y-58827929D01*
X125475000Y-59215000D02*
X125475000Y-58827929D01*
X126365000Y-56345000D02*
X126365000Y-53685000D01*
X127255000Y-53685000D02*
X127255000Y-47685000D01*
X127255000Y-47685000D02*
X128015000Y-47685000D01*
X128015000Y-47685000D02*
X128015000Y-53685000D01*
X127255000Y-56742071D02*
X127255000Y-56345000D01*
X128015000Y-56742071D02*
X128015000Y-56345000D01*
X127255000Y-59282071D02*
X127255000Y-58827929D01*
X128015000Y-59282071D02*
X128015000Y-58827929D01*
X128905000Y-56345000D02*
X128905000Y-53685000D01*
X129795000Y-53685000D02*
X129795000Y-47685000D01*
X129795000Y-47685000D02*
X130555000Y-47685000D01*
X130555000Y-47685000D02*
X130555000Y-53685000D01*
X129795000Y-56742071D02*
X129795000Y-56345000D01*
X130555000Y-56742071D02*
X130555000Y-56345000D01*
X129795000Y-59282071D02*
X129795000Y-58827929D01*
X130555000Y-59282071D02*
X130555000Y-58827929D01*
X131445000Y-56345000D02*
X131445000Y-53685000D01*
X132335000Y-53685000D02*
X132335000Y-47685000D01*
X132335000Y-47685000D02*
X133095000Y-47685000D01*
X133095000Y-47685000D02*
X133095000Y-53685000D01*
X132335000Y-56742071D02*
X132335000Y-56345000D01*
X133095000Y-56742071D02*
X133095000Y-56345000D01*
X132335000Y-59282071D02*
X132335000Y-58827929D01*
X133095000Y-59282071D02*
X133095000Y-58827929D01*
X133985000Y-56345000D02*
X133985000Y-53685000D01*
X134875000Y-53685000D02*
X134875000Y-47685000D01*
X134875000Y-47685000D02*
X135635000Y-47685000D01*
X135635000Y-47685000D02*
X135635000Y-53685000D01*
X134875000Y-56742071D02*
X134875000Y-56345000D01*
X135635000Y-56742071D02*
X135635000Y-56345000D01*
X134875000Y-59282071D02*
X134875000Y-58827929D01*
X135635000Y-59282071D02*
X135635000Y-58827929D01*
X136525000Y-56345000D02*
X136525000Y-53685000D01*
X137415000Y-53685000D02*
X137415000Y-47685000D01*
X137415000Y-47685000D02*
X138175000Y-47685000D01*
X138175000Y-47685000D02*
X138175000Y-53685000D01*
X137415000Y-56742071D02*
X137415000Y-56345000D01*
X138175000Y-56742071D02*
X138175000Y-56345000D01*
X137415000Y-59282071D02*
X137415000Y-58827929D01*
X138175000Y-59282071D02*
X138175000Y-58827929D01*
X139065000Y-56345000D02*
X139065000Y-53685000D01*
X139955000Y-53685000D02*
X139955000Y-47685000D01*
X139955000Y-47685000D02*
X140715000Y-47685000D01*
X140715000Y-47685000D02*
X140715000Y-53685000D01*
X139955000Y-56742071D02*
X139955000Y-56345000D01*
X140715000Y-56742071D02*
X140715000Y-56345000D01*
X139955000Y-59282071D02*
X139955000Y-58827929D01*
X140715000Y-59282071D02*
X140715000Y-58827929D01*
X141605000Y-56345000D02*
X141605000Y-53685000D01*
X142495000Y-53685000D02*
X142495000Y-47685000D01*
X142495000Y-47685000D02*
X143255000Y-47685000D01*
X143255000Y-47685000D02*
X143255000Y-53685000D01*
X142495000Y-56742071D02*
X142495000Y-56345000D01*
X143255000Y-56742071D02*
X143255000Y-56345000D01*
X142495000Y-59282071D02*
X142495000Y-58827929D01*
X143255000Y-59282071D02*
X143255000Y-58827929D01*
X144145000Y-56345000D02*
X144145000Y-53685000D01*
X145035000Y-53685000D02*
X145035000Y-47685000D01*
X145035000Y-47685000D02*
X145795000Y-47685000D01*
X145795000Y-47685000D02*
X145795000Y-53685000D01*
X145035000Y-56742071D02*
X145035000Y-56345000D01*
X145795000Y-56742071D02*
X145795000Y-56345000D01*
X145035000Y-59282071D02*
X145035000Y-58827929D01*
X145795000Y-59282071D02*
X145795000Y-58827929D01*
X146685000Y-56345000D02*
X146685000Y-53685000D01*
X147575000Y-53685000D02*
X147575000Y-47685000D01*
X147575000Y-47685000D02*
X148335000Y-47685000D01*
X148335000Y-47685000D02*
X148335000Y-53685000D01*
X147575000Y-56742071D02*
X147575000Y-56345000D01*
X148335000Y-56742071D02*
X148335000Y-56345000D01*
X147575000Y-59282071D02*
X147575000Y-58827929D01*
X148335000Y-59282071D02*
X148335000Y-58827929D01*
X149225000Y-56345000D02*
X149225000Y-53685000D01*
X150115000Y-53685000D02*
X150115000Y-47685000D01*
X150115000Y-47685000D02*
X150875000Y-47685000D01*
X150875000Y-47685000D02*
X150875000Y-53685000D01*
X150115000Y-56742071D02*
X150115000Y-56345000D01*
X150875000Y-56742071D02*
X150875000Y-56345000D01*
X150115000Y-59282071D02*
X150115000Y-58827929D01*
X150875000Y-59282071D02*
X150875000Y-58827929D01*
X151765000Y-56345000D02*
X151765000Y-53685000D01*
X152655000Y-53685000D02*
X152655000Y-47685000D01*
X152655000Y-47685000D02*
X153415000Y-47685000D01*
X153415000Y-47685000D02*
X153415000Y-53685000D01*
X152655000Y-56742071D02*
X152655000Y-56345000D01*
X153415000Y-56742071D02*
X153415000Y-56345000D01*
X152655000Y-59282071D02*
X152655000Y-58827929D01*
X153415000Y-59282071D02*
X153415000Y-58827929D01*
X154305000Y-56345000D02*
X154305000Y-53685000D01*
X155195000Y-53685000D02*
X155195000Y-47685000D01*
X155195000Y-47685000D02*
X155955000Y-47685000D01*
X155955000Y-47685000D02*
X155955000Y-53685000D01*
X155195000Y-56742071D02*
X155195000Y-56345000D01*
X155955000Y-56742071D02*
X155955000Y-56345000D01*
X155195000Y-59282071D02*
X155195000Y-58827929D01*
X155955000Y-59282071D02*
X155955000Y-58827929D01*
X156845000Y-56345000D02*
X156845000Y-53685000D01*
X157735000Y-53685000D02*
X157735000Y-47685000D01*
X157735000Y-47685000D02*
X158495000Y-47685000D01*
X158495000Y-47685000D02*
X158495000Y-53685000D01*
X157735000Y-56742071D02*
X157735000Y-56345000D01*
X158495000Y-56742071D02*
X158495000Y-56345000D01*
X157735000Y-59282071D02*
X157735000Y-58827929D01*
X158495000Y-59282071D02*
X158495000Y-58827929D01*
X159385000Y-56345000D02*
X159385000Y-53685000D01*
X160275000Y-53685000D02*
X160275000Y-47685000D01*
X160275000Y-47685000D02*
X161035000Y-47685000D01*
X161035000Y-47685000D02*
X161035000Y-53685000D01*
X160275000Y-56742071D02*
X160275000Y-56345000D01*
X161035000Y-56742071D02*
X161035000Y-56345000D01*
X160275000Y-59282071D02*
X160275000Y-58827929D01*
X161035000Y-59282071D02*
X161035000Y-58827929D01*
X161925000Y-56345000D02*
X161925000Y-53685000D01*
X162815000Y-53685000D02*
X162815000Y-47685000D01*
X162815000Y-47685000D02*
X163575000Y-47685000D01*
X163575000Y-47685000D02*
X163575000Y-53685000D01*
X162815000Y-56742071D02*
X162815000Y-56345000D01*
X163575000Y-56742071D02*
X163575000Y-56345000D01*
X162815000Y-59282071D02*
X162815000Y-58827929D01*
X163575000Y-59282071D02*
X163575000Y-58827929D01*
X164465000Y-56345000D02*
X164465000Y-53685000D01*
X165355000Y-53685000D02*
X165355000Y-47685000D01*
X165355000Y-47685000D02*
X166115000Y-47685000D01*
X166115000Y-47685000D02*
X166115000Y-53685000D01*
X165355000Y-56742071D02*
X165355000Y-56345000D01*
X166115000Y-56742071D02*
X166115000Y-56345000D01*
X165355000Y-59282071D02*
X165355000Y-58827929D01*
X166115000Y-59282071D02*
X166115000Y-58827929D01*
X167005000Y-56345000D02*
X167005000Y-53685000D01*
X167895000Y-53685000D02*
X167895000Y-47685000D01*
X167895000Y-47685000D02*
X168655000Y-47685000D01*
X168655000Y-47685000D02*
X168655000Y-53685000D01*
X167895000Y-56742071D02*
X167895000Y-56345000D01*
X168655000Y-56742071D02*
X168655000Y-56345000D01*
X167895000Y-59282071D02*
X167895000Y-58827929D01*
X168655000Y-59282071D02*
X168655000Y-58827929D01*
X169545000Y-56345000D02*
X169545000Y-53685000D01*
X170435000Y-53685000D02*
X170435000Y-47685000D01*
X170435000Y-47685000D02*
X171195000Y-47685000D01*
X171195000Y-47685000D02*
X171195000Y-53685000D01*
X170435000Y-56742071D02*
X170435000Y-56345000D01*
X171195000Y-56742071D02*
X171195000Y-56345000D01*
X170435000Y-59282071D02*
X170435000Y-58827929D01*
X171195000Y-59282071D02*
X171195000Y-58827929D01*
X172085000Y-56345000D02*
X172085000Y-53685000D01*
X172975000Y-53685000D02*
X172975000Y-47685000D01*
X172975000Y-47685000D02*
X173735000Y-47685000D01*
X173735000Y-47685000D02*
X173735000Y-53685000D01*
X172975000Y-56742071D02*
X172975000Y-56345000D01*
X173735000Y-56742071D02*
X173735000Y-56345000D01*
X172975000Y-59282071D02*
X172975000Y-58827929D01*
X173735000Y-59282071D02*
X173735000Y-58827929D01*
X174625000Y-56345000D02*
X174625000Y-53685000D01*
X175515000Y-53685000D02*
X175515000Y-47685000D01*
X175515000Y-47685000D02*
X176275000Y-47685000D01*
X176275000Y-47685000D02*
X176275000Y-53685000D01*
X175515000Y-56742071D02*
X175515000Y-56345000D01*
X176275000Y-56742071D02*
X176275000Y-56345000D01*
X175515000Y-59282071D02*
X175515000Y-58827929D01*
X176275000Y-59282071D02*
X176275000Y-58827929D01*
X177165000Y-56345000D02*
X177165000Y-53685000D01*
X178055000Y-53685000D02*
X178055000Y-47685000D01*
X178055000Y-47685000D02*
X178815000Y-47685000D01*
X178815000Y-47685000D02*
X178815000Y-53685000D01*
X178055000Y-56742071D02*
X178055000Y-56345000D01*
X178815000Y-56742071D02*
X178815000Y-56345000D01*
X178055000Y-59282071D02*
X178055000Y-58827929D01*
X178815000Y-59282071D02*
X178815000Y-58827929D01*
X179705000Y-56345000D02*
X179705000Y-53685000D01*
X180595000Y-53685000D02*
X180595000Y-47685000D01*
X180595000Y-47685000D02*
X181355000Y-47685000D01*
X181355000Y-47685000D02*
X181355000Y-53685000D01*
X180595000Y-56742071D02*
X180595000Y-56345000D01*
X181355000Y-56742071D02*
X181355000Y-56345000D01*
X180595000Y-59282071D02*
X180595000Y-58827929D01*
X181355000Y-59282071D02*
X181355000Y-58827929D01*
X182245000Y-56345000D02*
X182245000Y-53685000D01*
X183135000Y-53685000D02*
X183135000Y-47685000D01*
X183135000Y-47685000D02*
X183895000Y-47685000D01*
X183895000Y-47685000D02*
X183895000Y-53685000D01*
X183135000Y-56742071D02*
X183135000Y-56345000D01*
X183895000Y-56742071D02*
X183895000Y-56345000D01*
X183135000Y-59282071D02*
X183135000Y-58827929D01*
X183895000Y-59282071D02*
X183895000Y-58827929D01*
X184785000Y-56345000D02*
X184785000Y-53685000D01*
X185675000Y-53685000D02*
X185675000Y-47685000D01*
X185675000Y-47685000D02*
X186435000Y-47685000D01*
X186435000Y-47685000D02*
X186435000Y-53685000D01*
X185675000Y-56742071D02*
X185675000Y-56345000D01*
X186435000Y-56742071D02*
X186435000Y-56345000D01*
X185675000Y-59282071D02*
X185675000Y-58827929D01*
X186435000Y-59282071D02*
X186435000Y-58827929D01*
X125095000Y-61595000D02*
X123825000Y-61595000D01*
X123825000Y-61595000D02*
X123825000Y-60325000D01*
X126425000Y-90110000D02*
X123765000Y-90110000D01*
X126425000Y-95250000D02*
X126425000Y-90110000D01*
X123765000Y-95250000D02*
X123765000Y-90110000D01*
X126425000Y-95250000D02*
X123765000Y-95250000D01*
X126425000Y-96520000D02*
X126425000Y-97850000D01*
X126425000Y-97850000D02*
X125095000Y-97850000D01*
X105985000Y-115935000D02*
X105985000Y-117585000D01*
X105985000Y-117585000D02*
X126425000Y-117585000D01*
X126425000Y-117585000D02*
X126425000Y-112285000D01*
X126425000Y-112285000D02*
X105985000Y-112285000D01*
X105985000Y-112285000D02*
X105985000Y-113935000D01*
X105925000Y-120075000D02*
X126485000Y-120075000D01*
X126485000Y-120075000D02*
X126485000Y-109795000D01*
X126485000Y-109795000D02*
X105925000Y-109795000D01*
X105925000Y-109795000D02*
X105925000Y-120075000D01*
X105985000Y-113935000D02*
G75*
G02*
X105985000Y-115935000I0J-1000000D01*
G01*
X159265000Y-94555000D02*
X159265000Y-112455000D01*
X195065000Y-94555000D02*
X159265000Y-94555000D01*
X195065000Y-112455000D02*
X195065000Y-94555000D01*
X159265000Y-112455000D02*
X195065000Y-112455000D01*
X159325000Y-97045000D02*
X159325000Y-102505000D01*
X195005000Y-97045000D02*
X159325000Y-97045000D01*
X195005000Y-109965000D02*
X195005000Y-97045000D01*
X159325000Y-109965000D02*
X195005000Y-109965000D01*
X159325000Y-104505000D02*
X159325000Y-109965000D01*
X159325000Y-102505000D02*
G75*
G02*
X159325000Y-104505000I0J-1000000D01*
G01*
X133925000Y-85455000D02*
X133925000Y-87105000D01*
X133925000Y-87105000D02*
X151825000Y-87105000D01*
X151825000Y-87105000D02*
X151825000Y-81805000D01*
X151825000Y-81805000D02*
X133925000Y-81805000D01*
X133925000Y-81805000D02*
X133925000Y-83455000D01*
X133865000Y-89595000D02*
X151885000Y-89595000D01*
X151885000Y-89595000D02*
X151885000Y-79315000D01*
X151885000Y-79315000D02*
X133865000Y-79315000D01*
X133865000Y-79315000D02*
X133865000Y-89595000D01*
X133925000Y-83455000D02*
G75*
G02*
X133925000Y-85455000I0J-1000000D01*
G01*
X118685000Y-78165000D02*
X118685000Y-76835000D01*
X120015000Y-78165000D02*
X118685000Y-78165000D01*
X121285000Y-78165000D02*
X121285000Y-75505000D01*
X121285000Y-75505000D02*
X126425000Y-75505000D01*
X121285000Y-78165000D02*
X126425000Y-78165000D01*
X126425000Y-78165000D02*
X126425000Y-75505000D01*
X126425000Y-73085000D02*
X126425000Y-70425000D01*
X121285000Y-73085000D02*
X126425000Y-73085000D01*
X121285000Y-70425000D02*
X126425000Y-70425000D01*
X121285000Y-73085000D02*
X121285000Y-70425000D01*
X120015000Y-73085000D02*
X118685000Y-73085000D01*
X118685000Y-73085000D02*
X118685000Y-71755000D01*
X111470000Y-68054788D02*
X111920000Y-68054788D01*
X111695000Y-68279788D02*
X111695000Y-67829788D01*
X114090000Y-67862240D02*
G75*
G03*
X111970000Y-67862241I-1060000J2119740D01*
G01*
X101600000Y-59055000D02*
X101600000Y-57785000D01*
X102870000Y-59055000D02*
X101600000Y-59055000D01*
X115950000Y-56742071D02*
X115950000Y-56345000D01*
X115190000Y-56742071D02*
X115190000Y-56345000D01*
X115950000Y-47685000D02*
X115950000Y-53685000D01*
X115190000Y-47685000D02*
X115950000Y-47685000D01*
X115190000Y-53685000D02*
X115190000Y-47685000D01*
X114300000Y-56345000D02*
X114300000Y-53685000D01*
X113410000Y-56742071D02*
X113410000Y-56345000D01*
X112650000Y-56742071D02*
X112650000Y-56345000D01*
X113410000Y-47685000D02*
X113410000Y-53685000D01*
X112650000Y-47685000D02*
X113410000Y-47685000D01*
X112650000Y-53685000D02*
X112650000Y-47685000D01*
X111760000Y-56345000D02*
X111760000Y-53685000D01*
X110870000Y-56742071D02*
X110870000Y-56345000D01*
X110110000Y-56742071D02*
X110110000Y-56345000D01*
X110870000Y-47685000D02*
X110870000Y-53685000D01*
X110110000Y-47685000D02*
X110870000Y-47685000D01*
X110110000Y-53685000D02*
X110110000Y-47685000D01*
X109220000Y-56345000D02*
X109220000Y-53685000D01*
X108330000Y-56742071D02*
X108330000Y-56345000D01*
X107570000Y-56742071D02*
X107570000Y-56345000D01*
X108330000Y-47685000D02*
X108330000Y-53685000D01*
X107570000Y-47685000D02*
X108330000Y-47685000D01*
X107570000Y-53685000D02*
X107570000Y-47685000D01*
X106680000Y-56345000D02*
X106680000Y-53685000D01*
X105790000Y-56742071D02*
X105790000Y-56345000D01*
X105030000Y-56742071D02*
X105030000Y-56345000D01*
X105790000Y-47685000D02*
X105790000Y-53685000D01*
X105030000Y-47685000D02*
X105790000Y-47685000D01*
X105030000Y-53685000D02*
X105030000Y-47685000D01*
X104140000Y-56345000D02*
X104140000Y-53685000D01*
X103250000Y-56675000D02*
X103250000Y-56345000D01*
X102490000Y-56675000D02*
X102490000Y-56345000D01*
X103150000Y-53685000D02*
X103150000Y-47685000D01*
X103030000Y-53685000D02*
X103030000Y-47685000D01*
X102910000Y-53685000D02*
X102910000Y-47685000D01*
X102790000Y-53685000D02*
X102790000Y-47685000D01*
X102670000Y-53685000D02*
X102670000Y-47685000D01*
X102550000Y-53685000D02*
X102550000Y-47685000D01*
X103250000Y-47685000D02*
X103250000Y-53685000D01*
X102490000Y-47685000D02*
X103250000Y-47685000D01*
X102490000Y-53685000D02*
X102490000Y-47685000D01*
X101540000Y-53685000D02*
X101540000Y-56345000D01*
X116900000Y-53685000D02*
X101540000Y-53685000D01*
X116900000Y-56345000D02*
X116900000Y-53685000D01*
X101540000Y-56345000D02*
X116900000Y-56345000D01*
X123885000Y-68005000D02*
X123885000Y-65345000D01*
X121285000Y-68005000D02*
X123885000Y-68005000D01*
X121285000Y-65345000D02*
X123885000Y-65345000D01*
X121285000Y-68005000D02*
X121285000Y-65345000D01*
X120015000Y-68005000D02*
X118685000Y-68005000D01*
X118685000Y-68005000D02*
X118685000Y-66675000D01*
X141505000Y-72485000D02*
X144245000Y-72485000D01*
X144245000Y-72485000D02*
X144245000Y-65945000D01*
X144245000Y-65945000D02*
X141505000Y-65945000D01*
X141505000Y-65945000D02*
X141505000Y-72485000D01*
X142875000Y-73255000D02*
X142875000Y-72485000D01*
X142875000Y-65175000D02*
X142875000Y-65945000D01*
X144045000Y-72485000D02*
X146785000Y-72485000D01*
X146785000Y-72485000D02*
X146785000Y-65945000D01*
X146785000Y-65945000D02*
X144045000Y-65945000D01*
X144045000Y-65945000D02*
X144045000Y-72485000D01*
X145415000Y-73255000D02*
X145415000Y-72485000D01*
X145415000Y-65175000D02*
X145415000Y-65945000D01*
X146585000Y-72485000D02*
X149325000Y-72485000D01*
X149325000Y-72485000D02*
X149325000Y-65945000D01*
X149325000Y-65945000D02*
X146585000Y-65945000D01*
X146585000Y-65945000D02*
X146585000Y-72485000D01*
X147955000Y-73255000D02*
X147955000Y-72485000D01*
X147955000Y-65175000D02*
X147955000Y-65945000D01*
X136425000Y-72485000D02*
X139165000Y-72485000D01*
X139165000Y-72485000D02*
X139165000Y-65945000D01*
X139165000Y-65945000D02*
X136425000Y-65945000D01*
X136425000Y-65945000D02*
X136425000Y-72485000D01*
X137795000Y-73255000D02*
X137795000Y-72485000D01*
X137795000Y-65175000D02*
X137795000Y-65945000D01*
X138965000Y-72485000D02*
X141705000Y-72485000D01*
X141705000Y-72485000D02*
X141705000Y-65945000D01*
X141705000Y-65945000D02*
X138965000Y-65945000D01*
X138965000Y-65945000D02*
X138965000Y-72485000D01*
X140335000Y-73255000D02*
X140335000Y-72485000D01*
X140335000Y-65175000D02*
X140335000Y-65945000D01*
X159325000Y-85455000D02*
X159325000Y-87105000D01*
X159325000Y-87105000D02*
X184845000Y-87105000D01*
X184845000Y-87105000D02*
X184845000Y-81805000D01*
X184845000Y-81805000D02*
X159325000Y-81805000D01*
X159325000Y-81805000D02*
X159325000Y-83455000D01*
X159265000Y-89595000D02*
X184905000Y-89595000D01*
X184905000Y-89595000D02*
X184905000Y-79315000D01*
X184905000Y-79315000D02*
X159265000Y-79315000D01*
X159265000Y-79315000D02*
X159265000Y-89595000D01*
X159325000Y-83455000D02*
G75*
G02*
X159325000Y-85455000I0J-1000000D01*
G01*
X133865000Y-109795000D02*
X133865000Y-120075000D01*
X151885000Y-109795000D02*
X133865000Y-109795000D01*
X151885000Y-120075000D02*
X151885000Y-109795000D01*
X133865000Y-120075000D02*
X151885000Y-120075000D01*
X133925000Y-112285000D02*
X133925000Y-113935000D01*
X151825000Y-112285000D02*
X133925000Y-112285000D01*
X151825000Y-117585000D02*
X151825000Y-112285000D01*
X133925000Y-117585000D02*
X151825000Y-117585000D01*
X133925000Y-115935000D02*
X133925000Y-117585000D01*
X133925000Y-113935000D02*
G75*
G02*
X133925000Y-115935000I0J-1000000D01*
G01*
X111025000Y-132175000D02*
X113765000Y-132175000D01*
X113765000Y-132175000D02*
X113765000Y-125635000D01*
X113765000Y-125635000D02*
X111025000Y-125635000D01*
X111025000Y-125635000D02*
X111025000Y-132175000D01*
X112395000Y-132945000D02*
X112395000Y-132175000D01*
X112395000Y-124865000D02*
X112395000Y-125635000D01*
X105945000Y-132175000D02*
X108685000Y-132175000D01*
X108685000Y-132175000D02*
X108685000Y-125635000D01*
X108685000Y-125635000D02*
X105945000Y-125635000D01*
X105945000Y-125635000D02*
X105945000Y-132175000D01*
X107315000Y-132945000D02*
X107315000Y-132175000D01*
X107315000Y-124865000D02*
X107315000Y-125635000D01*
X111225000Y-125635000D02*
X108485000Y-125635000D01*
X108485000Y-125635000D02*
X108485000Y-132175000D01*
X108485000Y-132175000D02*
X111225000Y-132175000D01*
X111225000Y-132175000D02*
X111225000Y-125635000D01*
X109855000Y-124865000D02*
X109855000Y-125635000D01*
X109855000Y-132945000D02*
X109855000Y-132175000D01*
X166905000Y-72485000D02*
X169645000Y-72485000D01*
X169645000Y-72485000D02*
X169645000Y-65945000D01*
X169645000Y-65945000D02*
X166905000Y-65945000D01*
X166905000Y-65945000D02*
X166905000Y-72485000D01*
X168275000Y-73255000D02*
X168275000Y-72485000D01*
X168275000Y-65175000D02*
X168275000Y-65945000D01*
X171985000Y-72485000D02*
X174725000Y-72485000D01*
X174725000Y-72485000D02*
X174725000Y-65945000D01*
X174725000Y-65945000D02*
X171985000Y-65945000D01*
X171985000Y-65945000D02*
X171985000Y-72485000D01*
X173355000Y-73255000D02*
X173355000Y-72485000D01*
X173355000Y-65175000D02*
X173355000Y-65945000D01*
X177065000Y-72485000D02*
X179805000Y-72485000D01*
X179805000Y-72485000D02*
X179805000Y-65945000D01*
X179805000Y-65945000D02*
X177065000Y-65945000D01*
X177065000Y-65945000D02*
X177065000Y-72485000D01*
X178435000Y-73255000D02*
X178435000Y-72485000D01*
X178435000Y-65175000D02*
X178435000Y-65945000D01*
X182145000Y-72485000D02*
X184885000Y-72485000D01*
X184885000Y-72485000D02*
X184885000Y-65945000D01*
X184885000Y-65945000D02*
X182145000Y-65945000D01*
X182145000Y-65945000D02*
X182145000Y-72485000D01*
X183515000Y-73255000D02*
X183515000Y-72485000D01*
X183515000Y-65175000D02*
X183515000Y-65945000D01*
X164365000Y-72485000D02*
X167105000Y-72485000D01*
X167105000Y-72485000D02*
X167105000Y-65945000D01*
X167105000Y-65945000D02*
X164365000Y-65945000D01*
X164365000Y-65945000D02*
X164365000Y-72485000D01*
X165735000Y-73255000D02*
X165735000Y-72485000D01*
X165735000Y-65175000D02*
X165735000Y-65945000D01*
X169445000Y-72485000D02*
X172185000Y-72485000D01*
X172185000Y-72485000D02*
X172185000Y-65945000D01*
X172185000Y-65945000D02*
X169445000Y-65945000D01*
X169445000Y-65945000D02*
X169445000Y-72485000D01*
X170815000Y-73255000D02*
X170815000Y-72485000D01*
X170815000Y-65175000D02*
X170815000Y-65945000D01*
X174525000Y-72485000D02*
X177265000Y-72485000D01*
X177265000Y-72485000D02*
X177265000Y-65945000D01*
X177265000Y-65945000D02*
X174525000Y-65945000D01*
X174525000Y-65945000D02*
X174525000Y-72485000D01*
X175895000Y-73255000D02*
X175895000Y-72485000D01*
X175895000Y-65175000D02*
X175895000Y-65945000D01*
X179605000Y-72485000D02*
X182345000Y-72485000D01*
X182345000Y-72485000D02*
X182345000Y-65945000D01*
X182345000Y-65945000D02*
X179605000Y-65945000D01*
X179605000Y-65945000D02*
X179605000Y-72485000D01*
X180975000Y-73255000D02*
X180975000Y-72485000D01*
X180975000Y-65175000D02*
X180975000Y-65945000D01*
X136625000Y-65945000D02*
X133885000Y-65945000D01*
X133885000Y-65945000D02*
X133885000Y-72485000D01*
X133885000Y-72485000D02*
X136625000Y-72485000D01*
X136625000Y-72485000D02*
X136625000Y-65945000D01*
X135255000Y-65175000D02*
X135255000Y-65945000D01*
X135255000Y-73255000D02*
X135255000Y-72485000D01*
X151865000Y-65945000D02*
X149125000Y-65945000D01*
X149125000Y-65945000D02*
X149125000Y-72485000D01*
X149125000Y-72485000D02*
X151865000Y-72485000D01*
X151865000Y-72485000D02*
X151865000Y-65945000D01*
X150495000Y-65175000D02*
X150495000Y-65945000D01*
X150495000Y-73255000D02*
X150495000Y-72485000D01*
X126425000Y-135315000D02*
X126425000Y-132655000D01*
X121285000Y-135315000D02*
X126425000Y-135315000D01*
X121285000Y-132655000D02*
X126425000Y-132655000D01*
X121285000Y-135315000D02*
X121285000Y-132655000D01*
X120015000Y-135315000D02*
X118685000Y-135315000D01*
X118685000Y-135315000D02*
X118685000Y-133985000D01*
X126425000Y-132775000D02*
X126425000Y-130115000D01*
X121285000Y-132775000D02*
X126425000Y-132775000D01*
X121285000Y-130115000D02*
X126425000Y-130115000D01*
X121285000Y-132775000D02*
X121285000Y-130115000D01*
X120015000Y-132775000D02*
X118685000Y-132775000D01*
X118685000Y-132775000D02*
X118685000Y-131445000D01*
X118685000Y-127695000D02*
X118685000Y-126365000D01*
X120015000Y-127695000D02*
X118685000Y-127695000D01*
X121285000Y-127695000D02*
X121285000Y-125035000D01*
X121285000Y-125035000D02*
X126425000Y-125035000D01*
X121285000Y-127695000D02*
X126425000Y-127695000D01*
X126425000Y-127695000D02*
X126425000Y-125035000D01*
X126425000Y-130235000D02*
X126425000Y-127575000D01*
X121285000Y-130235000D02*
X126425000Y-130235000D01*
X121285000Y-127575000D02*
X126425000Y-127575000D01*
X121285000Y-130235000D02*
X121285000Y-127575000D01*
X120015000Y-130235000D02*
X118685000Y-130235000D01*
X118685000Y-130235000D02*
X118685000Y-128905000D01*
X182305000Y-93405000D02*
X182305000Y-90745000D01*
X161925000Y-93405000D02*
X182305000Y-93405000D01*
X161925000Y-90745000D02*
X182305000Y-90745000D01*
X161925000Y-93405000D02*
X161925000Y-90745000D01*
X160655000Y-93405000D02*
X159325000Y-93405000D01*
X159325000Y-93405000D02*
X159325000Y-92075000D01*
X182305000Y-116265000D02*
X182305000Y-113605000D01*
X161925000Y-116265000D02*
X182305000Y-116265000D01*
X161925000Y-113605000D02*
X182305000Y-113605000D01*
X161925000Y-116265000D02*
X161925000Y-113605000D01*
X160655000Y-116265000D02*
X159325000Y-116265000D01*
X159325000Y-116265000D02*
X159325000Y-114935000D01*
X100270000Y-144720000D02*
X100270000Y-147380000D01*
X196850000Y-144720000D02*
X100270000Y-144720000D01*
X196850000Y-147380000D02*
X100270000Y-147380000D01*
X196850000Y-144720000D02*
X196850000Y-147380000D01*
X198120000Y-144720000D02*
X199450000Y-144720000D01*
X199450000Y-144720000D02*
X199450000Y-146050000D01*
X131295000Y-112815000D02*
X129055000Y-112815000D01*
X129055000Y-112815000D02*
X129055000Y-117055000D01*
X129055000Y-117055000D02*
X131295000Y-117055000D01*
X131295000Y-117055000D02*
X131295000Y-112815000D01*
X130175000Y-112165000D02*
X130175000Y-112815000D01*
X130175000Y-117705000D02*
X130175000Y-117055000D01*
X131295000Y-113535000D02*
X129055000Y-113535000D01*
X131295000Y-113655000D02*
X129055000Y-113655000D01*
X131295000Y-113415000D02*
X129055000Y-113415000D01*
X156695000Y-68365000D02*
X154455000Y-68365000D01*
X154455000Y-68365000D02*
X154455000Y-72605000D01*
X154455000Y-72605000D02*
X156695000Y-72605000D01*
X156695000Y-72605000D02*
X156695000Y-68365000D01*
X155575000Y-67715000D02*
X155575000Y-68365000D01*
X155575000Y-73255000D02*
X155575000Y-72605000D01*
X156695000Y-69085000D02*
X154455000Y-69085000D01*
X156695000Y-69205000D02*
X154455000Y-69205000D01*
X156695000Y-68965000D02*
X154455000Y-68965000D01*
X131295000Y-82335000D02*
X129055000Y-82335000D01*
X129055000Y-82335000D02*
X129055000Y-86575000D01*
X129055000Y-86575000D02*
X131295000Y-86575000D01*
X131295000Y-86575000D02*
X131295000Y-82335000D01*
X130175000Y-81685000D02*
X130175000Y-82335000D01*
X130175000Y-87225000D02*
X130175000Y-86575000D01*
X131295000Y-83055000D02*
X129055000Y-83055000D01*
X131295000Y-83175000D02*
X129055000Y-83175000D01*
X131295000Y-82935000D02*
X129055000Y-82935000D01*
X123760000Y-88917288D02*
X123760000Y-88467288D01*
X123535000Y-88692288D02*
X123985000Y-88692288D01*
X126155000Y-88499740D02*
G75*
G03*
X124035000Y-88499741I-1060000J2119740D01*
G01*
X156945000Y-80675000D02*
X156945000Y-85615000D01*
X154205000Y-80675000D02*
X154205000Y-85615000D01*
X156945000Y-80675000D02*
X156630000Y-80675000D01*
X154520000Y-80675000D02*
X154205000Y-80675000D01*
X156945000Y-85615000D02*
X156630000Y-85615000D01*
X154520000Y-85615000D02*
X154205000Y-85615000D01*
X131545000Y-95915000D02*
X131545000Y-100855000D01*
X128805000Y-95915000D02*
X128805000Y-100855000D01*
X131545000Y-95915000D02*
X131230000Y-95915000D01*
X129120000Y-95915000D02*
X128805000Y-95915000D01*
X131545000Y-100855000D02*
X131230000Y-100855000D01*
X129120000Y-100855000D02*
X128805000Y-100855000D01*
X126430000Y-99042712D02*
X126430000Y-99492712D01*
X126655000Y-99267712D02*
X126205000Y-99267712D01*
X124035000Y-99460260D02*
G75*
G03*
X126155000Y-99460259I1060000J-2119740D01*
G01*
X156945000Y-118775000D02*
X156945000Y-123715000D01*
X154205000Y-118775000D02*
X154205000Y-123715000D01*
X156945000Y-118775000D02*
X156630000Y-118775000D01*
X154520000Y-118775000D02*
X154205000Y-118775000D01*
X156945000Y-123715000D02*
X156630000Y-123715000D01*
X154520000Y-123715000D02*
X154205000Y-123715000D01*
X154520000Y-100855000D02*
X154205000Y-100855000D01*
X156945000Y-100855000D02*
X156630000Y-100855000D01*
X154520000Y-95915000D02*
X154205000Y-95915000D01*
X156945000Y-95915000D02*
X156630000Y-95915000D01*
X154205000Y-95915000D02*
X154205000Y-100855000D01*
X156945000Y-95915000D02*
X156945000Y-100855000D01*
X159325000Y-127365000D02*
X159325000Y-132825000D01*
X159325000Y-132825000D02*
X195005000Y-132825000D01*
X195005000Y-132825000D02*
X195005000Y-119905000D01*
X195005000Y-119905000D02*
X159325000Y-119905000D01*
X159325000Y-119905000D02*
X159325000Y-125365000D01*
X159265000Y-135315000D02*
X195065000Y-135315000D01*
X195065000Y-135315000D02*
X195065000Y-117415000D01*
X195065000Y-117415000D02*
X159265000Y-117415000D01*
X159265000Y-117415000D02*
X159265000Y-135315000D01*
X159325000Y-125365000D02*
G75*
G02*
X159325000Y-127365000I0J-1000000D01*
G01*
X107061000Y-65405000D02*
G75*
G03*
X107061000Y-65405000I-2286000J0D01*
G01*
X107061000Y-141605000D02*
G75*
G03*
X107061000Y-141605000I-2286000J0D01*
G01*
X197231000Y-65405000D02*
G75*
G03*
X197231000Y-65405000I-2286000J0D01*
G01*
X197231000Y-141605000D02*
G75*
G03*
X197231000Y-141605000I-2286000J0D01*
G01*
D10*
X145764404Y-129960714D02*
X145764404Y-130627380D01*
X145526309Y-129579761D02*
X145288214Y-130294047D01*
X145907261Y-130294047D01*
X146478690Y-129627380D02*
X146573928Y-129627380D01*
X146669166Y-129675000D01*
X146716785Y-129722619D01*
X146764404Y-129817857D01*
X146812023Y-130008333D01*
X146812023Y-130246428D01*
X146764404Y-130436904D01*
X146716785Y-130532142D01*
X146669166Y-130579761D01*
X146573928Y-130627380D01*
X146478690Y-130627380D01*
X146383452Y-130579761D01*
X146335833Y-130532142D01*
X146288214Y-130436904D01*
X146240595Y-130246428D01*
X146240595Y-130008333D01*
X146288214Y-129817857D01*
X146335833Y-129722619D01*
X146383452Y-129675000D01*
X146478690Y-129627380D01*
X147764404Y-130627380D02*
X147192976Y-130627380D01*
X147478690Y-130627380D02*
X147478690Y-129627380D01*
X147383452Y-129770238D01*
X147288214Y-129865476D01*
X147192976Y-129913095D01*
X148716785Y-130627380D02*
X148145357Y-130627380D01*
X148431071Y-130627380D02*
X148431071Y-129627380D01*
X148335833Y-129770238D01*
X148240595Y-129865476D01*
X148145357Y-129913095D01*
X152487380Y-130936904D02*
X153296904Y-130936904D01*
X153392142Y-130889285D01*
X153439761Y-130841666D01*
X153487380Y-130746428D01*
X153487380Y-130555952D01*
X153439761Y-130460714D01*
X153392142Y-130413095D01*
X153296904Y-130365476D01*
X152487380Y-130365476D01*
X152582619Y-129936904D02*
X152535000Y-129889285D01*
X152487380Y-129794047D01*
X152487380Y-129555952D01*
X152535000Y-129460714D01*
X152582619Y-129413095D01*
X152677857Y-129365476D01*
X152773095Y-129365476D01*
X152915952Y-129413095D01*
X153487380Y-129984523D01*
X153487380Y-129365476D01*
X152487380Y-100456904D02*
X153296904Y-100456904D01*
X153392142Y-100409285D01*
X153439761Y-100361666D01*
X153487380Y-100266428D01*
X153487380Y-100075952D01*
X153439761Y-99980714D01*
X153392142Y-99933095D01*
X153296904Y-99885476D01*
X152487380Y-99885476D01*
X152820714Y-98980714D02*
X153487380Y-98980714D01*
X152439761Y-99218809D02*
X153154047Y-99456904D01*
X153154047Y-98837857D01*
X145764404Y-99480714D02*
X145764404Y-100147380D01*
X145526309Y-99099761D02*
X145288214Y-99814047D01*
X145907261Y-99814047D01*
X146478690Y-99147380D02*
X146573928Y-99147380D01*
X146669166Y-99195000D01*
X146716785Y-99242619D01*
X146764404Y-99337857D01*
X146812023Y-99528333D01*
X146812023Y-99766428D01*
X146764404Y-99956904D01*
X146716785Y-100052142D01*
X146669166Y-100099761D01*
X146573928Y-100147380D01*
X146478690Y-100147380D01*
X146383452Y-100099761D01*
X146335833Y-100052142D01*
X146288214Y-99956904D01*
X146240595Y-99766428D01*
X146240595Y-99528333D01*
X146288214Y-99337857D01*
X146335833Y-99242619D01*
X146383452Y-99195000D01*
X146478690Y-99147380D01*
X147431071Y-99147380D02*
X147526309Y-99147380D01*
X147621547Y-99195000D01*
X147669166Y-99242619D01*
X147716785Y-99337857D01*
X147764404Y-99528333D01*
X147764404Y-99766428D01*
X147716785Y-99956904D01*
X147669166Y-100052142D01*
X147621547Y-100099761D01*
X147526309Y-100147380D01*
X147431071Y-100147380D01*
X147335833Y-100099761D01*
X147288214Y-100052142D01*
X147240595Y-99956904D01*
X147192976Y-99766428D01*
X147192976Y-99528333D01*
X147240595Y-99337857D01*
X147288214Y-99242619D01*
X147335833Y-99195000D01*
X147431071Y-99147380D01*
X148716785Y-100147380D02*
X148145357Y-100147380D01*
X148431071Y-100147380D02*
X148431071Y-99147380D01*
X148335833Y-99290238D01*
X148240595Y-99385476D01*
X148145357Y-99433095D01*
X127087380Y-94741904D02*
X127896904Y-94741904D01*
X127992142Y-94694285D01*
X128039761Y-94646666D01*
X128087380Y-94551428D01*
X128087380Y-94360952D01*
X128039761Y-94265714D01*
X127992142Y-94218095D01*
X127896904Y-94170476D01*
X127087380Y-94170476D01*
X128087380Y-93646666D02*
X128087380Y-93456190D01*
X128039761Y-93360952D01*
X127992142Y-93313333D01*
X127849285Y-93218095D01*
X127658809Y-93170476D01*
X127277857Y-93170476D01*
X127182619Y-93218095D01*
X127135000Y-93265714D01*
X127087380Y-93360952D01*
X127087380Y-93551428D01*
X127135000Y-93646666D01*
X127182619Y-93694285D01*
X127277857Y-93741904D01*
X127515952Y-93741904D01*
X127611190Y-93694285D01*
X127658809Y-93646666D01*
X127706428Y-93551428D01*
X127706428Y-93360952D01*
X127658809Y-93265714D01*
X127611190Y-93218095D01*
X127515952Y-93170476D01*
X127087380Y-115696904D02*
X127896904Y-115696904D01*
X127992142Y-115649285D01*
X128039761Y-115601666D01*
X128087380Y-115506428D01*
X128087380Y-115315952D01*
X128039761Y-115220714D01*
X127992142Y-115173095D01*
X127896904Y-115125476D01*
X127087380Y-115125476D01*
X128087380Y-114125476D02*
X128087380Y-114696904D01*
X128087380Y-114411190D02*
X127087380Y-114411190D01*
X127230238Y-114506428D01*
X127325476Y-114601666D01*
X127373095Y-114696904D01*
X119729404Y-114720714D02*
X119729404Y-115387380D01*
X119491309Y-114339761D02*
X119253214Y-115054047D01*
X119872261Y-115054047D01*
X120443690Y-114387380D02*
X120538928Y-114387380D01*
X120634166Y-114435000D01*
X120681785Y-114482619D01*
X120729404Y-114577857D01*
X120777023Y-114768333D01*
X120777023Y-115006428D01*
X120729404Y-115196904D01*
X120681785Y-115292142D01*
X120634166Y-115339761D01*
X120538928Y-115387380D01*
X120443690Y-115387380D01*
X120348452Y-115339761D01*
X120300833Y-115292142D01*
X120253214Y-115196904D01*
X120205595Y-115006428D01*
X120205595Y-114768333D01*
X120253214Y-114577857D01*
X120300833Y-114482619D01*
X120348452Y-114435000D01*
X120443690Y-114387380D01*
X121634166Y-114720714D02*
X121634166Y-115387380D01*
X121396071Y-114339761D02*
X121157976Y-115054047D01*
X121777023Y-115054047D01*
X122205595Y-115387380D02*
X122396071Y-115387380D01*
X122491309Y-115339761D01*
X122538928Y-115292142D01*
X122634166Y-115149285D01*
X122681785Y-114958809D01*
X122681785Y-114577857D01*
X122634166Y-114482619D01*
X122586547Y-114435000D01*
X122491309Y-114387380D01*
X122300833Y-114387380D01*
X122205595Y-114435000D01*
X122157976Y-114482619D01*
X122110357Y-114577857D01*
X122110357Y-114815952D01*
X122157976Y-114911190D01*
X122205595Y-114958809D01*
X122300833Y-115006428D01*
X122491309Y-115006428D01*
X122586547Y-114958809D01*
X122634166Y-114911190D01*
X122681785Y-114815952D01*
X195667380Y-103949404D02*
X196476904Y-103949404D01*
X196572142Y-103901785D01*
X196619761Y-103854166D01*
X196667380Y-103758928D01*
X196667380Y-103568452D01*
X196619761Y-103473214D01*
X196572142Y-103425595D01*
X196476904Y-103377976D01*
X195667380Y-103377976D01*
X195667380Y-102997023D02*
X195667380Y-102330357D01*
X196667380Y-102758928D01*
X152487380Y-85216904D02*
X153296904Y-85216904D01*
X153392142Y-85169285D01*
X153439761Y-85121666D01*
X153487380Y-85026428D01*
X153487380Y-84835952D01*
X153439761Y-84740714D01*
X153392142Y-84693095D01*
X153296904Y-84645476D01*
X152487380Y-84645476D01*
X152487380Y-83693095D02*
X152487380Y-84169285D01*
X152963571Y-84216904D01*
X152915952Y-84169285D01*
X152868333Y-84074047D01*
X152868333Y-83835952D01*
X152915952Y-83740714D01*
X152963571Y-83693095D01*
X153058809Y-83645476D01*
X153296904Y-83645476D01*
X153392142Y-83693095D01*
X153439761Y-83740714D01*
X153487380Y-83835952D01*
X153487380Y-84074047D01*
X153439761Y-84169285D01*
X153392142Y-84216904D01*
X145764404Y-84240714D02*
X145764404Y-84907380D01*
X145526309Y-83859761D02*
X145288214Y-84574047D01*
X145907261Y-84574047D01*
X146478690Y-83907380D02*
X146573928Y-83907380D01*
X146669166Y-83955000D01*
X146716785Y-84002619D01*
X146764404Y-84097857D01*
X146812023Y-84288333D01*
X146812023Y-84526428D01*
X146764404Y-84716904D01*
X146716785Y-84812142D01*
X146669166Y-84859761D01*
X146573928Y-84907380D01*
X146478690Y-84907380D01*
X146383452Y-84859761D01*
X146335833Y-84812142D01*
X146288214Y-84716904D01*
X146240595Y-84526428D01*
X146240595Y-84288333D01*
X146288214Y-84097857D01*
X146335833Y-84002619D01*
X146383452Y-83955000D01*
X146478690Y-83907380D01*
X147192976Y-84002619D02*
X147240595Y-83955000D01*
X147335833Y-83907380D01*
X147573928Y-83907380D01*
X147669166Y-83955000D01*
X147716785Y-84002619D01*
X147764404Y-84097857D01*
X147764404Y-84193095D01*
X147716785Y-84335952D01*
X147145357Y-84907380D01*
X147764404Y-84907380D01*
X148097738Y-83907380D02*
X148716785Y-83907380D01*
X148383452Y-84288333D01*
X148526309Y-84288333D01*
X148621547Y-84335952D01*
X148669166Y-84383571D01*
X148716785Y-84478809D01*
X148716785Y-84716904D01*
X148669166Y-84812142D01*
X148621547Y-84859761D01*
X148526309Y-84907380D01*
X148240595Y-84907380D01*
X148145357Y-84859761D01*
X148097738Y-84812142D01*
X109894642Y-65889166D02*
X109942261Y-65936785D01*
X109989880Y-66079642D01*
X109989880Y-66174880D01*
X109942261Y-66317738D01*
X109847023Y-66412976D01*
X109751785Y-66460595D01*
X109561309Y-66508214D01*
X109418452Y-66508214D01*
X109227976Y-66460595D01*
X109132738Y-66412976D01*
X109037500Y-66317738D01*
X108989880Y-66174880D01*
X108989880Y-66079642D01*
X109037500Y-65936785D01*
X109085119Y-65889166D01*
X109989880Y-64936785D02*
X109989880Y-65508214D01*
X109989880Y-65222500D02*
X108989880Y-65222500D01*
X109132738Y-65317738D01*
X109227976Y-65412976D01*
X109275595Y-65508214D01*
X143327380Y-76805357D02*
X142851190Y-77138690D01*
X143327380Y-77376785D02*
X142327380Y-77376785D01*
X142327380Y-76995833D01*
X142375000Y-76900595D01*
X142422619Y-76852976D01*
X142517857Y-76805357D01*
X142660714Y-76805357D01*
X142755952Y-76852976D01*
X142803571Y-76900595D01*
X142851190Y-76995833D01*
X142851190Y-77376785D01*
X142660714Y-75948214D02*
X143327380Y-75948214D01*
X142279761Y-76186309D02*
X142994047Y-76424404D01*
X142994047Y-75805357D01*
X142660714Y-70238809D02*
X143327380Y-70238809D01*
X142279761Y-70476904D02*
X142994047Y-70715000D01*
X142994047Y-70095952D01*
X143232142Y-69715000D02*
X143279761Y-69667380D01*
X143327380Y-69715000D01*
X143279761Y-69762619D01*
X143232142Y-69715000D01*
X143327380Y-69715000D01*
X142327380Y-69334047D02*
X142327380Y-68667380D01*
X143327380Y-69095952D01*
X143327380Y-68286428D02*
X142327380Y-68286428D01*
X143327380Y-67715000D02*
X142755952Y-68143571D01*
X142327380Y-67715000D02*
X142898809Y-68286428D01*
X145867380Y-76805357D02*
X145391190Y-77138690D01*
X145867380Y-77376785D02*
X144867380Y-77376785D01*
X144867380Y-76995833D01*
X144915000Y-76900595D01*
X144962619Y-76852976D01*
X145057857Y-76805357D01*
X145200714Y-76805357D01*
X145295952Y-76852976D01*
X145343571Y-76900595D01*
X145391190Y-76995833D01*
X145391190Y-77376785D01*
X144867380Y-75900595D02*
X144867380Y-76376785D01*
X145343571Y-76424404D01*
X145295952Y-76376785D01*
X145248333Y-76281547D01*
X145248333Y-76043452D01*
X145295952Y-75948214D01*
X145343571Y-75900595D01*
X145438809Y-75852976D01*
X145676904Y-75852976D01*
X145772142Y-75900595D01*
X145819761Y-75948214D01*
X145867380Y-76043452D01*
X145867380Y-76281547D01*
X145819761Y-76376785D01*
X145772142Y-76424404D01*
X145200714Y-70238809D02*
X145867380Y-70238809D01*
X144819761Y-70476904D02*
X145534047Y-70715000D01*
X145534047Y-70095952D01*
X145772142Y-69715000D02*
X145819761Y-69667380D01*
X145867380Y-69715000D01*
X145819761Y-69762619D01*
X145772142Y-69715000D01*
X145867380Y-69715000D01*
X144867380Y-69334047D02*
X144867380Y-68667380D01*
X145867380Y-69095952D01*
X145867380Y-68286428D02*
X144867380Y-68286428D01*
X145867380Y-67715000D02*
X145295952Y-68143571D01*
X144867380Y-67715000D02*
X145438809Y-68286428D01*
X148407380Y-76805357D02*
X147931190Y-77138690D01*
X148407380Y-77376785D02*
X147407380Y-77376785D01*
X147407380Y-76995833D01*
X147455000Y-76900595D01*
X147502619Y-76852976D01*
X147597857Y-76805357D01*
X147740714Y-76805357D01*
X147835952Y-76852976D01*
X147883571Y-76900595D01*
X147931190Y-76995833D01*
X147931190Y-77376785D01*
X147407380Y-75948214D02*
X147407380Y-76138690D01*
X147455000Y-76233928D01*
X147502619Y-76281547D01*
X147645476Y-76376785D01*
X147835952Y-76424404D01*
X148216904Y-76424404D01*
X148312142Y-76376785D01*
X148359761Y-76329166D01*
X148407380Y-76233928D01*
X148407380Y-76043452D01*
X148359761Y-75948214D01*
X148312142Y-75900595D01*
X148216904Y-75852976D01*
X147978809Y-75852976D01*
X147883571Y-75900595D01*
X147835952Y-75948214D01*
X147788333Y-76043452D01*
X147788333Y-76233928D01*
X147835952Y-76329166D01*
X147883571Y-76376785D01*
X147978809Y-76424404D01*
X150280714Y-70238809D02*
X150947380Y-70238809D01*
X149899761Y-70476904D02*
X150614047Y-70715000D01*
X150614047Y-70095952D01*
X150852142Y-69715000D02*
X150899761Y-69667380D01*
X150947380Y-69715000D01*
X150899761Y-69762619D01*
X150852142Y-69715000D01*
X150947380Y-69715000D01*
X149947380Y-69334047D02*
X149947380Y-68667380D01*
X150947380Y-69095952D01*
X150947380Y-68286428D02*
X149947380Y-68286428D01*
X150947380Y-67715000D02*
X150375952Y-68143571D01*
X149947380Y-67715000D02*
X150518809Y-68286428D01*
X138247380Y-76805357D02*
X137771190Y-77138690D01*
X138247380Y-77376785D02*
X137247380Y-77376785D01*
X137247380Y-76995833D01*
X137295000Y-76900595D01*
X137342619Y-76852976D01*
X137437857Y-76805357D01*
X137580714Y-76805357D01*
X137675952Y-76852976D01*
X137723571Y-76900595D01*
X137771190Y-76995833D01*
X137771190Y-77376785D01*
X137342619Y-76424404D02*
X137295000Y-76376785D01*
X137247380Y-76281547D01*
X137247380Y-76043452D01*
X137295000Y-75948214D01*
X137342619Y-75900595D01*
X137437857Y-75852976D01*
X137533095Y-75852976D01*
X137675952Y-75900595D01*
X138247380Y-76472023D01*
X138247380Y-75852976D01*
X137580714Y-70238809D02*
X138247380Y-70238809D01*
X137199761Y-70476904D02*
X137914047Y-70715000D01*
X137914047Y-70095952D01*
X138152142Y-69715000D02*
X138199761Y-69667380D01*
X138247380Y-69715000D01*
X138199761Y-69762619D01*
X138152142Y-69715000D01*
X138247380Y-69715000D01*
X137247380Y-69334047D02*
X137247380Y-68667380D01*
X138247380Y-69095952D01*
X138247380Y-68286428D02*
X137247380Y-68286428D01*
X138247380Y-67715000D02*
X137675952Y-68143571D01*
X137247380Y-67715000D02*
X137818809Y-68286428D01*
X140787380Y-76805357D02*
X140311190Y-77138690D01*
X140787380Y-77376785D02*
X139787380Y-77376785D01*
X139787380Y-76995833D01*
X139835000Y-76900595D01*
X139882619Y-76852976D01*
X139977857Y-76805357D01*
X140120714Y-76805357D01*
X140215952Y-76852976D01*
X140263571Y-76900595D01*
X140311190Y-76995833D01*
X140311190Y-77376785D01*
X139787380Y-76472023D02*
X139787380Y-75852976D01*
X140168333Y-76186309D01*
X140168333Y-76043452D01*
X140215952Y-75948214D01*
X140263571Y-75900595D01*
X140358809Y-75852976D01*
X140596904Y-75852976D01*
X140692142Y-75900595D01*
X140739761Y-75948214D01*
X140787380Y-76043452D01*
X140787380Y-76329166D01*
X140739761Y-76424404D01*
X140692142Y-76472023D01*
X140120714Y-70238809D02*
X140787380Y-70238809D01*
X139739761Y-70476904D02*
X140454047Y-70715000D01*
X140454047Y-70095952D01*
X140692142Y-69715000D02*
X140739761Y-69667380D01*
X140787380Y-69715000D01*
X140739761Y-69762619D01*
X140692142Y-69715000D01*
X140787380Y-69715000D01*
X139787380Y-69334047D02*
X139787380Y-68667380D01*
X140787380Y-69095952D01*
X140787380Y-68286428D02*
X139787380Y-68286428D01*
X140787380Y-67715000D02*
X140215952Y-68143571D01*
X139787380Y-67715000D02*
X140358809Y-68286428D01*
X185507380Y-85216904D02*
X186316904Y-85216904D01*
X186412142Y-85169285D01*
X186459761Y-85121666D01*
X186507380Y-85026428D01*
X186507380Y-84835952D01*
X186459761Y-84740714D01*
X186412142Y-84693095D01*
X186316904Y-84645476D01*
X185507380Y-84645476D01*
X185935952Y-84026428D02*
X185888333Y-84121666D01*
X185840714Y-84169285D01*
X185745476Y-84216904D01*
X185697857Y-84216904D01*
X185602619Y-84169285D01*
X185555000Y-84121666D01*
X185507380Y-84026428D01*
X185507380Y-83835952D01*
X185555000Y-83740714D01*
X185602619Y-83693095D01*
X185697857Y-83645476D01*
X185745476Y-83645476D01*
X185840714Y-83693095D01*
X185888333Y-83740714D01*
X185935952Y-83835952D01*
X185935952Y-84026428D01*
X185983571Y-84121666D01*
X186031190Y-84169285D01*
X186126428Y-84216904D01*
X186316904Y-84216904D01*
X186412142Y-84169285D01*
X186459761Y-84121666D01*
X186507380Y-84026428D01*
X186507380Y-83835952D01*
X186459761Y-83740714D01*
X186412142Y-83693095D01*
X186316904Y-83645476D01*
X186126428Y-83645476D01*
X186031190Y-83693095D01*
X185983571Y-83740714D01*
X185935952Y-83835952D01*
X176720714Y-84240714D02*
X176720714Y-84907380D01*
X176482619Y-83859761D02*
X176244523Y-84574047D01*
X176863571Y-84574047D01*
X177435000Y-83907380D02*
X177530238Y-83907380D01*
X177625476Y-83955000D01*
X177673095Y-84002619D01*
X177720714Y-84097857D01*
X177768333Y-84288333D01*
X177768333Y-84526428D01*
X177720714Y-84716904D01*
X177673095Y-84812142D01*
X177625476Y-84859761D01*
X177530238Y-84907380D01*
X177435000Y-84907380D01*
X177339761Y-84859761D01*
X177292142Y-84812142D01*
X177244523Y-84716904D01*
X177196904Y-84526428D01*
X177196904Y-84288333D01*
X177244523Y-84097857D01*
X177292142Y-84002619D01*
X177339761Y-83955000D01*
X177435000Y-83907380D01*
X178149285Y-84002619D02*
X178196904Y-83955000D01*
X178292142Y-83907380D01*
X178530238Y-83907380D01*
X178625476Y-83955000D01*
X178673095Y-84002619D01*
X178720714Y-84097857D01*
X178720714Y-84193095D01*
X178673095Y-84335952D01*
X178101666Y-84907380D01*
X178720714Y-84907380D01*
X179577857Y-84240714D02*
X179577857Y-84907380D01*
X179339761Y-83859761D02*
X179101666Y-84574047D01*
X179720714Y-84574047D01*
X180577857Y-83907380D02*
X180101666Y-83907380D01*
X180054047Y-84383571D01*
X180101666Y-84335952D01*
X180196904Y-84288333D01*
X180435000Y-84288333D01*
X180530238Y-84335952D01*
X180577857Y-84383571D01*
X180625476Y-84478809D01*
X180625476Y-84716904D01*
X180577857Y-84812142D01*
X180530238Y-84859761D01*
X180435000Y-84907380D01*
X180196904Y-84907380D01*
X180101666Y-84859761D01*
X180054047Y-84812142D01*
X152487380Y-115696904D02*
X153296904Y-115696904D01*
X153392142Y-115649285D01*
X153439761Y-115601666D01*
X153487380Y-115506428D01*
X153487380Y-115315952D01*
X153439761Y-115220714D01*
X153392142Y-115173095D01*
X153296904Y-115125476D01*
X152487380Y-115125476D01*
X152487380Y-114744523D02*
X152487380Y-114125476D01*
X152868333Y-114458809D01*
X152868333Y-114315952D01*
X152915952Y-114220714D01*
X152963571Y-114173095D01*
X153058809Y-114125476D01*
X153296904Y-114125476D01*
X153392142Y-114173095D01*
X153439761Y-114220714D01*
X153487380Y-114315952D01*
X153487380Y-114601666D01*
X153439761Y-114696904D01*
X153392142Y-114744523D01*
X145764404Y-114720714D02*
X145764404Y-115387380D01*
X145526309Y-114339761D02*
X145288214Y-115054047D01*
X145907261Y-115054047D01*
X146478690Y-114387380D02*
X146573928Y-114387380D01*
X146669166Y-114435000D01*
X146716785Y-114482619D01*
X146764404Y-114577857D01*
X146812023Y-114768333D01*
X146812023Y-115006428D01*
X146764404Y-115196904D01*
X146716785Y-115292142D01*
X146669166Y-115339761D01*
X146573928Y-115387380D01*
X146478690Y-115387380D01*
X146383452Y-115339761D01*
X146335833Y-115292142D01*
X146288214Y-115196904D01*
X146240595Y-115006428D01*
X146240595Y-114768333D01*
X146288214Y-114577857D01*
X146335833Y-114482619D01*
X146383452Y-114435000D01*
X146478690Y-114387380D01*
X147145357Y-114387380D02*
X147812023Y-114387380D01*
X147383452Y-115387380D01*
X148716785Y-115387380D02*
X148145357Y-115387380D01*
X148431071Y-115387380D02*
X148431071Y-114387380D01*
X148335833Y-114530238D01*
X148240595Y-114625476D01*
X148145357Y-114673095D01*
X113164880Y-137447738D02*
X112688690Y-137781071D01*
X113164880Y-138019166D02*
X112164880Y-138019166D01*
X112164880Y-137638214D01*
X112212500Y-137542976D01*
X112260119Y-137495357D01*
X112355357Y-137447738D01*
X112498214Y-137447738D01*
X112593452Y-137495357D01*
X112641071Y-137542976D01*
X112688690Y-137638214D01*
X112688690Y-138019166D01*
X113164880Y-136495357D02*
X113164880Y-137066785D01*
X113164880Y-136781071D02*
X112164880Y-136781071D01*
X112307738Y-136876309D01*
X112402976Y-136971547D01*
X112450595Y-137066785D01*
X112593452Y-135923928D02*
X112545833Y-136019166D01*
X112498214Y-136066785D01*
X112402976Y-136114404D01*
X112355357Y-136114404D01*
X112260119Y-136066785D01*
X112212500Y-136019166D01*
X112164880Y-135923928D01*
X112164880Y-135733452D01*
X112212500Y-135638214D01*
X112260119Y-135590595D01*
X112355357Y-135542976D01*
X112402976Y-135542976D01*
X112498214Y-135590595D01*
X112545833Y-135638214D01*
X112593452Y-135733452D01*
X112593452Y-135923928D01*
X112641071Y-136019166D01*
X112688690Y-136066785D01*
X112783928Y-136114404D01*
X112974404Y-136114404D01*
X113069642Y-136066785D01*
X113117261Y-136019166D01*
X113164880Y-135923928D01*
X113164880Y-135733452D01*
X113117261Y-135638214D01*
X113069642Y-135590595D01*
X112974404Y-135542976D01*
X112783928Y-135542976D01*
X112688690Y-135590595D01*
X112641071Y-135638214D01*
X112593452Y-135733452D01*
X112180714Y-129690714D02*
X112847380Y-129690714D01*
X111799761Y-129928809D02*
X112514047Y-130166904D01*
X112514047Y-129547857D01*
X111847380Y-129262142D02*
X111847380Y-128595476D01*
X112847380Y-129024047D01*
X112847380Y-128214523D02*
X111847380Y-128214523D01*
X112847380Y-127643095D02*
X112275952Y-128071666D01*
X111847380Y-127643095D02*
X112418809Y-128214523D01*
X107767380Y-137447738D02*
X107291190Y-137781071D01*
X107767380Y-138019166D02*
X106767380Y-138019166D01*
X106767380Y-137638214D01*
X106815000Y-137542976D01*
X106862619Y-137495357D01*
X106957857Y-137447738D01*
X107100714Y-137447738D01*
X107195952Y-137495357D01*
X107243571Y-137542976D01*
X107291190Y-137638214D01*
X107291190Y-138019166D01*
X107767380Y-136495357D02*
X107767380Y-137066785D01*
X107767380Y-136781071D02*
X106767380Y-136781071D01*
X106910238Y-136876309D01*
X107005476Y-136971547D01*
X107053095Y-137066785D01*
X106767380Y-135638214D02*
X106767380Y-135828690D01*
X106815000Y-135923928D01*
X106862619Y-135971547D01*
X107005476Y-136066785D01*
X107195952Y-136114404D01*
X107576904Y-136114404D01*
X107672142Y-136066785D01*
X107719761Y-136019166D01*
X107767380Y-135923928D01*
X107767380Y-135733452D01*
X107719761Y-135638214D01*
X107672142Y-135590595D01*
X107576904Y-135542976D01*
X107338809Y-135542976D01*
X107243571Y-135590595D01*
X107195952Y-135638214D01*
X107148333Y-135733452D01*
X107148333Y-135923928D01*
X107195952Y-136019166D01*
X107243571Y-136066785D01*
X107338809Y-136114404D01*
X107100714Y-129833571D02*
X107767380Y-129833571D01*
X106719761Y-130071666D02*
X107434047Y-130309761D01*
X107434047Y-129690714D01*
X107672142Y-129309761D02*
X107719761Y-129262142D01*
X107767380Y-129309761D01*
X107719761Y-129357380D01*
X107672142Y-129309761D01*
X107767380Y-129309761D01*
X106767380Y-128928809D02*
X106767380Y-128262142D01*
X107767380Y-128690714D01*
X107767380Y-127881190D02*
X106767380Y-127881190D01*
X107386428Y-127785952D02*
X107767380Y-127500238D01*
X107100714Y-127500238D02*
X107481666Y-127881190D01*
X110307380Y-137447738D02*
X109831190Y-137781071D01*
X110307380Y-138019166D02*
X109307380Y-138019166D01*
X109307380Y-137638214D01*
X109355000Y-137542976D01*
X109402619Y-137495357D01*
X109497857Y-137447738D01*
X109640714Y-137447738D01*
X109735952Y-137495357D01*
X109783571Y-137542976D01*
X109831190Y-137638214D01*
X109831190Y-138019166D01*
X110307380Y-136495357D02*
X110307380Y-137066785D01*
X110307380Y-136781071D02*
X109307380Y-136781071D01*
X109450238Y-136876309D01*
X109545476Y-136971547D01*
X109593095Y-137066785D01*
X109307380Y-136162023D02*
X109307380Y-135495357D01*
X110307380Y-135923928D01*
X109640714Y-129928809D02*
X110307380Y-129928809D01*
X109259761Y-130166904D02*
X109974047Y-130405000D01*
X109974047Y-129785952D01*
X110212142Y-129405000D02*
X110259761Y-129357380D01*
X110307380Y-129405000D01*
X110259761Y-129452619D01*
X110212142Y-129405000D01*
X110307380Y-129405000D01*
X109307380Y-129024047D02*
X109307380Y-128357380D01*
X110307380Y-128785952D01*
X110307380Y-127976428D02*
X109307380Y-127976428D01*
X110307380Y-127405000D02*
X109735952Y-127833571D01*
X109307380Y-127405000D02*
X109878809Y-127976428D01*
X168727380Y-76805357D02*
X168251190Y-77138690D01*
X168727380Y-77376785D02*
X167727380Y-77376785D01*
X167727380Y-76995833D01*
X167775000Y-76900595D01*
X167822619Y-76852976D01*
X167917857Y-76805357D01*
X168060714Y-76805357D01*
X168155952Y-76852976D01*
X168203571Y-76900595D01*
X168251190Y-76995833D01*
X168251190Y-77376785D01*
X168727380Y-76329166D02*
X168727380Y-76138690D01*
X168679761Y-76043452D01*
X168632142Y-75995833D01*
X168489285Y-75900595D01*
X168298809Y-75852976D01*
X167917857Y-75852976D01*
X167822619Y-75900595D01*
X167775000Y-75948214D01*
X167727380Y-76043452D01*
X167727380Y-76233928D01*
X167775000Y-76329166D01*
X167822619Y-76376785D01*
X167917857Y-76424404D01*
X168155952Y-76424404D01*
X168251190Y-76376785D01*
X168298809Y-76329166D01*
X168346428Y-76233928D01*
X168346428Y-76043452D01*
X168298809Y-75948214D01*
X168251190Y-75900595D01*
X168155952Y-75852976D01*
X168727380Y-69429285D02*
X168727380Y-70000714D01*
X168727380Y-69715000D02*
X167727380Y-69715000D01*
X167870238Y-69810238D01*
X167965476Y-69905476D01*
X168013095Y-70000714D01*
X168727380Y-69000714D02*
X167727380Y-69000714D01*
X168727380Y-68429285D02*
X168155952Y-68857857D01*
X167727380Y-68429285D02*
X168298809Y-69000714D01*
X173807380Y-77757738D02*
X173331190Y-78091071D01*
X173807380Y-78329166D02*
X172807380Y-78329166D01*
X172807380Y-77948214D01*
X172855000Y-77852976D01*
X172902619Y-77805357D01*
X172997857Y-77757738D01*
X173140714Y-77757738D01*
X173235952Y-77805357D01*
X173283571Y-77852976D01*
X173331190Y-77948214D01*
X173331190Y-78329166D01*
X173807380Y-76805357D02*
X173807380Y-77376785D01*
X173807380Y-77091071D02*
X172807380Y-77091071D01*
X172950238Y-77186309D01*
X173045476Y-77281547D01*
X173093095Y-77376785D01*
X173807380Y-75852976D02*
X173807380Y-76424404D01*
X173807380Y-76138690D02*
X172807380Y-76138690D01*
X172950238Y-76233928D01*
X173045476Y-76329166D01*
X173093095Y-76424404D01*
X173807380Y-69429285D02*
X173807380Y-70000714D01*
X173807380Y-69715000D02*
X172807380Y-69715000D01*
X172950238Y-69810238D01*
X173045476Y-69905476D01*
X173093095Y-70000714D01*
X173807380Y-69000714D02*
X172807380Y-69000714D01*
X173807380Y-68429285D02*
X173235952Y-68857857D01*
X172807380Y-68429285D02*
X173378809Y-69000714D01*
X178887380Y-77757738D02*
X178411190Y-78091071D01*
X178887380Y-78329166D02*
X177887380Y-78329166D01*
X177887380Y-77948214D01*
X177935000Y-77852976D01*
X177982619Y-77805357D01*
X178077857Y-77757738D01*
X178220714Y-77757738D01*
X178315952Y-77805357D01*
X178363571Y-77852976D01*
X178411190Y-77948214D01*
X178411190Y-78329166D01*
X178887380Y-76805357D02*
X178887380Y-77376785D01*
X178887380Y-77091071D02*
X177887380Y-77091071D01*
X178030238Y-77186309D01*
X178125476Y-77281547D01*
X178173095Y-77376785D01*
X177887380Y-76472023D02*
X177887380Y-75852976D01*
X178268333Y-76186309D01*
X178268333Y-76043452D01*
X178315952Y-75948214D01*
X178363571Y-75900595D01*
X178458809Y-75852976D01*
X178696904Y-75852976D01*
X178792142Y-75900595D01*
X178839761Y-75948214D01*
X178887380Y-76043452D01*
X178887380Y-76329166D01*
X178839761Y-76424404D01*
X178792142Y-76472023D01*
X178887380Y-69429285D02*
X178887380Y-70000714D01*
X178887380Y-69715000D02*
X177887380Y-69715000D01*
X178030238Y-69810238D01*
X178125476Y-69905476D01*
X178173095Y-70000714D01*
X178887380Y-69000714D02*
X177887380Y-69000714D01*
X178887380Y-68429285D02*
X178315952Y-68857857D01*
X177887380Y-68429285D02*
X178458809Y-69000714D01*
X183967380Y-77757738D02*
X183491190Y-78091071D01*
X183967380Y-78329166D02*
X182967380Y-78329166D01*
X182967380Y-77948214D01*
X183015000Y-77852976D01*
X183062619Y-77805357D01*
X183157857Y-77757738D01*
X183300714Y-77757738D01*
X183395952Y-77805357D01*
X183443571Y-77852976D01*
X183491190Y-77948214D01*
X183491190Y-78329166D01*
X183967380Y-76805357D02*
X183967380Y-77376785D01*
X183967380Y-77091071D02*
X182967380Y-77091071D01*
X183110238Y-77186309D01*
X183205476Y-77281547D01*
X183253095Y-77376785D01*
X182967380Y-75900595D02*
X182967380Y-76376785D01*
X183443571Y-76424404D01*
X183395952Y-76376785D01*
X183348333Y-76281547D01*
X183348333Y-76043452D01*
X183395952Y-75948214D01*
X183443571Y-75900595D01*
X183538809Y-75852976D01*
X183776904Y-75852976D01*
X183872142Y-75900595D01*
X183919761Y-75948214D01*
X183967380Y-76043452D01*
X183967380Y-76281547D01*
X183919761Y-76376785D01*
X183872142Y-76424404D01*
X183967380Y-69429285D02*
X183967380Y-70000714D01*
X183967380Y-69715000D02*
X182967380Y-69715000D01*
X183110238Y-69810238D01*
X183205476Y-69905476D01*
X183253095Y-70000714D01*
X183967380Y-69000714D02*
X182967380Y-69000714D01*
X183967380Y-68429285D02*
X183395952Y-68857857D01*
X182967380Y-68429285D02*
X183538809Y-69000714D01*
X166187380Y-76805357D02*
X165711190Y-77138690D01*
X166187380Y-77376785D02*
X165187380Y-77376785D01*
X165187380Y-76995833D01*
X165235000Y-76900595D01*
X165282619Y-76852976D01*
X165377857Y-76805357D01*
X165520714Y-76805357D01*
X165615952Y-76852976D01*
X165663571Y-76900595D01*
X165711190Y-76995833D01*
X165711190Y-77376785D01*
X165615952Y-76233928D02*
X165568333Y-76329166D01*
X165520714Y-76376785D01*
X165425476Y-76424404D01*
X165377857Y-76424404D01*
X165282619Y-76376785D01*
X165235000Y-76329166D01*
X165187380Y-76233928D01*
X165187380Y-76043452D01*
X165235000Y-75948214D01*
X165282619Y-75900595D01*
X165377857Y-75852976D01*
X165425476Y-75852976D01*
X165520714Y-75900595D01*
X165568333Y-75948214D01*
X165615952Y-76043452D01*
X165615952Y-76233928D01*
X165663571Y-76329166D01*
X165711190Y-76376785D01*
X165806428Y-76424404D01*
X165996904Y-76424404D01*
X166092142Y-76376785D01*
X166139761Y-76329166D01*
X166187380Y-76233928D01*
X166187380Y-76043452D01*
X166139761Y-75948214D01*
X166092142Y-75900595D01*
X165996904Y-75852976D01*
X165806428Y-75852976D01*
X165711190Y-75900595D01*
X165663571Y-75948214D01*
X165615952Y-76043452D01*
X166187380Y-69429285D02*
X166187380Y-70000714D01*
X166187380Y-69715000D02*
X165187380Y-69715000D01*
X165330238Y-69810238D01*
X165425476Y-69905476D01*
X165473095Y-70000714D01*
X166187380Y-69000714D02*
X165187380Y-69000714D01*
X166187380Y-68429285D02*
X165615952Y-68857857D01*
X165187380Y-68429285D02*
X165758809Y-69000714D01*
X171267380Y-77757738D02*
X170791190Y-78091071D01*
X171267380Y-78329166D02*
X170267380Y-78329166D01*
X170267380Y-77948214D01*
X170315000Y-77852976D01*
X170362619Y-77805357D01*
X170457857Y-77757738D01*
X170600714Y-77757738D01*
X170695952Y-77805357D01*
X170743571Y-77852976D01*
X170791190Y-77948214D01*
X170791190Y-78329166D01*
X171267380Y-76805357D02*
X171267380Y-77376785D01*
X171267380Y-77091071D02*
X170267380Y-77091071D01*
X170410238Y-77186309D01*
X170505476Y-77281547D01*
X170553095Y-77376785D01*
X170267380Y-76186309D02*
X170267380Y-76091071D01*
X170315000Y-75995833D01*
X170362619Y-75948214D01*
X170457857Y-75900595D01*
X170648333Y-75852976D01*
X170886428Y-75852976D01*
X171076904Y-75900595D01*
X171172142Y-75948214D01*
X171219761Y-75995833D01*
X171267380Y-76091071D01*
X171267380Y-76186309D01*
X171219761Y-76281547D01*
X171172142Y-76329166D01*
X171076904Y-76376785D01*
X170886428Y-76424404D01*
X170648333Y-76424404D01*
X170457857Y-76376785D01*
X170362619Y-76329166D01*
X170315000Y-76281547D01*
X170267380Y-76186309D01*
X171267380Y-69429285D02*
X171267380Y-70000714D01*
X171267380Y-69715000D02*
X170267380Y-69715000D01*
X170410238Y-69810238D01*
X170505476Y-69905476D01*
X170553095Y-70000714D01*
X171267380Y-69000714D02*
X170267380Y-69000714D01*
X171267380Y-68429285D02*
X170695952Y-68857857D01*
X170267380Y-68429285D02*
X170838809Y-69000714D01*
X176347380Y-77757738D02*
X175871190Y-78091071D01*
X176347380Y-78329166D02*
X175347380Y-78329166D01*
X175347380Y-77948214D01*
X175395000Y-77852976D01*
X175442619Y-77805357D01*
X175537857Y-77757738D01*
X175680714Y-77757738D01*
X175775952Y-77805357D01*
X175823571Y-77852976D01*
X175871190Y-77948214D01*
X175871190Y-78329166D01*
X176347380Y-76805357D02*
X176347380Y-77376785D01*
X176347380Y-77091071D02*
X175347380Y-77091071D01*
X175490238Y-77186309D01*
X175585476Y-77281547D01*
X175633095Y-77376785D01*
X175442619Y-76424404D02*
X175395000Y-76376785D01*
X175347380Y-76281547D01*
X175347380Y-76043452D01*
X175395000Y-75948214D01*
X175442619Y-75900595D01*
X175537857Y-75852976D01*
X175633095Y-75852976D01*
X175775952Y-75900595D01*
X176347380Y-76472023D01*
X176347380Y-75852976D01*
X176347380Y-69429285D02*
X176347380Y-70000714D01*
X176347380Y-69715000D02*
X175347380Y-69715000D01*
X175490238Y-69810238D01*
X175585476Y-69905476D01*
X175633095Y-70000714D01*
X176347380Y-69000714D02*
X175347380Y-69000714D01*
X176347380Y-68429285D02*
X175775952Y-68857857D01*
X175347380Y-68429285D02*
X175918809Y-69000714D01*
X181427380Y-77757738D02*
X180951190Y-78091071D01*
X181427380Y-78329166D02*
X180427380Y-78329166D01*
X180427380Y-77948214D01*
X180475000Y-77852976D01*
X180522619Y-77805357D01*
X180617857Y-77757738D01*
X180760714Y-77757738D01*
X180855952Y-77805357D01*
X180903571Y-77852976D01*
X180951190Y-77948214D01*
X180951190Y-78329166D01*
X181427380Y-76805357D02*
X181427380Y-77376785D01*
X181427380Y-77091071D02*
X180427380Y-77091071D01*
X180570238Y-77186309D01*
X180665476Y-77281547D01*
X180713095Y-77376785D01*
X180760714Y-75948214D02*
X181427380Y-75948214D01*
X180379761Y-76186309D02*
X181094047Y-76424404D01*
X181094047Y-75805357D01*
X181427380Y-69429285D02*
X181427380Y-70000714D01*
X181427380Y-69715000D02*
X180427380Y-69715000D01*
X180570238Y-69810238D01*
X180665476Y-69905476D01*
X180713095Y-70000714D01*
X181427380Y-69000714D02*
X180427380Y-69000714D01*
X181427380Y-68429285D02*
X180855952Y-68857857D01*
X180427380Y-68429285D02*
X180998809Y-69000714D01*
X135707380Y-76805357D02*
X135231190Y-77138690D01*
X135707380Y-77376785D02*
X134707380Y-77376785D01*
X134707380Y-76995833D01*
X134755000Y-76900595D01*
X134802619Y-76852976D01*
X134897857Y-76805357D01*
X135040714Y-76805357D01*
X135135952Y-76852976D01*
X135183571Y-76900595D01*
X135231190Y-76995833D01*
X135231190Y-77376785D01*
X135707380Y-75852976D02*
X135707380Y-76424404D01*
X135707380Y-76138690D02*
X134707380Y-76138690D01*
X134850238Y-76233928D01*
X134945476Y-76329166D01*
X134993095Y-76424404D01*
X135040714Y-70238809D02*
X135707380Y-70238809D01*
X134659761Y-70476904D02*
X135374047Y-70715000D01*
X135374047Y-70095952D01*
X135612142Y-69715000D02*
X135659761Y-69667380D01*
X135707380Y-69715000D01*
X135659761Y-69762619D01*
X135612142Y-69715000D01*
X135707380Y-69715000D01*
X134707380Y-69334047D02*
X134707380Y-68667380D01*
X135707380Y-69095952D01*
X135707380Y-68286428D02*
X134707380Y-68286428D01*
X135707380Y-67715000D02*
X135135952Y-68143571D01*
X134707380Y-67715000D02*
X135278809Y-68286428D01*
X150947380Y-76805357D02*
X150471190Y-77138690D01*
X150947380Y-77376785D02*
X149947380Y-77376785D01*
X149947380Y-76995833D01*
X149995000Y-76900595D01*
X150042619Y-76852976D01*
X150137857Y-76805357D01*
X150280714Y-76805357D01*
X150375952Y-76852976D01*
X150423571Y-76900595D01*
X150471190Y-76995833D01*
X150471190Y-77376785D01*
X149947380Y-76472023D02*
X149947380Y-75805357D01*
X150947380Y-76233928D01*
X147910714Y-70143571D02*
X148577380Y-70143571D01*
X147529761Y-70381666D02*
X148244047Y-70619761D01*
X148244047Y-70000714D01*
X148482142Y-69619761D02*
X148529761Y-69572142D01*
X148577380Y-69619761D01*
X148529761Y-69667380D01*
X148482142Y-69619761D01*
X148577380Y-69619761D01*
X147577380Y-69238809D02*
X147577380Y-68572142D01*
X148577380Y-69000714D01*
X148577380Y-68191190D02*
X147577380Y-68191190D01*
X148196428Y-68095952D02*
X148577380Y-67810238D01*
X147910714Y-67810238D02*
X148291666Y-68191190D01*
X130627380Y-121705595D02*
X129627380Y-121705595D01*
X129627380Y-121467500D01*
X129675000Y-121324642D01*
X129770238Y-121229404D01*
X129865476Y-121181785D01*
X130055952Y-121134166D01*
X130198809Y-121134166D01*
X130389285Y-121181785D01*
X130484523Y-121229404D01*
X130579761Y-121324642D01*
X130627380Y-121467500D01*
X130627380Y-121705595D01*
X130627380Y-120181785D02*
X130627380Y-120753214D01*
X130627380Y-120467500D02*
X129627380Y-120467500D01*
X129770238Y-120562738D01*
X129865476Y-120657976D01*
X129913095Y-120753214D01*
X129960714Y-116176119D02*
X130627380Y-116176119D01*
X129579761Y-116353738D02*
X130294047Y-116531357D01*
X130294047Y-116069547D01*
X130627380Y-115394595D02*
X130627380Y-115820880D01*
X130627380Y-115607738D02*
X129627380Y-115607738D01*
X129770238Y-115678785D01*
X129865476Y-115749833D01*
X129913095Y-115820880D01*
X129960714Y-114755166D02*
X130627380Y-114755166D01*
X129579761Y-114932785D02*
X130294047Y-115110404D01*
X130294047Y-114648595D01*
X130055952Y-114257833D02*
X130008333Y-114328880D01*
X129960714Y-114364404D01*
X129865476Y-114399928D01*
X129817857Y-114399928D01*
X129722619Y-114364404D01*
X129675000Y-114328880D01*
X129627380Y-114257833D01*
X129627380Y-114115738D01*
X129675000Y-114044690D01*
X129722619Y-114009166D01*
X129817857Y-113973642D01*
X129865476Y-113973642D01*
X129960714Y-114009166D01*
X130008333Y-114044690D01*
X130055952Y-114115738D01*
X130055952Y-114257833D01*
X130103571Y-114328880D01*
X130151190Y-114364404D01*
X130246428Y-114399928D01*
X130436904Y-114399928D01*
X130532142Y-114364404D01*
X130579761Y-114328880D01*
X130627380Y-114257833D01*
X130627380Y-114115738D01*
X130579761Y-114044690D01*
X130532142Y-114009166D01*
X130436904Y-113973642D01*
X130246428Y-113973642D01*
X130151190Y-114009166D01*
X130103571Y-114044690D01*
X130055952Y-114115738D01*
X156027380Y-77255595D02*
X155027380Y-77255595D01*
X155027380Y-77017500D01*
X155075000Y-76874642D01*
X155170238Y-76779404D01*
X155265476Y-76731785D01*
X155455952Y-76684166D01*
X155598809Y-76684166D01*
X155789285Y-76731785D01*
X155884523Y-76779404D01*
X155979761Y-76874642D01*
X156027380Y-77017500D01*
X156027380Y-77255595D01*
X155027380Y-76350833D02*
X155027380Y-75731785D01*
X155408333Y-76065119D01*
X155408333Y-75922261D01*
X155455952Y-75827023D01*
X155503571Y-75779404D01*
X155598809Y-75731785D01*
X155836904Y-75731785D01*
X155932142Y-75779404D01*
X155979761Y-75827023D01*
X156027380Y-75922261D01*
X156027380Y-76207976D01*
X155979761Y-76303214D01*
X155932142Y-76350833D01*
X155360714Y-71726119D02*
X156027380Y-71726119D01*
X154979761Y-71903738D02*
X155694047Y-72081357D01*
X155694047Y-71619547D01*
X156027380Y-70944595D02*
X156027380Y-71370880D01*
X156027380Y-71157738D02*
X155027380Y-71157738D01*
X155170238Y-71228785D01*
X155265476Y-71299833D01*
X155313095Y-71370880D01*
X155360714Y-70305166D02*
X156027380Y-70305166D01*
X154979761Y-70482785D02*
X155694047Y-70660404D01*
X155694047Y-70198595D01*
X155455952Y-69807833D02*
X155408333Y-69878880D01*
X155360714Y-69914404D01*
X155265476Y-69949928D01*
X155217857Y-69949928D01*
X155122619Y-69914404D01*
X155075000Y-69878880D01*
X155027380Y-69807833D01*
X155027380Y-69665738D01*
X155075000Y-69594690D01*
X155122619Y-69559166D01*
X155217857Y-69523642D01*
X155265476Y-69523642D01*
X155360714Y-69559166D01*
X155408333Y-69594690D01*
X155455952Y-69665738D01*
X155455952Y-69807833D01*
X155503571Y-69878880D01*
X155551190Y-69914404D01*
X155646428Y-69949928D01*
X155836904Y-69949928D01*
X155932142Y-69914404D01*
X155979761Y-69878880D01*
X156027380Y-69807833D01*
X156027380Y-69665738D01*
X155979761Y-69594690D01*
X155932142Y-69559166D01*
X155836904Y-69523642D01*
X155646428Y-69523642D01*
X155551190Y-69559166D01*
X155503571Y-69594690D01*
X155455952Y-69665738D01*
X130627380Y-91346785D02*
X129627380Y-91346785D01*
X129627380Y-91108690D01*
X129675000Y-90965833D01*
X129770238Y-90870595D01*
X129865476Y-90822976D01*
X130055952Y-90775357D01*
X130198809Y-90775357D01*
X130389285Y-90822976D01*
X130484523Y-90870595D01*
X130579761Y-90965833D01*
X130627380Y-91108690D01*
X130627380Y-91346785D01*
X129722619Y-90394404D02*
X129675000Y-90346785D01*
X129627380Y-90251547D01*
X129627380Y-90013452D01*
X129675000Y-89918214D01*
X129722619Y-89870595D01*
X129817857Y-89822976D01*
X129913095Y-89822976D01*
X130055952Y-89870595D01*
X130627380Y-90442023D01*
X130627380Y-89822976D01*
X129960714Y-85696119D02*
X130627380Y-85696119D01*
X129579761Y-85873738D02*
X130294047Y-86051357D01*
X130294047Y-85589547D01*
X130627380Y-84914595D02*
X130627380Y-85340880D01*
X130627380Y-85127738D02*
X129627380Y-85127738D01*
X129770238Y-85198785D01*
X129865476Y-85269833D01*
X129913095Y-85340880D01*
X129960714Y-84275166D02*
X130627380Y-84275166D01*
X129579761Y-84452785D02*
X130294047Y-84630404D01*
X130294047Y-84168595D01*
X130055952Y-83777833D02*
X130008333Y-83848880D01*
X129960714Y-83884404D01*
X129865476Y-83919928D01*
X129817857Y-83919928D01*
X129722619Y-83884404D01*
X129675000Y-83848880D01*
X129627380Y-83777833D01*
X129627380Y-83635738D01*
X129675000Y-83564690D01*
X129722619Y-83529166D01*
X129817857Y-83493642D01*
X129865476Y-83493642D01*
X129960714Y-83529166D01*
X130008333Y-83564690D01*
X130055952Y-83635738D01*
X130055952Y-83777833D01*
X130103571Y-83848880D01*
X130151190Y-83884404D01*
X130246428Y-83919928D01*
X130436904Y-83919928D01*
X130532142Y-83884404D01*
X130579761Y-83848880D01*
X130627380Y-83777833D01*
X130627380Y-83635738D01*
X130579761Y-83564690D01*
X130532142Y-83529166D01*
X130436904Y-83493642D01*
X130246428Y-83493642D01*
X130151190Y-83529166D01*
X130103571Y-83564690D01*
X130055952Y-83635738D01*
X125452142Y-82716666D02*
X125499761Y-82764285D01*
X125547380Y-82907142D01*
X125547380Y-83002380D01*
X125499761Y-83145238D01*
X125404523Y-83240476D01*
X125309285Y-83288095D01*
X125118809Y-83335714D01*
X124975952Y-83335714D01*
X124785476Y-83288095D01*
X124690238Y-83240476D01*
X124595000Y-83145238D01*
X124547380Y-83002380D01*
X124547380Y-82907142D01*
X124595000Y-82764285D01*
X124642619Y-82716666D01*
X124547380Y-82383333D02*
X124547380Y-81764285D01*
X124928333Y-82097619D01*
X124928333Y-81954761D01*
X124975952Y-81859523D01*
X125023571Y-81811904D01*
X125118809Y-81764285D01*
X125356904Y-81764285D01*
X125452142Y-81811904D01*
X125499761Y-81859523D01*
X125547380Y-81954761D01*
X125547380Y-82240476D01*
X125499761Y-82335714D01*
X125452142Y-82383333D01*
X155932142Y-88114166D02*
X155979761Y-88161785D01*
X156027380Y-88304642D01*
X156027380Y-88399880D01*
X155979761Y-88542738D01*
X155884523Y-88637976D01*
X155789285Y-88685595D01*
X155598809Y-88733214D01*
X155455952Y-88733214D01*
X155265476Y-88685595D01*
X155170238Y-88637976D01*
X155075000Y-88542738D01*
X155027380Y-88399880D01*
X155027380Y-88304642D01*
X155075000Y-88161785D01*
X155122619Y-88114166D01*
X155027380Y-87780833D02*
X155027380Y-87114166D01*
X156027380Y-87542738D01*
X155027380Y-84050857D02*
X155027380Y-83979809D01*
X155075000Y-83908761D01*
X155122619Y-83873238D01*
X155217857Y-83837714D01*
X155408333Y-83802190D01*
X155646428Y-83802190D01*
X155836904Y-83837714D01*
X155932142Y-83873238D01*
X155979761Y-83908761D01*
X156027380Y-83979809D01*
X156027380Y-84050857D01*
X155979761Y-84121904D01*
X155932142Y-84157428D01*
X155836904Y-84192952D01*
X155646428Y-84228476D01*
X155408333Y-84228476D01*
X155217857Y-84192952D01*
X155122619Y-84157428D01*
X155075000Y-84121904D01*
X155027380Y-84050857D01*
X155932142Y-83482476D02*
X155979761Y-83446952D01*
X156027380Y-83482476D01*
X155979761Y-83518000D01*
X155932142Y-83482476D01*
X156027380Y-83482476D01*
X156027380Y-82736476D02*
X156027380Y-83162761D01*
X156027380Y-82949619D02*
X155027380Y-82949619D01*
X155170238Y-83020666D01*
X155265476Y-83091714D01*
X155313095Y-83162761D01*
X155360714Y-82097047D02*
X156027380Y-82097047D01*
X155360714Y-82416761D02*
X155884523Y-82416761D01*
X155979761Y-82381238D01*
X156027380Y-82310190D01*
X156027380Y-82203619D01*
X155979761Y-82132571D01*
X155932142Y-82097047D01*
X130532142Y-103354166D02*
X130579761Y-103401785D01*
X130627380Y-103544642D01*
X130627380Y-103639880D01*
X130579761Y-103782738D01*
X130484523Y-103877976D01*
X130389285Y-103925595D01*
X130198809Y-103973214D01*
X130055952Y-103973214D01*
X129865476Y-103925595D01*
X129770238Y-103877976D01*
X129675000Y-103782738D01*
X129627380Y-103639880D01*
X129627380Y-103544642D01*
X129675000Y-103401785D01*
X129722619Y-103354166D01*
X129960714Y-102497023D02*
X130627380Y-102497023D01*
X129579761Y-102735119D02*
X130294047Y-102973214D01*
X130294047Y-102354166D01*
X129627380Y-99330857D02*
X129627380Y-99259809D01*
X129675000Y-99188761D01*
X129722619Y-99153238D01*
X129817857Y-99117714D01*
X130008333Y-99082190D01*
X130246428Y-99082190D01*
X130436904Y-99117714D01*
X130532142Y-99153238D01*
X130579761Y-99188761D01*
X130627380Y-99259809D01*
X130627380Y-99330857D01*
X130579761Y-99401904D01*
X130532142Y-99437428D01*
X130436904Y-99472952D01*
X130246428Y-99508476D01*
X130008333Y-99508476D01*
X129817857Y-99472952D01*
X129722619Y-99437428D01*
X129675000Y-99401904D01*
X129627380Y-99330857D01*
X130532142Y-98762476D02*
X130579761Y-98726952D01*
X130627380Y-98762476D01*
X130579761Y-98798000D01*
X130532142Y-98762476D01*
X130627380Y-98762476D01*
X130627380Y-98016476D02*
X130627380Y-98442761D01*
X130627380Y-98229619D02*
X129627380Y-98229619D01*
X129770238Y-98300666D01*
X129865476Y-98371714D01*
X129913095Y-98442761D01*
X129960714Y-97377047D02*
X130627380Y-97377047D01*
X129960714Y-97696761D02*
X130484523Y-97696761D01*
X130579761Y-97661238D01*
X130627380Y-97590190D01*
X130627380Y-97483619D01*
X130579761Y-97412571D01*
X130532142Y-97377047D01*
X125452142Y-105576666D02*
X125499761Y-105624285D01*
X125547380Y-105767142D01*
X125547380Y-105862380D01*
X125499761Y-106005238D01*
X125404523Y-106100476D01*
X125309285Y-106148095D01*
X125118809Y-106195714D01*
X124975952Y-106195714D01*
X124785476Y-106148095D01*
X124690238Y-106100476D01*
X124595000Y-106005238D01*
X124547380Y-105862380D01*
X124547380Y-105767142D01*
X124595000Y-105624285D01*
X124642619Y-105576666D01*
X124642619Y-105195714D02*
X124595000Y-105148095D01*
X124547380Y-105052857D01*
X124547380Y-104814761D01*
X124595000Y-104719523D01*
X124642619Y-104671904D01*
X124737857Y-104624285D01*
X124833095Y-104624285D01*
X124975952Y-104671904D01*
X125547380Y-105243333D01*
X125547380Y-104624285D01*
X155932142Y-126214166D02*
X155979761Y-126261785D01*
X156027380Y-126404642D01*
X156027380Y-126499880D01*
X155979761Y-126642738D01*
X155884523Y-126737976D01*
X155789285Y-126785595D01*
X155598809Y-126833214D01*
X155455952Y-126833214D01*
X155265476Y-126785595D01*
X155170238Y-126737976D01*
X155075000Y-126642738D01*
X155027380Y-126499880D01*
X155027380Y-126404642D01*
X155075000Y-126261785D01*
X155122619Y-126214166D01*
X155027380Y-125309404D02*
X155027380Y-125785595D01*
X155503571Y-125833214D01*
X155455952Y-125785595D01*
X155408333Y-125690357D01*
X155408333Y-125452261D01*
X155455952Y-125357023D01*
X155503571Y-125309404D01*
X155598809Y-125261785D01*
X155836904Y-125261785D01*
X155932142Y-125309404D01*
X155979761Y-125357023D01*
X156027380Y-125452261D01*
X156027380Y-125690357D01*
X155979761Y-125785595D01*
X155932142Y-125833214D01*
X155027380Y-122190857D02*
X155027380Y-122119809D01*
X155075000Y-122048761D01*
X155122619Y-122013238D01*
X155217857Y-121977714D01*
X155408333Y-121942190D01*
X155646428Y-121942190D01*
X155836904Y-121977714D01*
X155932142Y-122013238D01*
X155979761Y-122048761D01*
X156027380Y-122119809D01*
X156027380Y-122190857D01*
X155979761Y-122261904D01*
X155932142Y-122297428D01*
X155836904Y-122332952D01*
X155646428Y-122368476D01*
X155408333Y-122368476D01*
X155217857Y-122332952D01*
X155122619Y-122297428D01*
X155075000Y-122261904D01*
X155027380Y-122190857D01*
X155932142Y-121622476D02*
X155979761Y-121586952D01*
X156027380Y-121622476D01*
X155979761Y-121658000D01*
X155932142Y-121622476D01*
X156027380Y-121622476D01*
X156027380Y-120876476D02*
X156027380Y-121302761D01*
X156027380Y-121089619D02*
X155027380Y-121089619D01*
X155170238Y-121160666D01*
X155265476Y-121231714D01*
X155313095Y-121302761D01*
X155360714Y-120237047D02*
X156027380Y-120237047D01*
X155360714Y-120556761D02*
X155884523Y-120556761D01*
X155979761Y-120521238D01*
X156027380Y-120450190D01*
X156027380Y-120343619D01*
X155979761Y-120272571D01*
X155932142Y-120237047D01*
X155932142Y-103354166D02*
X155979761Y-103401785D01*
X156027380Y-103544642D01*
X156027380Y-103639880D01*
X155979761Y-103782738D01*
X155884523Y-103877976D01*
X155789285Y-103925595D01*
X155598809Y-103973214D01*
X155455952Y-103973214D01*
X155265476Y-103925595D01*
X155170238Y-103877976D01*
X155075000Y-103782738D01*
X155027380Y-103639880D01*
X155027380Y-103544642D01*
X155075000Y-103401785D01*
X155122619Y-103354166D01*
X155027380Y-102497023D02*
X155027380Y-102687500D01*
X155075000Y-102782738D01*
X155122619Y-102830357D01*
X155265476Y-102925595D01*
X155455952Y-102973214D01*
X155836904Y-102973214D01*
X155932142Y-102925595D01*
X155979761Y-102877976D01*
X156027380Y-102782738D01*
X156027380Y-102592261D01*
X155979761Y-102497023D01*
X155932142Y-102449404D01*
X155836904Y-102401785D01*
X155598809Y-102401785D01*
X155503571Y-102449404D01*
X155455952Y-102497023D01*
X155408333Y-102592261D01*
X155408333Y-102782738D01*
X155455952Y-102877976D01*
X155503571Y-102925595D01*
X155598809Y-102973214D01*
X155027380Y-99290857D02*
X155027380Y-99219809D01*
X155075000Y-99148761D01*
X155122619Y-99113238D01*
X155217857Y-99077714D01*
X155408333Y-99042190D01*
X155646428Y-99042190D01*
X155836904Y-99077714D01*
X155932142Y-99113238D01*
X155979761Y-99148761D01*
X156027380Y-99219809D01*
X156027380Y-99290857D01*
X155979761Y-99361904D01*
X155932142Y-99397428D01*
X155836904Y-99432952D01*
X155646428Y-99468476D01*
X155408333Y-99468476D01*
X155217857Y-99432952D01*
X155122619Y-99397428D01*
X155075000Y-99361904D01*
X155027380Y-99290857D01*
X155932142Y-98722476D02*
X155979761Y-98686952D01*
X156027380Y-98722476D01*
X155979761Y-98758000D01*
X155932142Y-98722476D01*
X156027380Y-98722476D01*
X156027380Y-97976476D02*
X156027380Y-98402761D01*
X156027380Y-98189619D02*
X155027380Y-98189619D01*
X155170238Y-98260666D01*
X155265476Y-98331714D01*
X155313095Y-98402761D01*
X155360714Y-97337047D02*
X156027380Y-97337047D01*
X155360714Y-97656761D02*
X155884523Y-97656761D01*
X155979761Y-97621238D01*
X156027380Y-97550190D01*
X156027380Y-97443619D01*
X155979761Y-97372571D01*
X155932142Y-97337047D01*
X195667380Y-127126904D02*
X196476904Y-127126904D01*
X196572142Y-127079285D01*
X196619761Y-127031666D01*
X196667380Y-126936428D01*
X196667380Y-126745952D01*
X196619761Y-126650714D01*
X196572142Y-126603095D01*
X196476904Y-126555476D01*
X195667380Y-126555476D01*
X195667380Y-125650714D02*
X195667380Y-125841190D01*
X195715000Y-125936428D01*
X195762619Y-125984047D01*
X195905476Y-126079285D01*
X196095952Y-126126904D01*
X196476904Y-126126904D01*
X196572142Y-126079285D01*
X196619761Y-126031666D01*
X196667380Y-125936428D01*
X196667380Y-125745952D01*
X196619761Y-125650714D01*
X196572142Y-125603095D01*
X196476904Y-125555476D01*
X196238809Y-125555476D01*
X196143571Y-125603095D01*
X196095952Y-125650714D01*
X196048333Y-125745952D01*
X196048333Y-125936428D01*
X196095952Y-126031666D01*
X196143571Y-126079285D01*
X196238809Y-126126904D01*
M02*
