G04 #@! TF.GenerationSoftware,KiCad,Pcbnew,(5.1.12)-1*
G04 #@! TF.CreationDate,2021-12-10T02:29:56-05:00*
G04 #@! TF.ProjectId,1802-Mini-Super-Elf-Bus,31383032-2d4d-4696-9e69-2d5375706572,rev?*
G04 #@! TF.SameCoordinates,Original*
G04 #@! TF.FileFunction,Legend,Bot*
G04 #@! TF.FilePolarity,Positive*
%FSLAX46Y46*%
G04 Gerber Fmt 4.6, Leading zero omitted, Abs format (unit mm)*
G04 Created by KiCad (PCBNEW (5.1.12)-1) date 2021-12-10 02:29:56*
%MOMM*%
%LPD*%
G01*
G04 APERTURE LIST*
%ADD10C,0.150000*%
%ADD11C,0.200000*%
%ADD12C,0.250000*%
G04 APERTURE END LIST*
D10*
X175728333Y-56227023D02*
X175728333Y-55750833D01*
X175442619Y-56322261D02*
X176442619Y-55988928D01*
X175442619Y-55655595D01*
X175442619Y-54798452D02*
X175442619Y-55369880D01*
X175442619Y-55084166D02*
X176442619Y-55084166D01*
X176299761Y-55179404D01*
X176204523Y-55274642D01*
X176156904Y-55369880D01*
X153535000Y-55655595D02*
X153582619Y-55750833D01*
X153582619Y-55893690D01*
X153535000Y-56036547D01*
X153439761Y-56131785D01*
X153344523Y-56179404D01*
X153154047Y-56227023D01*
X153011190Y-56227023D01*
X152820714Y-56179404D01*
X152725476Y-56131785D01*
X152630238Y-56036547D01*
X152582619Y-55893690D01*
X152582619Y-55798452D01*
X152630238Y-55655595D01*
X152677857Y-55607976D01*
X153011190Y-55607976D01*
X153011190Y-55798452D01*
X123594523Y-64539761D02*
X123451666Y-64587380D01*
X123213571Y-64587380D01*
X123118333Y-64539761D01*
X123070714Y-64492142D01*
X123023095Y-64396904D01*
X123023095Y-64301666D01*
X123070714Y-64206428D01*
X123118333Y-64158809D01*
X123213571Y-64111190D01*
X123404047Y-64063571D01*
X123499285Y-64015952D01*
X123546904Y-63968333D01*
X123594523Y-63873095D01*
X123594523Y-63777857D01*
X123546904Y-63682619D01*
X123499285Y-63635000D01*
X123404047Y-63587380D01*
X123165952Y-63587380D01*
X123023095Y-63635000D01*
X122594523Y-64063571D02*
X122261190Y-64063571D01*
X122118333Y-64587380D02*
X122594523Y-64587380D01*
X122594523Y-63587380D01*
X122118333Y-63587380D01*
X121118333Y-64587380D02*
X121451666Y-64111190D01*
X121689761Y-64587380D02*
X121689761Y-63587380D01*
X121308809Y-63587380D01*
X121213571Y-63635000D01*
X121165952Y-63682619D01*
X121118333Y-63777857D01*
X121118333Y-63920714D01*
X121165952Y-64015952D01*
X121213571Y-64063571D01*
X121308809Y-64111190D01*
X121689761Y-64111190D01*
X120689761Y-64587380D02*
X120689761Y-63587380D01*
X120261190Y-64301666D02*
X119785000Y-64301666D01*
X120356428Y-64587380D02*
X120023095Y-63587380D01*
X119689761Y-64587380D01*
X118880238Y-64587380D02*
X119356428Y-64587380D01*
X119356428Y-63587380D01*
D11*
X121285000Y-96520000D02*
X123825000Y-96520000D01*
X121285000Y-93980000D02*
X123825000Y-93980000D01*
X121285000Y-91440000D02*
X123825000Y-91440000D01*
X121285000Y-88900000D02*
X121285000Y-99060000D01*
X121285000Y-99060000D02*
X105410000Y-99060000D01*
X121285000Y-88900000D02*
X105410000Y-88900000D01*
X105410000Y-88900000D02*
X105410000Y-99060000D01*
D10*
X127182619Y-55655595D02*
X127182619Y-56227023D01*
X127182619Y-55941309D02*
X128182619Y-55941309D01*
X128039761Y-56036547D01*
X127944523Y-56131785D01*
X127896904Y-56227023D01*
X128182619Y-55036547D02*
X128182619Y-54941309D01*
X128135000Y-54846071D01*
X128087380Y-54798452D01*
X127992142Y-54750833D01*
X127801666Y-54703214D01*
X127563571Y-54703214D01*
X127373095Y-54750833D01*
X127277857Y-54798452D01*
X127230238Y-54846071D01*
X127182619Y-54941309D01*
X127182619Y-55036547D01*
X127230238Y-55131785D01*
X127277857Y-55179404D01*
X127373095Y-55227023D01*
X127563571Y-55274642D01*
X127801666Y-55274642D01*
X127992142Y-55227023D01*
X128087380Y-55179404D01*
X128135000Y-55131785D01*
X128182619Y-55036547D01*
X128182619Y-54417500D02*
X127182619Y-54084166D01*
X128182619Y-53750833D01*
X127182619Y-52893690D02*
X127182619Y-53465119D01*
X127182619Y-53179404D02*
X128182619Y-53179404D01*
X128039761Y-53274642D01*
X127944523Y-53369880D01*
X127896904Y-53465119D01*
X130246428Y-56179404D02*
X130246428Y-55846071D01*
X129722619Y-55703214D02*
X129722619Y-56179404D01*
X130722619Y-56179404D01*
X130722619Y-55703214D01*
X130246428Y-54941309D02*
X130246428Y-55274642D01*
X129722619Y-55274642D02*
X130722619Y-55274642D01*
X130722619Y-54798452D01*
X130722619Y-54512738D02*
X130722619Y-53893690D01*
X130341666Y-54227023D01*
X130341666Y-54084166D01*
X130294047Y-53988928D01*
X130246428Y-53941309D01*
X130151190Y-53893690D01*
X129913095Y-53893690D01*
X129817857Y-53941309D01*
X129770238Y-53988928D01*
X129722619Y-54084166D01*
X129722619Y-54369880D01*
X129770238Y-54465119D01*
X129817857Y-54512738D01*
X134802619Y-56179404D02*
X135802619Y-56179404D01*
X134802619Y-55607976D01*
X135802619Y-55607976D01*
X135707380Y-55179404D02*
X135755000Y-55131785D01*
X135802619Y-55036547D01*
X135802619Y-54798452D01*
X135755000Y-54703214D01*
X135707380Y-54655595D01*
X135612142Y-54607976D01*
X135516904Y-54607976D01*
X135374047Y-54655595D01*
X134802619Y-55227023D01*
X134802619Y-54607976D01*
X132262619Y-56179404D02*
X133262619Y-56179404D01*
X132262619Y-55607976D01*
X133262619Y-55607976D01*
X133262619Y-54941309D02*
X133262619Y-54846071D01*
X133215000Y-54750833D01*
X133167380Y-54703214D01*
X133072142Y-54655595D01*
X132881666Y-54607976D01*
X132643571Y-54607976D01*
X132453095Y-54655595D01*
X132357857Y-54703214D01*
X132310238Y-54750833D01*
X132262619Y-54846071D01*
X132262619Y-54941309D01*
X132310238Y-55036547D01*
X132357857Y-55084166D01*
X132453095Y-55131785D01*
X132643571Y-55179404D01*
X132881666Y-55179404D01*
X133072142Y-55131785D01*
X133167380Y-55084166D01*
X133215000Y-55036547D01*
X133262619Y-54941309D01*
X125595000Y-55655595D02*
X125642619Y-55750833D01*
X125642619Y-55893690D01*
X125595000Y-56036547D01*
X125499761Y-56131785D01*
X125404523Y-56179404D01*
X125214047Y-56227023D01*
X125071190Y-56227023D01*
X124880714Y-56179404D01*
X124785476Y-56131785D01*
X124690238Y-56036547D01*
X124642619Y-55893690D01*
X124642619Y-55798452D01*
X124690238Y-55655595D01*
X124737857Y-55607976D01*
X125071190Y-55607976D01*
X125071190Y-55798452D01*
X124642619Y-55179404D02*
X125642619Y-55179404D01*
X124642619Y-54607976D01*
X125642619Y-54607976D01*
X124642619Y-54131785D02*
X125642619Y-54131785D01*
X125642619Y-53893690D01*
X125595000Y-53750833D01*
X125499761Y-53655595D01*
X125404523Y-53607976D01*
X125214047Y-53560357D01*
X125071190Y-53560357D01*
X124880714Y-53607976D01*
X124785476Y-53655595D01*
X124690238Y-53750833D01*
X124642619Y-53893690D01*
X124642619Y-54131785D01*
X139882619Y-56179404D02*
X140882619Y-56179404D01*
X140168333Y-55846071D01*
X140882619Y-55512738D01*
X139882619Y-55512738D01*
X139882619Y-54465119D02*
X140358809Y-54798452D01*
X139882619Y-55036547D02*
X140882619Y-55036547D01*
X140882619Y-54655595D01*
X140835000Y-54560357D01*
X140787380Y-54512738D01*
X140692142Y-54465119D01*
X140549285Y-54465119D01*
X140454047Y-54512738D01*
X140406428Y-54560357D01*
X140358809Y-54655595D01*
X140358809Y-55036547D01*
X139882619Y-54036547D02*
X140882619Y-54036547D01*
X140882619Y-53798452D01*
X140835000Y-53655595D01*
X140739761Y-53560357D01*
X140644523Y-53512738D01*
X140454047Y-53465119D01*
X140311190Y-53465119D01*
X140120714Y-53512738D01*
X140025476Y-53560357D01*
X139930238Y-53655595D01*
X139882619Y-53798452D01*
X139882619Y-54036547D01*
X137390238Y-56227023D02*
X137342619Y-56084166D01*
X137342619Y-55846071D01*
X137390238Y-55750833D01*
X137437857Y-55703214D01*
X137533095Y-55655595D01*
X137628333Y-55655595D01*
X137723571Y-55703214D01*
X137771190Y-55750833D01*
X137818809Y-55846071D01*
X137866428Y-56036547D01*
X137914047Y-56131785D01*
X137961666Y-56179404D01*
X138056904Y-56227023D01*
X138152142Y-56227023D01*
X138247380Y-56179404D01*
X138295000Y-56131785D01*
X138342619Y-56036547D01*
X138342619Y-55798452D01*
X138295000Y-55655595D01*
X137437857Y-54655595D02*
X137390238Y-54703214D01*
X137342619Y-54846071D01*
X137342619Y-54941309D01*
X137390238Y-55084166D01*
X137485476Y-55179404D01*
X137580714Y-55227023D01*
X137771190Y-55274642D01*
X137914047Y-55274642D01*
X138104523Y-55227023D01*
X138199761Y-55179404D01*
X138295000Y-55084166D01*
X138342619Y-54941309D01*
X138342619Y-54846071D01*
X138295000Y-54703214D01*
X138247380Y-54655595D01*
X137342619Y-53703214D02*
X137342619Y-54274642D01*
X137342619Y-53988928D02*
X138342619Y-53988928D01*
X138199761Y-54084166D01*
X138104523Y-54179404D01*
X138056904Y-54274642D01*
X148502619Y-56322261D02*
X148502619Y-55750833D01*
X147502619Y-56036547D02*
X148502619Y-56036547D01*
X147502619Y-55417500D02*
X148502619Y-55417500D01*
X148502619Y-55036547D01*
X148455000Y-54941309D01*
X148407380Y-54893690D01*
X148312142Y-54846071D01*
X148169285Y-54846071D01*
X148074047Y-54893690D01*
X148026428Y-54941309D01*
X147978809Y-55036547D01*
X147978809Y-55417500D01*
X148026428Y-54084166D02*
X147978809Y-53941309D01*
X147931190Y-53893690D01*
X147835952Y-53846071D01*
X147693095Y-53846071D01*
X147597857Y-53893690D01*
X147550238Y-53941309D01*
X147502619Y-54036547D01*
X147502619Y-54417500D01*
X148502619Y-54417500D01*
X148502619Y-54084166D01*
X148455000Y-53988928D01*
X148407380Y-53941309D01*
X148312142Y-53893690D01*
X148216904Y-53893690D01*
X148121666Y-53941309D01*
X148074047Y-53988928D01*
X148026428Y-54084166D01*
X148026428Y-54417500D01*
X144962619Y-56179404D02*
X145962619Y-56179404D01*
X145248333Y-55846071D01*
X145962619Y-55512738D01*
X144962619Y-55512738D01*
X145962619Y-55131785D02*
X144962619Y-54893690D01*
X145676904Y-54703214D01*
X144962619Y-54512738D01*
X145962619Y-54274642D01*
X144962619Y-53322261D02*
X145438809Y-53655595D01*
X144962619Y-53893690D02*
X145962619Y-53893690D01*
X145962619Y-53512738D01*
X145915000Y-53417500D01*
X145867380Y-53369880D01*
X145772142Y-53322261D01*
X145629285Y-53322261D01*
X145534047Y-53369880D01*
X145486428Y-53417500D01*
X145438809Y-53512738D01*
X145438809Y-53893690D01*
X142422619Y-56179404D02*
X143422619Y-56179404D01*
X143422619Y-55941309D01*
X143375000Y-55798452D01*
X143279761Y-55703214D01*
X143184523Y-55655595D01*
X142994047Y-55607976D01*
X142851190Y-55607976D01*
X142660714Y-55655595D01*
X142565476Y-55703214D01*
X142470238Y-55798452D01*
X142422619Y-55941309D01*
X142422619Y-56179404D01*
X142422619Y-55179404D02*
X143422619Y-55179404D01*
X142708333Y-54846071D01*
X143422619Y-54512738D01*
X142422619Y-54512738D01*
X142708333Y-54084166D02*
X142708333Y-53607976D01*
X142422619Y-54179404D02*
X143422619Y-53846071D01*
X142422619Y-53512738D01*
X142422619Y-53179404D02*
X143422619Y-53179404D01*
X142422619Y-52703214D02*
X143422619Y-52703214D01*
X142422619Y-52131785D01*
X143422619Y-52131785D01*
X155217857Y-55607976D02*
X155170238Y-55655595D01*
X155122619Y-55798452D01*
X155122619Y-55893690D01*
X155170238Y-56036547D01*
X155265476Y-56131785D01*
X155360714Y-56179404D01*
X155551190Y-56227023D01*
X155694047Y-56227023D01*
X155884523Y-56179404D01*
X155979761Y-56131785D01*
X156075000Y-56036547D01*
X156122619Y-55893690D01*
X156122619Y-55798452D01*
X156075000Y-55655595D01*
X156027380Y-55607976D01*
X155122619Y-54703214D02*
X155122619Y-55179404D01*
X156122619Y-55179404D01*
X155646428Y-54369880D02*
X155646428Y-54036547D01*
X155122619Y-53893690D02*
X155122619Y-54369880D01*
X156122619Y-54369880D01*
X156122619Y-53893690D01*
X155408333Y-53512738D02*
X155408333Y-53036547D01*
X155122619Y-53607976D02*
X156122619Y-53274642D01*
X155122619Y-52941309D01*
X155122619Y-52036547D02*
X155598809Y-52369880D01*
X155122619Y-52607976D02*
X156122619Y-52607976D01*
X156122619Y-52227023D01*
X156075000Y-52131785D01*
X156027380Y-52084166D01*
X155932142Y-52036547D01*
X155789285Y-52036547D01*
X155694047Y-52084166D01*
X155646428Y-52131785D01*
X155598809Y-52227023D01*
X155598809Y-52607976D01*
X150042619Y-56179404D02*
X151042619Y-56179404D01*
X150328333Y-55846071D01*
X151042619Y-55512738D01*
X150042619Y-55512738D01*
X160488333Y-56227023D02*
X160488333Y-55750833D01*
X160202619Y-56322261D02*
X161202619Y-55988928D01*
X160202619Y-55655595D01*
X160202619Y-54798452D02*
X160202619Y-55369880D01*
X160202619Y-55084166D02*
X161202619Y-55084166D01*
X161059761Y-55179404D01*
X160964523Y-55274642D01*
X160916904Y-55369880D01*
X161202619Y-54465119D02*
X161202619Y-53846071D01*
X160821666Y-54179404D01*
X160821666Y-54036547D01*
X160774047Y-53941309D01*
X160726428Y-53893690D01*
X160631190Y-53846071D01*
X160393095Y-53846071D01*
X160297857Y-53893690D01*
X160250238Y-53941309D01*
X160202619Y-54036547D01*
X160202619Y-54322261D01*
X160250238Y-54417500D01*
X160297857Y-54465119D01*
X157948333Y-56227023D02*
X157948333Y-55750833D01*
X157662619Y-56322261D02*
X158662619Y-55988928D01*
X157662619Y-55655595D01*
X157662619Y-54798452D02*
X157662619Y-55369880D01*
X157662619Y-55084166D02*
X158662619Y-55084166D01*
X158519761Y-55179404D01*
X158424523Y-55274642D01*
X158376904Y-55369880D01*
X158662619Y-53893690D02*
X158662619Y-54369880D01*
X158186428Y-54417500D01*
X158234047Y-54369880D01*
X158281666Y-54274642D01*
X158281666Y-54036547D01*
X158234047Y-53941309D01*
X158186428Y-53893690D01*
X158091190Y-53846071D01*
X157853095Y-53846071D01*
X157757857Y-53893690D01*
X157710238Y-53941309D01*
X157662619Y-54036547D01*
X157662619Y-54274642D01*
X157710238Y-54369880D01*
X157757857Y-54417500D01*
X163028333Y-56227023D02*
X163028333Y-55750833D01*
X162742619Y-56322261D02*
X163742619Y-55988928D01*
X162742619Y-55655595D01*
X162742619Y-54798452D02*
X162742619Y-55369880D01*
X162742619Y-55084166D02*
X163742619Y-55084166D01*
X163599761Y-55179404D01*
X163504523Y-55274642D01*
X163456904Y-55369880D01*
X162742619Y-53846071D02*
X162742619Y-54417500D01*
X162742619Y-54131785D02*
X163742619Y-54131785D01*
X163599761Y-54227023D01*
X163504523Y-54322261D01*
X163456904Y-54417500D01*
X165568333Y-56227023D02*
X165568333Y-55750833D01*
X165282619Y-56322261D02*
X166282619Y-55988928D01*
X165282619Y-55655595D01*
X165282619Y-55274642D02*
X165282619Y-55084166D01*
X165330238Y-54988928D01*
X165377857Y-54941309D01*
X165520714Y-54846071D01*
X165711190Y-54798452D01*
X166092142Y-54798452D01*
X166187380Y-54846071D01*
X166235000Y-54893690D01*
X166282619Y-54988928D01*
X166282619Y-55179404D01*
X166235000Y-55274642D01*
X166187380Y-55322261D01*
X166092142Y-55369880D01*
X165854047Y-55369880D01*
X165758809Y-55322261D01*
X165711190Y-55274642D01*
X165663571Y-55179404D01*
X165663571Y-54988928D01*
X165711190Y-54893690D01*
X165758809Y-54846071D01*
X165854047Y-54798452D01*
X173188333Y-56227023D02*
X173188333Y-55750833D01*
X172902619Y-56322261D02*
X173902619Y-55988928D01*
X172902619Y-55655595D01*
X173902619Y-55417500D02*
X173902619Y-54798452D01*
X173521666Y-55131785D01*
X173521666Y-54988928D01*
X173474047Y-54893690D01*
X173426428Y-54846071D01*
X173331190Y-54798452D01*
X173093095Y-54798452D01*
X172997857Y-54846071D01*
X172950238Y-54893690D01*
X172902619Y-54988928D01*
X172902619Y-55274642D01*
X172950238Y-55369880D01*
X172997857Y-55417500D01*
X170648333Y-56227023D02*
X170648333Y-55750833D01*
X170362619Y-56322261D02*
X171362619Y-55988928D01*
X170362619Y-55655595D01*
X171362619Y-54846071D02*
X171362619Y-55322261D01*
X170886428Y-55369880D01*
X170934047Y-55322261D01*
X170981666Y-55227023D01*
X170981666Y-54988928D01*
X170934047Y-54893690D01*
X170886428Y-54846071D01*
X170791190Y-54798452D01*
X170553095Y-54798452D01*
X170457857Y-54846071D01*
X170410238Y-54893690D01*
X170362619Y-54988928D01*
X170362619Y-55227023D01*
X170410238Y-55322261D01*
X170457857Y-55369880D01*
X168108333Y-56227023D02*
X168108333Y-55750833D01*
X167822619Y-56322261D02*
X168822619Y-55988928D01*
X167822619Y-55655595D01*
X168822619Y-55417500D02*
X168822619Y-54750833D01*
X167822619Y-55179404D01*
X177982619Y-56179404D02*
X178982619Y-56179404D01*
X178982619Y-55941309D01*
X178935000Y-55798452D01*
X178839761Y-55703214D01*
X178744523Y-55655595D01*
X178554047Y-55607976D01*
X178411190Y-55607976D01*
X178220714Y-55655595D01*
X178125476Y-55703214D01*
X178030238Y-55798452D01*
X177982619Y-55941309D01*
X177982619Y-56179404D01*
X178982619Y-55274642D02*
X178982619Y-54607976D01*
X177982619Y-55036547D01*
X180522619Y-56179404D02*
X181522619Y-56179404D01*
X181522619Y-55941309D01*
X181475000Y-55798452D01*
X181379761Y-55703214D01*
X181284523Y-55655595D01*
X181094047Y-55607976D01*
X180951190Y-55607976D01*
X180760714Y-55655595D01*
X180665476Y-55703214D01*
X180570238Y-55798452D01*
X180522619Y-55941309D01*
X180522619Y-56179404D01*
X181522619Y-54703214D02*
X181522619Y-55179404D01*
X181046428Y-55227023D01*
X181094047Y-55179404D01*
X181141666Y-55084166D01*
X181141666Y-54846071D01*
X181094047Y-54750833D01*
X181046428Y-54703214D01*
X180951190Y-54655595D01*
X180713095Y-54655595D01*
X180617857Y-54703214D01*
X180570238Y-54750833D01*
X180522619Y-54846071D01*
X180522619Y-55084166D01*
X180570238Y-55179404D01*
X180617857Y-55227023D01*
X183062619Y-56179404D02*
X184062619Y-56179404D01*
X184062619Y-55941309D01*
X184015000Y-55798452D01*
X183919761Y-55703214D01*
X183824523Y-55655595D01*
X183634047Y-55607976D01*
X183491190Y-55607976D01*
X183300714Y-55655595D01*
X183205476Y-55703214D01*
X183110238Y-55798452D01*
X183062619Y-55941309D01*
X183062619Y-56179404D01*
X184062619Y-55274642D02*
X184062619Y-54655595D01*
X183681666Y-54988928D01*
X183681666Y-54846071D01*
X183634047Y-54750833D01*
X183586428Y-54703214D01*
X183491190Y-54655595D01*
X183253095Y-54655595D01*
X183157857Y-54703214D01*
X183110238Y-54750833D01*
X183062619Y-54846071D01*
X183062619Y-55131785D01*
X183110238Y-55227023D01*
X183157857Y-55274642D01*
X185602619Y-56179404D02*
X186602619Y-56179404D01*
X186602619Y-55941309D01*
X186555000Y-55798452D01*
X186459761Y-55703214D01*
X186364523Y-55655595D01*
X186174047Y-55607976D01*
X186031190Y-55607976D01*
X185840714Y-55655595D01*
X185745476Y-55703214D01*
X185650238Y-55798452D01*
X185602619Y-55941309D01*
X185602619Y-56179404D01*
X185602619Y-54655595D02*
X185602619Y-55227023D01*
X185602619Y-54941309D02*
X186602619Y-54941309D01*
X186459761Y-55036547D01*
X186364523Y-55131785D01*
X186316904Y-55227023D01*
X164027380Y-48982261D02*
X163884523Y-49029880D01*
X163646428Y-49029880D01*
X163551190Y-48982261D01*
X163503571Y-48934642D01*
X163455952Y-48839404D01*
X163455952Y-48744166D01*
X163503571Y-48648928D01*
X163551190Y-48601309D01*
X163646428Y-48553690D01*
X163836904Y-48506071D01*
X163932142Y-48458452D01*
X163979761Y-48410833D01*
X164027380Y-48315595D01*
X164027380Y-48220357D01*
X163979761Y-48125119D01*
X163932142Y-48077500D01*
X163836904Y-48029880D01*
X163598809Y-48029880D01*
X163455952Y-48077500D01*
X163027380Y-48029880D02*
X163027380Y-48839404D01*
X162979761Y-48934642D01*
X162932142Y-48982261D01*
X162836904Y-49029880D01*
X162646428Y-49029880D01*
X162551190Y-48982261D01*
X162503571Y-48934642D01*
X162455952Y-48839404D01*
X162455952Y-48029880D01*
X161979761Y-49029880D02*
X161979761Y-48029880D01*
X161598809Y-48029880D01*
X161503571Y-48077500D01*
X161455952Y-48125119D01*
X161408333Y-48220357D01*
X161408333Y-48363214D01*
X161455952Y-48458452D01*
X161503571Y-48506071D01*
X161598809Y-48553690D01*
X161979761Y-48553690D01*
X160979761Y-48506071D02*
X160646428Y-48506071D01*
X160503571Y-49029880D02*
X160979761Y-49029880D01*
X160979761Y-48029880D01*
X160503571Y-48029880D01*
X159503571Y-49029880D02*
X159836904Y-48553690D01*
X160075000Y-49029880D02*
X160075000Y-48029880D01*
X159694047Y-48029880D01*
X159598809Y-48077500D01*
X159551190Y-48125119D01*
X159503571Y-48220357D01*
X159503571Y-48363214D01*
X159551190Y-48458452D01*
X159598809Y-48506071D01*
X159694047Y-48553690D01*
X160075000Y-48553690D01*
X158313095Y-48506071D02*
X157979761Y-48506071D01*
X157836904Y-49029880D02*
X158313095Y-49029880D01*
X158313095Y-48029880D01*
X157836904Y-48029880D01*
X156932142Y-49029880D02*
X157408333Y-49029880D01*
X157408333Y-48029880D01*
X156265476Y-48506071D02*
X156598809Y-48506071D01*
X156598809Y-49029880D02*
X156598809Y-48029880D01*
X156122619Y-48029880D01*
X154979761Y-48506071D02*
X154646428Y-48506071D01*
X154503571Y-49029880D02*
X154979761Y-49029880D01*
X154979761Y-48029880D01*
X154503571Y-48029880D01*
X154170238Y-48029880D02*
X153503571Y-49029880D01*
X153503571Y-48029880D02*
X154170238Y-49029880D01*
X153122619Y-49029880D02*
X153122619Y-48029880D01*
X152741666Y-48029880D01*
X152646428Y-48077500D01*
X152598809Y-48125119D01*
X152551190Y-48220357D01*
X152551190Y-48363214D01*
X152598809Y-48458452D01*
X152646428Y-48506071D01*
X152741666Y-48553690D01*
X153122619Y-48553690D01*
X152170238Y-48744166D02*
X151694047Y-48744166D01*
X152265476Y-49029880D02*
X151932142Y-48029880D01*
X151598809Y-49029880D01*
X151265476Y-49029880D02*
X151265476Y-48029880D01*
X150694047Y-49029880D01*
X150694047Y-48029880D01*
X150265476Y-48982261D02*
X150122619Y-49029880D01*
X149884523Y-49029880D01*
X149789285Y-48982261D01*
X149741666Y-48934642D01*
X149694047Y-48839404D01*
X149694047Y-48744166D01*
X149741666Y-48648928D01*
X149789285Y-48601309D01*
X149884523Y-48553690D01*
X150075000Y-48506071D01*
X150170238Y-48458452D01*
X150217857Y-48410833D01*
X150265476Y-48315595D01*
X150265476Y-48220357D01*
X150217857Y-48125119D01*
X150170238Y-48077500D01*
X150075000Y-48029880D01*
X149836904Y-48029880D01*
X149694047Y-48077500D01*
X149265476Y-49029880D02*
X149265476Y-48029880D01*
X148598809Y-48029880D02*
X148408333Y-48029880D01*
X148313095Y-48077500D01*
X148217857Y-48172738D01*
X148170238Y-48363214D01*
X148170238Y-48696547D01*
X148217857Y-48887023D01*
X148313095Y-48982261D01*
X148408333Y-49029880D01*
X148598809Y-49029880D01*
X148694047Y-48982261D01*
X148789285Y-48887023D01*
X148836904Y-48696547D01*
X148836904Y-48363214D01*
X148789285Y-48172738D01*
X148694047Y-48077500D01*
X148598809Y-48029880D01*
X147741666Y-49029880D02*
X147741666Y-48029880D01*
X147170238Y-49029880D01*
X147170238Y-48029880D01*
D11*
X159385000Y-90805000D02*
X159385000Y-93345000D01*
X159385000Y-113665000D02*
X159385000Y-116205000D01*
D10*
X119887619Y-94432380D02*
X120363809Y-94432380D01*
X120363809Y-93432380D01*
X119554285Y-94432380D02*
X119554285Y-93432380D01*
X119220952Y-94146666D01*
X118887619Y-93432380D01*
X118887619Y-94432380D01*
X118459047Y-93527619D02*
X118411428Y-93480000D01*
X118316190Y-93432380D01*
X118078095Y-93432380D01*
X117982857Y-93480000D01*
X117935238Y-93527619D01*
X117887619Y-93622857D01*
X117887619Y-93718095D01*
X117935238Y-93860952D01*
X118506666Y-94432380D01*
X117887619Y-94432380D01*
X117411428Y-94432380D02*
X117220952Y-94432380D01*
X117125714Y-94384761D01*
X117078095Y-94337142D01*
X116982857Y-94194285D01*
X116935238Y-94003809D01*
X116935238Y-93622857D01*
X116982857Y-93527619D01*
X117030476Y-93480000D01*
X117125714Y-93432380D01*
X117316190Y-93432380D01*
X117411428Y-93480000D01*
X117459047Y-93527619D01*
X117506666Y-93622857D01*
X117506666Y-93860952D01*
X117459047Y-93956190D01*
X117411428Y-94003809D01*
X117316190Y-94051428D01*
X117125714Y-94051428D01*
X117030476Y-94003809D01*
X116982857Y-93956190D01*
X116935238Y-93860952D01*
X116078095Y-93765714D02*
X116078095Y-94432380D01*
X116316190Y-93384761D02*
X116554285Y-94099047D01*
X115935238Y-94099047D01*
X115363809Y-93432380D02*
X115268571Y-93432380D01*
X115173333Y-93480000D01*
X115125714Y-93527619D01*
X115078095Y-93622857D01*
X115030476Y-93813333D01*
X115030476Y-94051428D01*
X115078095Y-94241904D01*
X115125714Y-94337142D01*
X115173333Y-94384761D01*
X115268571Y-94432380D01*
X115363809Y-94432380D01*
X115459047Y-94384761D01*
X115506666Y-94337142D01*
X115554285Y-94241904D01*
X115601904Y-94051428D01*
X115601904Y-93813333D01*
X115554285Y-93622857D01*
X115506666Y-93527619D01*
X115459047Y-93480000D01*
X115363809Y-93432380D01*
X114030476Y-94337142D02*
X114078095Y-94384761D01*
X114220952Y-94432380D01*
X114316190Y-94432380D01*
X114459047Y-94384761D01*
X114554285Y-94289523D01*
X114601904Y-94194285D01*
X114649523Y-94003809D01*
X114649523Y-93860952D01*
X114601904Y-93670476D01*
X114554285Y-93575238D01*
X114459047Y-93480000D01*
X114316190Y-93432380D01*
X114220952Y-93432380D01*
X114078095Y-93480000D01*
X114030476Y-93527619D01*
X113744761Y-93432380D02*
X113173333Y-93432380D01*
X113459047Y-94432380D02*
X113459047Y-93432380D01*
X117774404Y-76287380D02*
X117774404Y-77096904D01*
X117726785Y-77192142D01*
X117679166Y-77239761D01*
X117583928Y-77287380D01*
X117393452Y-77287380D01*
X117298214Y-77239761D01*
X117250595Y-77192142D01*
X117202976Y-77096904D01*
X117202976Y-76287380D01*
X116774404Y-77239761D02*
X116631547Y-77287380D01*
X116393452Y-77287380D01*
X116298214Y-77239761D01*
X116250595Y-77192142D01*
X116202976Y-77096904D01*
X116202976Y-77001666D01*
X116250595Y-76906428D01*
X116298214Y-76858809D01*
X116393452Y-76811190D01*
X116583928Y-76763571D01*
X116679166Y-76715952D01*
X116726785Y-76668333D01*
X116774404Y-76573095D01*
X116774404Y-76477857D01*
X116726785Y-76382619D01*
X116679166Y-76335000D01*
X116583928Y-76287380D01*
X116345833Y-76287380D01*
X116202976Y-76335000D01*
X115441071Y-76763571D02*
X115298214Y-76811190D01*
X115250595Y-76858809D01*
X115202976Y-76954047D01*
X115202976Y-77096904D01*
X115250595Y-77192142D01*
X115298214Y-77239761D01*
X115393452Y-77287380D01*
X115774404Y-77287380D01*
X115774404Y-76287380D01*
X115441071Y-76287380D01*
X115345833Y-76335000D01*
X115298214Y-76382619D01*
X115250595Y-76477857D01*
X115250595Y-76573095D01*
X115298214Y-76668333D01*
X115345833Y-76715952D01*
X115441071Y-76763571D01*
X115774404Y-76763571D01*
X117250595Y-72207380D02*
X117822023Y-72207380D01*
X117536309Y-72207380D02*
X117536309Y-71207380D01*
X117631547Y-71350238D01*
X117726785Y-71445476D01*
X117822023Y-71493095D01*
X116631547Y-71207380D02*
X116536309Y-71207380D01*
X116441071Y-71255000D01*
X116393452Y-71302619D01*
X116345833Y-71397857D01*
X116298214Y-71588333D01*
X116298214Y-71826428D01*
X116345833Y-72016904D01*
X116393452Y-72112142D01*
X116441071Y-72159761D01*
X116536309Y-72207380D01*
X116631547Y-72207380D01*
X116726785Y-72159761D01*
X116774404Y-72112142D01*
X116822023Y-72016904D01*
X116869642Y-71826428D01*
X116869642Y-71588333D01*
X116822023Y-71397857D01*
X116774404Y-71302619D01*
X116726785Y-71255000D01*
X116631547Y-71207380D01*
X116012500Y-71207380D02*
X115679166Y-72207380D01*
X115345833Y-71207380D01*
X114488690Y-72207380D02*
X115060119Y-72207380D01*
X114774404Y-72207380D02*
X114774404Y-71207380D01*
X114869642Y-71350238D01*
X114964880Y-71445476D01*
X115060119Y-71493095D01*
X130907023Y-77239761D02*
X130764166Y-77287380D01*
X130526071Y-77287380D01*
X130430833Y-77239761D01*
X130383214Y-77192142D01*
X130335595Y-77096904D01*
X130335595Y-77001666D01*
X130383214Y-76906428D01*
X130430833Y-76858809D01*
X130526071Y-76811190D01*
X130716547Y-76763571D01*
X130811785Y-76715952D01*
X130859404Y-76668333D01*
X130907023Y-76573095D01*
X130907023Y-76477857D01*
X130859404Y-76382619D01*
X130811785Y-76335000D01*
X130716547Y-76287380D01*
X130478452Y-76287380D01*
X130335595Y-76335000D01*
X129907023Y-77192142D02*
X129859404Y-77239761D01*
X129907023Y-77287380D01*
X129954642Y-77239761D01*
X129907023Y-77192142D01*
X129907023Y-77287380D01*
X129430833Y-76763571D02*
X129097500Y-76763571D01*
X128954642Y-77287380D02*
X129430833Y-77287380D01*
X129430833Y-76287380D01*
X128954642Y-76287380D01*
X128049880Y-77287380D02*
X128526071Y-77287380D01*
X128526071Y-76287380D01*
X127383214Y-76763571D02*
X127716547Y-76763571D01*
X127716547Y-77287380D02*
X127716547Y-76287380D01*
X127240357Y-76287380D01*
X130049880Y-72207380D02*
X130621309Y-72207380D01*
X130335595Y-72207380D02*
X130335595Y-71207380D01*
X130430833Y-71350238D01*
X130526071Y-71445476D01*
X130621309Y-71493095D01*
X129430833Y-71207380D02*
X129335595Y-71207380D01*
X129240357Y-71255000D01*
X129192738Y-71302619D01*
X129145119Y-71397857D01*
X129097500Y-71588333D01*
X129097500Y-71826428D01*
X129145119Y-72016904D01*
X129192738Y-72112142D01*
X129240357Y-72159761D01*
X129335595Y-72207380D01*
X129430833Y-72207380D01*
X129526071Y-72159761D01*
X129573690Y-72112142D01*
X129621309Y-72016904D01*
X129668928Y-71826428D01*
X129668928Y-71588333D01*
X129621309Y-71397857D01*
X129573690Y-71302619D01*
X129526071Y-71255000D01*
X129430833Y-71207380D01*
X128811785Y-71207380D02*
X128478452Y-72207380D01*
X128145119Y-71207380D01*
X127859404Y-71302619D02*
X127811785Y-71255000D01*
X127716547Y-71207380D01*
X127478452Y-71207380D01*
X127383214Y-71255000D01*
X127335595Y-71302619D01*
X127287976Y-71397857D01*
X127287976Y-71493095D01*
X127335595Y-71635952D01*
X127907023Y-72207380D01*
X127287976Y-72207380D01*
X123594523Y-69667380D02*
X123594523Y-68667380D01*
X123213571Y-68667380D01*
X123118333Y-68715000D01*
X123070714Y-68762619D01*
X123023095Y-68857857D01*
X123023095Y-69000714D01*
X123070714Y-69095952D01*
X123118333Y-69143571D01*
X123213571Y-69191190D01*
X123594523Y-69191190D01*
X122404047Y-68667380D02*
X122213571Y-68667380D01*
X122118333Y-68715000D01*
X122023095Y-68810238D01*
X121975476Y-69000714D01*
X121975476Y-69334047D01*
X122023095Y-69524523D01*
X122118333Y-69619761D01*
X122213571Y-69667380D01*
X122404047Y-69667380D01*
X122499285Y-69619761D01*
X122594523Y-69524523D01*
X122642142Y-69334047D01*
X122642142Y-69000714D01*
X122594523Y-68810238D01*
X122499285Y-68715000D01*
X122404047Y-68667380D01*
X121642142Y-68667380D02*
X121404047Y-69667380D01*
X121213571Y-68953095D01*
X121023095Y-69667380D01*
X120785000Y-68667380D01*
X120404047Y-69143571D02*
X120070714Y-69143571D01*
X119927857Y-69667380D02*
X120404047Y-69667380D01*
X120404047Y-68667380D01*
X119927857Y-68667380D01*
X118927857Y-69667380D02*
X119261190Y-69191190D01*
X119499285Y-69667380D02*
X119499285Y-68667380D01*
X119118333Y-68667380D01*
X119023095Y-68715000D01*
X118975476Y-68762619D01*
X118927857Y-68857857D01*
X118927857Y-69000714D01*
X118975476Y-69095952D01*
X119023095Y-69143571D01*
X119118333Y-69191190D01*
X119499285Y-69191190D01*
X117917261Y-128357380D02*
X117345833Y-128357380D01*
X117631547Y-129357380D02*
X117631547Y-128357380D01*
X117107738Y-128357380D02*
X116441071Y-129357380D01*
X116441071Y-128357380D02*
X117107738Y-129357380D01*
X116060119Y-129357380D02*
X116060119Y-128357380D01*
X115822023Y-128357380D01*
X115679166Y-128405000D01*
X115583928Y-128500238D01*
X115536309Y-128595476D01*
X115488690Y-128785952D01*
X115488690Y-128928809D01*
X115536309Y-129119285D01*
X115583928Y-129214523D01*
X115679166Y-129309761D01*
X115822023Y-129357380D01*
X116060119Y-129357380D01*
X117202976Y-131897380D02*
X117536309Y-131421190D01*
X117774404Y-131897380D02*
X117774404Y-130897380D01*
X117393452Y-130897380D01*
X117298214Y-130945000D01*
X117250595Y-130992619D01*
X117202976Y-131087857D01*
X117202976Y-131230714D01*
X117250595Y-131325952D01*
X117298214Y-131373571D01*
X117393452Y-131421190D01*
X117774404Y-131421190D01*
X116869642Y-130897380D02*
X116202976Y-131897380D01*
X116202976Y-130897380D02*
X116869642Y-131897380D01*
X115822023Y-131897380D02*
X115822023Y-130897380D01*
X115583928Y-130897380D01*
X115441071Y-130945000D01*
X115345833Y-131040238D01*
X115298214Y-131135476D01*
X115250595Y-131325952D01*
X115250595Y-131468809D01*
X115298214Y-131659285D01*
X115345833Y-131754523D01*
X115441071Y-131849761D01*
X115583928Y-131897380D01*
X115822023Y-131897380D01*
X117917261Y-133437380D02*
X117583928Y-134437380D01*
X117250595Y-133437380D01*
X116345833Y-134342142D02*
X116393452Y-134389761D01*
X116536309Y-134437380D01*
X116631547Y-134437380D01*
X116774404Y-134389761D01*
X116869642Y-134294523D01*
X116917261Y-134199285D01*
X116964880Y-134008809D01*
X116964880Y-133865952D01*
X116917261Y-133675476D01*
X116869642Y-133580238D01*
X116774404Y-133485000D01*
X116631547Y-133437380D01*
X116536309Y-133437380D01*
X116393452Y-133485000D01*
X116345833Y-133532619D01*
X115345833Y-134342142D02*
X115393452Y-134389761D01*
X115536309Y-134437380D01*
X115631547Y-134437380D01*
X115774404Y-134389761D01*
X115869642Y-134294523D01*
X115917261Y-134199285D01*
X115964880Y-134008809D01*
X115964880Y-133865952D01*
X115917261Y-133675476D01*
X115869642Y-133580238D01*
X115774404Y-133485000D01*
X115631547Y-133437380D01*
X115536309Y-133437380D01*
X115393452Y-133485000D01*
X115345833Y-133532619D01*
X117774404Y-126293571D02*
X117441071Y-126293571D01*
X117298214Y-126817380D02*
X117774404Y-126817380D01*
X117774404Y-125817380D01*
X117298214Y-125817380D01*
X116536309Y-126293571D02*
X116869642Y-126293571D01*
X116869642Y-126817380D02*
X116869642Y-125817380D01*
X116393452Y-125817380D01*
X116107738Y-125817380D02*
X115488690Y-125817380D01*
X115822023Y-126198333D01*
X115679166Y-126198333D01*
X115583928Y-126245952D01*
X115536309Y-126293571D01*
X115488690Y-126388809D01*
X115488690Y-126626904D01*
X115536309Y-126722142D01*
X115583928Y-126769761D01*
X115679166Y-126817380D01*
X115964880Y-126817380D01*
X116060119Y-126769761D01*
X116107738Y-126722142D01*
X129573690Y-126293571D02*
X129240357Y-126293571D01*
X129097500Y-126817380D02*
X129573690Y-126817380D01*
X129573690Y-125817380D01*
X129097500Y-125817380D01*
X128335595Y-126293571D02*
X128668928Y-126293571D01*
X128668928Y-126817380D02*
X128668928Y-125817380D01*
X128192738Y-125817380D01*
X127859404Y-125912619D02*
X127811785Y-125865000D01*
X127716547Y-125817380D01*
X127478452Y-125817380D01*
X127383214Y-125865000D01*
X127335595Y-125912619D01*
X127287976Y-126007857D01*
X127287976Y-126103095D01*
X127335595Y-126245952D01*
X127907023Y-126817380D01*
X127287976Y-126817380D01*
X125269285Y-124277380D02*
X125602619Y-123801190D01*
X125840714Y-124277380D02*
X125840714Y-123277380D01*
X125459761Y-123277380D01*
X125364523Y-123325000D01*
X125316904Y-123372619D01*
X125269285Y-123467857D01*
X125269285Y-123610714D01*
X125316904Y-123705952D01*
X125364523Y-123753571D01*
X125459761Y-123801190D01*
X125840714Y-123801190D01*
X124935952Y-123277380D02*
X124269285Y-124277380D01*
X124269285Y-123277380D02*
X124935952Y-124277380D01*
X123126428Y-124277380D02*
X123126428Y-123277380D01*
X122650238Y-124277380D02*
X122650238Y-123277380D01*
X122078809Y-124277380D01*
X122078809Y-123277380D01*
X121602619Y-124277380D02*
X121602619Y-123277380D01*
X121221666Y-123277380D01*
X121126428Y-123325000D01*
X121078809Y-123372619D01*
X121031190Y-123467857D01*
X121031190Y-123610714D01*
X121078809Y-123705952D01*
X121126428Y-123753571D01*
X121221666Y-123801190D01*
X121602619Y-123801190D01*
X120602619Y-123277380D02*
X120602619Y-124086904D01*
X120555000Y-124182142D01*
X120507380Y-124229761D01*
X120412142Y-124277380D01*
X120221666Y-124277380D01*
X120126428Y-124229761D01*
X120078809Y-124182142D01*
X120031190Y-124086904D01*
X120031190Y-123277380D01*
X119697857Y-123277380D02*
X119126428Y-123277380D01*
X119412142Y-124277380D02*
X119412142Y-123277380D01*
X125269285Y-136977380D02*
X125602619Y-136501190D01*
X125840714Y-136977380D02*
X125840714Y-135977380D01*
X125459761Y-135977380D01*
X125364523Y-136025000D01*
X125316904Y-136072619D01*
X125269285Y-136167857D01*
X125269285Y-136310714D01*
X125316904Y-136405952D01*
X125364523Y-136453571D01*
X125459761Y-136501190D01*
X125840714Y-136501190D01*
X124935952Y-135977380D02*
X124269285Y-136977380D01*
X124269285Y-135977380D02*
X124935952Y-136977380D01*
X122793095Y-136453571D02*
X123126428Y-136453571D01*
X123126428Y-136977380D02*
X123126428Y-135977380D01*
X122650238Y-135977380D01*
X121793095Y-136977380D02*
X122269285Y-136977380D01*
X122269285Y-135977380D01*
X121269285Y-135977380D02*
X121078809Y-135977380D01*
X120983571Y-136025000D01*
X120888333Y-136120238D01*
X120840714Y-136310714D01*
X120840714Y-136644047D01*
X120888333Y-136834523D01*
X120983571Y-136929761D01*
X121078809Y-136977380D01*
X121269285Y-136977380D01*
X121364523Y-136929761D01*
X121459761Y-136834523D01*
X121507380Y-136644047D01*
X121507380Y-136310714D01*
X121459761Y-136120238D01*
X121364523Y-136025000D01*
X121269285Y-135977380D01*
X120459761Y-136691666D02*
X119983571Y-136691666D01*
X120555000Y-136977380D02*
X120221666Y-135977380D01*
X119888333Y-136977380D01*
X119697857Y-135977380D02*
X119126428Y-135977380D01*
X119412142Y-136977380D02*
X119412142Y-135977380D01*
D11*
X187960000Y-62230000D02*
X123190000Y-62230000D01*
X187960000Y-62230000D02*
X187960000Y-47307500D01*
X123190000Y-62230000D02*
X123190000Y-47307500D01*
X100965000Y-59690000D02*
X100965000Y-47307500D01*
X151765000Y-89535000D02*
X151765000Y-79375000D01*
X133985000Y-79375000D02*
X151765000Y-79375000D01*
X151765000Y-89535000D02*
X133985000Y-89535000D01*
X133985000Y-79375000D02*
X133985000Y-89535000D01*
X133985000Y-83185000D02*
G75*
G02*
X133985000Y-85725000I0J-1270000D01*
G01*
D10*
X144970238Y-83987142D02*
X145017857Y-84034761D01*
X145160714Y-84082380D01*
X145255952Y-84082380D01*
X145398809Y-84034761D01*
X145494047Y-83939523D01*
X145541666Y-83844285D01*
X145589285Y-83653809D01*
X145589285Y-83510952D01*
X145541666Y-83320476D01*
X145494047Y-83225238D01*
X145398809Y-83130000D01*
X145255952Y-83082380D01*
X145160714Y-83082380D01*
X145017857Y-83130000D01*
X144970238Y-83177619D01*
X144541666Y-84082380D02*
X144541666Y-83082380D01*
X144303571Y-83082380D01*
X144160714Y-83130000D01*
X144065476Y-83225238D01*
X144017857Y-83320476D01*
X143970238Y-83510952D01*
X143970238Y-83653809D01*
X144017857Y-83844285D01*
X144065476Y-83939523D01*
X144160714Y-84034761D01*
X144303571Y-84082380D01*
X144541666Y-84082380D01*
X143113095Y-83415714D02*
X143113095Y-84082380D01*
X143351190Y-83034761D02*
X143589285Y-83749047D01*
X142970238Y-83749047D01*
X142398809Y-83082380D02*
X142303571Y-83082380D01*
X142208333Y-83130000D01*
X142160714Y-83177619D01*
X142113095Y-83272857D01*
X142065476Y-83463333D01*
X142065476Y-83701428D01*
X142113095Y-83891904D01*
X142160714Y-83987142D01*
X142208333Y-84034761D01*
X142303571Y-84082380D01*
X142398809Y-84082380D01*
X142494047Y-84034761D01*
X142541666Y-83987142D01*
X142589285Y-83891904D01*
X142636904Y-83701428D01*
X142636904Y-83463333D01*
X142589285Y-83272857D01*
X142541666Y-83177619D01*
X142494047Y-83130000D01*
X142398809Y-83082380D01*
X141684523Y-83177619D02*
X141636904Y-83130000D01*
X141541666Y-83082380D01*
X141303571Y-83082380D01*
X141208333Y-83130000D01*
X141160714Y-83177619D01*
X141113095Y-83272857D01*
X141113095Y-83368095D01*
X141160714Y-83510952D01*
X141732142Y-84082380D01*
X141113095Y-84082380D01*
X140779761Y-83082380D02*
X140160714Y-83082380D01*
X140494047Y-83463333D01*
X140351190Y-83463333D01*
X140255952Y-83510952D01*
X140208333Y-83558571D01*
X140160714Y-83653809D01*
X140160714Y-83891904D01*
X140208333Y-83987142D01*
X140255952Y-84034761D01*
X140351190Y-84082380D01*
X140636904Y-84082380D01*
X140732142Y-84034761D01*
X140779761Y-83987142D01*
X147613095Y-84732380D02*
X147041666Y-84732380D01*
X147327380Y-85732380D02*
X147327380Y-84732380D01*
X146136904Y-85732380D02*
X146470238Y-85256190D01*
X146708333Y-85732380D02*
X146708333Y-84732380D01*
X146327380Y-84732380D01*
X146232142Y-84780000D01*
X146184523Y-84827619D01*
X146136904Y-84922857D01*
X146136904Y-85065714D01*
X146184523Y-85160952D01*
X146232142Y-85208571D01*
X146327380Y-85256190D01*
X146708333Y-85256190D01*
X145708333Y-85732380D02*
X145708333Y-84732380D01*
X145232142Y-85732380D02*
X145232142Y-84732380D01*
X144851190Y-84732380D01*
X144755952Y-84780000D01*
X144708333Y-84827619D01*
X144660714Y-84922857D01*
X144660714Y-85065714D01*
X144708333Y-85160952D01*
X144755952Y-85208571D01*
X144851190Y-85256190D01*
X145232142Y-85256190D01*
X143755952Y-85732380D02*
X144232142Y-85732380D01*
X144232142Y-84732380D01*
X143422619Y-85208571D02*
X143089285Y-85208571D01*
X142946428Y-85732380D02*
X143422619Y-85732380D01*
X143422619Y-84732380D01*
X142946428Y-84732380D01*
X141755952Y-85732380D02*
X141755952Y-84732380D01*
X141184523Y-85732380D01*
X141184523Y-84732380D01*
X140755952Y-85446666D02*
X140279761Y-85446666D01*
X140851190Y-85732380D02*
X140517857Y-84732380D01*
X140184523Y-85732380D01*
X139851190Y-85732380D02*
X139851190Y-84732380D01*
X139279761Y-85732380D01*
X139279761Y-84732380D01*
X138803571Y-85732380D02*
X138803571Y-84732380D01*
X138565476Y-84732380D01*
X138422619Y-84780000D01*
X138327380Y-84875238D01*
X138279761Y-84970476D01*
X138232142Y-85160952D01*
X138232142Y-85303809D01*
X138279761Y-85494285D01*
X138327380Y-85589523D01*
X138422619Y-85684761D01*
X138565476Y-85732380D01*
X138803571Y-85732380D01*
X194564880Y-115387380D02*
X195041071Y-115387380D01*
X195041071Y-114387380D01*
X194041071Y-114387380D02*
X193850595Y-114387380D01*
X193755357Y-114435000D01*
X193660119Y-114530238D01*
X193612500Y-114720714D01*
X193612500Y-115054047D01*
X193660119Y-115244523D01*
X193755357Y-115339761D01*
X193850595Y-115387380D01*
X194041071Y-115387380D01*
X194136309Y-115339761D01*
X194231547Y-115244523D01*
X194279166Y-115054047D01*
X194279166Y-114720714D01*
X194231547Y-114530238D01*
X194136309Y-114435000D01*
X194041071Y-114387380D01*
X193279166Y-114387380D02*
X193041071Y-115387380D01*
X192850595Y-114673095D01*
X192660119Y-115387380D01*
X192422023Y-114387380D01*
X191279166Y-115387380D02*
X191279166Y-114387380D01*
X190945833Y-115101666D01*
X190612500Y-114387380D01*
X190612500Y-115387380D01*
X190136309Y-114863571D02*
X189802976Y-114863571D01*
X189660119Y-115387380D02*
X190136309Y-115387380D01*
X190136309Y-114387380D01*
X189660119Y-114387380D01*
X189231547Y-115387380D02*
X189231547Y-114387380D01*
X188898214Y-115101666D01*
X188564880Y-114387380D01*
X188564880Y-115387380D01*
X186755357Y-115292142D02*
X186802976Y-115339761D01*
X186945833Y-115387380D01*
X187041071Y-115387380D01*
X187183928Y-115339761D01*
X187279166Y-115244523D01*
X187326785Y-115149285D01*
X187374404Y-114958809D01*
X187374404Y-114815952D01*
X187326785Y-114625476D01*
X187279166Y-114530238D01*
X187183928Y-114435000D01*
X187041071Y-114387380D01*
X186945833Y-114387380D01*
X186802976Y-114435000D01*
X186755357Y-114482619D01*
X186136309Y-114387380D02*
X185945833Y-114387380D01*
X185850595Y-114435000D01*
X185755357Y-114530238D01*
X185707738Y-114720714D01*
X185707738Y-115054047D01*
X185755357Y-115244523D01*
X185850595Y-115339761D01*
X185945833Y-115387380D01*
X186136309Y-115387380D01*
X186231547Y-115339761D01*
X186326785Y-115244523D01*
X186374404Y-115054047D01*
X186374404Y-114720714D01*
X186326785Y-114530238D01*
X186231547Y-114435000D01*
X186136309Y-114387380D01*
X185279166Y-115387380D02*
X185279166Y-114387380D01*
X184707738Y-115387380D01*
X184707738Y-114387380D01*
X183898214Y-114863571D02*
X184231547Y-114863571D01*
X184231547Y-115387380D02*
X184231547Y-114387380D01*
X183755357Y-114387380D01*
X144970238Y-99227142D02*
X145017857Y-99274761D01*
X145160714Y-99322380D01*
X145255952Y-99322380D01*
X145398809Y-99274761D01*
X145494047Y-99179523D01*
X145541666Y-99084285D01*
X145589285Y-98893809D01*
X145589285Y-98750952D01*
X145541666Y-98560476D01*
X145494047Y-98465238D01*
X145398809Y-98370000D01*
X145255952Y-98322380D01*
X145160714Y-98322380D01*
X145017857Y-98370000D01*
X144970238Y-98417619D01*
X144541666Y-99322380D02*
X144541666Y-98322380D01*
X144303571Y-98322380D01*
X144160714Y-98370000D01*
X144065476Y-98465238D01*
X144017857Y-98560476D01*
X143970238Y-98750952D01*
X143970238Y-98893809D01*
X144017857Y-99084285D01*
X144065476Y-99179523D01*
X144160714Y-99274761D01*
X144303571Y-99322380D01*
X144541666Y-99322380D01*
X143113095Y-98655714D02*
X143113095Y-99322380D01*
X143351190Y-98274761D02*
X143589285Y-98989047D01*
X142970238Y-98989047D01*
X142398809Y-98322380D02*
X142303571Y-98322380D01*
X142208333Y-98370000D01*
X142160714Y-98417619D01*
X142113095Y-98512857D01*
X142065476Y-98703333D01*
X142065476Y-98941428D01*
X142113095Y-99131904D01*
X142160714Y-99227142D01*
X142208333Y-99274761D01*
X142303571Y-99322380D01*
X142398809Y-99322380D01*
X142494047Y-99274761D01*
X142541666Y-99227142D01*
X142589285Y-99131904D01*
X142636904Y-98941428D01*
X142636904Y-98703333D01*
X142589285Y-98512857D01*
X142541666Y-98417619D01*
X142494047Y-98370000D01*
X142398809Y-98322380D01*
X141446428Y-98322380D02*
X141351190Y-98322380D01*
X141255952Y-98370000D01*
X141208333Y-98417619D01*
X141160714Y-98512857D01*
X141113095Y-98703333D01*
X141113095Y-98941428D01*
X141160714Y-99131904D01*
X141208333Y-99227142D01*
X141255952Y-99274761D01*
X141351190Y-99322380D01*
X141446428Y-99322380D01*
X141541666Y-99274761D01*
X141589285Y-99227142D01*
X141636904Y-99131904D01*
X141684523Y-98941428D01*
X141684523Y-98703333D01*
X141636904Y-98512857D01*
X141589285Y-98417619D01*
X141541666Y-98370000D01*
X141446428Y-98322380D01*
X140160714Y-99322380D02*
X140732142Y-99322380D01*
X140446428Y-99322380D02*
X140446428Y-98322380D01*
X140541666Y-98465238D01*
X140636904Y-98560476D01*
X140732142Y-98608095D01*
X145875000Y-101067619D02*
X145970238Y-101020000D01*
X146065476Y-100924761D01*
X146208333Y-100781904D01*
X146303571Y-100734285D01*
X146398809Y-100734285D01*
X146351190Y-100972380D02*
X146446428Y-100924761D01*
X146541666Y-100829523D01*
X146589285Y-100639047D01*
X146589285Y-100305714D01*
X146541666Y-100115238D01*
X146446428Y-100020000D01*
X146351190Y-99972380D01*
X146160714Y-99972380D01*
X146065476Y-100020000D01*
X145970238Y-100115238D01*
X145922619Y-100305714D01*
X145922619Y-100639047D01*
X145970238Y-100829523D01*
X146065476Y-100924761D01*
X146160714Y-100972380D01*
X146351190Y-100972380D01*
X145494047Y-99972380D02*
X145494047Y-100781904D01*
X145446428Y-100877142D01*
X145398809Y-100924761D01*
X145303571Y-100972380D01*
X145113095Y-100972380D01*
X145017857Y-100924761D01*
X144970238Y-100877142D01*
X144922619Y-100781904D01*
X144922619Y-99972380D01*
X144494047Y-100686666D02*
X144017857Y-100686666D01*
X144589285Y-100972380D02*
X144255952Y-99972380D01*
X143922619Y-100972380D01*
X143589285Y-100972380D02*
X143589285Y-99972380D01*
X143351190Y-99972380D01*
X143208333Y-100020000D01*
X143113095Y-100115238D01*
X143065476Y-100210476D01*
X143017857Y-100400952D01*
X143017857Y-100543809D01*
X143065476Y-100734285D01*
X143113095Y-100829523D01*
X143208333Y-100924761D01*
X143351190Y-100972380D01*
X143589285Y-100972380D01*
X141827380Y-100972380D02*
X141827380Y-99972380D01*
X141255952Y-100972380D01*
X141255952Y-99972380D01*
X140589285Y-99972380D02*
X140398809Y-99972380D01*
X140303571Y-100020000D01*
X140208333Y-100115238D01*
X140160714Y-100305714D01*
X140160714Y-100639047D01*
X140208333Y-100829523D01*
X140303571Y-100924761D01*
X140398809Y-100972380D01*
X140589285Y-100972380D01*
X140684523Y-100924761D01*
X140779761Y-100829523D01*
X140827380Y-100639047D01*
X140827380Y-100305714D01*
X140779761Y-100115238D01*
X140684523Y-100020000D01*
X140589285Y-99972380D01*
X139160714Y-100972380D02*
X139494047Y-100496190D01*
X139732142Y-100972380D02*
X139732142Y-99972380D01*
X139351190Y-99972380D01*
X139255952Y-100020000D01*
X139208333Y-100067619D01*
X139160714Y-100162857D01*
X139160714Y-100305714D01*
X139208333Y-100400952D01*
X139255952Y-100448571D01*
X139351190Y-100496190D01*
X139732142Y-100496190D01*
D11*
X133985000Y-98425000D02*
G75*
G02*
X133985000Y-100965000I0J-1270000D01*
G01*
X133985000Y-94615000D02*
X133985000Y-104775000D01*
X151765000Y-104775000D02*
X133985000Y-104775000D01*
X133985000Y-94615000D02*
X151765000Y-94615000D01*
X151765000Y-104775000D02*
X151765000Y-94615000D01*
X133985000Y-125095000D02*
X151765000Y-125095000D01*
X133985000Y-135255000D02*
X151765000Y-135255000D01*
X133985000Y-135255000D02*
X133985000Y-125095000D01*
X151765000Y-135255000D02*
X151765000Y-125095000D01*
X133985000Y-128905000D02*
G75*
G02*
X133985000Y-131445000I0J-1270000D01*
G01*
D10*
X144970238Y-129707142D02*
X145017857Y-129754761D01*
X145160714Y-129802380D01*
X145255952Y-129802380D01*
X145398809Y-129754761D01*
X145494047Y-129659523D01*
X145541666Y-129564285D01*
X145589285Y-129373809D01*
X145589285Y-129230952D01*
X145541666Y-129040476D01*
X145494047Y-128945238D01*
X145398809Y-128850000D01*
X145255952Y-128802380D01*
X145160714Y-128802380D01*
X145017857Y-128850000D01*
X144970238Y-128897619D01*
X144541666Y-129802380D02*
X144541666Y-128802380D01*
X144303571Y-128802380D01*
X144160714Y-128850000D01*
X144065476Y-128945238D01*
X144017857Y-129040476D01*
X143970238Y-129230952D01*
X143970238Y-129373809D01*
X144017857Y-129564285D01*
X144065476Y-129659523D01*
X144160714Y-129754761D01*
X144303571Y-129802380D01*
X144541666Y-129802380D01*
X143113095Y-129135714D02*
X143113095Y-129802380D01*
X143351190Y-128754761D02*
X143589285Y-129469047D01*
X142970238Y-129469047D01*
X142398809Y-128802380D02*
X142303571Y-128802380D01*
X142208333Y-128850000D01*
X142160714Y-128897619D01*
X142113095Y-128992857D01*
X142065476Y-129183333D01*
X142065476Y-129421428D01*
X142113095Y-129611904D01*
X142160714Y-129707142D01*
X142208333Y-129754761D01*
X142303571Y-129802380D01*
X142398809Y-129802380D01*
X142494047Y-129754761D01*
X142541666Y-129707142D01*
X142589285Y-129611904D01*
X142636904Y-129421428D01*
X142636904Y-129183333D01*
X142589285Y-128992857D01*
X142541666Y-128897619D01*
X142494047Y-128850000D01*
X142398809Y-128802380D01*
X141113095Y-129802380D02*
X141684523Y-129802380D01*
X141398809Y-129802380D02*
X141398809Y-128802380D01*
X141494047Y-128945238D01*
X141589285Y-129040476D01*
X141684523Y-129088095D01*
X140160714Y-129802380D02*
X140732142Y-129802380D01*
X140446428Y-129802380D02*
X140446428Y-128802380D01*
X140541666Y-128945238D01*
X140636904Y-129040476D01*
X140732142Y-129088095D01*
X146303571Y-131547619D02*
X146398809Y-131500000D01*
X146494047Y-131404761D01*
X146636904Y-131261904D01*
X146732142Y-131214285D01*
X146827380Y-131214285D01*
X146779761Y-131452380D02*
X146875000Y-131404761D01*
X146970238Y-131309523D01*
X147017857Y-131119047D01*
X147017857Y-130785714D01*
X146970238Y-130595238D01*
X146875000Y-130500000D01*
X146779761Y-130452380D01*
X146589285Y-130452380D01*
X146494047Y-130500000D01*
X146398809Y-130595238D01*
X146351190Y-130785714D01*
X146351190Y-131119047D01*
X146398809Y-131309523D01*
X146494047Y-131404761D01*
X146589285Y-131452380D01*
X146779761Y-131452380D01*
X145922619Y-130452380D02*
X145922619Y-131261904D01*
X145875000Y-131357142D01*
X145827380Y-131404761D01*
X145732142Y-131452380D01*
X145541666Y-131452380D01*
X145446428Y-131404761D01*
X145398809Y-131357142D01*
X145351190Y-131261904D01*
X145351190Y-130452380D01*
X144922619Y-131166666D02*
X144446428Y-131166666D01*
X145017857Y-131452380D02*
X144684523Y-130452380D01*
X144351190Y-131452380D01*
X144017857Y-131452380D02*
X144017857Y-130452380D01*
X143779761Y-130452380D01*
X143636904Y-130500000D01*
X143541666Y-130595238D01*
X143494047Y-130690476D01*
X143446428Y-130880952D01*
X143446428Y-131023809D01*
X143494047Y-131214285D01*
X143541666Y-131309523D01*
X143636904Y-131404761D01*
X143779761Y-131452380D01*
X144017857Y-131452380D01*
X142255952Y-131452380D02*
X142255952Y-130452380D01*
X141684523Y-131452380D01*
X141684523Y-130452380D01*
X141255952Y-131166666D02*
X140779761Y-131166666D01*
X141351190Y-131452380D02*
X141017857Y-130452380D01*
X140684523Y-131452380D01*
X140351190Y-131452380D02*
X140351190Y-130452380D01*
X139779761Y-131452380D01*
X139779761Y-130452380D01*
X139303571Y-131452380D02*
X139303571Y-130452380D01*
X139065476Y-130452380D01*
X138922619Y-130500000D01*
X138827380Y-130595238D01*
X138779761Y-130690476D01*
X138732142Y-130880952D01*
X138732142Y-131023809D01*
X138779761Y-131214285D01*
X138827380Y-131309523D01*
X138922619Y-131404761D01*
X139065476Y-131452380D01*
X139303571Y-131452380D01*
D11*
X177165000Y-72390000D02*
X177165000Y-66040000D01*
X175895000Y-65405000D02*
X175895000Y-66040000D01*
X173355000Y-72390000D02*
X173355000Y-73025000D01*
X183515000Y-65405000D02*
X183515000Y-66040000D01*
X184785000Y-72390000D02*
X164465000Y-72390000D01*
X180975000Y-72390000D02*
X180975000Y-73025000D01*
X184785000Y-72390000D02*
X184785000Y-66040000D01*
X174625000Y-72390000D02*
X174625000Y-66040000D01*
X182245000Y-72390000D02*
X182245000Y-66040000D01*
X178435000Y-72390000D02*
X178435000Y-73025000D01*
X184785000Y-66040000D02*
X164465000Y-66040000D01*
X172085000Y-72390000D02*
X172085000Y-66040000D01*
X179705000Y-72390000D02*
X179705000Y-66040000D01*
X167005000Y-72390000D02*
X167005000Y-66040000D01*
X168275000Y-72390000D02*
X168275000Y-73025000D01*
X169545000Y-72390000D02*
X169545000Y-66040000D01*
X165735000Y-65405000D02*
X165735000Y-66040000D01*
X170815000Y-65405000D02*
X170815000Y-66040000D01*
X178435000Y-65405000D02*
X178435000Y-66040000D01*
X173355000Y-65405000D02*
X173355000Y-66040000D01*
X180975000Y-65405000D02*
X180975000Y-66040000D01*
X175895000Y-72390000D02*
X175895000Y-73025000D01*
X165735000Y-72390000D02*
X165735000Y-73025000D01*
X168275000Y-65405000D02*
X168275000Y-66040000D01*
X170815000Y-72390000D02*
X170815000Y-73025000D01*
X164465000Y-72390000D02*
X164465000Y-66040000D01*
D10*
X165282619Y-69429285D02*
X165282619Y-70000714D01*
X165282619Y-69715000D02*
X166282619Y-69715000D01*
X166139761Y-69810238D01*
X166044523Y-69905476D01*
X165996904Y-70000714D01*
X165282619Y-69000714D02*
X166282619Y-69000714D01*
X165282619Y-68429285D02*
X165854047Y-68857857D01*
X166282619Y-68429285D02*
X165711190Y-69000714D01*
X175442619Y-69429285D02*
X175442619Y-70000714D01*
X175442619Y-69715000D02*
X176442619Y-69715000D01*
X176299761Y-69810238D01*
X176204523Y-69905476D01*
X176156904Y-70000714D01*
X175442619Y-69000714D02*
X176442619Y-69000714D01*
X175442619Y-68429285D02*
X176014047Y-68857857D01*
X176442619Y-68429285D02*
X175871190Y-69000714D01*
X172902619Y-69429285D02*
X172902619Y-70000714D01*
X172902619Y-69715000D02*
X173902619Y-69715000D01*
X173759761Y-69810238D01*
X173664523Y-69905476D01*
X173616904Y-70000714D01*
X172902619Y-69000714D02*
X173902619Y-69000714D01*
X172902619Y-68429285D02*
X173474047Y-68857857D01*
X173902619Y-68429285D02*
X173331190Y-69000714D01*
X170362619Y-69429285D02*
X170362619Y-70000714D01*
X170362619Y-69715000D02*
X171362619Y-69715000D01*
X171219761Y-69810238D01*
X171124523Y-69905476D01*
X171076904Y-70000714D01*
X170362619Y-69000714D02*
X171362619Y-69000714D01*
X170362619Y-68429285D02*
X170934047Y-68857857D01*
X171362619Y-68429285D02*
X170791190Y-69000714D01*
X167822619Y-69429285D02*
X167822619Y-70000714D01*
X167822619Y-69715000D02*
X168822619Y-69715000D01*
X168679761Y-69810238D01*
X168584523Y-69905476D01*
X168536904Y-70000714D01*
X167822619Y-69000714D02*
X168822619Y-69000714D01*
X167822619Y-68429285D02*
X168394047Y-68857857D01*
X168822619Y-68429285D02*
X168251190Y-69000714D01*
X180522619Y-69429285D02*
X180522619Y-70000714D01*
X180522619Y-69715000D02*
X181522619Y-69715000D01*
X181379761Y-69810238D01*
X181284523Y-69905476D01*
X181236904Y-70000714D01*
X180522619Y-69000714D02*
X181522619Y-69000714D01*
X180522619Y-68429285D02*
X181094047Y-68857857D01*
X181522619Y-68429285D02*
X180951190Y-69000714D01*
X177982619Y-69429285D02*
X177982619Y-70000714D01*
X177982619Y-69715000D02*
X178982619Y-69715000D01*
X178839761Y-69810238D01*
X178744523Y-69905476D01*
X178696904Y-70000714D01*
X177982619Y-69000714D02*
X178982619Y-69000714D01*
X177982619Y-68429285D02*
X178554047Y-68857857D01*
X178982619Y-68429285D02*
X178411190Y-69000714D01*
X183062619Y-69429285D02*
X183062619Y-70000714D01*
X183062619Y-69715000D02*
X184062619Y-69715000D01*
X183919761Y-69810238D01*
X183824523Y-69905476D01*
X183776904Y-70000714D01*
X183062619Y-69000714D02*
X184062619Y-69000714D01*
X183062619Y-68429285D02*
X183634047Y-68857857D01*
X184062619Y-68429285D02*
X183491190Y-69000714D01*
D11*
X130175000Y-116840000D02*
X130175000Y-117475000D01*
X128905000Y-113030000D02*
X131445000Y-113030000D01*
X128905000Y-113665000D02*
X131445000Y-113665000D01*
X128905000Y-116840000D02*
X131445000Y-116840000D01*
X130175000Y-113030000D02*
X130175000Y-112395000D01*
X131445000Y-113030000D02*
X131445000Y-116840000D01*
X128905000Y-113030000D02*
X128905000Y-116840000D01*
D10*
X130389285Y-116155542D02*
X129722619Y-116155542D01*
X130770238Y-116312780D02*
X130055952Y-116470019D01*
X130055952Y-116061200D01*
X129722619Y-115463695D02*
X129722619Y-115841066D01*
X129722619Y-115652380D02*
X130722619Y-115652380D01*
X130579761Y-115715276D01*
X130484523Y-115778171D01*
X130436904Y-115841066D01*
X130389285Y-114897638D02*
X129722619Y-114897638D01*
X130770238Y-115054876D02*
X130055952Y-115212114D01*
X130055952Y-114803295D01*
X130294047Y-114457371D02*
X130341666Y-114520266D01*
X130389285Y-114551714D01*
X130484523Y-114583161D01*
X130532142Y-114583161D01*
X130627380Y-114551714D01*
X130675000Y-114520266D01*
X130722619Y-114457371D01*
X130722619Y-114331580D01*
X130675000Y-114268685D01*
X130627380Y-114237238D01*
X130532142Y-114205790D01*
X130484523Y-114205790D01*
X130389285Y-114237238D01*
X130341666Y-114268685D01*
X130294047Y-114331580D01*
X130294047Y-114457371D01*
X130246428Y-114520266D01*
X130198809Y-114551714D01*
X130103571Y-114583161D01*
X129913095Y-114583161D01*
X129817857Y-114551714D01*
X129770238Y-114520266D01*
X129722619Y-114457371D01*
X129722619Y-114331580D01*
X129770238Y-114268685D01*
X129817857Y-114237238D01*
X129913095Y-114205790D01*
X130103571Y-114205790D01*
X130198809Y-114237238D01*
X130246428Y-114268685D01*
X130294047Y-114331580D01*
D11*
X130175000Y-86360000D02*
X130175000Y-86995000D01*
X128905000Y-83185000D02*
X131445000Y-83185000D01*
X128905000Y-86360000D02*
X131445000Y-86360000D01*
X128905000Y-82550000D02*
X128905000Y-86360000D01*
X130175000Y-82550000D02*
X130175000Y-81915000D01*
X131445000Y-82550000D02*
X131445000Y-86360000D01*
X128905000Y-82550000D02*
X131445000Y-82550000D01*
D10*
X130389285Y-85675542D02*
X129722619Y-85675542D01*
X130770238Y-85832780D02*
X130055952Y-85990019D01*
X130055952Y-85581200D01*
X129722619Y-84983695D02*
X129722619Y-85361066D01*
X129722619Y-85172380D02*
X130722619Y-85172380D01*
X130579761Y-85235276D01*
X130484523Y-85298171D01*
X130436904Y-85361066D01*
X130389285Y-84417638D02*
X129722619Y-84417638D01*
X130770238Y-84574876D02*
X130055952Y-84732114D01*
X130055952Y-84323295D01*
X130294047Y-83977371D02*
X130341666Y-84040266D01*
X130389285Y-84071714D01*
X130484523Y-84103161D01*
X130532142Y-84103161D01*
X130627380Y-84071714D01*
X130675000Y-84040266D01*
X130722619Y-83977371D01*
X130722619Y-83851580D01*
X130675000Y-83788685D01*
X130627380Y-83757238D01*
X130532142Y-83725790D01*
X130484523Y-83725790D01*
X130389285Y-83757238D01*
X130341666Y-83788685D01*
X130294047Y-83851580D01*
X130294047Y-83977371D01*
X130246428Y-84040266D01*
X130198809Y-84071714D01*
X130103571Y-84103161D01*
X129913095Y-84103161D01*
X129817857Y-84071714D01*
X129770238Y-84040266D01*
X129722619Y-83977371D01*
X129722619Y-83851580D01*
X129770238Y-83788685D01*
X129817857Y-83757238D01*
X129913095Y-83725790D01*
X130103571Y-83725790D01*
X130198809Y-83757238D01*
X130246428Y-83788685D01*
X130294047Y-83851580D01*
D11*
X154305000Y-68580000D02*
X154305000Y-72390000D01*
X155575000Y-72390000D02*
X155575000Y-73025000D01*
X154305000Y-72390000D02*
X156845000Y-72390000D01*
X155575000Y-68580000D02*
X155575000Y-67945000D01*
X156845000Y-68580000D02*
X156845000Y-72390000D01*
X154305000Y-68580000D02*
X156845000Y-68580000D01*
D10*
X155789285Y-71705542D02*
X155122619Y-71705542D01*
X156170238Y-71862780D02*
X155455952Y-72020019D01*
X155455952Y-71611200D01*
X155122619Y-71013695D02*
X155122619Y-71391066D01*
X155122619Y-71202380D02*
X156122619Y-71202380D01*
X155979761Y-71265276D01*
X155884523Y-71328171D01*
X155836904Y-71391066D01*
X155789285Y-70447638D02*
X155122619Y-70447638D01*
X156170238Y-70604876D02*
X155455952Y-70762114D01*
X155455952Y-70353295D01*
X155694047Y-70007371D02*
X155741666Y-70070266D01*
X155789285Y-70101714D01*
X155884523Y-70133161D01*
X155932142Y-70133161D01*
X156027380Y-70101714D01*
X156075000Y-70070266D01*
X156122619Y-70007371D01*
X156122619Y-69881580D01*
X156075000Y-69818685D01*
X156027380Y-69787238D01*
X155932142Y-69755790D01*
X155884523Y-69755790D01*
X155789285Y-69787238D01*
X155741666Y-69818685D01*
X155694047Y-69881580D01*
X155694047Y-70007371D01*
X155646428Y-70070266D01*
X155598809Y-70101714D01*
X155503571Y-70133161D01*
X155313095Y-70133161D01*
X155217857Y-70101714D01*
X155170238Y-70070266D01*
X155122619Y-70007371D01*
X155122619Y-69881580D01*
X155170238Y-69818685D01*
X155217857Y-69787238D01*
X155313095Y-69755790D01*
X155503571Y-69755790D01*
X155598809Y-69787238D01*
X155646428Y-69818685D01*
X155694047Y-69881580D01*
D11*
X154305000Y-69215000D02*
X156845000Y-69215000D01*
X126365000Y-135255000D02*
X118745000Y-135255000D01*
X126365000Y-132715000D02*
X118745000Y-132715000D01*
X126365000Y-130175000D02*
X118745000Y-130175000D01*
X118745000Y-125095000D02*
X118745000Y-135255000D01*
X126365000Y-125095000D02*
X126365000Y-135255000D01*
X126365000Y-125095000D02*
X118745000Y-125095000D01*
X126365000Y-127635000D02*
X118745000Y-127635000D01*
X118745000Y-75565000D02*
X118745000Y-78105000D01*
X126365000Y-75565000D02*
X118745000Y-75565000D01*
X126365000Y-75565000D02*
X126365000Y-78105000D01*
X126365000Y-78105000D02*
X118745000Y-78105000D01*
X126365000Y-70485000D02*
X126365000Y-73025000D01*
X126365000Y-70485000D02*
X118745000Y-70485000D01*
X126365000Y-73025000D02*
X118745000Y-73025000D01*
X118745000Y-70485000D02*
X118745000Y-73025000D01*
X156845000Y-81915000D02*
X156845000Y-84455000D01*
X156845000Y-84455000D02*
X154305000Y-84455000D01*
X154305000Y-81915000D02*
X154305000Y-84455000D01*
X156845000Y-81915000D02*
X154305000Y-81915000D01*
D10*
X156122619Y-83986914D02*
X156122619Y-83924019D01*
X156075000Y-83861123D01*
X156027380Y-83829676D01*
X155932142Y-83798228D01*
X155741666Y-83766780D01*
X155503571Y-83766780D01*
X155313095Y-83798228D01*
X155217857Y-83829676D01*
X155170238Y-83861123D01*
X155122619Y-83924019D01*
X155122619Y-83986914D01*
X155170238Y-84049809D01*
X155217857Y-84081257D01*
X155313095Y-84112704D01*
X155503571Y-84144152D01*
X155741666Y-84144152D01*
X155932142Y-84112704D01*
X156027380Y-84081257D01*
X156075000Y-84049809D01*
X156122619Y-83986914D01*
X155217857Y-83483752D02*
X155170238Y-83452304D01*
X155122619Y-83483752D01*
X155170238Y-83515200D01*
X155217857Y-83483752D01*
X155122619Y-83483752D01*
X155122619Y-82823352D02*
X155122619Y-83200723D01*
X155122619Y-83012038D02*
X156122619Y-83012038D01*
X155979761Y-83074933D01*
X155884523Y-83137828D01*
X155836904Y-83200723D01*
X155789285Y-82257295D02*
X155122619Y-82257295D01*
X155789285Y-82540323D02*
X155265476Y-82540323D01*
X155170238Y-82508876D01*
X155122619Y-82445980D01*
X155122619Y-82351638D01*
X155170238Y-82288742D01*
X155217857Y-82257295D01*
D11*
X156845000Y-97155000D02*
X156845000Y-99695000D01*
X156845000Y-99695000D02*
X154305000Y-99695000D01*
X154305000Y-97155000D02*
X154305000Y-99695000D01*
X156845000Y-97155000D02*
X154305000Y-97155000D01*
D10*
X156122619Y-99226914D02*
X156122619Y-99164019D01*
X156075000Y-99101123D01*
X156027380Y-99069676D01*
X155932142Y-99038228D01*
X155741666Y-99006780D01*
X155503571Y-99006780D01*
X155313095Y-99038228D01*
X155217857Y-99069676D01*
X155170238Y-99101123D01*
X155122619Y-99164019D01*
X155122619Y-99226914D01*
X155170238Y-99289809D01*
X155217857Y-99321257D01*
X155313095Y-99352704D01*
X155503571Y-99384152D01*
X155741666Y-99384152D01*
X155932142Y-99352704D01*
X156027380Y-99321257D01*
X156075000Y-99289809D01*
X156122619Y-99226914D01*
X155217857Y-98723752D02*
X155170238Y-98692304D01*
X155122619Y-98723752D01*
X155170238Y-98755200D01*
X155217857Y-98723752D01*
X155122619Y-98723752D01*
X155122619Y-98063352D02*
X155122619Y-98440723D01*
X155122619Y-98252038D02*
X156122619Y-98252038D01*
X155979761Y-98314933D01*
X155884523Y-98377828D01*
X155836904Y-98440723D01*
X155789285Y-97497295D02*
X155122619Y-97497295D01*
X155789285Y-97780323D02*
X155265476Y-97780323D01*
X155170238Y-97748876D01*
X155122619Y-97685980D01*
X155122619Y-97591638D01*
X155170238Y-97528742D01*
X155217857Y-97497295D01*
D11*
X156845000Y-120015000D02*
X156845000Y-122555000D01*
X156845000Y-122555000D02*
X154305000Y-122555000D01*
X154305000Y-120015000D02*
X154305000Y-122555000D01*
X156845000Y-120015000D02*
X154305000Y-120015000D01*
D10*
X156122619Y-122086914D02*
X156122619Y-122024019D01*
X156075000Y-121961123D01*
X156027380Y-121929676D01*
X155932142Y-121898228D01*
X155741666Y-121866780D01*
X155503571Y-121866780D01*
X155313095Y-121898228D01*
X155217857Y-121929676D01*
X155170238Y-121961123D01*
X155122619Y-122024019D01*
X155122619Y-122086914D01*
X155170238Y-122149809D01*
X155217857Y-122181257D01*
X155313095Y-122212704D01*
X155503571Y-122244152D01*
X155741666Y-122244152D01*
X155932142Y-122212704D01*
X156027380Y-122181257D01*
X156075000Y-122149809D01*
X156122619Y-122086914D01*
X155217857Y-121583752D02*
X155170238Y-121552304D01*
X155122619Y-121583752D01*
X155170238Y-121615200D01*
X155217857Y-121583752D01*
X155122619Y-121583752D01*
X155122619Y-120923352D02*
X155122619Y-121300723D01*
X155122619Y-121112038D02*
X156122619Y-121112038D01*
X155979761Y-121174933D01*
X155884523Y-121237828D01*
X155836904Y-121300723D01*
X155789285Y-120357295D02*
X155122619Y-120357295D01*
X155789285Y-120640323D02*
X155265476Y-120640323D01*
X155170238Y-120608876D01*
X155122619Y-120545980D01*
X155122619Y-120451638D01*
X155170238Y-120388742D01*
X155217857Y-120357295D01*
D11*
X131445000Y-97155000D02*
X131445000Y-99695000D01*
X131445000Y-99695000D02*
X128905000Y-99695000D01*
X128905000Y-97155000D02*
X128905000Y-99695000D01*
X131445000Y-97155000D02*
X128905000Y-97155000D01*
D10*
X130722619Y-99226914D02*
X130722619Y-99164019D01*
X130675000Y-99101123D01*
X130627380Y-99069676D01*
X130532142Y-99038228D01*
X130341666Y-99006780D01*
X130103571Y-99006780D01*
X129913095Y-99038228D01*
X129817857Y-99069676D01*
X129770238Y-99101123D01*
X129722619Y-99164019D01*
X129722619Y-99226914D01*
X129770238Y-99289809D01*
X129817857Y-99321257D01*
X129913095Y-99352704D01*
X130103571Y-99384152D01*
X130341666Y-99384152D01*
X130532142Y-99352704D01*
X130627380Y-99321257D01*
X130675000Y-99289809D01*
X130722619Y-99226914D01*
X129817857Y-98723752D02*
X129770238Y-98692304D01*
X129722619Y-98723752D01*
X129770238Y-98755200D01*
X129817857Y-98723752D01*
X129722619Y-98723752D01*
X129722619Y-98063352D02*
X129722619Y-98440723D01*
X129722619Y-98252038D02*
X130722619Y-98252038D01*
X130579761Y-98314933D01*
X130484523Y-98377828D01*
X130436904Y-98440723D01*
X130389285Y-97497295D02*
X129722619Y-97497295D01*
X130389285Y-97780323D02*
X129865476Y-97780323D01*
X129770238Y-97748876D01*
X129722619Y-97685980D01*
X129722619Y-97591638D01*
X129770238Y-97528742D01*
X129817857Y-97497295D01*
X127556380Y-102888142D02*
X127556380Y-102815571D01*
X127508000Y-102743000D01*
X127459619Y-102706714D01*
X127362857Y-102670428D01*
X127169333Y-102634142D01*
X126927428Y-102634142D01*
X126733904Y-102670428D01*
X126637142Y-102706714D01*
X126588761Y-102743000D01*
X126540380Y-102815571D01*
X126540380Y-102888142D01*
X126588761Y-102960714D01*
X126637142Y-102997000D01*
X126733904Y-103033285D01*
X126927428Y-103069571D01*
X127169333Y-103069571D01*
X127362857Y-103033285D01*
X127459619Y-102997000D01*
X127508000Y-102960714D01*
X127556380Y-102888142D01*
X126637142Y-102307571D02*
X126588761Y-102271285D01*
X126540380Y-102307571D01*
X126588761Y-102343857D01*
X126637142Y-102307571D01*
X126540380Y-102307571D01*
X127217714Y-101618142D02*
X126540380Y-101618142D01*
X127604761Y-101799571D02*
X126879047Y-101981000D01*
X126879047Y-101509285D01*
X127556380Y-101291571D02*
X127556380Y-100783571D01*
X126540380Y-101110142D01*
X127217714Y-100166714D02*
X126540380Y-100166714D01*
X127217714Y-100493285D02*
X126685523Y-100493285D01*
X126588761Y-100457000D01*
X126540380Y-100384428D01*
X126540380Y-100275571D01*
X126588761Y-100203000D01*
X126637142Y-100166714D01*
X123118571Y-100710952D02*
X123118571Y-99949047D01*
X122737619Y-100330000D02*
X123499523Y-100330000D01*
X123118571Y-103250952D02*
X123118571Y-102489047D01*
D11*
X128270000Y-101600000D02*
G75*
G03*
X128270000Y-101600000I-3175000J0D01*
G01*
X128270000Y-86360000D02*
G75*
G03*
X128270000Y-86360000I-3175000J0D01*
G01*
D10*
X127459619Y-87285285D02*
X127508000Y-87249000D01*
X127556380Y-87176428D01*
X127556380Y-86995000D01*
X127508000Y-86922428D01*
X127459619Y-86886142D01*
X127362857Y-86849857D01*
X127266095Y-86849857D01*
X127120952Y-86886142D01*
X126540380Y-87321571D01*
X126540380Y-86849857D01*
X127459619Y-86559571D02*
X127508000Y-86523285D01*
X127556380Y-86450714D01*
X127556380Y-86269285D01*
X127508000Y-86196714D01*
X127459619Y-86160428D01*
X127362857Y-86124142D01*
X127266095Y-86124142D01*
X127120952Y-86160428D01*
X126540380Y-86595857D01*
X126540380Y-86124142D01*
X127217714Y-85471000D02*
X126540380Y-85471000D01*
X127217714Y-85797571D02*
X126685523Y-85797571D01*
X126588761Y-85761285D01*
X126540380Y-85688714D01*
X126540380Y-85579857D01*
X126588761Y-85507285D01*
X126637142Y-85471000D01*
X123118571Y-88010952D02*
X123118571Y-87249047D01*
X122737619Y-87630000D02*
X123499523Y-87630000D01*
X123118571Y-85470952D02*
X123118571Y-84709047D01*
X113497738Y-48982261D02*
X113354880Y-49029880D01*
X113116785Y-49029880D01*
X113021547Y-48982261D01*
X112973928Y-48934642D01*
X112926309Y-48839404D01*
X112926309Y-48744166D01*
X112973928Y-48648928D01*
X113021547Y-48601309D01*
X113116785Y-48553690D01*
X113307261Y-48506071D01*
X113402500Y-48458452D01*
X113450119Y-48410833D01*
X113497738Y-48315595D01*
X113497738Y-48220357D01*
X113450119Y-48125119D01*
X113402500Y-48077500D01*
X113307261Y-48029880D01*
X113069166Y-48029880D01*
X112926309Y-48077500D01*
X112497738Y-48506071D02*
X112164404Y-48506071D01*
X112021547Y-49029880D02*
X112497738Y-49029880D01*
X112497738Y-48029880D01*
X112021547Y-48029880D01*
X111021547Y-49029880D02*
X111354880Y-48553690D01*
X111592976Y-49029880D02*
X111592976Y-48029880D01*
X111212023Y-48029880D01*
X111116785Y-48077500D01*
X111069166Y-48125119D01*
X111021547Y-48220357D01*
X111021547Y-48363214D01*
X111069166Y-48458452D01*
X111116785Y-48506071D01*
X111212023Y-48553690D01*
X111592976Y-48553690D01*
X110592976Y-49029880D02*
X110592976Y-48029880D01*
X110164404Y-48744166D02*
X109688214Y-48744166D01*
X110259642Y-49029880D02*
X109926309Y-48029880D01*
X109592976Y-49029880D01*
X108783452Y-49029880D02*
X109259642Y-49029880D01*
X109259642Y-48029880D01*
X107688214Y-49029880D02*
X107688214Y-48029880D01*
X107307261Y-48029880D01*
X107212023Y-48077500D01*
X107164404Y-48125119D01*
X107116785Y-48220357D01*
X107116785Y-48363214D01*
X107164404Y-48458452D01*
X107212023Y-48506071D01*
X107307261Y-48553690D01*
X107688214Y-48553690D01*
X106497738Y-48029880D02*
X106307261Y-48029880D01*
X106212023Y-48077500D01*
X106116785Y-48172738D01*
X106069166Y-48363214D01*
X106069166Y-48696547D01*
X106116785Y-48887023D01*
X106212023Y-48982261D01*
X106307261Y-49029880D01*
X106497738Y-49029880D01*
X106592976Y-48982261D01*
X106688214Y-48887023D01*
X106735833Y-48696547D01*
X106735833Y-48363214D01*
X106688214Y-48172738D01*
X106592976Y-48077500D01*
X106497738Y-48029880D01*
X105069166Y-49029880D02*
X105402500Y-48553690D01*
X105640595Y-49029880D02*
X105640595Y-48029880D01*
X105259642Y-48029880D01*
X105164404Y-48077500D01*
X105116785Y-48125119D01*
X105069166Y-48220357D01*
X105069166Y-48363214D01*
X105116785Y-48458452D01*
X105164404Y-48506071D01*
X105259642Y-48553690D01*
X105640595Y-48553690D01*
X104783452Y-48029880D02*
X104212023Y-48029880D01*
X104497738Y-49029880D02*
X104497738Y-48029880D01*
X103370000Y-55655595D02*
X103417619Y-55750833D01*
X103417619Y-55893690D01*
X103370000Y-56036547D01*
X103274761Y-56131785D01*
X103179523Y-56179404D01*
X102989047Y-56227023D01*
X102846190Y-56227023D01*
X102655714Y-56179404D01*
X102560476Y-56131785D01*
X102465238Y-56036547D01*
X102417619Y-55893690D01*
X102417619Y-55798452D01*
X102465238Y-55655595D01*
X102512857Y-55607976D01*
X102846190Y-55607976D01*
X102846190Y-55798452D01*
X102417619Y-55179404D02*
X103417619Y-55179404D01*
X102417619Y-54607976D01*
X103417619Y-54607976D01*
X102417619Y-54131785D02*
X103417619Y-54131785D01*
X103417619Y-53893690D01*
X103370000Y-53750833D01*
X103274761Y-53655595D01*
X103179523Y-53607976D01*
X102989047Y-53560357D01*
X102846190Y-53560357D01*
X102655714Y-53607976D01*
X102560476Y-53655595D01*
X102465238Y-53750833D01*
X102417619Y-53893690D01*
X102417619Y-54131785D01*
X108497619Y-56322261D02*
X107497619Y-55988928D01*
X108497619Y-55655595D01*
X107592857Y-54750833D02*
X107545238Y-54798452D01*
X107497619Y-54941309D01*
X107497619Y-55036547D01*
X107545238Y-55179404D01*
X107640476Y-55274642D01*
X107735714Y-55322261D01*
X107926190Y-55369880D01*
X108069047Y-55369880D01*
X108259523Y-55322261D01*
X108354761Y-55274642D01*
X108450000Y-55179404D01*
X108497619Y-55036547D01*
X108497619Y-54941309D01*
X108450000Y-54798452D01*
X108402380Y-54750833D01*
X107592857Y-53750833D02*
X107545238Y-53798452D01*
X107497619Y-53941309D01*
X107497619Y-54036547D01*
X107545238Y-54179404D01*
X107640476Y-54274642D01*
X107735714Y-54322261D01*
X107926190Y-54369880D01*
X108069047Y-54369880D01*
X108259523Y-54322261D01*
X108354761Y-54274642D01*
X108450000Y-54179404D01*
X108497619Y-54036547D01*
X108497619Y-53941309D01*
X108450000Y-53798452D01*
X108402380Y-53750833D01*
X113577619Y-56322261D02*
X113577619Y-55750833D01*
X112577619Y-56036547D02*
X113577619Y-56036547D01*
X113577619Y-55512738D02*
X112577619Y-54846071D01*
X113577619Y-54846071D02*
X112577619Y-55512738D01*
X112577619Y-54465119D02*
X113577619Y-54465119D01*
X113577619Y-54227023D01*
X113530000Y-54084166D01*
X113434761Y-53988928D01*
X113339523Y-53941309D01*
X113149047Y-53893690D01*
X113006190Y-53893690D01*
X112815714Y-53941309D01*
X112720476Y-53988928D01*
X112625238Y-54084166D01*
X112577619Y-54227023D01*
X112577619Y-54465119D01*
X110037619Y-55607976D02*
X110513809Y-55941309D01*
X110037619Y-56179404D02*
X111037619Y-56179404D01*
X111037619Y-55798452D01*
X110990000Y-55703214D01*
X110942380Y-55655595D01*
X110847142Y-55607976D01*
X110704285Y-55607976D01*
X110609047Y-55655595D01*
X110561428Y-55703214D01*
X110513809Y-55798452D01*
X110513809Y-56179404D01*
X111037619Y-55274642D02*
X110037619Y-54607976D01*
X111037619Y-54607976D02*
X110037619Y-55274642D01*
X110037619Y-54227023D02*
X111037619Y-54227023D01*
X111037619Y-53988928D01*
X110990000Y-53846071D01*
X110894761Y-53750833D01*
X110799523Y-53703214D01*
X110609047Y-53655595D01*
X110466190Y-53655595D01*
X110275714Y-53703214D01*
X110180476Y-53750833D01*
X110085238Y-53846071D01*
X110037619Y-53988928D01*
X110037619Y-54227023D01*
D11*
X117475000Y-59690000D02*
X100965000Y-59690000D01*
X117475000Y-59690000D02*
X117475000Y-47307500D01*
D10*
X125745476Y-79827380D02*
X125745476Y-78827380D01*
X125364523Y-78827380D01*
X125269285Y-78875000D01*
X125221666Y-78922619D01*
X125174047Y-79017857D01*
X125174047Y-79160714D01*
X125221666Y-79255952D01*
X125269285Y-79303571D01*
X125364523Y-79351190D01*
X125745476Y-79351190D01*
X124840714Y-78827380D02*
X124602619Y-79827380D01*
X124412142Y-79113095D01*
X124221666Y-79827380D01*
X123983571Y-78827380D01*
X123031190Y-79827380D02*
X123364523Y-79351190D01*
X123602619Y-79827380D02*
X123602619Y-78827380D01*
X123221666Y-78827380D01*
X123126428Y-78875000D01*
X123078809Y-78922619D01*
X123031190Y-79017857D01*
X123031190Y-79160714D01*
X123078809Y-79255952D01*
X123126428Y-79303571D01*
X123221666Y-79351190D01*
X123602619Y-79351190D01*
X121888333Y-79779761D02*
X121745476Y-79827380D01*
X121507380Y-79827380D01*
X121412142Y-79779761D01*
X121364523Y-79732142D01*
X121316904Y-79636904D01*
X121316904Y-79541666D01*
X121364523Y-79446428D01*
X121412142Y-79398809D01*
X121507380Y-79351190D01*
X121697857Y-79303571D01*
X121793095Y-79255952D01*
X121840714Y-79208333D01*
X121888333Y-79113095D01*
X121888333Y-79017857D01*
X121840714Y-78922619D01*
X121793095Y-78875000D01*
X121697857Y-78827380D01*
X121459761Y-78827380D01*
X121316904Y-78875000D01*
X120316904Y-79827380D02*
X120650238Y-79351190D01*
X120888333Y-79827380D02*
X120888333Y-78827380D01*
X120507380Y-78827380D01*
X120412142Y-78875000D01*
X120364523Y-78922619D01*
X120316904Y-79017857D01*
X120316904Y-79160714D01*
X120364523Y-79255952D01*
X120412142Y-79303571D01*
X120507380Y-79351190D01*
X120888333Y-79351190D01*
X119316904Y-79732142D02*
X119364523Y-79779761D01*
X119507380Y-79827380D01*
X119602619Y-79827380D01*
X119745476Y-79779761D01*
X119840714Y-79684523D01*
X119888333Y-79589285D01*
X119935952Y-79398809D01*
X119935952Y-79255952D01*
X119888333Y-79065476D01*
X119840714Y-78970238D01*
X119745476Y-78875000D01*
X119602619Y-78827380D01*
X119507380Y-78827380D01*
X119364523Y-78875000D01*
X119316904Y-78922619D01*
X126316904Y-74699761D02*
X126174047Y-74747380D01*
X125935952Y-74747380D01*
X125840714Y-74699761D01*
X125793095Y-74652142D01*
X125745476Y-74556904D01*
X125745476Y-74461666D01*
X125793095Y-74366428D01*
X125840714Y-74318809D01*
X125935952Y-74271190D01*
X126126428Y-74223571D01*
X126221666Y-74175952D01*
X126269285Y-74128333D01*
X126316904Y-74033095D01*
X126316904Y-73937857D01*
X126269285Y-73842619D01*
X126221666Y-73795000D01*
X126126428Y-73747380D01*
X125888333Y-73747380D01*
X125745476Y-73795000D01*
X125316904Y-74652142D02*
X125269285Y-74699761D01*
X125316904Y-74747380D01*
X125364523Y-74699761D01*
X125316904Y-74652142D01*
X125316904Y-74747380D01*
X124840714Y-74223571D02*
X124507380Y-74223571D01*
X124364523Y-74747380D02*
X124840714Y-74747380D01*
X124840714Y-73747380D01*
X124364523Y-73747380D01*
X123459761Y-74747380D02*
X123935952Y-74747380D01*
X123935952Y-73747380D01*
X122793095Y-74223571D02*
X123126428Y-74223571D01*
X123126428Y-74747380D02*
X123126428Y-73747380D01*
X122650238Y-73747380D01*
X121507380Y-74747380D02*
X121507380Y-73747380D01*
X121126428Y-73747380D01*
X121031190Y-73795000D01*
X120983571Y-73842619D01*
X120935952Y-73937857D01*
X120935952Y-74080714D01*
X120983571Y-74175952D01*
X121031190Y-74223571D01*
X121126428Y-74271190D01*
X121507380Y-74271190D01*
X120602619Y-73747380D02*
X120364523Y-74747380D01*
X120174047Y-74033095D01*
X119983571Y-74747380D01*
X119745476Y-73747380D01*
X118793095Y-74747380D02*
X119126428Y-74271190D01*
X119364523Y-74747380D02*
X119364523Y-73747380D01*
X118983571Y-73747380D01*
X118888333Y-73795000D01*
X118840714Y-73842619D01*
X118793095Y-73937857D01*
X118793095Y-74080714D01*
X118840714Y-74175952D01*
X118888333Y-74223571D01*
X118983571Y-74271190D01*
X119364523Y-74271190D01*
X115692524Y-103151698D02*
X115692524Y-103612526D01*
X115723246Y-103704692D01*
X115784690Y-103766136D01*
X115876856Y-103796858D01*
X115938300Y-103796858D01*
X115078086Y-103796858D02*
X115385305Y-103796858D01*
X115385305Y-103151698D01*
X114494370Y-103735414D02*
X114525092Y-103766136D01*
X114617258Y-103796858D01*
X114678701Y-103796858D01*
X114770867Y-103766136D01*
X114832311Y-103704692D01*
X114863033Y-103643248D01*
X114893755Y-103520360D01*
X114893755Y-103428195D01*
X114863033Y-103305307D01*
X114832311Y-103243863D01*
X114770867Y-103182420D01*
X114678701Y-103151698D01*
X114617258Y-103151698D01*
X114525092Y-103182420D01*
X114494370Y-103213141D01*
X114033541Y-103151698D02*
X114033541Y-103612526D01*
X114064263Y-103704692D01*
X114125707Y-103766136D01*
X114217873Y-103796858D01*
X114279317Y-103796858D01*
X113419103Y-103796858D02*
X113726322Y-103796858D01*
X113726322Y-103151698D01*
X112835387Y-103735414D02*
X112866109Y-103766136D01*
X112958275Y-103796858D01*
X113019719Y-103796858D01*
X113111884Y-103766136D01*
X113173328Y-103704692D01*
X113204050Y-103643248D01*
X113234772Y-103520360D01*
X113234772Y-103428195D01*
X113204050Y-103305307D01*
X113173328Y-103243863D01*
X113111884Y-103182420D01*
X113019719Y-103151698D01*
X112958275Y-103151698D01*
X112866109Y-103182420D01*
X112835387Y-103213141D01*
X112374559Y-103151698D02*
X112374559Y-103612526D01*
X112405280Y-103704692D01*
X112466724Y-103766136D01*
X112558890Y-103796858D01*
X112620334Y-103796858D01*
X111760120Y-103796858D02*
X112067340Y-103796858D01*
X112067340Y-103151698D01*
X111176404Y-103735414D02*
X111207126Y-103766136D01*
X111299292Y-103796858D01*
X111360736Y-103796858D01*
X111452901Y-103766136D01*
X111514345Y-103704692D01*
X111545067Y-103643248D01*
X111575789Y-103520360D01*
X111575789Y-103428195D01*
X111545067Y-103305307D01*
X111514345Y-103243863D01*
X111452901Y-103182420D01*
X111360736Y-103151698D01*
X111299292Y-103151698D01*
X111207126Y-103182420D01*
X111176404Y-103213141D01*
X110715576Y-103151698D02*
X110715576Y-103612526D01*
X110746298Y-103704692D01*
X110807741Y-103766136D01*
X110899907Y-103796858D01*
X110961351Y-103796858D01*
X110101138Y-103796858D02*
X110408357Y-103796858D01*
X110408357Y-103151698D01*
X109517421Y-103735414D02*
X109548143Y-103766136D01*
X109640309Y-103796858D01*
X109701753Y-103796858D01*
X109793919Y-103766136D01*
X109855362Y-103704692D01*
X109886084Y-103643248D01*
X109916806Y-103520360D01*
X109916806Y-103428195D01*
X109886084Y-103305307D01*
X109855362Y-103243863D01*
X109793919Y-103182420D01*
X109701753Y-103151698D01*
X109640309Y-103151698D01*
X109548143Y-103182420D01*
X109517421Y-103213141D01*
X116583460Y-101881698D02*
X116583460Y-102342526D01*
X116614181Y-102434692D01*
X116675625Y-102496136D01*
X116767791Y-102526858D01*
X116829235Y-102526858D01*
X115969021Y-102526858D02*
X116276240Y-102526858D01*
X116276240Y-101881698D01*
X115385305Y-102465414D02*
X115416027Y-102496136D01*
X115508193Y-102526858D01*
X115569637Y-102526858D01*
X115661802Y-102496136D01*
X115723246Y-102434692D01*
X115753968Y-102373248D01*
X115784690Y-102250360D01*
X115784690Y-102158195D01*
X115753968Y-102035307D01*
X115723246Y-101973863D01*
X115661802Y-101912420D01*
X115569637Y-101881698D01*
X115508193Y-101881698D01*
X115416027Y-101912420D01*
X115385305Y-101943141D01*
X115108808Y-102526858D02*
X115108808Y-101881698D01*
X114863033Y-101881698D01*
X114801589Y-101912420D01*
X114770867Y-101943141D01*
X114740145Y-102004585D01*
X114740145Y-102096751D01*
X114770867Y-102158195D01*
X114801589Y-102188917D01*
X114863033Y-102219639D01*
X115108808Y-102219639D01*
X114094985Y-102465414D02*
X114125707Y-102496136D01*
X114217873Y-102526858D01*
X114279317Y-102526858D01*
X114371482Y-102496136D01*
X114432926Y-102434692D01*
X114463648Y-102373248D01*
X114494370Y-102250360D01*
X114494370Y-102158195D01*
X114463648Y-102035307D01*
X114432926Y-101973863D01*
X114371482Y-101912420D01*
X114279317Y-101881698D01*
X114217873Y-101881698D01*
X114125707Y-101912420D01*
X114094985Y-101943141D01*
X113603435Y-102188917D02*
X113511269Y-102219639D01*
X113480547Y-102250360D01*
X113449825Y-102311804D01*
X113449825Y-102403970D01*
X113480547Y-102465414D01*
X113511269Y-102496136D01*
X113572713Y-102526858D01*
X113818488Y-102526858D01*
X113818488Y-101881698D01*
X113603435Y-101881698D01*
X113541991Y-101912420D01*
X113511269Y-101943141D01*
X113480547Y-102004585D01*
X113480547Y-102066029D01*
X113511269Y-102127473D01*
X113541991Y-102158195D01*
X113603435Y-102188917D01*
X113818488Y-102188917D01*
X112558890Y-101881698D02*
X112436002Y-101881698D01*
X112374559Y-101912420D01*
X112313115Y-101973863D01*
X112282393Y-102096751D01*
X112282393Y-102311804D01*
X112313115Y-102434692D01*
X112374559Y-102496136D01*
X112436002Y-102526858D01*
X112558890Y-102526858D01*
X112620334Y-102496136D01*
X112681778Y-102434692D01*
X112712500Y-102311804D01*
X112712500Y-102096751D01*
X112681778Y-101973863D01*
X112620334Y-101912420D01*
X112558890Y-101881698D01*
X111637233Y-102526858D02*
X111852286Y-102219639D01*
X112005896Y-102526858D02*
X112005896Y-101881698D01*
X111760120Y-101881698D01*
X111698677Y-101912420D01*
X111667955Y-101943141D01*
X111637233Y-102004585D01*
X111637233Y-102096751D01*
X111667955Y-102158195D01*
X111698677Y-102188917D01*
X111760120Y-102219639D01*
X112005896Y-102219639D01*
X111360736Y-102526858D02*
X111360736Y-101881698D01*
X111207126Y-101881698D01*
X111114960Y-101912420D01*
X111053517Y-101973863D01*
X111022795Y-102035307D01*
X110992073Y-102158195D01*
X110992073Y-102250360D01*
X111022795Y-102373248D01*
X111053517Y-102434692D01*
X111114960Y-102496136D01*
X111207126Y-102526858D01*
X111360736Y-102526858D01*
X110715576Y-102188917D02*
X110500522Y-102188917D01*
X110408357Y-102526858D02*
X110715576Y-102526858D01*
X110715576Y-101881698D01*
X110408357Y-101881698D01*
X109763197Y-102526858D02*
X109978250Y-102219639D01*
X110131860Y-102526858D02*
X110131860Y-101881698D01*
X109886084Y-101881698D01*
X109824640Y-101912420D01*
X109793919Y-101943141D01*
X109763197Y-102004585D01*
X109763197Y-102096751D01*
X109793919Y-102158195D01*
X109824640Y-102188917D01*
X109886084Y-102219639D01*
X110131860Y-102219639D01*
X109025871Y-102096751D02*
X108565042Y-102096751D01*
X108841540Y-101820254D02*
X109025871Y-102649745D01*
X108626486Y-102373248D02*
X109087315Y-102373248D01*
X108810818Y-102649745D02*
X108626486Y-101820254D01*
X111053571Y-64833452D02*
X111053571Y-64071547D01*
X111053571Y-67373452D02*
X111053571Y-66611547D01*
X110672619Y-66992500D02*
X111434523Y-66992500D01*
X101147619Y-144444404D02*
X102147619Y-144444404D01*
X101147619Y-143872976D01*
X102147619Y-143872976D01*
X102147619Y-143206309D02*
X102147619Y-143111071D01*
X102100000Y-143015833D01*
X102052380Y-142968214D01*
X101957142Y-142920595D01*
X101766666Y-142872976D01*
X101528571Y-142872976D01*
X101338095Y-142920595D01*
X101242857Y-142968214D01*
X101195238Y-143015833D01*
X101147619Y-143111071D01*
X101147619Y-143206309D01*
X101195238Y-143301547D01*
X101242857Y-143349166D01*
X101338095Y-143396785D01*
X101528571Y-143444404D01*
X101766666Y-143444404D01*
X101957142Y-143396785D01*
X102052380Y-143349166D01*
X102100000Y-143301547D01*
X102147619Y-143206309D01*
X108767619Y-144444404D02*
X109767619Y-144444404D01*
X109767619Y-144206309D01*
X109720000Y-144063452D01*
X109624761Y-143968214D01*
X109529523Y-143920595D01*
X109339047Y-143872976D01*
X109196190Y-143872976D01*
X109005714Y-143920595D01*
X108910476Y-143968214D01*
X108815238Y-144063452D01*
X108767619Y-144206309D01*
X108767619Y-144444404D01*
X108767619Y-143444404D02*
X109767619Y-143444404D01*
X109053333Y-143111071D01*
X109767619Y-142777738D01*
X108767619Y-142777738D01*
X109053333Y-142349166D02*
X109053333Y-141872976D01*
X108767619Y-142444404D02*
X109767619Y-142111071D01*
X108767619Y-141777738D01*
X108767619Y-141444404D02*
X109767619Y-141444404D01*
X108767619Y-140968214D02*
X109767619Y-140968214D01*
X108767619Y-140396785D01*
X109767619Y-140396785D01*
X111307619Y-144444404D02*
X112307619Y-144444404D01*
X112307619Y-144206309D01*
X112260000Y-144063452D01*
X112164761Y-143968214D01*
X112069523Y-143920595D01*
X111879047Y-143872976D01*
X111736190Y-143872976D01*
X111545714Y-143920595D01*
X111450476Y-143968214D01*
X111355238Y-144063452D01*
X111307619Y-144206309D01*
X111307619Y-144444404D01*
X111307619Y-143444404D02*
X112307619Y-143444404D01*
X111593333Y-143111071D01*
X112307619Y-142777738D01*
X111307619Y-142777738D01*
X111593333Y-142349166D02*
X111593333Y-141872976D01*
X111307619Y-142444404D02*
X112307619Y-142111071D01*
X111307619Y-141777738D01*
X112307619Y-141253928D02*
X112307619Y-141063452D01*
X112260000Y-140968214D01*
X112164761Y-140872976D01*
X111974285Y-140825357D01*
X111640952Y-140825357D01*
X111450476Y-140872976D01*
X111355238Y-140968214D01*
X111307619Y-141063452D01*
X111307619Y-141253928D01*
X111355238Y-141349166D01*
X111450476Y-141444404D01*
X111640952Y-141492023D01*
X111974285Y-141492023D01*
X112164761Y-141444404D01*
X112260000Y-141349166D01*
X112307619Y-141253928D01*
X112307619Y-140396785D02*
X111498095Y-140396785D01*
X111402857Y-140349166D01*
X111355238Y-140301547D01*
X111307619Y-140206309D01*
X111307619Y-140015833D01*
X111355238Y-139920595D01*
X111402857Y-139872976D01*
X111498095Y-139825357D01*
X112307619Y-139825357D01*
X112307619Y-139492023D02*
X112307619Y-138920595D01*
X111307619Y-139206309D02*
X112307619Y-139206309D01*
X114371428Y-144111071D02*
X114323809Y-143968214D01*
X114276190Y-143920595D01*
X114180952Y-143872976D01*
X114038095Y-143872976D01*
X113942857Y-143920595D01*
X113895238Y-143968214D01*
X113847619Y-144063452D01*
X113847619Y-144444404D01*
X114847619Y-144444404D01*
X114847619Y-144111071D01*
X114800000Y-144015833D01*
X114752380Y-143968214D01*
X114657142Y-143920595D01*
X114561904Y-143920595D01*
X114466666Y-143968214D01*
X114419047Y-144015833D01*
X114371428Y-144111071D01*
X114371428Y-144444404D01*
X114847619Y-143444404D02*
X114038095Y-143444404D01*
X113942857Y-143396785D01*
X113895238Y-143349166D01*
X113847619Y-143253928D01*
X113847619Y-143063452D01*
X113895238Y-142968214D01*
X113942857Y-142920595D01*
X114038095Y-142872976D01*
X114847619Y-142872976D01*
X113895238Y-142444404D02*
X113847619Y-142301547D01*
X113847619Y-142063452D01*
X113895238Y-141968214D01*
X113942857Y-141920595D01*
X114038095Y-141872976D01*
X114133333Y-141872976D01*
X114228571Y-141920595D01*
X114276190Y-141968214D01*
X114323809Y-142063452D01*
X114371428Y-142253928D01*
X114419047Y-142349166D01*
X114466666Y-142396785D01*
X114561904Y-142444404D01*
X114657142Y-142444404D01*
X114752380Y-142396785D01*
X114800000Y-142349166D01*
X114847619Y-142253928D01*
X114847619Y-142015833D01*
X114800000Y-141872976D01*
X114847619Y-141539642D02*
X114847619Y-140872976D01*
X113847619Y-141301547D01*
X116911428Y-144111071D02*
X116863809Y-143968214D01*
X116816190Y-143920595D01*
X116720952Y-143872976D01*
X116578095Y-143872976D01*
X116482857Y-143920595D01*
X116435238Y-143968214D01*
X116387619Y-144063452D01*
X116387619Y-144444404D01*
X117387619Y-144444404D01*
X117387619Y-144111071D01*
X117340000Y-144015833D01*
X117292380Y-143968214D01*
X117197142Y-143920595D01*
X117101904Y-143920595D01*
X117006666Y-143968214D01*
X116959047Y-144015833D01*
X116911428Y-144111071D01*
X116911428Y-144444404D01*
X117387619Y-143444404D02*
X116578095Y-143444404D01*
X116482857Y-143396785D01*
X116435238Y-143349166D01*
X116387619Y-143253928D01*
X116387619Y-143063452D01*
X116435238Y-142968214D01*
X116482857Y-142920595D01*
X116578095Y-142872976D01*
X117387619Y-142872976D01*
X116435238Y-142444404D02*
X116387619Y-142301547D01*
X116387619Y-142063452D01*
X116435238Y-141968214D01*
X116482857Y-141920595D01*
X116578095Y-141872976D01*
X116673333Y-141872976D01*
X116768571Y-141920595D01*
X116816190Y-141968214D01*
X116863809Y-142063452D01*
X116911428Y-142253928D01*
X116959047Y-142349166D01*
X117006666Y-142396785D01*
X117101904Y-142444404D01*
X117197142Y-142444404D01*
X117292380Y-142396785D01*
X117340000Y-142349166D01*
X117387619Y-142253928D01*
X117387619Y-142015833D01*
X117340000Y-141872976D01*
X117387619Y-141015833D02*
X117387619Y-141206309D01*
X117340000Y-141301547D01*
X117292380Y-141349166D01*
X117149523Y-141444404D01*
X116959047Y-141492023D01*
X116578095Y-141492023D01*
X116482857Y-141444404D01*
X116435238Y-141396785D01*
X116387619Y-141301547D01*
X116387619Y-141111071D01*
X116435238Y-141015833D01*
X116482857Y-140968214D01*
X116578095Y-140920595D01*
X116816190Y-140920595D01*
X116911428Y-140968214D01*
X116959047Y-141015833D01*
X117006666Y-141111071D01*
X117006666Y-141301547D01*
X116959047Y-141396785D01*
X116911428Y-141444404D01*
X116816190Y-141492023D01*
X119451428Y-144111071D02*
X119403809Y-143968214D01*
X119356190Y-143920595D01*
X119260952Y-143872976D01*
X119118095Y-143872976D01*
X119022857Y-143920595D01*
X118975238Y-143968214D01*
X118927619Y-144063452D01*
X118927619Y-144444404D01*
X119927619Y-144444404D01*
X119927619Y-144111071D01*
X119880000Y-144015833D01*
X119832380Y-143968214D01*
X119737142Y-143920595D01*
X119641904Y-143920595D01*
X119546666Y-143968214D01*
X119499047Y-144015833D01*
X119451428Y-144111071D01*
X119451428Y-144444404D01*
X119927619Y-143444404D02*
X119118095Y-143444404D01*
X119022857Y-143396785D01*
X118975238Y-143349166D01*
X118927619Y-143253928D01*
X118927619Y-143063452D01*
X118975238Y-142968214D01*
X119022857Y-142920595D01*
X119118095Y-142872976D01*
X119927619Y-142872976D01*
X118975238Y-142444404D02*
X118927619Y-142301547D01*
X118927619Y-142063452D01*
X118975238Y-141968214D01*
X119022857Y-141920595D01*
X119118095Y-141872976D01*
X119213333Y-141872976D01*
X119308571Y-141920595D01*
X119356190Y-141968214D01*
X119403809Y-142063452D01*
X119451428Y-142253928D01*
X119499047Y-142349166D01*
X119546666Y-142396785D01*
X119641904Y-142444404D01*
X119737142Y-142444404D01*
X119832380Y-142396785D01*
X119880000Y-142349166D01*
X119927619Y-142253928D01*
X119927619Y-142015833D01*
X119880000Y-141872976D01*
X119927619Y-140968214D02*
X119927619Y-141444404D01*
X119451428Y-141492023D01*
X119499047Y-141444404D01*
X119546666Y-141349166D01*
X119546666Y-141111071D01*
X119499047Y-141015833D01*
X119451428Y-140968214D01*
X119356190Y-140920595D01*
X119118095Y-140920595D01*
X119022857Y-140968214D01*
X118975238Y-141015833D01*
X118927619Y-141111071D01*
X118927619Y-141349166D01*
X118975238Y-141444404D01*
X119022857Y-141492023D01*
X121991428Y-144111071D02*
X121943809Y-143968214D01*
X121896190Y-143920595D01*
X121800952Y-143872976D01*
X121658095Y-143872976D01*
X121562857Y-143920595D01*
X121515238Y-143968214D01*
X121467619Y-144063452D01*
X121467619Y-144444404D01*
X122467619Y-144444404D01*
X122467619Y-144111071D01*
X122420000Y-144015833D01*
X122372380Y-143968214D01*
X122277142Y-143920595D01*
X122181904Y-143920595D01*
X122086666Y-143968214D01*
X122039047Y-144015833D01*
X121991428Y-144111071D01*
X121991428Y-144444404D01*
X122467619Y-143444404D02*
X121658095Y-143444404D01*
X121562857Y-143396785D01*
X121515238Y-143349166D01*
X121467619Y-143253928D01*
X121467619Y-143063452D01*
X121515238Y-142968214D01*
X121562857Y-142920595D01*
X121658095Y-142872976D01*
X122467619Y-142872976D01*
X121515238Y-142444404D02*
X121467619Y-142301547D01*
X121467619Y-142063452D01*
X121515238Y-141968214D01*
X121562857Y-141920595D01*
X121658095Y-141872976D01*
X121753333Y-141872976D01*
X121848571Y-141920595D01*
X121896190Y-141968214D01*
X121943809Y-142063452D01*
X121991428Y-142253928D01*
X122039047Y-142349166D01*
X122086666Y-142396785D01*
X122181904Y-142444404D01*
X122277142Y-142444404D01*
X122372380Y-142396785D01*
X122420000Y-142349166D01*
X122467619Y-142253928D01*
X122467619Y-142015833D01*
X122420000Y-141872976D01*
X122134285Y-141015833D02*
X121467619Y-141015833D01*
X122515238Y-141253928D02*
X121800952Y-141492023D01*
X121800952Y-140872976D01*
X124531428Y-144111071D02*
X124483809Y-143968214D01*
X124436190Y-143920595D01*
X124340952Y-143872976D01*
X124198095Y-143872976D01*
X124102857Y-143920595D01*
X124055238Y-143968214D01*
X124007619Y-144063452D01*
X124007619Y-144444404D01*
X125007619Y-144444404D01*
X125007619Y-144111071D01*
X124960000Y-144015833D01*
X124912380Y-143968214D01*
X124817142Y-143920595D01*
X124721904Y-143920595D01*
X124626666Y-143968214D01*
X124579047Y-144015833D01*
X124531428Y-144111071D01*
X124531428Y-144444404D01*
X125007619Y-143444404D02*
X124198095Y-143444404D01*
X124102857Y-143396785D01*
X124055238Y-143349166D01*
X124007619Y-143253928D01*
X124007619Y-143063452D01*
X124055238Y-142968214D01*
X124102857Y-142920595D01*
X124198095Y-142872976D01*
X125007619Y-142872976D01*
X124055238Y-142444404D02*
X124007619Y-142301547D01*
X124007619Y-142063452D01*
X124055238Y-141968214D01*
X124102857Y-141920595D01*
X124198095Y-141872976D01*
X124293333Y-141872976D01*
X124388571Y-141920595D01*
X124436190Y-141968214D01*
X124483809Y-142063452D01*
X124531428Y-142253928D01*
X124579047Y-142349166D01*
X124626666Y-142396785D01*
X124721904Y-142444404D01*
X124817142Y-142444404D01*
X124912380Y-142396785D01*
X124960000Y-142349166D01*
X125007619Y-142253928D01*
X125007619Y-142015833D01*
X124960000Y-141872976D01*
X125007619Y-141539642D02*
X125007619Y-140920595D01*
X124626666Y-141253928D01*
X124626666Y-141111071D01*
X124579047Y-141015833D01*
X124531428Y-140968214D01*
X124436190Y-140920595D01*
X124198095Y-140920595D01*
X124102857Y-140968214D01*
X124055238Y-141015833D01*
X124007619Y-141111071D01*
X124007619Y-141396785D01*
X124055238Y-141492023D01*
X124102857Y-141539642D01*
X127071428Y-144111071D02*
X127023809Y-143968214D01*
X126976190Y-143920595D01*
X126880952Y-143872976D01*
X126738095Y-143872976D01*
X126642857Y-143920595D01*
X126595238Y-143968214D01*
X126547619Y-144063452D01*
X126547619Y-144444404D01*
X127547619Y-144444404D01*
X127547619Y-144111071D01*
X127500000Y-144015833D01*
X127452380Y-143968214D01*
X127357142Y-143920595D01*
X127261904Y-143920595D01*
X127166666Y-143968214D01*
X127119047Y-144015833D01*
X127071428Y-144111071D01*
X127071428Y-144444404D01*
X127547619Y-143444404D02*
X126738095Y-143444404D01*
X126642857Y-143396785D01*
X126595238Y-143349166D01*
X126547619Y-143253928D01*
X126547619Y-143063452D01*
X126595238Y-142968214D01*
X126642857Y-142920595D01*
X126738095Y-142872976D01*
X127547619Y-142872976D01*
X126595238Y-142444404D02*
X126547619Y-142301547D01*
X126547619Y-142063452D01*
X126595238Y-141968214D01*
X126642857Y-141920595D01*
X126738095Y-141872976D01*
X126833333Y-141872976D01*
X126928571Y-141920595D01*
X126976190Y-141968214D01*
X127023809Y-142063452D01*
X127071428Y-142253928D01*
X127119047Y-142349166D01*
X127166666Y-142396785D01*
X127261904Y-142444404D01*
X127357142Y-142444404D01*
X127452380Y-142396785D01*
X127500000Y-142349166D01*
X127547619Y-142253928D01*
X127547619Y-142015833D01*
X127500000Y-141872976D01*
X127452380Y-141492023D02*
X127500000Y-141444404D01*
X127547619Y-141349166D01*
X127547619Y-141111071D01*
X127500000Y-141015833D01*
X127452380Y-140968214D01*
X127357142Y-140920595D01*
X127261904Y-140920595D01*
X127119047Y-140968214D01*
X126547619Y-141539642D01*
X126547619Y-140920595D01*
X129611428Y-144111071D02*
X129563809Y-143968214D01*
X129516190Y-143920595D01*
X129420952Y-143872976D01*
X129278095Y-143872976D01*
X129182857Y-143920595D01*
X129135238Y-143968214D01*
X129087619Y-144063452D01*
X129087619Y-144444404D01*
X130087619Y-144444404D01*
X130087619Y-144111071D01*
X130040000Y-144015833D01*
X129992380Y-143968214D01*
X129897142Y-143920595D01*
X129801904Y-143920595D01*
X129706666Y-143968214D01*
X129659047Y-144015833D01*
X129611428Y-144111071D01*
X129611428Y-144444404D01*
X130087619Y-143444404D02*
X129278095Y-143444404D01*
X129182857Y-143396785D01*
X129135238Y-143349166D01*
X129087619Y-143253928D01*
X129087619Y-143063452D01*
X129135238Y-142968214D01*
X129182857Y-142920595D01*
X129278095Y-142872976D01*
X130087619Y-142872976D01*
X129135238Y-142444404D02*
X129087619Y-142301547D01*
X129087619Y-142063452D01*
X129135238Y-141968214D01*
X129182857Y-141920595D01*
X129278095Y-141872976D01*
X129373333Y-141872976D01*
X129468571Y-141920595D01*
X129516190Y-141968214D01*
X129563809Y-142063452D01*
X129611428Y-142253928D01*
X129659047Y-142349166D01*
X129706666Y-142396785D01*
X129801904Y-142444404D01*
X129897142Y-142444404D01*
X129992380Y-142396785D01*
X130040000Y-142349166D01*
X130087619Y-142253928D01*
X130087619Y-142015833D01*
X130040000Y-141872976D01*
X129087619Y-140920595D02*
X129087619Y-141492023D01*
X129087619Y-141206309D02*
X130087619Y-141206309D01*
X129944761Y-141301547D01*
X129849523Y-141396785D01*
X129801904Y-141492023D01*
X132151428Y-144111071D02*
X132103809Y-143968214D01*
X132056190Y-143920595D01*
X131960952Y-143872976D01*
X131818095Y-143872976D01*
X131722857Y-143920595D01*
X131675238Y-143968214D01*
X131627619Y-144063452D01*
X131627619Y-144444404D01*
X132627619Y-144444404D01*
X132627619Y-144111071D01*
X132580000Y-144015833D01*
X132532380Y-143968214D01*
X132437142Y-143920595D01*
X132341904Y-143920595D01*
X132246666Y-143968214D01*
X132199047Y-144015833D01*
X132151428Y-144111071D01*
X132151428Y-144444404D01*
X132627619Y-143444404D02*
X131818095Y-143444404D01*
X131722857Y-143396785D01*
X131675238Y-143349166D01*
X131627619Y-143253928D01*
X131627619Y-143063452D01*
X131675238Y-142968214D01*
X131722857Y-142920595D01*
X131818095Y-142872976D01*
X132627619Y-142872976D01*
X131675238Y-142444404D02*
X131627619Y-142301547D01*
X131627619Y-142063452D01*
X131675238Y-141968214D01*
X131722857Y-141920595D01*
X131818095Y-141872976D01*
X131913333Y-141872976D01*
X132008571Y-141920595D01*
X132056190Y-141968214D01*
X132103809Y-142063452D01*
X132151428Y-142253928D01*
X132199047Y-142349166D01*
X132246666Y-142396785D01*
X132341904Y-142444404D01*
X132437142Y-142444404D01*
X132532380Y-142396785D01*
X132580000Y-142349166D01*
X132627619Y-142253928D01*
X132627619Y-142015833D01*
X132580000Y-141872976D01*
X132627619Y-141253928D02*
X132627619Y-141158690D01*
X132580000Y-141063452D01*
X132532380Y-141015833D01*
X132437142Y-140968214D01*
X132246666Y-140920595D01*
X132008571Y-140920595D01*
X131818095Y-140968214D01*
X131722857Y-141015833D01*
X131675238Y-141063452D01*
X131627619Y-141158690D01*
X131627619Y-141253928D01*
X131675238Y-141349166D01*
X131722857Y-141396785D01*
X131818095Y-141444404D01*
X132008571Y-141492023D01*
X132246666Y-141492023D01*
X132437142Y-141444404D01*
X132532380Y-141396785D01*
X132580000Y-141349166D01*
X132627619Y-141253928D01*
X134167619Y-144444404D02*
X135167619Y-144444404D01*
X134453333Y-144111071D01*
X135167619Y-143777738D01*
X134167619Y-143777738D01*
X134691428Y-143301547D02*
X134691428Y-142968214D01*
X134167619Y-142825357D02*
X134167619Y-143301547D01*
X135167619Y-143301547D01*
X135167619Y-142825357D01*
X134167619Y-142396785D02*
X135167619Y-142396785D01*
X134167619Y-141825357D01*
X135167619Y-141825357D01*
X136707619Y-144444404D02*
X137707619Y-144444404D01*
X136993333Y-144111071D01*
X137707619Y-143777738D01*
X136707619Y-143777738D01*
X136707619Y-142730119D02*
X137183809Y-143063452D01*
X136707619Y-143301547D02*
X137707619Y-143301547D01*
X137707619Y-142920595D01*
X137660000Y-142825357D01*
X137612380Y-142777738D01*
X137517142Y-142730119D01*
X137374285Y-142730119D01*
X137279047Y-142777738D01*
X137231428Y-142825357D01*
X137183809Y-142920595D01*
X137183809Y-143301547D01*
X136707619Y-142301547D02*
X137707619Y-142301547D01*
X137707619Y-142063452D01*
X137660000Y-141920595D01*
X137564761Y-141825357D01*
X137469523Y-141777738D01*
X137279047Y-141730119D01*
X137136190Y-141730119D01*
X136945714Y-141777738D01*
X136850476Y-141825357D01*
X136755238Y-141920595D01*
X136707619Y-142063452D01*
X136707619Y-142301547D01*
X139247619Y-144444404D02*
X140247619Y-144444404D01*
X139533333Y-144111071D01*
X140247619Y-143777738D01*
X139247619Y-143777738D01*
X140247619Y-143396785D02*
X139247619Y-143158690D01*
X139961904Y-142968214D01*
X139247619Y-142777738D01*
X140247619Y-142539642D01*
X139247619Y-141587261D02*
X139723809Y-141920595D01*
X139247619Y-142158690D02*
X140247619Y-142158690D01*
X140247619Y-141777738D01*
X140200000Y-141682500D01*
X140152380Y-141634880D01*
X140057142Y-141587261D01*
X139914285Y-141587261D01*
X139819047Y-141634880D01*
X139771428Y-141682500D01*
X139723809Y-141777738D01*
X139723809Y-142158690D01*
X141692380Y-143777738D02*
X141740000Y-143872976D01*
X141835238Y-143968214D01*
X141978095Y-144111071D01*
X142025714Y-144206309D01*
X142025714Y-144301547D01*
X141787619Y-144253928D02*
X141835238Y-144349166D01*
X141930476Y-144444404D01*
X142120952Y-144492023D01*
X142454285Y-144492023D01*
X142644761Y-144444404D01*
X142740000Y-144349166D01*
X142787619Y-144253928D01*
X142787619Y-144063452D01*
X142740000Y-143968214D01*
X142644761Y-143872976D01*
X142454285Y-143825357D01*
X142120952Y-143825357D01*
X141930476Y-143872976D01*
X141835238Y-143968214D01*
X141787619Y-144063452D01*
X141787619Y-144253928D01*
X144327619Y-144444404D02*
X145327619Y-144444404D01*
X144327619Y-143968214D02*
X145327619Y-143968214D01*
X144327619Y-143396785D01*
X145327619Y-143396785D01*
X145327619Y-143063452D02*
X145327619Y-142492023D01*
X144327619Y-142777738D02*
X145327619Y-142777738D01*
X146962857Y-143872976D02*
X146915238Y-143920595D01*
X146867619Y-144063452D01*
X146867619Y-144158690D01*
X146915238Y-144301547D01*
X147010476Y-144396785D01*
X147105714Y-144444404D01*
X147296190Y-144492023D01*
X147439047Y-144492023D01*
X147629523Y-144444404D01*
X147724761Y-144396785D01*
X147820000Y-144301547D01*
X147867619Y-144158690D01*
X147867619Y-144063452D01*
X147820000Y-143920595D01*
X147772380Y-143872976D01*
X146867619Y-142968214D02*
X146867619Y-143444404D01*
X147867619Y-143444404D01*
X147867619Y-142444404D02*
X147867619Y-142253928D01*
X147820000Y-142158690D01*
X147724761Y-142063452D01*
X147534285Y-142015833D01*
X147200952Y-142015833D01*
X147010476Y-142063452D01*
X146915238Y-142158690D01*
X146867619Y-142253928D01*
X146867619Y-142444404D01*
X146915238Y-142539642D01*
X147010476Y-142634880D01*
X147200952Y-142682500D01*
X147534285Y-142682500D01*
X147724761Y-142634880D01*
X147820000Y-142539642D01*
X147867619Y-142444404D01*
X146962857Y-141015833D02*
X146915238Y-141063452D01*
X146867619Y-141206309D01*
X146867619Y-141301547D01*
X146915238Y-141444404D01*
X147010476Y-141539642D01*
X147105714Y-141587261D01*
X147296190Y-141634880D01*
X147439047Y-141634880D01*
X147629523Y-141587261D01*
X147724761Y-141539642D01*
X147820000Y-141444404D01*
X147867619Y-141301547D01*
X147867619Y-141206309D01*
X147820000Y-141063452D01*
X147772380Y-141015833D01*
X146867619Y-140587261D02*
X147867619Y-140587261D01*
X146867619Y-140015833D02*
X147439047Y-140444404D01*
X147867619Y-140015833D02*
X147296190Y-140587261D01*
X150407619Y-144539642D02*
X149407619Y-144301547D01*
X150121904Y-144111071D01*
X149407619Y-143920595D01*
X150407619Y-143682500D01*
X149693333Y-143349166D02*
X149693333Y-142872976D01*
X149407619Y-143444404D02*
X150407619Y-143111071D01*
X149407619Y-142777738D01*
X149407619Y-142444404D02*
X150407619Y-142444404D01*
X150407619Y-142111071D02*
X150407619Y-141539642D01*
X149407619Y-141825357D02*
X150407619Y-141825357D01*
X152042857Y-143872976D02*
X151995238Y-143920595D01*
X151947619Y-144063452D01*
X151947619Y-144158690D01*
X151995238Y-144301547D01*
X152090476Y-144396785D01*
X152185714Y-144444404D01*
X152376190Y-144492023D01*
X152519047Y-144492023D01*
X152709523Y-144444404D01*
X152804761Y-144396785D01*
X152900000Y-144301547D01*
X152947619Y-144158690D01*
X152947619Y-144063452D01*
X152900000Y-143920595D01*
X152852380Y-143872976D01*
X151947619Y-142968214D02*
X151947619Y-143444404D01*
X152947619Y-143444404D01*
X152471428Y-142634880D02*
X152471428Y-142301547D01*
X151947619Y-142158690D02*
X151947619Y-142634880D01*
X152947619Y-142634880D01*
X152947619Y-142158690D01*
X152233333Y-141777738D02*
X152233333Y-141301547D01*
X151947619Y-141872976D02*
X152947619Y-141539642D01*
X151947619Y-141206309D01*
X151947619Y-140301547D02*
X152423809Y-140634880D01*
X151947619Y-140872976D02*
X152947619Y-140872976D01*
X152947619Y-140492023D01*
X152900000Y-140396785D01*
X152852380Y-140349166D01*
X152757142Y-140301547D01*
X152614285Y-140301547D01*
X152519047Y-140349166D01*
X152471428Y-140396785D01*
X152423809Y-140492023D01*
X152423809Y-140872976D01*
X155487619Y-144587261D02*
X154487619Y-144253928D01*
X155487619Y-143920595D01*
X154582857Y-143015833D02*
X154535238Y-143063452D01*
X154487619Y-143206309D01*
X154487619Y-143301547D01*
X154535238Y-143444404D01*
X154630476Y-143539642D01*
X154725714Y-143587261D01*
X154916190Y-143634880D01*
X155059047Y-143634880D01*
X155249523Y-143587261D01*
X155344761Y-143539642D01*
X155440000Y-143444404D01*
X155487619Y-143301547D01*
X155487619Y-143206309D01*
X155440000Y-143063452D01*
X155392380Y-143015833D01*
X154582857Y-142015833D02*
X154535238Y-142063452D01*
X154487619Y-142206309D01*
X154487619Y-142301547D01*
X154535238Y-142444404D01*
X154630476Y-142539642D01*
X154725714Y-142587261D01*
X154916190Y-142634880D01*
X155059047Y-142634880D01*
X155249523Y-142587261D01*
X155344761Y-142539642D01*
X155440000Y-142444404D01*
X155487619Y-142301547D01*
X155487619Y-142206309D01*
X155440000Y-142063452D01*
X155392380Y-142015833D01*
X198191428Y-144444404D02*
X198191428Y-144111071D01*
X197667619Y-143968214D02*
X197667619Y-144444404D01*
X198667619Y-144444404D01*
X198667619Y-143968214D01*
X198191428Y-143206309D02*
X198191428Y-143539642D01*
X197667619Y-143539642D02*
X198667619Y-143539642D01*
X198667619Y-143063452D01*
X197667619Y-142158690D02*
X197667619Y-142730119D01*
X197667619Y-142444404D02*
X198667619Y-142444404D01*
X198524761Y-142539642D01*
X198429523Y-142634880D01*
X198381904Y-142730119D01*
X190571428Y-144444404D02*
X190571428Y-144111071D01*
X190047619Y-143968214D02*
X190047619Y-144444404D01*
X191047619Y-144444404D01*
X191047619Y-143968214D01*
X190571428Y-143206309D02*
X190571428Y-143539642D01*
X190047619Y-143539642D02*
X191047619Y-143539642D01*
X191047619Y-143063452D01*
X190714285Y-142253928D02*
X190047619Y-142253928D01*
X191095238Y-142492023D02*
X190380952Y-142730119D01*
X190380952Y-142111071D01*
X187555238Y-144492023D02*
X187507619Y-144349166D01*
X187507619Y-144111071D01*
X187555238Y-144015833D01*
X187602857Y-143968214D01*
X187698095Y-143920595D01*
X187793333Y-143920595D01*
X187888571Y-143968214D01*
X187936190Y-144015833D01*
X187983809Y-144111071D01*
X188031428Y-144301547D01*
X188079047Y-144396785D01*
X188126666Y-144444404D01*
X188221904Y-144492023D01*
X188317142Y-144492023D01*
X188412380Y-144444404D01*
X188460000Y-144396785D01*
X188507619Y-144301547D01*
X188507619Y-144063452D01*
X188460000Y-143920595D01*
X187602857Y-142920595D02*
X187555238Y-142968214D01*
X187507619Y-143111071D01*
X187507619Y-143206309D01*
X187555238Y-143349166D01*
X187650476Y-143444404D01*
X187745714Y-143492023D01*
X187936190Y-143539642D01*
X188079047Y-143539642D01*
X188269523Y-143492023D01*
X188364761Y-143444404D01*
X188460000Y-143349166D01*
X188507619Y-143206309D01*
X188507619Y-143111071D01*
X188460000Y-142968214D01*
X188412380Y-142920595D01*
X187507619Y-141968214D02*
X187507619Y-142539642D01*
X187507619Y-142253928D02*
X188507619Y-142253928D01*
X188364761Y-142349166D01*
X188269523Y-142444404D01*
X188221904Y-142539642D01*
X185015238Y-144492023D02*
X184967619Y-144349166D01*
X184967619Y-144111071D01*
X185015238Y-144015833D01*
X185062857Y-143968214D01*
X185158095Y-143920595D01*
X185253333Y-143920595D01*
X185348571Y-143968214D01*
X185396190Y-144015833D01*
X185443809Y-144111071D01*
X185491428Y-144301547D01*
X185539047Y-144396785D01*
X185586666Y-144444404D01*
X185681904Y-144492023D01*
X185777142Y-144492023D01*
X185872380Y-144444404D01*
X185920000Y-144396785D01*
X185967619Y-144301547D01*
X185967619Y-144063452D01*
X185920000Y-143920595D01*
X185062857Y-142920595D02*
X185015238Y-142968214D01*
X184967619Y-143111071D01*
X184967619Y-143206309D01*
X185015238Y-143349166D01*
X185110476Y-143444404D01*
X185205714Y-143492023D01*
X185396190Y-143539642D01*
X185539047Y-143539642D01*
X185729523Y-143492023D01*
X185824761Y-143444404D01*
X185920000Y-143349166D01*
X185967619Y-143206309D01*
X185967619Y-143111071D01*
X185920000Y-142968214D01*
X185872380Y-142920595D01*
X185967619Y-142301547D02*
X185967619Y-142206309D01*
X185920000Y-142111071D01*
X185872380Y-142063452D01*
X185777142Y-142015833D01*
X185586666Y-141968214D01*
X185348571Y-141968214D01*
X185158095Y-142015833D01*
X185062857Y-142063452D01*
X185015238Y-142111071D01*
X184967619Y-142206309D01*
X184967619Y-142301547D01*
X185015238Y-142396785D01*
X185062857Y-142444404D01*
X185158095Y-142492023D01*
X185348571Y-142539642D01*
X185586666Y-142539642D01*
X185777142Y-142492023D01*
X185872380Y-142444404D01*
X185920000Y-142396785D01*
X185967619Y-142301547D01*
X183427619Y-144587261D02*
X183427619Y-144015833D01*
X182427619Y-144301547D02*
X183427619Y-144301547D01*
X182427619Y-143682500D02*
X183427619Y-143682500D01*
X183427619Y-143301547D01*
X183380000Y-143206309D01*
X183332380Y-143158690D01*
X183237142Y-143111071D01*
X183094285Y-143111071D01*
X182999047Y-143158690D01*
X182951428Y-143206309D01*
X182903809Y-143301547D01*
X182903809Y-143682500D01*
X182951428Y-142349166D02*
X182903809Y-142206309D01*
X182856190Y-142158690D01*
X182760952Y-142111071D01*
X182618095Y-142111071D01*
X182522857Y-142158690D01*
X182475238Y-142206309D01*
X182427619Y-142301547D01*
X182427619Y-142682500D01*
X183427619Y-142682500D01*
X183427619Y-142349166D01*
X183380000Y-142253928D01*
X183332380Y-142206309D01*
X183237142Y-142158690D01*
X183141904Y-142158690D01*
X183046666Y-142206309D01*
X182999047Y-142253928D01*
X182951428Y-142349166D01*
X182951428Y-142682500D01*
X180887619Y-144599357D02*
X180887619Y-144100500D01*
X179887619Y-144349928D02*
X180887619Y-144349928D01*
X179887619Y-143809500D02*
X180887619Y-143809500D01*
X180887619Y-143476928D01*
X180840000Y-143393785D01*
X180792380Y-143352214D01*
X180697142Y-143310642D01*
X180554285Y-143310642D01*
X180459047Y-143352214D01*
X180411428Y-143393785D01*
X180363809Y-143476928D01*
X180363809Y-143809500D01*
X180173333Y-142978071D02*
X180173333Y-142562357D01*
X179887619Y-143061214D02*
X180887619Y-142770214D01*
X179887619Y-142479214D01*
X177347619Y-144474642D02*
X178347619Y-144474642D01*
X177633333Y-144183642D01*
X178347619Y-143892642D01*
X177347619Y-143892642D01*
X177633333Y-143518500D02*
X177633333Y-143102785D01*
X177347619Y-143601642D02*
X178347619Y-143310642D01*
X177347619Y-143019642D01*
X178347619Y-142811785D02*
X178347619Y-142229785D01*
X177347619Y-142603928D01*
X174807619Y-144474642D02*
X175807619Y-144474642D01*
X175093333Y-144183642D01*
X175807619Y-143892642D01*
X174807619Y-143892642D01*
X175093333Y-143518500D02*
X175093333Y-143102785D01*
X174807619Y-143601642D02*
X175807619Y-143310642D01*
X174807619Y-143019642D01*
X175807619Y-142354500D02*
X175807619Y-142520785D01*
X175760000Y-142603928D01*
X175712380Y-142645500D01*
X175569523Y-142728642D01*
X175379047Y-142770214D01*
X174998095Y-142770214D01*
X174902857Y-142728642D01*
X174855238Y-142687071D01*
X174807619Y-142603928D01*
X174807619Y-142437642D01*
X174855238Y-142354500D01*
X174902857Y-142312928D01*
X174998095Y-142271357D01*
X175236190Y-142271357D01*
X175331428Y-142312928D01*
X175379047Y-142354500D01*
X175426666Y-142437642D01*
X175426666Y-142603928D01*
X175379047Y-142687071D01*
X175331428Y-142728642D01*
X175236190Y-142770214D01*
X172267619Y-144474642D02*
X173267619Y-144474642D01*
X172553333Y-144183642D01*
X173267619Y-143892642D01*
X172267619Y-143892642D01*
X172553333Y-143518500D02*
X172553333Y-143102785D01*
X172267619Y-143601642D02*
X173267619Y-143310642D01*
X172267619Y-143019642D01*
X173267619Y-142312928D02*
X173267619Y-142728642D01*
X172791428Y-142770214D01*
X172839047Y-142728642D01*
X172886666Y-142645500D01*
X172886666Y-142437642D01*
X172839047Y-142354500D01*
X172791428Y-142312928D01*
X172696190Y-142271357D01*
X172458095Y-142271357D01*
X172362857Y-142312928D01*
X172315238Y-142354500D01*
X172267619Y-142437642D01*
X172267619Y-142645500D01*
X172315238Y-142728642D01*
X172362857Y-142770214D01*
X169727619Y-144444404D02*
X170727619Y-144444404D01*
X170013333Y-144111071D01*
X170727619Y-143777738D01*
X169727619Y-143777738D01*
X170013333Y-143349166D02*
X170013333Y-142872976D01*
X169727619Y-143444404D02*
X170727619Y-143111071D01*
X169727619Y-142777738D01*
X170394285Y-142015833D02*
X169727619Y-142015833D01*
X170775238Y-142253928D02*
X170060952Y-142492023D01*
X170060952Y-141872976D01*
X167187619Y-144444404D02*
X168187619Y-144444404D01*
X167473333Y-144111071D01*
X168187619Y-143777738D01*
X167187619Y-143777738D01*
X167473333Y-143349166D02*
X167473333Y-142872976D01*
X167187619Y-143444404D02*
X168187619Y-143111071D01*
X167187619Y-142777738D01*
X168187619Y-142539642D02*
X168187619Y-141920595D01*
X167806666Y-142253928D01*
X167806666Y-142111071D01*
X167759047Y-142015833D01*
X167711428Y-141968214D01*
X167616190Y-141920595D01*
X167378095Y-141920595D01*
X167282857Y-141968214D01*
X167235238Y-142015833D01*
X167187619Y-142111071D01*
X167187619Y-142396785D01*
X167235238Y-142492023D01*
X167282857Y-142539642D01*
X164647619Y-144444404D02*
X165647619Y-144444404D01*
X164933333Y-144111071D01*
X165647619Y-143777738D01*
X164647619Y-143777738D01*
X164933333Y-143349166D02*
X164933333Y-142872976D01*
X164647619Y-143444404D02*
X165647619Y-143111071D01*
X164647619Y-142777738D01*
X165552380Y-142492023D02*
X165600000Y-142444404D01*
X165647619Y-142349166D01*
X165647619Y-142111071D01*
X165600000Y-142015833D01*
X165552380Y-141968214D01*
X165457142Y-141920595D01*
X165361904Y-141920595D01*
X165219047Y-141968214D01*
X164647619Y-142539642D01*
X164647619Y-141920595D01*
X162107619Y-144444404D02*
X163107619Y-144444404D01*
X162393333Y-144111071D01*
X163107619Y-143777738D01*
X162107619Y-143777738D01*
X162393333Y-143349166D02*
X162393333Y-142872976D01*
X162107619Y-143444404D02*
X163107619Y-143111071D01*
X162107619Y-142777738D01*
X162107619Y-141920595D02*
X162107619Y-142492023D01*
X162107619Y-142206309D02*
X163107619Y-142206309D01*
X162964761Y-142301547D01*
X162869523Y-142396785D01*
X162821904Y-142492023D01*
X159567619Y-144444404D02*
X160567619Y-144444404D01*
X159853333Y-144111071D01*
X160567619Y-143777738D01*
X159567619Y-143777738D01*
X159853333Y-143349166D02*
X159853333Y-142872976D01*
X159567619Y-143444404D02*
X160567619Y-143111071D01*
X159567619Y-142777738D01*
X160567619Y-142253928D02*
X160567619Y-142158690D01*
X160520000Y-142063452D01*
X160472380Y-142015833D01*
X160377142Y-141968214D01*
X160186666Y-141920595D01*
X159948571Y-141920595D01*
X159758095Y-141968214D01*
X159662857Y-142015833D01*
X159615238Y-142063452D01*
X159567619Y-142158690D01*
X159567619Y-142253928D01*
X159615238Y-142349166D01*
X159662857Y-142396785D01*
X159758095Y-142444404D01*
X159948571Y-142492023D01*
X160186666Y-142492023D01*
X160377142Y-142444404D01*
X160472380Y-142396785D01*
X160520000Y-142349166D01*
X160567619Y-142253928D01*
X157980000Y-143920595D02*
X158027619Y-144015833D01*
X158027619Y-144158690D01*
X157980000Y-144301547D01*
X157884761Y-144396785D01*
X157789523Y-144444404D01*
X157599047Y-144492023D01*
X157456190Y-144492023D01*
X157265714Y-144444404D01*
X157170476Y-144396785D01*
X157075238Y-144301547D01*
X157027619Y-144158690D01*
X157027619Y-144063452D01*
X157075238Y-143920595D01*
X157122857Y-143872976D01*
X157456190Y-143872976D01*
X157456190Y-144063452D01*
X157027619Y-143444404D02*
X158027619Y-143444404D01*
X157027619Y-142872976D01*
X158027619Y-142872976D01*
X157027619Y-142396785D02*
X158027619Y-142396785D01*
X158027619Y-142158690D01*
X157980000Y-142015833D01*
X157884761Y-141920595D01*
X157789523Y-141872976D01*
X157599047Y-141825357D01*
X157456190Y-141825357D01*
X157265714Y-141872976D01*
X157170476Y-141920595D01*
X157075238Y-142015833D01*
X157027619Y-142158690D01*
X157027619Y-142396785D01*
D11*
X137795000Y-65405000D02*
X137795000Y-66040000D01*
X135255000Y-65405000D02*
X135255000Y-66040000D01*
X137795000Y-72390000D02*
X137795000Y-73025000D01*
X136525000Y-72390000D02*
X136525000Y-66040000D01*
X135255000Y-72390000D02*
X135255000Y-73025000D01*
X133985000Y-72390000D02*
X133985000Y-66040000D01*
X142875000Y-72390000D02*
X142875000Y-73025000D01*
X147955000Y-65405000D02*
X147955000Y-66040000D01*
X140335000Y-65405000D02*
X140335000Y-66040000D01*
X145415000Y-65405000D02*
X145415000Y-66040000D01*
X140335000Y-72390000D02*
X140335000Y-73025000D01*
X150495000Y-65405000D02*
X150495000Y-66040000D01*
X142875000Y-65405000D02*
X142875000Y-66040000D01*
X145415000Y-72390000D02*
X145415000Y-73025000D01*
X147955000Y-72390000D02*
X147955000Y-73025000D01*
X141605000Y-72390000D02*
X141605000Y-66040000D01*
X144145000Y-72390000D02*
X144145000Y-66040000D01*
X151765000Y-72390000D02*
X151765000Y-66040000D01*
X151765000Y-66040000D02*
X133985000Y-66040000D01*
X146685000Y-72390000D02*
X146685000Y-66040000D01*
X149225000Y-72390000D02*
X149225000Y-66040000D01*
X151765000Y-72390000D02*
X133985000Y-72390000D01*
X139065000Y-72390000D02*
X139065000Y-66040000D01*
X107315000Y-125730000D02*
X107315000Y-125095000D01*
X109855000Y-125730000D02*
X109855000Y-125095000D01*
X112395000Y-125730000D02*
X112395000Y-125095000D01*
X107315000Y-132715000D02*
X107315000Y-132080000D01*
X109855000Y-132715000D02*
X109855000Y-132080000D01*
X112395000Y-132715000D02*
X112395000Y-132080000D01*
D10*
X129383214Y-133485000D02*
X129478452Y-133437380D01*
X129621309Y-133437380D01*
X129764166Y-133485000D01*
X129859404Y-133580238D01*
X129907023Y-133675476D01*
X129954642Y-133865952D01*
X129954642Y-134008809D01*
X129907023Y-134199285D01*
X129859404Y-134294523D01*
X129764166Y-134389761D01*
X129621309Y-134437380D01*
X129526071Y-134437380D01*
X129383214Y-134389761D01*
X129335595Y-134342142D01*
X129335595Y-134008809D01*
X129526071Y-134008809D01*
X128907023Y-134437380D02*
X128907023Y-133437380D01*
X128335595Y-134437380D01*
X128335595Y-133437380D01*
X127859404Y-134437380D02*
X127859404Y-133437380D01*
X127621309Y-133437380D01*
X127478452Y-133485000D01*
X127383214Y-133580238D01*
X127335595Y-133675476D01*
X127287976Y-133865952D01*
X127287976Y-134008809D01*
X127335595Y-134199285D01*
X127383214Y-134294523D01*
X127478452Y-134389761D01*
X127621309Y-134437380D01*
X127859404Y-134437380D01*
X129240357Y-131897380D02*
X129240357Y-130897380D01*
X128764166Y-131897380D02*
X128764166Y-130897380D01*
X128192738Y-131897380D01*
X128192738Y-130897380D01*
X127859404Y-130897380D02*
X127526071Y-131897380D01*
X127192738Y-130897380D01*
X129240357Y-129357380D02*
X129240357Y-128357380D01*
X128764166Y-129357380D02*
X128764166Y-128357380D01*
X128192738Y-129357380D01*
X128192738Y-128357380D01*
X127859404Y-128357380D02*
X127526071Y-129357380D01*
X127192738Y-128357380D01*
X135469285Y-70238809D02*
X134802619Y-70238809D01*
X135850238Y-70476904D02*
X135135952Y-70715000D01*
X135135952Y-70095952D01*
X134897857Y-69715000D02*
X134850238Y-69667380D01*
X134802619Y-69715000D01*
X134850238Y-69762619D01*
X134897857Y-69715000D01*
X134802619Y-69715000D01*
X135802619Y-69334047D02*
X135802619Y-68667380D01*
X134802619Y-69095952D01*
X134802619Y-68286428D02*
X135802619Y-68286428D01*
X134802619Y-67715000D02*
X135374047Y-68143571D01*
X135802619Y-67715000D02*
X135231190Y-68286428D01*
X138009285Y-70238809D02*
X137342619Y-70238809D01*
X138390238Y-70476904D02*
X137675952Y-70715000D01*
X137675952Y-70095952D01*
X137437857Y-69715000D02*
X137390238Y-69667380D01*
X137342619Y-69715000D01*
X137390238Y-69762619D01*
X137437857Y-69715000D01*
X137342619Y-69715000D01*
X138342619Y-69334047D02*
X138342619Y-68667380D01*
X137342619Y-69095952D01*
X137342619Y-68286428D02*
X138342619Y-68286428D01*
X137342619Y-67715000D02*
X137914047Y-68143571D01*
X138342619Y-67715000D02*
X137771190Y-68286428D01*
X140549285Y-70238809D02*
X139882619Y-70238809D01*
X140930238Y-70476904D02*
X140215952Y-70715000D01*
X140215952Y-70095952D01*
X139977857Y-69715000D02*
X139930238Y-69667380D01*
X139882619Y-69715000D01*
X139930238Y-69762619D01*
X139977857Y-69715000D01*
X139882619Y-69715000D01*
X140882619Y-69334047D02*
X140882619Y-68667380D01*
X139882619Y-69095952D01*
X139882619Y-68286428D02*
X140882619Y-68286428D01*
X139882619Y-67715000D02*
X140454047Y-68143571D01*
X140882619Y-67715000D02*
X140311190Y-68286428D01*
X143089285Y-70238809D02*
X142422619Y-70238809D01*
X143470238Y-70476904D02*
X142755952Y-70715000D01*
X142755952Y-70095952D01*
X142517857Y-69715000D02*
X142470238Y-69667380D01*
X142422619Y-69715000D01*
X142470238Y-69762619D01*
X142517857Y-69715000D01*
X142422619Y-69715000D01*
X143422619Y-69334047D02*
X143422619Y-68667380D01*
X142422619Y-69095952D01*
X142422619Y-68286428D02*
X143422619Y-68286428D01*
X142422619Y-67715000D02*
X142994047Y-68143571D01*
X143422619Y-67715000D02*
X142851190Y-68286428D01*
X145629285Y-70238809D02*
X144962619Y-70238809D01*
X146010238Y-70476904D02*
X145295952Y-70715000D01*
X145295952Y-70095952D01*
X145057857Y-69715000D02*
X145010238Y-69667380D01*
X144962619Y-69715000D01*
X145010238Y-69762619D01*
X145057857Y-69715000D01*
X144962619Y-69715000D01*
X145962619Y-69334047D02*
X145962619Y-68667380D01*
X144962619Y-69095952D01*
X144962619Y-68286428D02*
X145962619Y-68286428D01*
X144962619Y-67715000D02*
X145534047Y-68143571D01*
X145962619Y-67715000D02*
X145391190Y-68286428D01*
X148169285Y-70238809D02*
X147502619Y-70238809D01*
X148550238Y-70476904D02*
X147835952Y-70715000D01*
X147835952Y-70095952D01*
X147597857Y-69715000D02*
X147550238Y-69667380D01*
X147502619Y-69715000D01*
X147550238Y-69762619D01*
X147597857Y-69715000D01*
X147502619Y-69715000D01*
X148502619Y-69334047D02*
X148502619Y-68667380D01*
X147502619Y-69095952D01*
X147502619Y-68286428D02*
X148502619Y-68286428D01*
X147502619Y-67715000D02*
X148074047Y-68143571D01*
X148502619Y-67715000D02*
X147931190Y-68286428D01*
X150709285Y-70238809D02*
X150042619Y-70238809D01*
X151090238Y-70476904D02*
X150375952Y-70715000D01*
X150375952Y-70095952D01*
X150137857Y-69715000D02*
X150090238Y-69667380D01*
X150042619Y-69715000D01*
X150090238Y-69762619D01*
X150137857Y-69715000D01*
X150042619Y-69715000D01*
X151042619Y-69334047D02*
X151042619Y-68667380D01*
X150042619Y-69095952D01*
X150042619Y-68286428D02*
X151042619Y-68286428D01*
X150042619Y-67715000D02*
X150614047Y-68143571D01*
X151042619Y-67715000D02*
X150471190Y-68286428D01*
X114475380Y-66212357D02*
X114475380Y-66647785D01*
X114475380Y-66430071D02*
X115491380Y-66430071D01*
X115346238Y-66502642D01*
X115249476Y-66575214D01*
X115201095Y-66647785D01*
X115491380Y-65740642D02*
X115491380Y-65668071D01*
X115443000Y-65595500D01*
X115394619Y-65559214D01*
X115297857Y-65522928D01*
X115104333Y-65486642D01*
X114862428Y-65486642D01*
X114668904Y-65522928D01*
X114572142Y-65559214D01*
X114523761Y-65595500D01*
X114475380Y-65668071D01*
X114475380Y-65740642D01*
X114523761Y-65813214D01*
X114572142Y-65849500D01*
X114668904Y-65885785D01*
X114862428Y-65922071D01*
X115104333Y-65922071D01*
X115297857Y-65885785D01*
X115394619Y-65849500D01*
X115443000Y-65813214D01*
X115491380Y-65740642D01*
X115152714Y-64833500D02*
X114475380Y-64833500D01*
X115152714Y-65160071D02*
X114620523Y-65160071D01*
X114523761Y-65123785D01*
X114475380Y-65051214D01*
X114475380Y-64942357D01*
X114523761Y-64869785D01*
X114572142Y-64833500D01*
D11*
X116205000Y-65722500D02*
G75*
G03*
X116205000Y-65722500I-3175000J0D01*
G01*
D10*
X102465119Y-75874404D02*
X101655595Y-75874404D01*
X101560357Y-75826785D01*
X101512738Y-75779166D01*
X101465119Y-75683928D01*
X101465119Y-75493452D01*
X101512738Y-75398214D01*
X101560357Y-75350595D01*
X101655595Y-75302976D01*
X102465119Y-75302976D01*
X101512738Y-74874404D02*
X101465119Y-74731547D01*
X101465119Y-74493452D01*
X101512738Y-74398214D01*
X101560357Y-74350595D01*
X101655595Y-74302976D01*
X101750833Y-74302976D01*
X101846071Y-74350595D01*
X101893690Y-74398214D01*
X101941309Y-74493452D01*
X101988928Y-74683928D01*
X102036547Y-74779166D01*
X102084166Y-74826785D01*
X102179404Y-74874404D01*
X102274642Y-74874404D01*
X102369880Y-74826785D01*
X102417500Y-74779166D01*
X102465119Y-74683928D01*
X102465119Y-74445833D01*
X102417500Y-74302976D01*
X101988928Y-73541071D02*
X101941309Y-73398214D01*
X101893690Y-73350595D01*
X101798452Y-73302976D01*
X101655595Y-73302976D01*
X101560357Y-73350595D01*
X101512738Y-73398214D01*
X101465119Y-73493452D01*
X101465119Y-73874404D01*
X102465119Y-73874404D01*
X102465119Y-73541071D01*
X102417500Y-73445833D01*
X102369880Y-73398214D01*
X102274642Y-73350595D01*
X102179404Y-73350595D01*
X102084166Y-73398214D01*
X102036547Y-73445833D01*
X101988928Y-73541071D01*
X101988928Y-73874404D01*
D11*
X108204000Y-69850000D02*
X108204000Y-79375000D01*
X108204000Y-79375000D02*
X99949000Y-79375000D01*
X159385000Y-83185000D02*
G75*
G02*
X159385000Y-85725000I0J-1270000D01*
G01*
X133985000Y-113665000D02*
G75*
G02*
X133985000Y-116205000I0J-1270000D01*
G01*
X159385000Y-125095000D02*
G75*
G02*
X159385000Y-127635000I0J-1270000D01*
G01*
X159385000Y-102235000D02*
G75*
G02*
X159385000Y-104775000I0J-1270000D01*
G01*
X106045000Y-113665000D02*
G75*
G02*
X106045000Y-116205000I0J-1270000D01*
G01*
X123825000Y-65405000D02*
X123825000Y-67945000D01*
X118745000Y-65405000D02*
X118745000Y-67945000D01*
X123825000Y-65405000D02*
X118745000Y-65405000D01*
X123825000Y-67945000D02*
X118745000Y-67945000D01*
D10*
X107529285Y-129928809D02*
X106862619Y-129928809D01*
X107910238Y-130166904D02*
X107195952Y-130405000D01*
X107195952Y-129785952D01*
X106957857Y-129405000D02*
X106910238Y-129357380D01*
X106862619Y-129405000D01*
X106910238Y-129452619D01*
X106957857Y-129405000D01*
X106862619Y-129405000D01*
X107862619Y-129024047D02*
X107862619Y-128357380D01*
X106862619Y-128785952D01*
X106862619Y-127976428D02*
X107862619Y-127976428D01*
X106862619Y-127405000D02*
X107434047Y-127833571D01*
X107862619Y-127405000D02*
X107291190Y-127976428D01*
X110069285Y-129928809D02*
X109402619Y-129928809D01*
X110450238Y-130166904D02*
X109735952Y-130405000D01*
X109735952Y-129785952D01*
X109497857Y-129405000D02*
X109450238Y-129357380D01*
X109402619Y-129405000D01*
X109450238Y-129452619D01*
X109497857Y-129405000D01*
X109402619Y-129405000D01*
X110402619Y-129024047D02*
X110402619Y-128357380D01*
X109402619Y-128785952D01*
X109402619Y-127976428D02*
X110402619Y-127976428D01*
X109402619Y-127405000D02*
X109974047Y-127833571D01*
X110402619Y-127405000D02*
X109831190Y-127976428D01*
X112609285Y-129690714D02*
X111942619Y-129690714D01*
X112990238Y-129928809D02*
X112275952Y-130166904D01*
X112275952Y-129547857D01*
X112942619Y-129262142D02*
X112942619Y-128595476D01*
X111942619Y-129024047D01*
X111942619Y-128214523D02*
X112942619Y-128214523D01*
X111942619Y-127643095D02*
X112514047Y-128071666D01*
X112942619Y-127643095D02*
X112371190Y-128214523D01*
D11*
X106045000Y-132080000D02*
X113665000Y-132080000D01*
X106045000Y-125730000D02*
X113665000Y-125730000D01*
X106045000Y-125730000D02*
X106045000Y-132080000D01*
X108585000Y-125730000D02*
X108585000Y-132080000D01*
X113665000Y-125730000D02*
X113665000Y-132080000D01*
X111125000Y-125730000D02*
X111125000Y-132080000D01*
D10*
X175291428Y-83987142D02*
X175339047Y-84034761D01*
X175481904Y-84082380D01*
X175577142Y-84082380D01*
X175720000Y-84034761D01*
X175815238Y-83939523D01*
X175862857Y-83844285D01*
X175910476Y-83653809D01*
X175910476Y-83510952D01*
X175862857Y-83320476D01*
X175815238Y-83225238D01*
X175720000Y-83130000D01*
X175577142Y-83082380D01*
X175481904Y-83082380D01*
X175339047Y-83130000D01*
X175291428Y-83177619D01*
X174862857Y-84082380D02*
X174862857Y-83082380D01*
X174624761Y-83082380D01*
X174481904Y-83130000D01*
X174386666Y-83225238D01*
X174339047Y-83320476D01*
X174291428Y-83510952D01*
X174291428Y-83653809D01*
X174339047Y-83844285D01*
X174386666Y-83939523D01*
X174481904Y-84034761D01*
X174624761Y-84082380D01*
X174862857Y-84082380D01*
X173434285Y-83415714D02*
X173434285Y-84082380D01*
X173672380Y-83034761D02*
X173910476Y-83749047D01*
X173291428Y-83749047D01*
X172720000Y-83082380D02*
X172624761Y-83082380D01*
X172529523Y-83130000D01*
X172481904Y-83177619D01*
X172434285Y-83272857D01*
X172386666Y-83463333D01*
X172386666Y-83701428D01*
X172434285Y-83891904D01*
X172481904Y-83987142D01*
X172529523Y-84034761D01*
X172624761Y-84082380D01*
X172720000Y-84082380D01*
X172815238Y-84034761D01*
X172862857Y-83987142D01*
X172910476Y-83891904D01*
X172958095Y-83701428D01*
X172958095Y-83463333D01*
X172910476Y-83272857D01*
X172862857Y-83177619D01*
X172815238Y-83130000D01*
X172720000Y-83082380D01*
X172005714Y-83177619D02*
X171958095Y-83130000D01*
X171862857Y-83082380D01*
X171624761Y-83082380D01*
X171529523Y-83130000D01*
X171481904Y-83177619D01*
X171434285Y-83272857D01*
X171434285Y-83368095D01*
X171481904Y-83510952D01*
X172053333Y-84082380D01*
X171434285Y-84082380D01*
X170577142Y-83415714D02*
X170577142Y-84082380D01*
X170815238Y-83034761D02*
X171053333Y-83749047D01*
X170434285Y-83749047D01*
X169577142Y-83082380D02*
X170053333Y-83082380D01*
X170100952Y-83558571D01*
X170053333Y-83510952D01*
X169958095Y-83463333D01*
X169720000Y-83463333D01*
X169624761Y-83510952D01*
X169577142Y-83558571D01*
X169529523Y-83653809D01*
X169529523Y-83891904D01*
X169577142Y-83987142D01*
X169624761Y-84034761D01*
X169720000Y-84082380D01*
X169958095Y-84082380D01*
X170053333Y-84034761D01*
X170100952Y-83987142D01*
X177743809Y-84732380D02*
X177553333Y-84732380D01*
X177458095Y-84780000D01*
X177362857Y-84875238D01*
X177315238Y-85065714D01*
X177315238Y-85399047D01*
X177362857Y-85589523D01*
X177458095Y-85684761D01*
X177553333Y-85732380D01*
X177743809Y-85732380D01*
X177839047Y-85684761D01*
X177934285Y-85589523D01*
X177981904Y-85399047D01*
X177981904Y-85065714D01*
X177934285Y-84875238D01*
X177839047Y-84780000D01*
X177743809Y-84732380D01*
X176315238Y-85637142D02*
X176362857Y-85684761D01*
X176505714Y-85732380D01*
X176600952Y-85732380D01*
X176743809Y-85684761D01*
X176839047Y-85589523D01*
X176886666Y-85494285D01*
X176934285Y-85303809D01*
X176934285Y-85160952D01*
X176886666Y-84970476D01*
X176839047Y-84875238D01*
X176743809Y-84780000D01*
X176600952Y-84732380D01*
X176505714Y-84732380D01*
X176362857Y-84780000D01*
X176315238Y-84827619D01*
X176029523Y-84732380D02*
X175458095Y-84732380D01*
X175743809Y-85732380D02*
X175743809Y-84732380D01*
X175172380Y-85446666D02*
X174696190Y-85446666D01*
X175267619Y-85732380D02*
X174934285Y-84732380D01*
X174600952Y-85732380D01*
X173791428Y-85732380D02*
X174267619Y-85732380D01*
X174267619Y-84732380D01*
X172362857Y-85208571D02*
X172220000Y-85256190D01*
X172172380Y-85303809D01*
X172124761Y-85399047D01*
X172124761Y-85541904D01*
X172172380Y-85637142D01*
X172220000Y-85684761D01*
X172315238Y-85732380D01*
X172696190Y-85732380D01*
X172696190Y-84732380D01*
X172362857Y-84732380D01*
X172267619Y-84780000D01*
X172220000Y-84827619D01*
X172172380Y-84922857D01*
X172172380Y-85018095D01*
X172220000Y-85113333D01*
X172267619Y-85160952D01*
X172362857Y-85208571D01*
X172696190Y-85208571D01*
X171696190Y-84732380D02*
X171696190Y-85541904D01*
X171648571Y-85637142D01*
X171600952Y-85684761D01*
X171505714Y-85732380D01*
X171315238Y-85732380D01*
X171220000Y-85684761D01*
X171172380Y-85637142D01*
X171124761Y-85541904D01*
X171124761Y-84732380D01*
X170315238Y-85208571D02*
X170648571Y-85208571D01*
X170648571Y-85732380D02*
X170648571Y-84732380D01*
X170172380Y-84732380D01*
X169458095Y-85208571D02*
X169791428Y-85208571D01*
X169791428Y-85732380D02*
X169791428Y-84732380D01*
X169315238Y-84732380D01*
X168934285Y-85208571D02*
X168600952Y-85208571D01*
X168458095Y-85732380D02*
X168934285Y-85732380D01*
X168934285Y-84732380D01*
X168458095Y-84732380D01*
X167458095Y-85732380D02*
X167791428Y-85256190D01*
X168029523Y-85732380D02*
X168029523Y-84732380D01*
X167648571Y-84732380D01*
X167553333Y-84780000D01*
X167505714Y-84827619D01*
X167458095Y-84922857D01*
X167458095Y-85065714D01*
X167505714Y-85160952D01*
X167553333Y-85208571D01*
X167648571Y-85256190D01*
X168029523Y-85256190D01*
X118300238Y-114467142D02*
X118347857Y-114514761D01*
X118490714Y-114562380D01*
X118585952Y-114562380D01*
X118728809Y-114514761D01*
X118824047Y-114419523D01*
X118871666Y-114324285D01*
X118919285Y-114133809D01*
X118919285Y-113990952D01*
X118871666Y-113800476D01*
X118824047Y-113705238D01*
X118728809Y-113610000D01*
X118585952Y-113562380D01*
X118490714Y-113562380D01*
X118347857Y-113610000D01*
X118300238Y-113657619D01*
X117871666Y-114562380D02*
X117871666Y-113562380D01*
X117633571Y-113562380D01*
X117490714Y-113610000D01*
X117395476Y-113705238D01*
X117347857Y-113800476D01*
X117300238Y-113990952D01*
X117300238Y-114133809D01*
X117347857Y-114324285D01*
X117395476Y-114419523D01*
X117490714Y-114514761D01*
X117633571Y-114562380D01*
X117871666Y-114562380D01*
X116443095Y-113895714D02*
X116443095Y-114562380D01*
X116681190Y-113514761D02*
X116919285Y-114229047D01*
X116300238Y-114229047D01*
X115728809Y-113562380D02*
X115633571Y-113562380D01*
X115538333Y-113610000D01*
X115490714Y-113657619D01*
X115443095Y-113752857D01*
X115395476Y-113943333D01*
X115395476Y-114181428D01*
X115443095Y-114371904D01*
X115490714Y-114467142D01*
X115538333Y-114514761D01*
X115633571Y-114562380D01*
X115728809Y-114562380D01*
X115824047Y-114514761D01*
X115871666Y-114467142D01*
X115919285Y-114371904D01*
X115966904Y-114181428D01*
X115966904Y-113943333D01*
X115919285Y-113752857D01*
X115871666Y-113657619D01*
X115824047Y-113610000D01*
X115728809Y-113562380D01*
X114538333Y-113895714D02*
X114538333Y-114562380D01*
X114776428Y-113514761D02*
X115014523Y-114229047D01*
X114395476Y-114229047D01*
X113966904Y-114562380D02*
X113776428Y-114562380D01*
X113681190Y-114514761D01*
X113633571Y-114467142D01*
X113538333Y-114324285D01*
X113490714Y-114133809D01*
X113490714Y-113752857D01*
X113538333Y-113657619D01*
X113585952Y-113610000D01*
X113681190Y-113562380D01*
X113871666Y-113562380D01*
X113966904Y-113610000D01*
X114014523Y-113657619D01*
X114062142Y-113752857D01*
X114062142Y-113990952D01*
X114014523Y-114086190D01*
X113966904Y-114133809D01*
X113871666Y-114181428D01*
X113681190Y-114181428D01*
X113585952Y-114133809D01*
X113538333Y-114086190D01*
X113490714Y-113990952D01*
X121276428Y-116212380D02*
X121276428Y-115212380D01*
X121276428Y-115688571D02*
X120705000Y-115688571D01*
X120705000Y-116212380D02*
X120705000Y-115212380D01*
X120228809Y-115688571D02*
X119895476Y-115688571D01*
X119752619Y-116212380D02*
X120228809Y-116212380D01*
X120228809Y-115212380D01*
X119752619Y-115212380D01*
X119419285Y-115212380D02*
X118752619Y-116212380D01*
X118752619Y-115212380D02*
X119419285Y-116212380D01*
X117609761Y-116212380D02*
X117609761Y-115212380D01*
X117133571Y-116212380D02*
X117133571Y-115212380D01*
X116562142Y-116212380D01*
X116562142Y-115212380D01*
X116228809Y-115212380D02*
X115895476Y-116212380D01*
X115562142Y-115212380D01*
X115228809Y-115688571D02*
X114895476Y-115688571D01*
X114752619Y-116212380D02*
X115228809Y-116212380D01*
X115228809Y-115212380D01*
X114752619Y-115212380D01*
X113752619Y-116212380D02*
X114085952Y-115736190D01*
X114324047Y-116212380D02*
X114324047Y-115212380D01*
X113943095Y-115212380D01*
X113847857Y-115260000D01*
X113800238Y-115307619D01*
X113752619Y-115402857D01*
X113752619Y-115545714D01*
X113800238Y-115640952D01*
X113847857Y-115688571D01*
X113943095Y-115736190D01*
X114324047Y-115736190D01*
X113466904Y-115212380D02*
X112895476Y-115212380D01*
X113181190Y-116212380D02*
X113181190Y-115212380D01*
X112562142Y-115688571D02*
X112228809Y-115688571D01*
X112085952Y-116212380D02*
X112562142Y-116212380D01*
X112562142Y-115212380D01*
X112085952Y-115212380D01*
X111085952Y-116212380D02*
X111419285Y-115736190D01*
X111657380Y-116212380D02*
X111657380Y-115212380D01*
X111276428Y-115212380D01*
X111181190Y-115260000D01*
X111133571Y-115307619D01*
X111085952Y-115402857D01*
X111085952Y-115545714D01*
X111133571Y-115640952D01*
X111181190Y-115688571D01*
X111276428Y-115736190D01*
X111657380Y-115736190D01*
X144970238Y-114467142D02*
X145017857Y-114514761D01*
X145160714Y-114562380D01*
X145255952Y-114562380D01*
X145398809Y-114514761D01*
X145494047Y-114419523D01*
X145541666Y-114324285D01*
X145589285Y-114133809D01*
X145589285Y-113990952D01*
X145541666Y-113800476D01*
X145494047Y-113705238D01*
X145398809Y-113610000D01*
X145255952Y-113562380D01*
X145160714Y-113562380D01*
X145017857Y-113610000D01*
X144970238Y-113657619D01*
X144541666Y-114562380D02*
X144541666Y-113562380D01*
X144303571Y-113562380D01*
X144160714Y-113610000D01*
X144065476Y-113705238D01*
X144017857Y-113800476D01*
X143970238Y-113990952D01*
X143970238Y-114133809D01*
X144017857Y-114324285D01*
X144065476Y-114419523D01*
X144160714Y-114514761D01*
X144303571Y-114562380D01*
X144541666Y-114562380D01*
X143113095Y-113895714D02*
X143113095Y-114562380D01*
X143351190Y-113514761D02*
X143589285Y-114229047D01*
X142970238Y-114229047D01*
X142398809Y-113562380D02*
X142303571Y-113562380D01*
X142208333Y-113610000D01*
X142160714Y-113657619D01*
X142113095Y-113752857D01*
X142065476Y-113943333D01*
X142065476Y-114181428D01*
X142113095Y-114371904D01*
X142160714Y-114467142D01*
X142208333Y-114514761D01*
X142303571Y-114562380D01*
X142398809Y-114562380D01*
X142494047Y-114514761D01*
X142541666Y-114467142D01*
X142589285Y-114371904D01*
X142636904Y-114181428D01*
X142636904Y-113943333D01*
X142589285Y-113752857D01*
X142541666Y-113657619D01*
X142494047Y-113610000D01*
X142398809Y-113562380D01*
X141732142Y-113562380D02*
X141065476Y-113562380D01*
X141494047Y-114562380D01*
X140160714Y-114562380D02*
X140732142Y-114562380D01*
X140446428Y-114562380D02*
X140446428Y-113562380D01*
X140541666Y-113705238D01*
X140636904Y-113800476D01*
X140732142Y-113848095D01*
X145351190Y-116307619D02*
X145446428Y-116260000D01*
X145541666Y-116164761D01*
X145684523Y-116021904D01*
X145779761Y-115974285D01*
X145875000Y-115974285D01*
X145827380Y-116212380D02*
X145922619Y-116164761D01*
X146017857Y-116069523D01*
X146065476Y-115879047D01*
X146065476Y-115545714D01*
X146017857Y-115355238D01*
X145922619Y-115260000D01*
X145827380Y-115212380D01*
X145636904Y-115212380D01*
X145541666Y-115260000D01*
X145446428Y-115355238D01*
X145398809Y-115545714D01*
X145398809Y-115879047D01*
X145446428Y-116069523D01*
X145541666Y-116164761D01*
X145636904Y-116212380D01*
X145827380Y-116212380D01*
X144970238Y-115212380D02*
X144970238Y-116021904D01*
X144922619Y-116117142D01*
X144875000Y-116164761D01*
X144779761Y-116212380D01*
X144589285Y-116212380D01*
X144494047Y-116164761D01*
X144446428Y-116117142D01*
X144398809Y-116021904D01*
X144398809Y-115212380D01*
X143970238Y-115926666D02*
X143494047Y-115926666D01*
X144065476Y-116212380D02*
X143732142Y-115212380D01*
X143398809Y-116212380D01*
X143065476Y-116212380D02*
X143065476Y-115212380D01*
X142827380Y-115212380D01*
X142684523Y-115260000D01*
X142589285Y-115355238D01*
X142541666Y-115450476D01*
X142494047Y-115640952D01*
X142494047Y-115783809D01*
X142541666Y-115974285D01*
X142589285Y-116069523D01*
X142684523Y-116164761D01*
X142827380Y-116212380D01*
X143065476Y-116212380D01*
X141113095Y-115212380D02*
X140922619Y-115212380D01*
X140827380Y-115260000D01*
X140732142Y-115355238D01*
X140684523Y-115545714D01*
X140684523Y-115879047D01*
X140732142Y-116069523D01*
X140827380Y-116164761D01*
X140922619Y-116212380D01*
X141113095Y-116212380D01*
X141208333Y-116164761D01*
X141303571Y-116069523D01*
X141351190Y-115879047D01*
X141351190Y-115545714D01*
X141303571Y-115355238D01*
X141208333Y-115260000D01*
X141113095Y-115212380D01*
X139684523Y-116212380D02*
X140017857Y-115736190D01*
X140255952Y-116212380D02*
X140255952Y-115212380D01*
X139875000Y-115212380D01*
X139779761Y-115260000D01*
X139732142Y-115307619D01*
X139684523Y-115402857D01*
X139684523Y-115545714D01*
X139732142Y-115640952D01*
X139779761Y-115688571D01*
X139875000Y-115736190D01*
X140255952Y-115736190D01*
X192777619Y-129769761D02*
X193253809Y-130103095D01*
X192777619Y-130341190D02*
X193777619Y-130341190D01*
X193777619Y-129960238D01*
X193730000Y-129865000D01*
X193682380Y-129817380D01*
X193587142Y-129769761D01*
X193444285Y-129769761D01*
X193349047Y-129817380D01*
X193301428Y-129865000D01*
X193253809Y-129960238D01*
X193253809Y-130341190D01*
X193777619Y-129150714D02*
X193777619Y-128960238D01*
X193730000Y-128865000D01*
X193634761Y-128769761D01*
X193444285Y-128722142D01*
X193110952Y-128722142D01*
X192920476Y-128769761D01*
X192825238Y-128865000D01*
X192777619Y-128960238D01*
X192777619Y-129150714D01*
X192825238Y-129245952D01*
X192920476Y-129341190D01*
X193110952Y-129388809D01*
X193444285Y-129388809D01*
X193634761Y-129341190D01*
X193730000Y-129245952D01*
X193777619Y-129150714D01*
X192777619Y-128293571D02*
X193777619Y-128293571D01*
X193063333Y-127960238D01*
X193777619Y-127626904D01*
X192777619Y-127626904D01*
X193777619Y-126531666D02*
X193777619Y-125960238D01*
X192777619Y-126245952D02*
X193777619Y-126245952D01*
X193253809Y-125436428D02*
X192777619Y-125436428D01*
X193777619Y-125769761D02*
X193253809Y-125436428D01*
X193777619Y-125103095D01*
X192777619Y-124769761D02*
X193777619Y-124769761D01*
X193777619Y-124388809D01*
X193730000Y-124293571D01*
X193682380Y-124245952D01*
X193587142Y-124198333D01*
X193444285Y-124198333D01*
X193349047Y-124245952D01*
X193301428Y-124293571D01*
X193253809Y-124388809D01*
X193253809Y-124769761D01*
X193301428Y-123769761D02*
X193301428Y-123436428D01*
X192777619Y-123293571D02*
X192777619Y-123769761D01*
X193777619Y-123769761D01*
X193777619Y-123293571D01*
X192825238Y-122912619D02*
X192777619Y-122769761D01*
X192777619Y-122531666D01*
X192825238Y-122436428D01*
X192872857Y-122388809D01*
X192968095Y-122341190D01*
X193063333Y-122341190D01*
X193158571Y-122388809D01*
X193206190Y-122436428D01*
X193253809Y-122531666D01*
X193301428Y-122722142D01*
X193349047Y-122817380D01*
X193396666Y-122865000D01*
X193491904Y-122912619D01*
X193587142Y-122912619D01*
X193682380Y-122865000D01*
X193730000Y-122817380D01*
X193777619Y-122722142D01*
X193777619Y-122484047D01*
X193730000Y-122341190D01*
X191127619Y-131198333D02*
X192127619Y-131198333D01*
X191651428Y-131198333D02*
X191651428Y-130626904D01*
X191127619Y-130626904D02*
X192127619Y-130626904D01*
X191127619Y-130150714D02*
X192127619Y-130150714D01*
X192080000Y-129150714D02*
X192127619Y-129245952D01*
X192127619Y-129388809D01*
X192080000Y-129531666D01*
X191984761Y-129626904D01*
X191889523Y-129674523D01*
X191699047Y-129722142D01*
X191556190Y-129722142D01*
X191365714Y-129674523D01*
X191270476Y-129626904D01*
X191175238Y-129531666D01*
X191127619Y-129388809D01*
X191127619Y-129293571D01*
X191175238Y-129150714D01*
X191222857Y-129103095D01*
X191556190Y-129103095D01*
X191556190Y-129293571D01*
X191127619Y-128674523D02*
X192127619Y-128674523D01*
X191651428Y-128674523D02*
X191651428Y-128103095D01*
X191127619Y-128103095D02*
X192127619Y-128103095D01*
X192127619Y-126674523D02*
X192127619Y-126484047D01*
X192080000Y-126388809D01*
X191984761Y-126293571D01*
X191794285Y-126245952D01*
X191460952Y-126245952D01*
X191270476Y-126293571D01*
X191175238Y-126388809D01*
X191127619Y-126484047D01*
X191127619Y-126674523D01*
X191175238Y-126769761D01*
X191270476Y-126865000D01*
X191460952Y-126912619D01*
X191794285Y-126912619D01*
X191984761Y-126865000D01*
X192080000Y-126769761D01*
X192127619Y-126674523D01*
X191127619Y-125245952D02*
X191603809Y-125579285D01*
X191127619Y-125817380D02*
X192127619Y-125817380D01*
X192127619Y-125436428D01*
X192080000Y-125341190D01*
X192032380Y-125293571D01*
X191937142Y-125245952D01*
X191794285Y-125245952D01*
X191699047Y-125293571D01*
X191651428Y-125341190D01*
X191603809Y-125436428D01*
X191603809Y-125817380D01*
X191127619Y-123579285D02*
X191127619Y-124055476D01*
X192127619Y-124055476D01*
X192127619Y-123055476D02*
X192127619Y-122865000D01*
X192080000Y-122769761D01*
X191984761Y-122674523D01*
X191794285Y-122626904D01*
X191460952Y-122626904D01*
X191270476Y-122674523D01*
X191175238Y-122769761D01*
X191127619Y-122865000D01*
X191127619Y-123055476D01*
X191175238Y-123150714D01*
X191270476Y-123245952D01*
X191460952Y-123293571D01*
X191794285Y-123293571D01*
X191984761Y-123245952D01*
X192080000Y-123150714D01*
X192127619Y-123055476D01*
X192127619Y-122293571D02*
X191127619Y-122055476D01*
X191841904Y-121865000D01*
X191127619Y-121674523D01*
X192127619Y-121436428D01*
X192777619Y-106814523D02*
X193253809Y-107147857D01*
X192777619Y-107385952D02*
X193777619Y-107385952D01*
X193777619Y-107005000D01*
X193730000Y-106909761D01*
X193682380Y-106862142D01*
X193587142Y-106814523D01*
X193444285Y-106814523D01*
X193349047Y-106862142D01*
X193301428Y-106909761D01*
X193253809Y-107005000D01*
X193253809Y-107385952D01*
X193063333Y-106433571D02*
X193063333Y-105957380D01*
X192777619Y-106528809D02*
X193777619Y-106195476D01*
X192777619Y-105862142D01*
X192777619Y-105528809D02*
X193777619Y-105528809D01*
X193063333Y-105195476D01*
X193777619Y-104862142D01*
X192777619Y-104862142D01*
X193777619Y-103766904D02*
X193777619Y-103195476D01*
X192777619Y-103481190D02*
X193777619Y-103481190D01*
X193253809Y-102671666D02*
X192777619Y-102671666D01*
X193777619Y-103005000D02*
X193253809Y-102671666D01*
X193777619Y-102338333D01*
X192777619Y-102005000D02*
X193777619Y-102005000D01*
X193777619Y-101624047D01*
X193730000Y-101528809D01*
X193682380Y-101481190D01*
X193587142Y-101433571D01*
X193444285Y-101433571D01*
X193349047Y-101481190D01*
X193301428Y-101528809D01*
X193253809Y-101624047D01*
X193253809Y-102005000D01*
X193301428Y-101005000D02*
X193301428Y-100671666D01*
X192777619Y-100528809D02*
X192777619Y-101005000D01*
X193777619Y-101005000D01*
X193777619Y-100528809D01*
X192825238Y-100147857D02*
X192777619Y-100005000D01*
X192777619Y-99766904D01*
X192825238Y-99671666D01*
X192872857Y-99624047D01*
X192968095Y-99576428D01*
X193063333Y-99576428D01*
X193158571Y-99624047D01*
X193206190Y-99671666D01*
X193253809Y-99766904D01*
X193301428Y-99957380D01*
X193349047Y-100052619D01*
X193396666Y-100100238D01*
X193491904Y-100147857D01*
X193587142Y-100147857D01*
X193682380Y-100100238D01*
X193730000Y-100052619D01*
X193777619Y-99957380D01*
X193777619Y-99719285D01*
X193730000Y-99576428D01*
X191127619Y-108338333D02*
X192127619Y-108338333D01*
X191651428Y-108338333D02*
X191651428Y-107766904D01*
X191127619Y-107766904D02*
X192127619Y-107766904D01*
X191127619Y-107290714D02*
X192127619Y-107290714D01*
X192080000Y-106290714D02*
X192127619Y-106385952D01*
X192127619Y-106528809D01*
X192080000Y-106671666D01*
X191984761Y-106766904D01*
X191889523Y-106814523D01*
X191699047Y-106862142D01*
X191556190Y-106862142D01*
X191365714Y-106814523D01*
X191270476Y-106766904D01*
X191175238Y-106671666D01*
X191127619Y-106528809D01*
X191127619Y-106433571D01*
X191175238Y-106290714D01*
X191222857Y-106243095D01*
X191556190Y-106243095D01*
X191556190Y-106433571D01*
X191127619Y-105814523D02*
X192127619Y-105814523D01*
X191651428Y-105814523D02*
X191651428Y-105243095D01*
X191127619Y-105243095D02*
X192127619Y-105243095D01*
X192127619Y-103814523D02*
X192127619Y-103624047D01*
X192080000Y-103528809D01*
X191984761Y-103433571D01*
X191794285Y-103385952D01*
X191460952Y-103385952D01*
X191270476Y-103433571D01*
X191175238Y-103528809D01*
X191127619Y-103624047D01*
X191127619Y-103814523D01*
X191175238Y-103909761D01*
X191270476Y-104005000D01*
X191460952Y-104052619D01*
X191794285Y-104052619D01*
X191984761Y-104005000D01*
X192080000Y-103909761D01*
X192127619Y-103814523D01*
X191127619Y-102385952D02*
X191603809Y-102719285D01*
X191127619Y-102957380D02*
X192127619Y-102957380D01*
X192127619Y-102576428D01*
X192080000Y-102481190D01*
X192032380Y-102433571D01*
X191937142Y-102385952D01*
X191794285Y-102385952D01*
X191699047Y-102433571D01*
X191651428Y-102481190D01*
X191603809Y-102576428D01*
X191603809Y-102957380D01*
X191127619Y-100719285D02*
X191127619Y-101195476D01*
X192127619Y-101195476D01*
X192127619Y-100195476D02*
X192127619Y-100005000D01*
X192080000Y-99909761D01*
X191984761Y-99814523D01*
X191794285Y-99766904D01*
X191460952Y-99766904D01*
X191270476Y-99814523D01*
X191175238Y-99909761D01*
X191127619Y-100005000D01*
X191127619Y-100195476D01*
X191175238Y-100290714D01*
X191270476Y-100385952D01*
X191460952Y-100433571D01*
X191794285Y-100433571D01*
X191984761Y-100385952D01*
X192080000Y-100290714D01*
X192127619Y-100195476D01*
X192127619Y-99433571D02*
X191127619Y-99195476D01*
X191841904Y-99005000D01*
X191127619Y-98814523D01*
X192127619Y-98576428D01*
X195320400Y-92527380D02*
X195320400Y-91527380D01*
X195320400Y-92003571D02*
X194778000Y-92003571D01*
X194778000Y-92527380D02*
X194778000Y-91527380D01*
X194326000Y-92527380D02*
X194326000Y-91527380D01*
X193376800Y-91575000D02*
X193467200Y-91527380D01*
X193602800Y-91527380D01*
X193738400Y-91575000D01*
X193828800Y-91670238D01*
X193874000Y-91765476D01*
X193919200Y-91955952D01*
X193919200Y-92098809D01*
X193874000Y-92289285D01*
X193828800Y-92384523D01*
X193738400Y-92479761D01*
X193602800Y-92527380D01*
X193512400Y-92527380D01*
X193376800Y-92479761D01*
X193331600Y-92432142D01*
X193331600Y-92098809D01*
X193512400Y-92098809D01*
X192924800Y-92527380D02*
X192924800Y-91527380D01*
X192924800Y-92003571D02*
X192382400Y-92003571D01*
X192382400Y-92527380D02*
X192382400Y-91527380D01*
X191207200Y-92527380D02*
X191207200Y-91527380D01*
X190890800Y-92241666D01*
X190574400Y-91527380D01*
X190574400Y-92527380D01*
X190122400Y-92003571D02*
X189806000Y-92003571D01*
X189670400Y-92527380D02*
X190122400Y-92527380D01*
X190122400Y-91527380D01*
X189670400Y-91527380D01*
X189263600Y-92527380D02*
X189263600Y-91527380D01*
X188947200Y-92241666D01*
X188630800Y-91527380D01*
X188630800Y-92527380D01*
X186913200Y-92432142D02*
X186958400Y-92479761D01*
X187094000Y-92527380D01*
X187184400Y-92527380D01*
X187320000Y-92479761D01*
X187410400Y-92384523D01*
X187455600Y-92289285D01*
X187500800Y-92098809D01*
X187500800Y-91955952D01*
X187455600Y-91765476D01*
X187410400Y-91670238D01*
X187320000Y-91575000D01*
X187184400Y-91527380D01*
X187094000Y-91527380D01*
X186958400Y-91575000D01*
X186913200Y-91622619D01*
X186325600Y-91527380D02*
X186144800Y-91527380D01*
X186054400Y-91575000D01*
X185964000Y-91670238D01*
X185918800Y-91860714D01*
X185918800Y-92194047D01*
X185964000Y-92384523D01*
X186054400Y-92479761D01*
X186144800Y-92527380D01*
X186325600Y-92527380D01*
X186416000Y-92479761D01*
X186506400Y-92384523D01*
X186551600Y-92194047D01*
X186551600Y-91860714D01*
X186506400Y-91670238D01*
X186416000Y-91575000D01*
X186325600Y-91527380D01*
X185512000Y-92527380D02*
X185512000Y-91527380D01*
X184969600Y-92527380D01*
X184969600Y-91527380D01*
X184201200Y-92003571D02*
X184517600Y-92003571D01*
X184517600Y-92527380D02*
X184517600Y-91527380D01*
X184065600Y-91527380D01*
D11*
X133985000Y-120015000D02*
X133985000Y-109855000D01*
X151765000Y-120015000D02*
X151765000Y-109855000D01*
X133985000Y-120015000D02*
X151765000Y-120015000D01*
D10*
X161472619Y-130579285D02*
X161472619Y-131055476D01*
X162472619Y-131055476D01*
X162472619Y-130055476D02*
X162472619Y-129865000D01*
X162425000Y-129769761D01*
X162329761Y-129674523D01*
X162139285Y-129626904D01*
X161805952Y-129626904D01*
X161615476Y-129674523D01*
X161520238Y-129769761D01*
X161472619Y-129865000D01*
X161472619Y-130055476D01*
X161520238Y-130150714D01*
X161615476Y-130245952D01*
X161805952Y-130293571D01*
X162139285Y-130293571D01*
X162329761Y-130245952D01*
X162425000Y-130150714D01*
X162472619Y-130055476D01*
X162472619Y-129293571D02*
X161472619Y-129055476D01*
X162186904Y-128865000D01*
X161472619Y-128674523D01*
X162472619Y-128436428D01*
X161472619Y-127293571D02*
X162472619Y-127293571D01*
X161758333Y-126960238D01*
X162472619Y-126626904D01*
X161472619Y-126626904D01*
X161996428Y-126150714D02*
X161996428Y-125817380D01*
X161472619Y-125674523D02*
X161472619Y-126150714D01*
X162472619Y-126150714D01*
X162472619Y-125674523D01*
X161472619Y-125245952D02*
X162472619Y-125245952D01*
X161758333Y-124912619D01*
X162472619Y-124579285D01*
X161472619Y-124579285D01*
X162472619Y-123912619D02*
X162472619Y-123722142D01*
X162425000Y-123626904D01*
X162329761Y-123531666D01*
X162139285Y-123484047D01*
X161805952Y-123484047D01*
X161615476Y-123531666D01*
X161520238Y-123626904D01*
X161472619Y-123722142D01*
X161472619Y-123912619D01*
X161520238Y-124007857D01*
X161615476Y-124103095D01*
X161805952Y-124150714D01*
X162139285Y-124150714D01*
X162329761Y-124103095D01*
X162425000Y-124007857D01*
X162472619Y-123912619D01*
X161472619Y-122484047D02*
X161948809Y-122817380D01*
X161472619Y-123055476D02*
X162472619Y-123055476D01*
X162472619Y-122674523D01*
X162425000Y-122579285D01*
X162377380Y-122531666D01*
X162282142Y-122484047D01*
X162139285Y-122484047D01*
X162044047Y-122531666D01*
X161996428Y-122579285D01*
X161948809Y-122674523D01*
X161948809Y-123055476D01*
X161948809Y-121865000D02*
X161472619Y-121865000D01*
X162472619Y-122198333D02*
X161948809Y-121865000D01*
X162472619Y-121531666D01*
D12*
X182638095Y-124883333D02*
X182698571Y-124883333D01*
X182819523Y-124822857D01*
X182880000Y-124701904D01*
X182880000Y-124097142D01*
X182940476Y-123976190D01*
X183061428Y-123915714D01*
X182940476Y-123855238D01*
X182880000Y-123734285D01*
X182880000Y-123129523D01*
X182819523Y-123008571D01*
X182698571Y-122948095D01*
X182638095Y-122948095D01*
X182638095Y-127423333D02*
X182698571Y-127423333D01*
X182819523Y-127362857D01*
X182880000Y-127241904D01*
X182880000Y-126637142D01*
X182940476Y-126516190D01*
X183061428Y-126455714D01*
X182940476Y-126395238D01*
X182880000Y-126274285D01*
X182880000Y-125669523D01*
X182819523Y-125548571D01*
X182698571Y-125488095D01*
X182638095Y-125488095D01*
X182638095Y-127423333D02*
X182698571Y-127423333D01*
X182819523Y-127362857D01*
X182880000Y-127241904D01*
X182880000Y-126637142D01*
X182940476Y-126516190D01*
X183061428Y-126455714D01*
X182940476Y-126395238D01*
X182880000Y-126274285D01*
X182880000Y-125669523D01*
X182819523Y-125548571D01*
X182698571Y-125488095D01*
X182638095Y-125488095D01*
X182638095Y-129963333D02*
X182698571Y-129963333D01*
X182819523Y-129902857D01*
X182880000Y-129781904D01*
X182880000Y-129177142D01*
X182940476Y-129056190D01*
X183061428Y-128995714D01*
X182940476Y-128935238D01*
X182880000Y-128814285D01*
X182880000Y-128209523D01*
X182819523Y-128088571D01*
X182698571Y-128028095D01*
X182638095Y-128028095D01*
X168516904Y-100753333D02*
X168456428Y-100753333D01*
X168335476Y-100692857D01*
X168275000Y-100571904D01*
X168275000Y-99967142D01*
X168214523Y-99846190D01*
X168093571Y-99785714D01*
X168214523Y-99725238D01*
X168275000Y-99604285D01*
X168275000Y-98999523D01*
X168335476Y-98878571D01*
X168456428Y-98818095D01*
X168516904Y-98818095D01*
D10*
X161472619Y-108481190D02*
X162472619Y-108481190D01*
X161996428Y-108481190D02*
X161996428Y-107909761D01*
X161472619Y-107909761D02*
X162472619Y-107909761D01*
X161472619Y-107433571D02*
X162472619Y-107433571D01*
X162425000Y-106433571D02*
X162472619Y-106528809D01*
X162472619Y-106671666D01*
X162425000Y-106814523D01*
X162329761Y-106909761D01*
X162234523Y-106957380D01*
X162044047Y-107005000D01*
X161901190Y-107005000D01*
X161710714Y-106957380D01*
X161615476Y-106909761D01*
X161520238Y-106814523D01*
X161472619Y-106671666D01*
X161472619Y-106576428D01*
X161520238Y-106433571D01*
X161567857Y-106385952D01*
X161901190Y-106385952D01*
X161901190Y-106576428D01*
X161472619Y-105957380D02*
X162472619Y-105957380D01*
X161996428Y-105957380D02*
X161996428Y-105385952D01*
X161472619Y-105385952D02*
X162472619Y-105385952D01*
X161472619Y-104147857D02*
X162472619Y-104147857D01*
X161758333Y-103814523D01*
X162472619Y-103481190D01*
X161472619Y-103481190D01*
X161996428Y-103005000D02*
X161996428Y-102671666D01*
X161472619Y-102528809D02*
X161472619Y-103005000D01*
X162472619Y-103005000D01*
X162472619Y-102528809D01*
X161472619Y-102100238D02*
X162472619Y-102100238D01*
X161758333Y-101766904D01*
X162472619Y-101433571D01*
X161472619Y-101433571D01*
X162472619Y-100766904D02*
X162472619Y-100576428D01*
X162425000Y-100481190D01*
X162329761Y-100385952D01*
X162139285Y-100338333D01*
X161805952Y-100338333D01*
X161615476Y-100385952D01*
X161520238Y-100481190D01*
X161472619Y-100576428D01*
X161472619Y-100766904D01*
X161520238Y-100862142D01*
X161615476Y-100957380D01*
X161805952Y-101005000D01*
X162139285Y-101005000D01*
X162329761Y-100957380D01*
X162425000Y-100862142D01*
X162472619Y-100766904D01*
X161472619Y-99338333D02*
X161948809Y-99671666D01*
X161472619Y-99909761D02*
X162472619Y-99909761D01*
X162472619Y-99528809D01*
X162425000Y-99433571D01*
X162377380Y-99385952D01*
X162282142Y-99338333D01*
X162139285Y-99338333D01*
X162044047Y-99385952D01*
X161996428Y-99433571D01*
X161948809Y-99528809D01*
X161948809Y-99909761D01*
X161948809Y-98719285D02*
X161472619Y-98719285D01*
X162472619Y-99052619D02*
X161948809Y-98719285D01*
X162472619Y-98385952D01*
D12*
X168516904Y-103293333D02*
X168456428Y-103293333D01*
X168335476Y-103232857D01*
X168275000Y-103111904D01*
X168275000Y-102507142D01*
X168214523Y-102386190D01*
X168093571Y-102325714D01*
X168214523Y-102265238D01*
X168275000Y-102144285D01*
X168275000Y-101539523D01*
X168335476Y-101418571D01*
X168456428Y-101358095D01*
X168516904Y-101358095D01*
X168516904Y-108373333D02*
X168456428Y-108373333D01*
X168335476Y-108312857D01*
X168275000Y-108191904D01*
X168275000Y-107587142D01*
X168214523Y-107466190D01*
X168093571Y-107405714D01*
X168214523Y-107345238D01*
X168275000Y-107224285D01*
X168275000Y-106619523D01*
X168335476Y-106498571D01*
X168456428Y-106438095D01*
X168516904Y-106438095D01*
X168467738Y-105833333D02*
X168407261Y-105833333D01*
X168286309Y-105772857D01*
X168225833Y-105651904D01*
X168225833Y-105047142D01*
X168165357Y-104926190D01*
X168044404Y-104865714D01*
X168165357Y-104805238D01*
X168225833Y-104684285D01*
X168225833Y-104079523D01*
X168286309Y-103958571D01*
X168407261Y-103898095D01*
X168467738Y-103898095D01*
X182396190Y-103039333D02*
X182517142Y-103039333D01*
X182759047Y-102906285D01*
X182880000Y-102640190D01*
X182880000Y-101309714D01*
X183000952Y-101043619D01*
X183242857Y-100910571D01*
X183000952Y-100777523D01*
X182880000Y-100511428D01*
X182880000Y-99180952D01*
X182759047Y-98914857D01*
X182517142Y-98781809D01*
X182396190Y-98781809D01*
X182396190Y-108119333D02*
X182517142Y-108119333D01*
X182759047Y-107986285D01*
X182880000Y-107720190D01*
X182880000Y-106389714D01*
X183000952Y-106123619D01*
X183242857Y-105990571D01*
X183000952Y-105857523D01*
X182880000Y-105591428D01*
X182880000Y-104260952D01*
X182759047Y-103994857D01*
X182517142Y-103861809D01*
X182396190Y-103861809D01*
D10*
X167399642Y-104227380D02*
X167161547Y-105227380D01*
X166971071Y-104513095D01*
X166780595Y-105227380D01*
X166542500Y-104227380D01*
X166161547Y-105227380D02*
X166161547Y-104227380D01*
X165780595Y-104227380D01*
X165685357Y-104275000D01*
X165637738Y-104322619D01*
X165590119Y-104417857D01*
X165590119Y-104560714D01*
X165637738Y-104655952D01*
X165685357Y-104703571D01*
X165780595Y-104751190D01*
X166161547Y-104751190D01*
X167399642Y-106767380D02*
X167161547Y-107767380D01*
X166971071Y-107053095D01*
X166780595Y-107767380D01*
X166542500Y-106767380D01*
X166161547Y-107243571D02*
X165828214Y-107243571D01*
X165685357Y-107767380D02*
X166161547Y-107767380D01*
X166161547Y-106767380D01*
X165685357Y-106767380D01*
D11*
X172085000Y-104140000D02*
X172085000Y-105410000D01*
X171704000Y-104775000D02*
G75*
G03*
X171704000Y-104775000I-254000J0D01*
G01*
X170434000Y-104775000D02*
G75*
G03*
X170434000Y-104775000I-254000J0D01*
G01*
X172974000Y-104775000D02*
G75*
G03*
X172974000Y-104775000I-254000J0D01*
G01*
X172085000Y-105410000D02*
X169545000Y-105410000D01*
X169545000Y-104140000D02*
X172085000Y-104140000D01*
X169545000Y-105410000D02*
X169545000Y-104140000D01*
X179324000Y-104775000D02*
G75*
G03*
X179324000Y-104775000I-254000J0D01*
G01*
X174625000Y-105410000D02*
X177165000Y-105410000D01*
X177165000Y-104140000D02*
X174625000Y-104140000D01*
X178435000Y-104140000D02*
X178435000Y-105410000D01*
X180594000Y-104775000D02*
G75*
G03*
X180594000Y-104775000I-254000J0D01*
G01*
X178435000Y-105410000D02*
X180975000Y-105410000D01*
X174625000Y-104140000D02*
X174625000Y-105410000D01*
X177165000Y-105410000D02*
X177165000Y-104140000D01*
X174244000Y-104775000D02*
G75*
G03*
X174244000Y-104775000I-254000J0D01*
G01*
X175514000Y-104775000D02*
G75*
G03*
X175514000Y-104775000I-254000J0D01*
G01*
X180975000Y-104140000D02*
X178435000Y-104140000D01*
X180975000Y-105410000D02*
X180975000Y-104140000D01*
X178054000Y-104775000D02*
G75*
G03*
X178054000Y-104775000I-254000J0D01*
G01*
X176784000Y-104775000D02*
G75*
G03*
X176784000Y-104775000I-254000J0D01*
G01*
D10*
X167399642Y-101687380D02*
X167161547Y-102687380D01*
X166971071Y-101973095D01*
X166780595Y-102687380D01*
X166542500Y-101687380D01*
X166161547Y-102163571D02*
X165828214Y-102163571D01*
X165685357Y-102687380D02*
X166161547Y-102687380D01*
X166161547Y-101687380D01*
X165685357Y-101687380D01*
X167399642Y-99147380D02*
X167161547Y-100147380D01*
X166971071Y-99433095D01*
X166780595Y-100147380D01*
X166542500Y-99147380D01*
X166161547Y-100147380D02*
X166161547Y-99147380D01*
X165780595Y-99147380D01*
X165685357Y-99195000D01*
X165637738Y-99242619D01*
X165590119Y-99337857D01*
X165590119Y-99480714D01*
X165637738Y-99575952D01*
X165685357Y-99623571D01*
X165780595Y-99671190D01*
X166161547Y-99671190D01*
D11*
X175514000Y-99695000D02*
G75*
G03*
X175514000Y-99695000I-254000J0D01*
G01*
D10*
X188231547Y-99687619D02*
X188183928Y-99640000D01*
X188088690Y-99592380D01*
X187850595Y-99592380D01*
X187755357Y-99640000D01*
X187707738Y-99687619D01*
X187660119Y-99782857D01*
X187660119Y-99878095D01*
X187707738Y-100020952D01*
X188279166Y-100592380D01*
X187660119Y-100592380D01*
X187088690Y-100020952D02*
X187183928Y-99973333D01*
X187231547Y-99925714D01*
X187279166Y-99830476D01*
X187279166Y-99782857D01*
X187231547Y-99687619D01*
X187183928Y-99640000D01*
X187088690Y-99592380D01*
X186898214Y-99592380D01*
X186802976Y-99640000D01*
X186755357Y-99687619D01*
X186707738Y-99782857D01*
X186707738Y-99830476D01*
X186755357Y-99925714D01*
X186802976Y-99973333D01*
X186898214Y-100020952D01*
X187088690Y-100020952D01*
X187183928Y-100068571D01*
X187231547Y-100116190D01*
X187279166Y-100211428D01*
X187279166Y-100401904D01*
X187231547Y-100497142D01*
X187183928Y-100544761D01*
X187088690Y-100592380D01*
X186898214Y-100592380D01*
X186802976Y-100544761D01*
X186755357Y-100497142D01*
X186707738Y-100401904D01*
X186707738Y-100211428D01*
X186755357Y-100116190D01*
X186802976Y-100068571D01*
X186898214Y-100020952D01*
X185707738Y-100497142D02*
X185755357Y-100544761D01*
X185898214Y-100592380D01*
X185993452Y-100592380D01*
X186136309Y-100544761D01*
X186231547Y-100449523D01*
X186279166Y-100354285D01*
X186326785Y-100163809D01*
X186326785Y-100020952D01*
X186279166Y-99830476D01*
X186231547Y-99735238D01*
X186136309Y-99640000D01*
X185993452Y-99592380D01*
X185898214Y-99592380D01*
X185755357Y-99640000D01*
X185707738Y-99687619D01*
X184850595Y-99592380D02*
X185041071Y-99592380D01*
X185136309Y-99640000D01*
X185183928Y-99687619D01*
X185279166Y-99830476D01*
X185326785Y-100020952D01*
X185326785Y-100401904D01*
X185279166Y-100497142D01*
X185231547Y-100544761D01*
X185136309Y-100592380D01*
X184945833Y-100592380D01*
X184850595Y-100544761D01*
X184802976Y-100497142D01*
X184755357Y-100401904D01*
X184755357Y-100163809D01*
X184802976Y-100068571D01*
X184850595Y-100020952D01*
X184945833Y-99973333D01*
X185136309Y-99973333D01*
X185231547Y-100020952D01*
X185279166Y-100068571D01*
X185326785Y-100163809D01*
X183898214Y-99925714D02*
X183898214Y-100592380D01*
X184136309Y-99544761D02*
X184374404Y-100259047D01*
X183755357Y-100259047D01*
X187755357Y-101242380D02*
X187945833Y-101242380D01*
X188041071Y-101290000D01*
X188088690Y-101337619D01*
X188183928Y-101480476D01*
X188231547Y-101670952D01*
X188231547Y-102051904D01*
X188183928Y-102147142D01*
X188136309Y-102194761D01*
X188041071Y-102242380D01*
X187850595Y-102242380D01*
X187755357Y-102194761D01*
X187707738Y-102147142D01*
X187660119Y-102051904D01*
X187660119Y-101813809D01*
X187707738Y-101718571D01*
X187755357Y-101670952D01*
X187850595Y-101623333D01*
X188041071Y-101623333D01*
X188136309Y-101670952D01*
X188183928Y-101718571D01*
X188231547Y-101813809D01*
X187279166Y-101337619D02*
X187231547Y-101290000D01*
X187136309Y-101242380D01*
X186898214Y-101242380D01*
X186802976Y-101290000D01*
X186755357Y-101337619D01*
X186707738Y-101432857D01*
X186707738Y-101528095D01*
X186755357Y-101670952D01*
X187326785Y-102242380D01*
X186707738Y-102242380D01*
X185707738Y-102147142D02*
X185755357Y-102194761D01*
X185898214Y-102242380D01*
X185993452Y-102242380D01*
X186136309Y-102194761D01*
X186231547Y-102099523D01*
X186279166Y-102004285D01*
X186326785Y-101813809D01*
X186326785Y-101670952D01*
X186279166Y-101480476D01*
X186231547Y-101385238D01*
X186136309Y-101290000D01*
X185993452Y-101242380D01*
X185898214Y-101242380D01*
X185755357Y-101290000D01*
X185707738Y-101337619D01*
X184850595Y-101242380D02*
X185041071Y-101242380D01*
X185136309Y-101290000D01*
X185183928Y-101337619D01*
X185279166Y-101480476D01*
X185326785Y-101670952D01*
X185326785Y-102051904D01*
X185279166Y-102147142D01*
X185231547Y-102194761D01*
X185136309Y-102242380D01*
X184945833Y-102242380D01*
X184850595Y-102194761D01*
X184802976Y-102147142D01*
X184755357Y-102051904D01*
X184755357Y-101813809D01*
X184802976Y-101718571D01*
X184850595Y-101670952D01*
X184945833Y-101623333D01*
X185136309Y-101623333D01*
X185231547Y-101670952D01*
X185279166Y-101718571D01*
X185326785Y-101813809D01*
X183898214Y-101575714D02*
X183898214Y-102242380D01*
X184136309Y-101194761D02*
X184374404Y-101909047D01*
X183755357Y-101909047D01*
D11*
X171704000Y-99695000D02*
G75*
G03*
X171704000Y-99695000I-254000J0D01*
G01*
X179705000Y-100330000D02*
X179705000Y-99060000D01*
X170434000Y-99695000D02*
G75*
G03*
X170434000Y-99695000I-254000J0D01*
G01*
X172974000Y-99695000D02*
G75*
G03*
X172974000Y-99695000I-254000J0D01*
G01*
X172085000Y-99060000D02*
X172085000Y-100330000D01*
X174244000Y-99695000D02*
G75*
G03*
X174244000Y-99695000I-254000J0D01*
G01*
X177165000Y-99060000D02*
X177165000Y-100330000D01*
X179324000Y-99695000D02*
G75*
G03*
X179324000Y-99695000I-254000J0D01*
G01*
X172085000Y-100330000D02*
X169545000Y-100330000D01*
X179705000Y-99060000D02*
X177165000Y-99060000D01*
X176784000Y-99695000D02*
G75*
G03*
X176784000Y-99695000I-254000J0D01*
G01*
X169545000Y-99060000D02*
X172085000Y-99060000D01*
X169545000Y-100330000D02*
X169545000Y-99060000D01*
X177165000Y-100330000D02*
X179705000Y-100330000D01*
X178054000Y-99695000D02*
G75*
G03*
X178054000Y-99695000I-254000J0D01*
G01*
X180594000Y-99695000D02*
G75*
G03*
X180594000Y-99695000I-254000J0D01*
G01*
X175514000Y-102235000D02*
G75*
G03*
X175514000Y-102235000I-254000J0D01*
G01*
X174244000Y-102235000D02*
G75*
G03*
X174244000Y-102235000I-254000J0D01*
G01*
X170434000Y-102235000D02*
G75*
G03*
X170434000Y-102235000I-254000J0D01*
G01*
X176784000Y-102235000D02*
G75*
G03*
X176784000Y-102235000I-254000J0D01*
G01*
X174625000Y-107950000D02*
X177165000Y-107950000D01*
X177165000Y-106680000D02*
X174625000Y-106680000D01*
X178435000Y-107950000D02*
X180975000Y-107950000D01*
X171704000Y-107315000D02*
G75*
G03*
X171704000Y-107315000I-254000J0D01*
G01*
X170815000Y-107950000D02*
X173355000Y-107950000D01*
X174625000Y-106680000D02*
X174625000Y-107950000D01*
X177165000Y-107950000D02*
X177165000Y-106680000D01*
X173355000Y-106680000D02*
X170815000Y-106680000D01*
X180975000Y-106680000D02*
X178435000Y-106680000D01*
X178435000Y-106680000D02*
X178435000Y-107950000D01*
X173355000Y-107950000D02*
X173355000Y-106680000D01*
X170815000Y-106680000D02*
X170815000Y-107950000D01*
X180975000Y-107950000D02*
X180975000Y-106680000D01*
D10*
X189183928Y-104767619D02*
X189136309Y-104720000D01*
X189041071Y-104672380D01*
X188802976Y-104672380D01*
X188707738Y-104720000D01*
X188660119Y-104767619D01*
X188612500Y-104862857D01*
X188612500Y-104958095D01*
X188660119Y-105100952D01*
X189231547Y-105672380D01*
X188612500Y-105672380D01*
X188041071Y-105100952D02*
X188136309Y-105053333D01*
X188183928Y-105005714D01*
X188231547Y-104910476D01*
X188231547Y-104862857D01*
X188183928Y-104767619D01*
X188136309Y-104720000D01*
X188041071Y-104672380D01*
X187850595Y-104672380D01*
X187755357Y-104720000D01*
X187707738Y-104767619D01*
X187660119Y-104862857D01*
X187660119Y-104910476D01*
X187707738Y-105005714D01*
X187755357Y-105053333D01*
X187850595Y-105100952D01*
X188041071Y-105100952D01*
X188136309Y-105148571D01*
X188183928Y-105196190D01*
X188231547Y-105291428D01*
X188231547Y-105481904D01*
X188183928Y-105577142D01*
X188136309Y-105624761D01*
X188041071Y-105672380D01*
X187850595Y-105672380D01*
X187755357Y-105624761D01*
X187707738Y-105577142D01*
X187660119Y-105481904D01*
X187660119Y-105291428D01*
X187707738Y-105196190D01*
X187755357Y-105148571D01*
X187850595Y-105100952D01*
X186660119Y-105577142D02*
X186707738Y-105624761D01*
X186850595Y-105672380D01*
X186945833Y-105672380D01*
X187088690Y-105624761D01*
X187183928Y-105529523D01*
X187231547Y-105434285D01*
X187279166Y-105243809D01*
X187279166Y-105100952D01*
X187231547Y-104910476D01*
X187183928Y-104815238D01*
X187088690Y-104720000D01*
X186945833Y-104672380D01*
X186850595Y-104672380D01*
X186707738Y-104720000D01*
X186660119Y-104767619D01*
X186279166Y-104767619D02*
X186231547Y-104720000D01*
X186136309Y-104672380D01*
X185898214Y-104672380D01*
X185802976Y-104720000D01*
X185755357Y-104767619D01*
X185707738Y-104862857D01*
X185707738Y-104958095D01*
X185755357Y-105100952D01*
X186326785Y-105672380D01*
X185707738Y-105672380D01*
X184802976Y-104672380D02*
X185279166Y-104672380D01*
X185326785Y-105148571D01*
X185279166Y-105100952D01*
X185183928Y-105053333D01*
X184945833Y-105053333D01*
X184850595Y-105100952D01*
X184802976Y-105148571D01*
X184755357Y-105243809D01*
X184755357Y-105481904D01*
X184802976Y-105577142D01*
X184850595Y-105624761D01*
X184945833Y-105672380D01*
X185183928Y-105672380D01*
X185279166Y-105624761D01*
X185326785Y-105577142D01*
X183898214Y-104672380D02*
X184088690Y-104672380D01*
X184183928Y-104720000D01*
X184231547Y-104767619D01*
X184326785Y-104910476D01*
X184374404Y-105100952D01*
X184374404Y-105481904D01*
X184326785Y-105577142D01*
X184279166Y-105624761D01*
X184183928Y-105672380D01*
X183993452Y-105672380D01*
X183898214Y-105624761D01*
X183850595Y-105577142D01*
X183802976Y-105481904D01*
X183802976Y-105243809D01*
X183850595Y-105148571D01*
X183898214Y-105100952D01*
X183993452Y-105053333D01*
X184183928Y-105053333D01*
X184279166Y-105100952D01*
X184326785Y-105148571D01*
X184374404Y-105243809D01*
X188707738Y-106322380D02*
X188898214Y-106322380D01*
X188993452Y-106370000D01*
X189041071Y-106417619D01*
X189136309Y-106560476D01*
X189183928Y-106750952D01*
X189183928Y-107131904D01*
X189136309Y-107227142D01*
X189088690Y-107274761D01*
X188993452Y-107322380D01*
X188802976Y-107322380D01*
X188707738Y-107274761D01*
X188660119Y-107227142D01*
X188612500Y-107131904D01*
X188612500Y-106893809D01*
X188660119Y-106798571D01*
X188707738Y-106750952D01*
X188802976Y-106703333D01*
X188993452Y-106703333D01*
X189088690Y-106750952D01*
X189136309Y-106798571D01*
X189183928Y-106893809D01*
X188231547Y-106417619D02*
X188183928Y-106370000D01*
X188088690Y-106322380D01*
X187850595Y-106322380D01*
X187755357Y-106370000D01*
X187707738Y-106417619D01*
X187660119Y-106512857D01*
X187660119Y-106608095D01*
X187707738Y-106750952D01*
X188279166Y-107322380D01*
X187660119Y-107322380D01*
X186660119Y-107227142D02*
X186707738Y-107274761D01*
X186850595Y-107322380D01*
X186945833Y-107322380D01*
X187088690Y-107274761D01*
X187183928Y-107179523D01*
X187231547Y-107084285D01*
X187279166Y-106893809D01*
X187279166Y-106750952D01*
X187231547Y-106560476D01*
X187183928Y-106465238D01*
X187088690Y-106370000D01*
X186945833Y-106322380D01*
X186850595Y-106322380D01*
X186707738Y-106370000D01*
X186660119Y-106417619D01*
X186279166Y-106417619D02*
X186231547Y-106370000D01*
X186136309Y-106322380D01*
X185898214Y-106322380D01*
X185802976Y-106370000D01*
X185755357Y-106417619D01*
X185707738Y-106512857D01*
X185707738Y-106608095D01*
X185755357Y-106750952D01*
X186326785Y-107322380D01*
X185707738Y-107322380D01*
X184802976Y-106322380D02*
X185279166Y-106322380D01*
X185326785Y-106798571D01*
X185279166Y-106750952D01*
X185183928Y-106703333D01*
X184945833Y-106703333D01*
X184850595Y-106750952D01*
X184802976Y-106798571D01*
X184755357Y-106893809D01*
X184755357Y-107131904D01*
X184802976Y-107227142D01*
X184850595Y-107274761D01*
X184945833Y-107322380D01*
X185183928Y-107322380D01*
X185279166Y-107274761D01*
X185326785Y-107227142D01*
X183898214Y-106322380D02*
X184088690Y-106322380D01*
X184183928Y-106370000D01*
X184231547Y-106417619D01*
X184326785Y-106560476D01*
X184374404Y-106750952D01*
X184374404Y-107131904D01*
X184326785Y-107227142D01*
X184279166Y-107274761D01*
X184183928Y-107322380D01*
X183993452Y-107322380D01*
X183898214Y-107274761D01*
X183850595Y-107227142D01*
X183802976Y-107131904D01*
X183802976Y-106893809D01*
X183850595Y-106798571D01*
X183898214Y-106750952D01*
X183993452Y-106703333D01*
X184183928Y-106703333D01*
X184279166Y-106750952D01*
X184326785Y-106798571D01*
X184374404Y-106893809D01*
D11*
X179324000Y-102235000D02*
G75*
G03*
X179324000Y-102235000I-254000J0D01*
G01*
X170815000Y-102870000D02*
X170815000Y-101600000D01*
X177165000Y-101600000D02*
X177165000Y-102870000D01*
X172974000Y-107315000D02*
G75*
G03*
X172974000Y-107315000I-254000J0D01*
G01*
X175514000Y-107315000D02*
G75*
G03*
X175514000Y-107315000I-254000J0D01*
G01*
X176784000Y-107315000D02*
G75*
G03*
X176784000Y-107315000I-254000J0D01*
G01*
X177165000Y-102870000D02*
X179705000Y-102870000D01*
X179705000Y-102870000D02*
X179705000Y-101600000D01*
X179324000Y-107315000D02*
G75*
G03*
X179324000Y-107315000I-254000J0D01*
G01*
X173355000Y-102870000D02*
X170815000Y-102870000D01*
X180594000Y-107315000D02*
G75*
G03*
X180594000Y-107315000I-254000J0D01*
G01*
X173355000Y-101600000D02*
X173355000Y-102870000D01*
X170815000Y-101600000D02*
X173355000Y-101600000D01*
X179705000Y-101600000D02*
X177165000Y-101600000D01*
X172974000Y-102235000D02*
G75*
G03*
X172974000Y-102235000I-254000J0D01*
G01*
X171704000Y-102235000D02*
G75*
G03*
X171704000Y-102235000I-254000J0D01*
G01*
X178054000Y-102235000D02*
G75*
G03*
X178054000Y-102235000I-254000J0D01*
G01*
X174244000Y-107315000D02*
G75*
G03*
X174244000Y-107315000I-254000J0D01*
G01*
X170434000Y-107315000D02*
G75*
G03*
X170434000Y-107315000I-254000J0D01*
G01*
X178054000Y-107315000D02*
G75*
G03*
X178054000Y-107315000I-254000J0D01*
G01*
X180594000Y-102235000D02*
G75*
G03*
X180594000Y-102235000I-254000J0D01*
G01*
X175895000Y-129540000D02*
X175895000Y-128270000D01*
X178435000Y-129540000D02*
X178435000Y-128270000D01*
X173355000Y-129540000D02*
X180975000Y-129540000D01*
X173355000Y-128270000D02*
X173355000Y-129540000D01*
X180975000Y-128270000D02*
X173355000Y-128270000D01*
X180975000Y-129540000D02*
X180975000Y-128270000D01*
X169545000Y-125730000D02*
X169545000Y-127000000D01*
X172085000Y-125730000D02*
X169545000Y-125730000D01*
X172085000Y-127000000D02*
X172085000Y-125730000D01*
X169545000Y-127000000D02*
X172085000Y-127000000D01*
X178435000Y-125730000D02*
X178435000Y-127000000D01*
X175895000Y-125730000D02*
X180975000Y-125730000D01*
X175895000Y-127000000D02*
X175895000Y-125730000D01*
X180975000Y-127000000D02*
X175895000Y-127000000D01*
X180975000Y-125730000D02*
X180975000Y-127000000D01*
X169545000Y-124460000D02*
X172085000Y-124460000D01*
X169545000Y-123190000D02*
X169545000Y-124460000D01*
X172085000Y-123190000D02*
X169545000Y-123190000D01*
X172085000Y-124460000D02*
X172085000Y-123190000D01*
X175895000Y-124460000D02*
X178435000Y-124460000D01*
X175895000Y-123190000D02*
X175895000Y-124460000D01*
X178435000Y-123190000D02*
X175895000Y-123190000D01*
X178435000Y-124460000D02*
X178435000Y-123190000D01*
X174244000Y-128905000D02*
G75*
G03*
X174244000Y-128905000I-254000J0D01*
G01*
X175514000Y-128905000D02*
G75*
G03*
X175514000Y-128905000I-254000J0D01*
G01*
X176784000Y-128905000D02*
G75*
G03*
X176784000Y-128905000I-254000J0D01*
G01*
X178054000Y-128905000D02*
G75*
G03*
X178054000Y-128905000I-254000J0D01*
G01*
X179324000Y-128905000D02*
G75*
G03*
X179324000Y-128905000I-254000J0D01*
G01*
X180594000Y-128905000D02*
G75*
G03*
X180594000Y-128905000I-254000J0D01*
G01*
X170434000Y-126365000D02*
G75*
G03*
X170434000Y-126365000I-254000J0D01*
G01*
X171704000Y-126365000D02*
G75*
G03*
X171704000Y-126365000I-254000J0D01*
G01*
X178054000Y-126365000D02*
G75*
G03*
X178054000Y-126365000I-254000J0D01*
G01*
X176784000Y-126365000D02*
G75*
G03*
X176784000Y-126365000I-254000J0D01*
G01*
X179324000Y-126365000D02*
G75*
G03*
X179324000Y-126365000I-254000J0D01*
G01*
X180594000Y-126365000D02*
G75*
G03*
X180594000Y-126365000I-254000J0D01*
G01*
X170434000Y-123825000D02*
G75*
G03*
X170434000Y-123825000I-254000J0D01*
G01*
X171704000Y-123825000D02*
G75*
G03*
X171704000Y-123825000I-254000J0D01*
G01*
X176784000Y-123825000D02*
G75*
G03*
X176784000Y-123825000I-254000J0D01*
G01*
X178054000Y-123825000D02*
G75*
G03*
X178054000Y-123825000I-254000J0D01*
G01*
X172974000Y-128905000D02*
G75*
G03*
X172974000Y-128905000I-254000J0D01*
G01*
X170434000Y-128905000D02*
G75*
G03*
X170434000Y-128905000I-254000J0D01*
G01*
X171704000Y-128905000D02*
G75*
G03*
X171704000Y-128905000I-254000J0D01*
G01*
D10*
X189183928Y-128452619D02*
X189136309Y-128405000D01*
X189041071Y-128357380D01*
X188802976Y-128357380D01*
X188707738Y-128405000D01*
X188660119Y-128452619D01*
X188612500Y-128547857D01*
X188612500Y-128643095D01*
X188660119Y-128785952D01*
X189231547Y-129357380D01*
X188612500Y-129357380D01*
X188279166Y-128357380D02*
X187612500Y-128357380D01*
X188041071Y-129357380D01*
X186660119Y-129262142D02*
X186707738Y-129309761D01*
X186850595Y-129357380D01*
X186945833Y-129357380D01*
X187088690Y-129309761D01*
X187183928Y-129214523D01*
X187231547Y-129119285D01*
X187279166Y-128928809D01*
X187279166Y-128785952D01*
X187231547Y-128595476D01*
X187183928Y-128500238D01*
X187088690Y-128405000D01*
X186945833Y-128357380D01*
X186850595Y-128357380D01*
X186707738Y-128405000D01*
X186660119Y-128452619D01*
X186279166Y-128452619D02*
X186231547Y-128405000D01*
X186136309Y-128357380D01*
X185898214Y-128357380D01*
X185802976Y-128405000D01*
X185755357Y-128452619D01*
X185707738Y-128547857D01*
X185707738Y-128643095D01*
X185755357Y-128785952D01*
X186326785Y-129357380D01*
X185707738Y-129357380D01*
X184802976Y-128357380D02*
X185279166Y-128357380D01*
X185326785Y-128833571D01*
X185279166Y-128785952D01*
X185183928Y-128738333D01*
X184945833Y-128738333D01*
X184850595Y-128785952D01*
X184802976Y-128833571D01*
X184755357Y-128928809D01*
X184755357Y-129166904D01*
X184802976Y-129262142D01*
X184850595Y-129309761D01*
X184945833Y-129357380D01*
X185183928Y-129357380D01*
X185279166Y-129309761D01*
X185326785Y-129262142D01*
X183898214Y-128357380D02*
X184088690Y-128357380D01*
X184183928Y-128405000D01*
X184231547Y-128452619D01*
X184326785Y-128595476D01*
X184374404Y-128785952D01*
X184374404Y-129166904D01*
X184326785Y-129262142D01*
X184279166Y-129309761D01*
X184183928Y-129357380D01*
X183993452Y-129357380D01*
X183898214Y-129309761D01*
X183850595Y-129262142D01*
X183802976Y-129166904D01*
X183802976Y-128928809D01*
X183850595Y-128833571D01*
X183898214Y-128785952D01*
X183993452Y-128738333D01*
X184183928Y-128738333D01*
X184279166Y-128785952D01*
X184326785Y-128833571D01*
X184374404Y-128928809D01*
X189183928Y-125912619D02*
X189136309Y-125865000D01*
X189041071Y-125817380D01*
X188802976Y-125817380D01*
X188707738Y-125865000D01*
X188660119Y-125912619D01*
X188612500Y-126007857D01*
X188612500Y-126103095D01*
X188660119Y-126245952D01*
X189231547Y-126817380D01*
X188612500Y-126817380D01*
X188279166Y-125817380D02*
X187612500Y-125817380D01*
X188041071Y-126817380D01*
X186660119Y-126722142D02*
X186707738Y-126769761D01*
X186850595Y-126817380D01*
X186945833Y-126817380D01*
X187088690Y-126769761D01*
X187183928Y-126674523D01*
X187231547Y-126579285D01*
X187279166Y-126388809D01*
X187279166Y-126245952D01*
X187231547Y-126055476D01*
X187183928Y-125960238D01*
X187088690Y-125865000D01*
X186945833Y-125817380D01*
X186850595Y-125817380D01*
X186707738Y-125865000D01*
X186660119Y-125912619D01*
X185707738Y-126817380D02*
X186279166Y-126817380D01*
X185993452Y-126817380D02*
X185993452Y-125817380D01*
X186088690Y-125960238D01*
X186183928Y-126055476D01*
X186279166Y-126103095D01*
X185326785Y-125912619D02*
X185279166Y-125865000D01*
X185183928Y-125817380D01*
X184945833Y-125817380D01*
X184850595Y-125865000D01*
X184802976Y-125912619D01*
X184755357Y-126007857D01*
X184755357Y-126103095D01*
X184802976Y-126245952D01*
X185374404Y-126817380D01*
X184755357Y-126817380D01*
X184183928Y-126245952D02*
X184279166Y-126198333D01*
X184326785Y-126150714D01*
X184374404Y-126055476D01*
X184374404Y-126007857D01*
X184326785Y-125912619D01*
X184279166Y-125865000D01*
X184183928Y-125817380D01*
X183993452Y-125817380D01*
X183898214Y-125865000D01*
X183850595Y-125912619D01*
X183802976Y-126007857D01*
X183802976Y-126055476D01*
X183850595Y-126150714D01*
X183898214Y-126198333D01*
X183993452Y-126245952D01*
X184183928Y-126245952D01*
X184279166Y-126293571D01*
X184326785Y-126341190D01*
X184374404Y-126436428D01*
X184374404Y-126626904D01*
X184326785Y-126722142D01*
X184279166Y-126769761D01*
X184183928Y-126817380D01*
X183993452Y-126817380D01*
X183898214Y-126769761D01*
X183850595Y-126722142D01*
X183802976Y-126626904D01*
X183802976Y-126436428D01*
X183850595Y-126341190D01*
X183898214Y-126293571D01*
X183993452Y-126245952D01*
D11*
X172974000Y-126365000D02*
G75*
G03*
X172974000Y-126365000I-254000J0D01*
G01*
X174244000Y-126365000D02*
G75*
G03*
X174244000Y-126365000I-254000J0D01*
G01*
X175514000Y-126365000D02*
G75*
G03*
X175514000Y-126365000I-254000J0D01*
G01*
D10*
X188231547Y-123372619D02*
X188183928Y-123325000D01*
X188088690Y-123277380D01*
X187850595Y-123277380D01*
X187755357Y-123325000D01*
X187707738Y-123372619D01*
X187660119Y-123467857D01*
X187660119Y-123563095D01*
X187707738Y-123705952D01*
X188279166Y-124277380D01*
X187660119Y-124277380D01*
X187326785Y-123277380D02*
X186660119Y-123277380D01*
X187088690Y-124277380D01*
X185707738Y-124182142D02*
X185755357Y-124229761D01*
X185898214Y-124277380D01*
X185993452Y-124277380D01*
X186136309Y-124229761D01*
X186231547Y-124134523D01*
X186279166Y-124039285D01*
X186326785Y-123848809D01*
X186326785Y-123705952D01*
X186279166Y-123515476D01*
X186231547Y-123420238D01*
X186136309Y-123325000D01*
X185993452Y-123277380D01*
X185898214Y-123277380D01*
X185755357Y-123325000D01*
X185707738Y-123372619D01*
X184850595Y-123277380D02*
X185041071Y-123277380D01*
X185136309Y-123325000D01*
X185183928Y-123372619D01*
X185279166Y-123515476D01*
X185326785Y-123705952D01*
X185326785Y-124086904D01*
X185279166Y-124182142D01*
X185231547Y-124229761D01*
X185136309Y-124277380D01*
X184945833Y-124277380D01*
X184850595Y-124229761D01*
X184802976Y-124182142D01*
X184755357Y-124086904D01*
X184755357Y-123848809D01*
X184802976Y-123753571D01*
X184850595Y-123705952D01*
X184945833Y-123658333D01*
X185136309Y-123658333D01*
X185231547Y-123705952D01*
X185279166Y-123753571D01*
X185326785Y-123848809D01*
X183898214Y-123610714D02*
X183898214Y-124277380D01*
X184136309Y-123229761D02*
X184374404Y-123944047D01*
X183755357Y-123944047D01*
D11*
X175514000Y-123825000D02*
G75*
G03*
X175514000Y-123825000I-254000J0D01*
G01*
X174244000Y-123825000D02*
G75*
G03*
X174244000Y-123825000I-254000J0D01*
G01*
X172974000Y-123825000D02*
G75*
G03*
X172974000Y-123825000I-254000J0D01*
G01*
X180594000Y-123825000D02*
G75*
G03*
X180594000Y-123825000I-254000J0D01*
G01*
X179324000Y-123825000D02*
G75*
G03*
X179324000Y-123825000I-254000J0D01*
G01*
X108204000Y-69850000D02*
X99949000Y-69850000D01*
X194945000Y-117475000D02*
X159385000Y-117475000D01*
X194945000Y-135255000D02*
X194945000Y-117475000D01*
X159385000Y-135255000D02*
X194945000Y-135255000D01*
X194945000Y-112395000D02*
X194945000Y-94615000D01*
X159385000Y-112395000D02*
X194945000Y-112395000D01*
X119380000Y-133223000D02*
X119380000Y-133477000D01*
X159385000Y-89535000D02*
X159385000Y-79375000D01*
X184785000Y-89535000D02*
X159385000Y-89535000D01*
X184785000Y-79375000D02*
X184785000Y-89535000D01*
X159385000Y-79375000D02*
X184785000Y-79375000D01*
X126365000Y-120015000D02*
X106045000Y-120015000D01*
X126365000Y-109855000D02*
X126365000Y-120015000D01*
X106045000Y-109855000D02*
X126365000Y-109855000D01*
X106045000Y-120015000D02*
X106045000Y-109855000D01*
X159385000Y-93345000D02*
X182245000Y-93345000D01*
X133985000Y-109855000D02*
X151765000Y-109855000D01*
X159385000Y-116205000D02*
X182245000Y-116205000D01*
X159385000Y-94615000D02*
X194945000Y-94615000D01*
X159385000Y-113665000D02*
X182245000Y-113665000D01*
X159385000Y-94615000D02*
X159385000Y-112395000D01*
X182245000Y-90805000D02*
X159385000Y-90805000D01*
X182245000Y-93345000D02*
X182245000Y-90805000D01*
X159385000Y-117475000D02*
X159385000Y-135255000D01*
X182245000Y-116205000D02*
X182245000Y-113665000D01*
M02*
